  0
SECTION
  2
HEADER
  9
$ACADVER
  1
AC1024
  9
$ACADMAINTVER
 70
6
  9
$DWGCODEPAGE
  3
ANSI_1252
  9
$LASTSAVEDBY
  1
ezdxf
  9
$INSBASE
 10
0.0
 20
0.0
 30
0.0
  9
$EXTMIN
 10
1e+20
 20
1e+20
 30
1e+20
  9
$EXTMAX
 10
-1e+20
 20
-1e+20
 30
-1e+20
  9
$LIMMIN
 10
0.0
 20
0.0
  9
$LIMMAX
 10
420.0
 20
297.0
  9
$ORTHOMODE
 70
0
  9
$REGENMODE
 70
1
  9
$FILLMODE
 70
1
  9
$QTEXTMODE
 70
0
  9
$MIRRTEXT
 70
1
  9
$LTSCALE
 40
1.0
  9
$ATTMODE
 70
1
  9
$TEXTSIZE
 40
2.5
  9
$TRACEWID
 40
1.0
  9
$TEXTSTYLE
  7
Standard
  9
$CLAYER
  8
0
  9
$CELTYPE
  6
ByLayer
  9
$CECOLOR
 62
256
  9
$CELTSCALE
 40
1.0
  9
$DISPSILH
 70
0
  9
$DIMSCALE
 40
1.0
  9
$DIMASZ
 40
2.5
  9
$DIMEXO
 40
0.625
  9
$DIMDLI
 40
3.75
  9
$DIMRND
 40
0.0
  9
$DIMDLE
 40
0.0
  9
$DIMEXE
 40
1.25
  9
$DIMTP
 40
0.0
  9
$DIMTM
 40
0.0
  9
$DIMTXT
 40
2.5
  9
$DIMCEN
 40
2.5
  9
$DIMTSZ
 40
0.0
  9
$DIMTOL
 70
0
  9
$DIMLIM
 70
0
  9
$DIMTIH
 70
0
  9
$DIMTOH
 70
0
  9
$DIMSE1
 70
0
  9
$DIMSE2
 70
0
  9
$DIMTAD
 70
1
  9
$DIMZIN
 70
8
  9
$DIMBLK
  1

  9
$DIMASO
 70
1
  9
$DIMSHO
 70
1
  9
$DIMPOST
  1

  9
$DIMAPOST
  1

  9
$DIMALT
 70
0
  9
$DIMALTD
 70
3
  9
$DIMALTF
 40
0.03937007874
  9
$DIMLFAC
 40
1.0
  9
$DIMTOFL
 70
1
  9
$DIMTVP
 40
0.0
  9
$DIMTIX
 70
0
  9
$DIMSOXD
 70
0
  9
$DIMSAH
 70
0
  9
$DIMBLK1
  1

  9
$DIMBLK2
  1

  9
$DIMSTYLE
  2
ISO-25
  9
$DIMCLRD
 70
0
  9
$DIMCLRE
 70
0
  9
$DIMCLRT
 70
0
  9
$DIMTFAC
 40
1.0
  9
$DIMGAP
 40
0.625
  9
$DIMJUST
 70
0
  9
$DIMSD1
 70
0
  9
$DIMSD2
 70
0
  9
$DIMTOLJ
 70
0
  9
$DIMTZIN
 70
8
  9
$DIMALTZ
 70
0
  9
$DIMALTTZ
 70
0
  9
$DIMUPT
 70
0
  9
$DIMDEC
 70
2
  9
$DIMTDEC
 70
2
  9
$DIMALTU
 70
2
  9
$DIMALTTD
 70
3
  9
$DIMTXSTY
  7
Standard
  9
$DIMAUNIT
 70
0
  9
$DIMADEC
 70
0
  9
$DIMALTRND
 40
0.0
  9
$DIMAZIN
 70
0
  9
$DIMDSEP
 70
44
  9
$DIMATFIT
 70
3
  9
$DIMFRAC
 70
0
  9
$DIMLDRBLK
  1

  9
$DIMLUNIT
 70
2
  9
$DIMLWD
 70
-2
  9
$DIMLWE
 70
-2
  9
$DIMTMOVE
 70
0
  9
$DIMFXL
 40
1.0
  9
$DIMFXLON
 70
0
  9
$DIMJOGANG
 40
0.785398163397
  9
$DIMTFILL
 70
0
  9
$DIMTFILLCLR
 70
0
  9
$DIMARCSYM
 70
0
  9
$DIMLTYPE
  6

  9
$DIMLTEX1
  6

  9
$DIMLTEX2
  6

  9
$DIMTXTDIRECTION
 70
0
  9
$LUNITS
 70
2
  9
$LUPREC
 70
4
  9
$SKETCHINC
 40
1.0
  9
$FILLETRAD
 40
10.0
  9
$AUNITS
 70
0
  9
$AUPREC
 70
2
  9
$MENU
  1
.
  9
$ELEVATION
 40
0.0
  9
$PELEVATION
 40
0.0
  9
$THICKNESS
 40
0.0
  9
$LIMCHECK
 70
0
  9
$CHAMFERA
 40
0.0
  9
$CHAMFERB
 40
0.0
  9
$CHAMFERC
 40
0.0
  9
$CHAMFERD
 40
0.0
  9
$SKPOLY
 70
0
  9
$TDCREATE
 40
2460912.6345833335
  9
$TDUCREATE
 40
2458532.153996898
  9
$TDUPDATE
 40
2460912.6345833335
  9
$TDUUPDATE
 40
2458532.1544311
  9
$TDINDWG
 40
0.0
  9
$TDUSRTIMER
 40
0.0
  9
$USRTIMER
 70
1
  9
$ANGBASE
 50
0.0
  9
$ANGDIR
 70
0
  9
$PDMODE
 70
0
  9
$PDSIZE
 40
0.0
  9
$PLINEWID
 40
0.0
  9
$SPLFRAME
 70
0
  9
$SPLINETYPE
 70
6
  9
$SPLINESEGS
 70
8
  9
$HANDSEED
  5
37
  9
$SURFTAB1
 70
6
  9
$SURFTAB2
 70
6
  9
$SURFTYPE
 70
6
  9
$SURFU
 70
6
  9
$SURFV
 70
6
  9
$UCSBASE
  2

  9
$UCSNAME
  2

  9
$UCSORG
 10
0.0
 20
0.0
 30
0.0
  9
$UCSXDIR
 10
1.0
 20
0.0
 30
0.0
  9
$UCSYDIR
 10
0.0
 20
1.0
 30
0.0
  9
$UCSORTHOREF
  2

  9
$UCSORTHOVIEW
 70
0
  9
$UCSORGTOP
 10
0.0
 20
0.0
 30
0.0
  9
$UCSORGBOTTOM
 10
0.0
 20
0.0
 30
0.0
  9
$UCSORGLEFT
 10
0.0
 20
0.0
 30
0.0
  9
$UCSORGRIGHT
 10
0.0
 20
0.0
 30
0.0
  9
$UCSORGFRONT
 10
0.0
 20
0.0
 30
0.0
  9
$UCSORGBACK
 10
0.0
 20
0.0
 30
0.0
  9
$PUCSBASE
  2

  9
$PUCSNAME
  2

  9
$PUCSORG
 10
0.0
 20
0.0
 30
0.0
  9
$PUCSXDIR
 10
1.0
 20
0.0
 30
0.0
  9
$PUCSYDIR
 10
0.0
 20
1.0
 30
0.0
  9
$PUCSORTHOREF
  2

  9
$PUCSORTHOVIEW
 70
0
  9
$PUCSORGTOP
 10
0.0
 20
0.0
 30
0.0
  9
$PUCSORGBOTTOM
 10
0.0
 20
0.0
 30
0.0
  9
$PUCSORGLEFT
 10
0.0
 20
0.0
 30
0.0
  9
$PUCSORGRIGHT
 10
0.0
 20
0.0
 30
0.0
  9
$PUCSORGFRONT
 10
0.0
 20
0.0
 30
0.0
  9
$PUCSORGBACK
 10
0.0
 20
0.0
 30
0.0
  9
$USERI1
 70
0
  9
$USERI2
 70
0
  9
$USERI3
 70
0
  9
$USERI4
 70
0
  9
$USERI5
 70
0
  9
$USERR1
 40
0.0
  9
$USERR2
 40
0.0
  9
$USERR3
 40
0.0
  9
$USERR4
 40
0.0
  9
$USERR5
 40
0.0
  9
$WORLDVIEW
 70
1
  9
$SHADEDGE
 70
3
  9
$SHADEDIF
 70
70
  9
$TILEMODE
 70
1
  9
$MAXACTVP
 70
64
  9
$PINSBASE
 10
0.0
 20
0.0
 30
0.0
  9
$PLIMCHECK
 70
0
  9
$PEXTMIN
 10
1e+20
 20
1e+20
 30
1e+20
  9
$PEXTMAX
 10
-1e+20
 20
-1e+20
 30
-1e+20
  9
$PLIMMIN
 10
0.0
 20
0.0
  9
$PLIMMAX
 10
420.0
 20
297.0
  9
$UNITMODE
 70
0
  9
$VISRETAIN
 70
1
  9
$PLINEGEN
 70
0
  9
$PSLTSCALE
 70
1
  9
$TREEDEPTH
 70
3020
  9
$CMLSTYLE
  2
Standard
  9
$CMLJUST
 70
0
  9
$CMLSCALE
 40
20.0
  9
$PROXYGRAPHICS
 70
1
  9
$MEASUREMENT
 70
1
  9
$CELWEIGHT
370
-1
  9
$ENDCAPS
280
0
  9
$JOINSTYLE
280
0
  9
$LWDISPLAY
290
0
  9
$INSUNITS
 70
6
  9
$HYPERLINKBASE
  1

  9
$STYLESHEET
  1

  9
$XEDIT
290
1
  9
$CEPSNTYPE
380
0
  9
$PSTYLEMODE
290
1
  9
$FINGERPRINTGUID
  2
{DDA8C146-3B25-45BA-9F29-FCB085D311AD}
  9
$VERSIONGUID
  2
{1791755D-3C2F-4574-95D4-D26B5E91B8D6}
  9
$EXTNAMES
290
1
  9
$PSVPSCALE
 40
0.0
  9
$OLESTARTUP
290
0
  9
$SORTENTS
280
127
  9
$INDEXCTL
280
0
  9
$HIDETEXT
280
1
  9
$XCLIPFRAME
280
1
  9
$HALOGAP
280
0
  9
$OBSCOLOR
 70
257
  9
$OBSLTYPE
280
0
  9
$INTERSECTIONDISPLAY
280
0
  9
$INTERSECTIONCOLOR
 70
257
  9
$DIMASSOC
280
2
  9
$PROJECTNAME
  1

  9
$CAMERADISPLAY
290
0
  9
$LENSLENGTH
 40
50.0
  9
$CAMERAHEIGHT
 40
0.0
  9
$STEPSPERSEC
 40
24.0
  9
$STEPSIZE
 40
100.0
  9
$3DDWFPREC
 40
2.0
  9
$PSOLWIDTH
 40
0.005
  9
$PSOLHEIGHT
 40
0.08
  9
$LOFTANG1
 40
1.570796326795
  9
$LOFTANG2
 40
1.570796326795
  9
$LOFTMAG1
 40
0.0
  9
$LOFTMAG2
 40
0.0
  9
$LOFTPARAM
 70
7
  9
$LOFTNORMALS
280
1
  9
$LATITUDE
 40
37.795
  9
$LONGITUDE
 40
-122.394
  9
$NORTHDIRECTION
 40
0.0
  9
$TIMEZONE
 70
-8000
  9
$LIGHTGLYPHDISPLAY
280
1
  9
$TILEMODELIGHTSYNCH
280
1
  9
$CMATERIAL
347
20
  9
$SOLIDHIST
280
0
  9
$SHOWHIST
280
1
  9
$DWFFRAME
280
2
  9
$DGNFRAME
280
2
  9
$REALWORLDSCALE
290
1
  9
$INTERFERECOLOR
 62
256
  9
$CSHADOW
280
0
  9
$SHADOWPLANELOCATION
 40
0.0
  0
ENDSEC
  0
SECTION
  2
CLASSES
  0
CLASS
  1
ACDBDICTIONARYWDFLT
  2
AcDbDictionaryWithDefault
  3
ObjectDBX Classes
 90
0
 91
0
280
0
281
0
  0
CLASS
  1
SUN
  2
AcDbSun
  3
SCENEOE
 90
1153
 91
0
280
0
281
0
  0
CLASS
  1
VISUALSTYLE
  2
AcDbVisualStyle
  3
ObjectDBX Classes
 90
4095
 91
0
280
0
281
0
  0
CLASS
  1
MATERIAL
  2
AcDbMaterial
  3
ObjectDBX Classes
 90
1153
 91
0
280
0
281
0
  0
CLASS
  1
SCALE
  2
AcDbScale
  3
ObjectDBX Classes
 90
1153
 91
0
280
0
281
0
  0
CLASS
  1
TABLESTYLE
  2
AcDbTableStyle
  3
ObjectDBX Classes
 90
4095
 91
0
280
0
281
0
  0
CLASS
  1
MLEADERSTYLE
  2
AcDbMLeaderStyle
  3
ACDB_MLEADERSTYLE_CLASS
 90
4095
 91
0
280
0
281
0
  0
CLASS
  1
DICTIONARYVAR
  2
AcDbDictionaryVar
  3
ObjectDBX Classes
 90
0
 91
0
280
0
281
0
  0
CLASS
  1
CELLSTYLEMAP
  2
AcDbCellStyleMap
  3
ObjectDBX Classes
 90
1152
 91
0
280
0
281
0
  0
CLASS
  1
MENTALRAYRENDERSETTINGS
  2
AcDbMentalRayRenderSettings
  3
SCENEOE
 90
1024
 91
0
280
0
281
0
  0
CLASS
  1
ACDBDETAILVIEWSTYLE
  2
AcDbDetailViewStyle
  3
ObjectDBX Classes
 90
1025
 91
0
280
0
281
0
  0
CLASS
  1
ACDBSECTIONVIEWSTYLE
  2
AcDbSectionViewStyle
  3
ObjectDBX Classes
 90
1025
 91
0
280
0
281
0
  0
CLASS
  1
RASTERVARIABLES
  2
AcDbRasterVariables
  3
ISM
 90
0
 91
0
280
0
281
0
  0
CLASS
  1
LAYOUT
  2
AcDbLayout
  3
ObjectDBX Classes
 90
0
 91
0
280
0
281
0
  0
CLASS
  1
ACDBPLACEHOLDER
  2
AcDbPlaceHolder
  3
ObjectDBX Classes
 90
0
 91
0
280
0
281
0
  0
ENDSEC
  0
SECTION
  2
TABLES
  0
TABLE
  2
VPORT
  5
8
330
0
100
AcDbSymbolTable
 70
1
  0
VPORT
  5
23
330
8
100
AcDbSymbolTableRecord
100
AcDbViewportTableRecord
  2
*Active
 70
0
 10
0.0
 20
0.0
 11
1.0
 21
1.0
 12
0.0
 22
0.0
 13
0.0
 23
0.0
 14
0.5
 24
0.5
 15
0.5
 25
0.5
 16
0.0
 26
0.0
 36
1.0
 17
0.0
 27
0.0
 37
0.0
 40
1000.0
 41
1.34
 42
50.0
 43
0.0
 44
0.0
 50
0.0
 51
0.0
 71
0
 72
1000
 73
1
 74
3
 75
0
 76
0
 77
0
 78
0
281
0
 65
0
146
0.0
  0
ENDTAB
  0
TABLE
  2
LTYPE
  5
2
330
0
100
AcDbSymbolTable
 70
3
  0
LTYPE
  5
24
330
2
100
AcDbSymbolTableRecord
100
AcDbLinetypeTableRecord
  2
ByBlock
 70
0
  3

 72
65
 73
0
 40
0.0
  0
LTYPE
  5
25
330
2
100
AcDbSymbolTableRecord
100
AcDbLinetypeTableRecord
  2
ByLayer
 70
0
  3

 72
65
 73
0
 40
0.0
  0
LTYPE
  5
26
330
2
100
AcDbSymbolTableRecord
100
AcDbLinetypeTableRecord
  2
Continuous
 70
0
  3

 72
65
 73
0
 40
0.0
  0
ENDTAB
  0
TABLE
  2
LAYER
  5
1
330
0
100
AcDbSymbolTable
 70
2
  0
LAYER
  5
27
330
1
100
AcDbSymbolTableRecord
100
AcDbLayerTableRecord
  2
0
 70
0
 62
7
  6
Continuous
370
-3
390
13
347
21
  0
LAYER
  5
28
330
1
100
AcDbSymbolTableRecord
100
AcDbLayerTableRecord
  2
Defpoints
 70
0
 62
7
  6
Continuous
290
0
370
-3
390
13
347
21
  0
ENDTAB
  0
TABLE
  2
STYLE
  5
5
330
0
100
AcDbSymbolTable
 70
1
  0
STYLE
  5
29
330
5
100
AcDbSymbolTableRecord
100
AcDbTextStyleTableRecord
  2
Standard
 70
0
 40
0.0
 41
1.0
 50
0.0
 71
0
 42
2.5
  3
txt
  4

  0
ENDTAB
  0
TABLE
  2
VIEW
  5
7
330
0
100
AcDbSymbolTable
 70
0
  0
ENDTAB
  0
TABLE
  2
UCS
  5
6
330
0
100
AcDbSymbolTable
 70
0
  0
ENDTAB
  0
TABLE
  2
APPID
  5
3
330
0
100
AcDbSymbolTable
 70
3
  0
APPID
  5
2A
330
3
100
AcDbSymbolTableRecord
100
AcDbRegAppTableRecord
  2
ACAD
 70
0
  0
APPID
  5
34
330
3
100
AcDbSymbolTableRecord
100
AcDbRegAppTableRecord
  2
HATCHBACKGROUNDCOLOR
 70
0
  0
APPID
  5
35
330
3
100
AcDbSymbolTableRecord
100
AcDbRegAppTableRecord
  2
EZDXF
 70
0
  0
ENDTAB
  0
TABLE
  2
DIMSTYLE
  5
4
330
0
100
AcDbSymbolTable
 70
1
100
AcDbDimStyleTable
  0
DIMSTYLE
105
2B
330
4
100
AcDbSymbolTableRecord
100
AcDbDimStyleTableRecord
  2
Standard
 70
0
 40
1.0
 41
2.5
 42
0.625
 43
3.75
 44
1.25
 45
0.0
 46
0.0
 47
0.0
 48
0.0
 49
2.5
140
2.5
141
2.5
142
0.0
143
0.03937007874
144
1.0
145
0.0
146
1.0
147
0.625
148
0.0
 69
0
 70
0
 71
0
 72
0
 73
0
 74
0
 75
0
 76
0
 77
1
 78
8
 79
3
170
0
171
3
172
1
173
0
174
0
175
0
176
0
177
0
178
0
179
2
271
2
272
2
273
2
274
3
275
0
276
0
277
2
278
44
279
0
280
0
281
0
282
0
283
0
284
8
285
0
286
0
288
0
289
3
290
0
371
-2
372
-2
  0
ENDTAB
  0
TABLE
  2
BLOCK_RECORD
  5
9
330
0
100
AcDbSymbolTable
 70
2
  0
BLOCK_RECORD
  5
17
330
9
100
AcDbSymbolTableRecord
100
AcDbBlockTableRecord
  2
*Model_Space
340
1A
 70
0
280
1
281
0
  0
BLOCK_RECORD
  5
1B
330
9
100
AcDbSymbolTableRecord
100
AcDbBlockTableRecord
  2
*Paper_Space
340
1E
 70
0
280
1
281
0
  0
ENDTAB
  0
ENDSEC
  0
SECTION
  2
BLOCKS
  0
BLOCK
  5
18
330
17
100
AcDbEntity
  8
0
100
AcDbBlockBegin
  2
*Model_Space
 70
0
 10
0.0
 20
0.0
 30
0.0
  3
*Model_Space
  1

  0
ENDBLK
  5
19
330
17
100
AcDbEntity
  8
0
100
AcDbBlockEnd
  0
BLOCK
  5
1C
330
1B
100
AcDbEntity
  8
0
100
AcDbBlockBegin
  2
*Paper_Space
 70
0
 10
0.0
 20
0.0
 30
0.0
  3
*Paper_Space
  1

  0
ENDBLK
  5
1D
330
1B
100
AcDbEntity
  8
0
100
AcDbBlockEnd
  0
ENDSEC
  0
SECTION
  2
ENTITIES
  0
LWPOLYLINE
  5
2F
330
17
100
AcDbEntity
  8
FRAME
100
AcDbPolyline
 90
5
 70
1
 10
-20.0
 20
-20.0
 10
320.0
 20
-20.0
 10
320.0
 20
320.0
 10
-20.0
 20
320.0
 10
-20.0
 20
-20.0
  0
CIRCLE
  5
30
330
17
100
AcDbEntity
  8
CIRCLES
100
AcDbCircle
 10
150.0
 20
100.0
 30
0.0
 40
5.0
  0
CIRCLE
  5
31
330
17
100
AcDbEntity
  8
CIRCLES
100
AcDbCircle
 10
100.0
 20
200.0
 30
0.0
 40
5.0
  0
CIRCLE
  5
32
330
17
100
AcDbEntity
  8
CIRCLES
100
AcDbCircle
 10
200.0
 20
200.0
 30
0.0
 40
5.0
  0
LWPOLYLINE
  5
33
330
17
100
AcDbEntity
  8
CONTOUR_1
100
AcDbPolyline
 90
355
 70
1
 10
0.9994531075806008
 20
0.2507169257304725
 10
0.9994531075806008
 20
295.57774038671545
 10
8.35199311075865
 20
295.57774038671545
 10
9.577416444621658
 20
296.8031637205784
 10
9.577416444621658
 20
301.70485705603045
 10
13.253686446210683
 20
301.70485705603045
 10
14.47910978007369
 20
302.9302803898935
 10
18.155379781662717
 20
302.9302803898935
 10
18.155379781662717
 20
300.47943372216747
 10
20.606226449388732
 20
298.02858705444146
 10
21.83164978325174
 20
298.02858705444146
 10
23.057073117114747
 20
296.8031637205784
 10
24.282496450977757
 20
298.02858705444146
 10
30.409613120292796
 20
298.02858705444146
 10
31.635036454155806
 20
299.25401038830444
 10
34.08588312188182
 20
299.25401038830444
 10
35.31130645574483
 20
298.02858705444146
 10
40.212999791196864
 20
298.02858705444146
 10
41.43842312505987
 20
299.25401038830444
 10
43.88926979278589
 20
299.25401038830444
 10
45.114693126648895
 20
300.47943372216747
 10
48.79096312823792
 20
300.47943372216747
 10
48.79096312823792
 20
299.25401038830444
 10
50.016386462100925
 20
298.02858705444146
 10
51.24180979596394
 20
298.02858705444146
 10
53.69265646368995
 20
295.57774038671545
 10
54.91807979755296
 20
295.57774038671545
 10
56.14350313141597
 20
296.8031637205784
 10
59.81977313300499
 20
296.8031637205784
 10
61.045196466868
 20
298.02858705444146
 10
67.17231313618304
 20
298.02858705444146
 10
68.39773647004606
 20
299.25401038830444
 10
67.17231313618304
 20
300.47943372216747
 10
69.62315980390906
 20
300.47943372216747
 10
72.07400647163507
 20
298.02858705444146
 10
73.29942980549808
 20
298.02858705444146
 10
74.52485313936108
 20
299.25401038830444
 10
73.29942980549808
 20
300.47943372216747
 10
73.29942980549808
 20
301.70485705603045
 10
74.52485313936108
 20
302.9302803898935
 10
75.7502764732241
 20
302.9302803898935
 10
76.97569980708711
 20
304.15570372375646
 10
78.20112314095012
 20
304.15570372375646
 10
79.42654647481312
 20
305.3811270576195
 10
80.65196980867613
 20
305.3811270576195
 10
81.87739314253913
 20
306.6065503914825
 10
83.10281647640215
 20
306.6065503914825
 10
83.10281647640215
 20
305.3811270576195
 10
84.32823981026516
 20
304.15570372375646
 10
84.32823981026516
 20
302.9302803898935
 10
86.77908647799117
 20
300.47943372216747
 10
86.77908647799117
 20
299.25401038830444
 10
88.00450981185418
 20
298.02858705444146
 10
90.4553564795802
 20
298.02858705444146
 10
91.68077981344321
 20
299.25401038830444
 10
89.22993314571718
 20
301.70485705603045
 10
90.4553564795802
 20
301.70485705603045
 10
91.68077981344321
 20
302.9302803898935
 10
92.90620314730621
 20
302.9302803898935
 10
95.35704981503223
 20
305.3811270576195
 10
96.58247314889523
 20
305.3811270576195
 10
97.80789648275825
 20
306.6065503914825
 10
100.25874315048426
 20
306.6065503914825
 10
102.70958981821028
 20
304.15570372375646
 10
102.70958981821028
 20
302.9302803898935
 10
107.61128315366231
 20
298.02858705444146
 10
112.51297648911435
 20
298.02858705444146
 10
113.73839982297736
 20
299.25401038830444
 10
114.96382315684036
 20
298.02858705444146
 10
116.18924649070337
 20
298.02858705444146
 10
117.41466982456637
 20
296.8031637205784
 10
121.0909398261554
 20
296.8031637205784
 10
122.31636316001841
 20
298.02858705444146
 10
133.34517316478548
 20
298.02858705444146
 10
134.57059649864848
 20
299.25401038830444
 10
137.0214431663745
 20
299.25401038830444
 10
138.2468665002375
 20
298.02858705444146
 10
139.47228983410054
 20
299.25401038830444
 10
140.69771316796354
 20
299.25401038830444
 10
141.92313650182655
 20
298.02858705444146
 10
145.59940650341557
 20
298.02858705444146
 10
146.82482983727857
 20
296.8031637205784
 10
148.05025317114158
 20
296.8031637205784
 10
150.5010998388676
 20
294.3523170528524
 10
151.7265231727306
 20
294.3523170528524
 10
152.9519465065936
 20
293.1268937189894
 10
154.17736984045663
 20
293.1268937189894
 10
155.40279317431964
 20
294.3523170528524
 10
155.40279317431964
 20
298.02858705444146
 10
156.62821650818265
 20
299.25401038830444
 10
157.85363984204565
 20
299.25401038830444
 10
159.07906317590866
 20
300.47943372216747
 10
168.88244984681273
 20
300.47943372216747
 10
168.88244984681273
 20
299.25401038830444
 10
170.10787318067574
 20
298.02858705444146
 10
173.78414318226476
 20
301.70485705603045
 10
175.00956651612776
 20
301.70485705603045
 10
176.23498984999077
 20
302.9302803898935
 10
177.46041318385377
 20
302.9302803898935
 10
178.68583651771678
 20
304.15570372375646
 10
181.1366831854428
 20
304.15570372375646
 10
182.3621065193058
 20
305.3811270576195
 10
182.3621065193058
 20
302.9302803898935
 10
183.58752985316883
 20
301.70485705603045
 10
183.58752985316883
 20
300.47943372216747
 10
186.03837652089484
 20
298.02858705444146
 10
186.03837652089484
 20
296.8031637205784
 10
189.71464652248386
 20
293.1268937189894
 10
190.94006985634687
 20
293.1268937189894
 10
193.39091652407288
 20
295.57774038671545
 10
193.39091652407288
 20
298.02858705444146
 10
200.74345652725094
 20
298.02858705444146
 10
201.96887986111395
 20
299.25401038830444
 10
204.41972652883996
 20
299.25401038830444
 10
205.64514986270297
 20
298.02858705444146
 10
212.997689865881
 20
298.02858705444146
 10
214.22311319974403
 20
299.25401038830444
 10
215.44853653360704
 20
299.25401038830444
 10
216.67395986747005
 20
300.47943372216747
 10
217.89938320133305
 20
300.47943372216747
 10
219.12480653519606
 20
301.70485705603045
 10
220.35022986905906
 20
300.47943372216747
 10
220.35022986905906
 20
299.25401038830444
 10
221.57565320292207
 20
298.02858705444146
 10
222.80107653678508
 20
298.02858705444146
 10
222.80107653678508
 20
296.8031637205784
 10
224.02649987064808
 20
295.57774038671545
 10
226.4773465383741
 20
295.57774038671545
 10
227.7027698722371
 20
296.8031637205784
 10
228.92819320610013
 20
296.8031637205784
 10
230.15361653996314
 20
298.02858705444146
 10
232.60446320768915
 20
298.02858705444146
 10
233.82988654155216
 20
299.25401038830444
 10
235.05530987541516
 20
299.25401038830444
 10
236.28073320927817
 20
300.47943372216747
 10
236.28073320927817
 20
299.25401038830444
 10
237.50615654314117
 20
298.02858705444146
 10
239.95700321086719
 20
298.02858705444146
 10
241.1824265447302
 20
299.25401038830444
 10
242.4078498785932
 20
299.25401038830444
 10
243.63327321245623
 20
300.47943372216747
 10
244.85869654631924
 20
300.47943372216747
 10
247.30954321404525
 20
302.9302803898935
 10
248.53496654790825
 20
302.9302803898935
 10
249.76038988177126
 20
304.15570372375646
 10
252.21123654949727
 20
301.70485705603045
 10
252.21123654949727
 20
300.47943372216747
 10
254.66208321722328
 20
298.02858705444146
 10
257.1129298849493
 20
298.02858705444146
 10
259.56377655267534
 20
295.57774038671545
 10
259.56377655267534
 20
294.3523170528524
 10
264.46546988812736
 20
289.4506237174004
 10
265.6908932219904
 20
289.4506237174004
 10
268.1417398897164
 20
291.9014703851264
 10
268.1417398897164
 20
293.1268937189894
 10
271.8180098913054
 20
296.8031637205784
 10
271.8180098913054
 20
298.02858705444146
 10
275.49427989289444
 20
298.02858705444146
 10
276.7197032267574
 20
299.25401038830444
 10
275.49427989289444
 20
300.47943372216747
 10
281.6213965622095
 20
306.6065503914825
 10
281.6213965622095
 20
307.8319737253455
 10
282.8468198960725
 20
309.05739705920854
 10
284.0722432299355
 20
309.05739705920854
 10
286.5230898976615
 20
306.6065503914825
 10
287.7485132315245
 20
306.6065503914825
 10
291.42478323311354
 20
302.9302803898935
 10
292.6502065669765
 20
302.9302803898935
 10
293.87562990083956
 20
301.70485705603045
 10
293.87562990083956
 20
298.02858705444146
 10
292.6502065669765
 20
296.8031637205784
 10
292.6502065669765
 20
295.57774038671545
 10
290.1993598992505
 20
293.1268937189894
 10
290.1993598992505
 20
291.9014703851264
 10
288.97393656538753
 20
290.67604705126337
 10
288.97393656538753
 20
289.4506237174004
 10
292.6502065669765
 20
285.77435371581134
 10
293.87562990083956
 20
285.77435371581134
 10
296.32647656856557
 20
283.32350704808533
 10
297.5518999024286
 20
283.32350704808533
 10
298.7773232362916
 20
282.09808371422235
 10
298.7773232362916
 20
275.9709670449073
 10
297.5518999024286
 20
274.74554371104426
 10
297.5518999024286
 20
273.5201203771813
 10
293.87562990083956
 20
269.84385037559224
 10
298.7773232362916
 20
264.9421570401402
 10
298.7773232362916
 20
263.71673370627724
 10
300.0027465701546
 20
262.4913103724142
 10
301.2281699040176
 20
262.4913103724142
 10
302.4535932378806
 20
261.26588703855117
 10
302.4535932378806
 20
260.0404637046882
 10
298.7773232362916
 20
256.36419370309915
 10
298.7773232362916
 20
252.68792370151013
 10
297.5518999024286
 20
251.46250036764712
 10
297.5518999024286
 20
249.0116536999211
 10
298.7773232362916
 20
247.7862303660581
 10
298.7773232362916
 20
246.5608070321951
 10
301.2281699040176
 20
244.1099603644691
 10
295.10105323470253
 20
237.98284369515403
 10
293.87562990083956
 20
237.98284369515403
 10
291.42478323311354
 20
235.53199702742802
 10
293.87562990083956
 20
233.081150359702
 10
293.87562990083956
 20
231.855727025839
 10
298.7773232362916
 20
226.95403369038698
 10
298.7773232362916
 20
225.72861035652394
 10
301.2281699040176
 20
223.27776368879793
 10
301.2281699040176
 20
222.05234035493493
 10
303.6790165717436
 20
219.60149368720892
 10
303.6790165717436
 20
218.3760703533459
 10
306.1298632394696
 20
215.9252236856199
 10
303.6790165717436
 20
213.4743770178939
 10
303.6790165717436
 20
212.24895368403088
 10
302.4535932378806
 20
212.24895368403088
 10
301.2281699040176
 20
211.02353035016785
 10
300.0027465701546
 20
211.02353035016785
 10
298.7773232362916
 20
209.79810701630484
 10
298.7773232362916
 20
196.31845034381178
 10
300.0027465701546
 20
195.09302700994874
 10
300.0027465701546
 20
191.41675700835972
 10
301.2281699040176
 20
190.19133367449672
 10
301.2281699040176
 20
187.7404870067707
 10
302.4535932378806
 20
186.5150636729077
 10
302.4535932378806
 20
184.0642170051817
 10
300.0027465701546
 20
184.0642170051817
 10
298.7773232362916
 20
182.83879367131868
 10
300.0027465701546
 20
181.61337033745568
 10
302.4535932378806
 20
181.61337033745568
 10
302.4535932378806
 20
175.48625366814062
 10
300.0027465701546
 20
175.48625366814062
 10
297.5518999024286
 20
173.0354070004146
 10
297.5518999024286
 20
162.00659699564753
 10
298.7773232362916
 20
160.78117366178452
 10
298.7773232362916
 20
155.8794803263325
 10
300.0027465701546
 20
154.6540569924695
 10
300.0027465701546
 20
153.4286336586065
 10
298.7773232362916
 20
152.20321032474348
 10
298.7773232362916
 20
148.52694032315446
 10
297.5518999024286
 20
147.30151698929146
 10
297.5518999024286
 20
146.07609365542845
 10
296.32647656856557
 20
144.85067032156545
 10
296.32647656856557
 20
143.62524698770244
 10
297.5518999024286
 20
142.39982365383943
 10
298.7773232362916
 20
142.39982365383943
 10
298.7773232362916
 20
138.7235536522504
 10
300.0027465701546
 20
137.49813031838738
 10
304.90443990560664
 20
137.49813031838738
 10
306.1298632394696
 20
136.27270698452438
 10
304.90443990560664
 20
135.04728365066137
 10
304.90443990560664
 20
133.82186031679836
 10
303.6790165717436
 20
132.59643698293536
 10
303.6790165717436
 20
130.14559031520935
 10
302.4535932378806
 20
128.92016698134634
 10
302.4535932378806
 20
127.69474364748332
 10
300.0027465701546
 20
127.69474364748332
 10
298.7773232362916
 20
126.46932031362032
 10
301.2281699040176
 20
124.0184736458943
 10
301.2281699040176
 20
120.34220364430527
 10
300.0027465701546
 20
121.56762697816828
 10
298.7773232362916
 20
120.34220364430527
 10
298.7773232362916
 20
117.89135697657926
 10
297.5518999024286
 20
116.66593364271625
 10
297.5518999024286
 20
112.98966364112722
 10
296.32647656856557
 20
111.76424030726422
 10
296.32647656856557
 20
108.08797030567519
 10
297.5518999024286
 20
106.86254697181218
 10
298.7773232362916
 20
106.86254697181218
 10
301.2281699040176
 20
104.41170030408617
 10
302.4535932378806
 20
104.41170030408617
 10
303.6790165717436
 20
103.18627697022316
 10
304.90443990560664
 20
103.18627697022316
 10
306.1298632394696
 20
101.96085363636016
 10
307.35528657333265
 20
101.96085363636016
 10
306.1298632394696
 20
100.73543030249714
 10
306.1298632394696
 20
98.28458363477112
 10
304.90443990560664
 20
97.05916030090812
 10
304.90443990560664
 20
95.83373696704511
 10
303.6790165717436
 20
94.6083136331821
 10
303.6790165717436
 20
93.38289029931909
 10
302.4535932378806
 20
92.15746696545608
 10
302.4535932378806
 20
90.93204363159307
 10
301.2281699040176
 20
90.93204363159307
 10
300.0027465701546
 20
92.15746696545608
 10
298.7773232362916
 20
90.93204363159307
 10
298.7773232362916
 20
83.57950362841503
 10
301.2281699040176
 20
81.12865696068901
 10
302.4535932378806
 20
81.12865696068901
 10
303.6790165717436
 20
79.90323362682601
 10
304.90443990560664
 20
79.90323362682601
 10
306.1298632394696
 20
78.677810292963
 10
307.35528657333265
 20
78.677810292963
 10
308.5807099071956
 20
77.45238695909998
 10
308.5807099071956
 20
76.22696362523698
 10
307.35528657333265
 20
75.00154029137397
 10
307.35528657333265
 20
73.77611695751096
 10
306.1298632394696
 20
72.55069362364796
 10
306.1298632394696
 20
71.32527028978495
 10
304.90443990560664
 20
70.09984695592193
 10
304.90443990560664
 20
68.87442362205893
 10
303.6790165717436
 20
67.64900028819592
 10
302.4535932378806
 20
68.87442362205893
 10
301.2281699040176
 20
68.87442362205893
 10
300.0027465701546
 20
70.09984695592193
 10
298.7773232362916
 20
68.87442362205893
 10
298.7773232362916
 20
66.42357695433292
 10
300.0027465701546
 20
65.19815362046991
 10
301.2281699040176
 20
65.19815362046991
 10
302.4535932378806
 20
63.9727302866069
 10
303.6790165717436
 20
63.9727302866069
 10
304.90443990560664
 20
62.74730695274389
 10
307.35528657333265
 20
62.74730695274389
 10
307.35528657333265
 20
60.29646028501787
 10
306.1298632394696
 20
59.071036951154866
 10
306.1298632394696
 20
57.84561361729185
 10
304.90443990560664
 20
56.62019028342885
 10
304.90443990560664
 20
54.16934361570283
 10
303.6790165717436
 20
52.94392028183982
 10
302.4535932378806
 20
52.94392028183982
 10
301.2281699040176
 20
54.16934361570283
 10
300.0027465701546
 20
54.16934361570283
 10
298.7773232362916
 20
52.94392028183982
 10
298.7773232362916
 20
51.71849694797682
 10
301.2281699040176
 20
49.2676502802508
 10
302.4535932378806
 20
49.2676502802508
 10
303.6790165717436
 20
48.04222694638779
 10
306.1298632394696
 20
48.04222694638779
 10
306.1298632394696
 20
44.36595694479877
 10
304.90443990560664
 20
43.140533610935755
 10
304.90443990560664
 20
41.91511027707275
 10
303.6790165717436
 20
40.68968694320974
 10
303.6790165717436
 20
39.46426360934674
 10
302.4535932378806
 20
38.238840275483724
 10
302.4535932378806
 20
37.01341694162072
 10
301.2281699040176
 20
38.238840275483724
 10
300.0027465701546
 20
38.238840275483724
 10
298.7773232362916
 20
37.01341694162072
 10
300.0027465701546
 20
35.78799360775771
 10
300.0027465701546
 20
34.5625702738947
 10
298.7773232362916
 20
33.337146940031694
 10
298.7773232362916
 20
29.66087693844267
 10
297.5518999024286
 20
28.43545360457966
 10
297.5518999024286
 20
27.21003027071665
 10
296.32647656856557
 20
25.984606936853645
 10
296.32647656856557
 20
23.533760269127626
 10
298.7773232362916
 20
21.08291360140161
 10
298.7773232362916
 20
17.406643599812586
 10
297.5518999024286
 20
16.18122026594958
 10
297.5518999024286
 20
14.955796932086571
 10
296.32647656856557
 20
13.730373598223562
 10
296.32647656856557
 20
12.504950264360554
 10
295.10105323470253
 20
11.279526930497546
 10
295.10105323470253
 20
8.82868026277153
 10
297.5518999024286
 20
6.377833595045513
 10
298.7773232362916
 20
6.377833595045513
 10
298.7773232362916
 20
0.2507169257304725
 10
0.9994531075806008
 20
0.2507169257304725
  0
ENDSEC
  0
SECTION
  2
OBJECTS
  0
DICTIONARY
  5
A
330
0
100
AcDbDictionary
281
1
  3
ACAD_COLOR
350
B
  3
ACAD_GROUP
350
C
  3
ACAD_LAYOUT
350
D
  3
ACAD_MATERIAL
350
E
  3
ACAD_MLEADERSTYLE
350
F
  3
ACAD_MLINESTYLE
350
10
  3
ACAD_PLOTSETTINGS
350
11
  3
ACAD_PLOTSTYLENAME
350
12
  3
ACAD_SCALELIST
350
14
  3
ACAD_TABLESTYLE
350
15
  3
ACAD_VISUALSTYLE
350
16
  3
EZDXF_META
350
2D
  0
DICTIONARY
  5
B
330
A
100
AcDbDictionary
281
1
  0
DICTIONARY
  5
C
330
A
100
AcDbDictionary
281
1
  0
DICTIONARY
  5
D
330
A
100
AcDbDictionary
281
1
  3
Model
350
1A
  3
Layout1
350
1E
  0
DICTIONARY
  5
E
330
A
100
AcDbDictionary
281
1
  3
ByBlock
350
1F
  3
ByLayer
350
20
  3
Global
350
21
  0
DICTIONARY
  5
F
330
A
100
AcDbDictionary
281
1
  3
Standard
350
2C
  0
DICTIONARY
  5
10
330
A
100
AcDbDictionary
281
1
  3
Standard
350
22
  0
DICTIONARY
  5
11
330
A
100
AcDbDictionary
281
1
  0
ACDBDICTIONARYWDFLT
  5
12
330
A
100
AcDbDictionary
281
1
  3
Normal
350
13
100
AcDbDictionaryWithDefault
340
13
  0
ACDBPLACEHOLDER
  5
13
330
12
  0
DICTIONARY
  5
14
330
A
100
AcDbDictionary
281
1
  0
DICTIONARY
  5
15
330
A
100
AcDbDictionary
281
1
  0
DICTIONARY
  5
16
330
A
100
AcDbDictionary
281
1
  0
LAYOUT
  5
1A
330
D
100
AcDbPlotSettings
  1

  4
A3
  6

 40
7.5
 41
20.0
 42
7.5
 43
20.0
 44
420.0
 45
297.0
 46
0.0
 47
0.0
 48
0.0
 49
0.0
140
0.0
141
0.0
142
1.0
143
1.0
 70
1024
 72
1
 73
0
 74
5
  7

 75
16
 76
0
 77
2
 78
300
147
1.0
148
0.0
149
0.0
100
AcDbLayout
  1
Model
 70
1
 71
0
 10
0.0
 20
0.0
 11
420.0
 21
297.0
 12
0.0
 22
0.0
 32
0.0
 14
1e+20
 24
1e+20
 34
1e+20
 15
-1e+20
 25
-1e+20
 35
-1e+20
146
0.0
 13
0.0
 23
0.0
 33
0.0
 16
1.0
 26
0.0
 36
0.0
 17
0.0
 27
1.0
 37
0.0
 76
1
330
17
  0
LAYOUT
  5
1E
330
D
100
AcDbPlotSettings
  1

  4
A3
  6

 40
7.5
 41
20.0
 42
7.5
 43
20.0
 44
420.0
 45
297.0
 46
0.0
 47
0.0
 48
0.0
 49
0.0
140
0.0
141
0.0
142
1.0
143
1.0
 70
0
 72
1
 73
0
 74
5
  7

 75
16
 76
0
 77
2
 78
300
147
1.0
148
0.0
149
0.0
100
AcDbLayout
  1
Layout1
 70
1
 71
1
 10
0.0
 20
0.0
 11
420.0
 21
297.0
 12
0.0
 22
0.0
 32
0.0
 14
1e+20
 24
1e+20
 34
1e+20
 15
-1e+20
 25
-1e+20
 35
-1e+20
146
0.0
 13
0.0
 23
0.0
 33
0.0
 16
1.0
 26
0.0
 36
0.0
 17
0.0
 27
1.0
 37
0.0
 76
1
330
1B
  0
MATERIAL
  5
1F
102
{ACAD_REACTORS
330
E
102
}
330
E
100
AcDbMaterial
  1
ByBlock
  2

 70
0
 40
1.0
 71
1
 41
1.0
 91
-1023410177
 42
1.0
 72
1
  3

 73
1
 74
1
 75
1
 44
0.5
 73
0
 45
1.0
 46
1.0
 77
1
  4

 78
1
 79
1
170
1
 48
1.0
171
1
  6

172
1
173
1
174
1
140
1.0
141
1.0
175
1
  7

176
1
177
1
178
1
143
1.0
179
1
  8

270
1
271
1
272
1
145
1.0
146
1.0
273
1
  9

274
1
275
1
276
1
 42
1.0
 72
1
  3

 73
1
 74
1
 75
1
 94
63
  0
MATERIAL
  5
20
102
{ACAD_REACTORS
330
E
102
}
330
E
100
AcDbMaterial
  1
ByLayer
  2

 70
0
 40
1.0
 71
1
 41
1.0
 91
-1023410177
 42
1.0
 72
1
  3

 73
1
 74
1
 75
1
 44
0.5
 73
0
 45
1.0
 46
1.0
 77
1
  4

 78
1
 79
1
170
1
 48
1.0
171
1
  6

172
1
173
1
174
1
140
1.0
141
1.0
175
1
  7

176
1
177
1
178
1
143
1.0
179
1
  8

270
1
271
1
272
1
145
1.0
146
1.0
273
1
  9

274
1
275
1
276
1
 42
1.0
 72
1
  3

 73
1
 74
1
 75
1
 94
63
  0
MATERIAL
  5
21
102
{ACAD_REACTORS
330
E
102
}
330
E
100
AcDbMaterial
  1
Global
  2

 70
0
 40
1.0
 71
1
 41
1.0
 91
-1023410177
 42
1.0
 72
1
  3

 73
1
 74
1
 75
1
 44
0.5
 73
0
 45
1.0
 46
1.0
 77
1
  4

 78
1
 79
1
170
1
 48
1.0
171
1
  6

172
1
173
1
174
1
140
1.0
141
1.0
175
1
  7

176
1
177
1
178
1
143
1.0
179
1
  8

270
1
271
1
272
1
145
1.0
146
1.0
273
1
  9

274
1
275
1
276
1
 42
1.0
 72
1
  3

 73
1
 74
1
 75
1
 94
63
  0
MLINESTYLE
  5
22
102
{ACAD_REACTORS
330
10
102
}
330
10
100
AcDbMlineStyle
  2
Standard
 70
0
  3

 62
256
 51
90.0
 52
90.0
 71
2
 49
0.5
 62
256
  6
BYLAYER
 49
-0.5
 62
256
  6
BYLAYER
  0
MLEADERSTYLE
  5
2C
102
{ACAD_REACTORS
330
F
102
}
330
F
100
AcDbMLeaderStyle
179
2
170
2
171
1
172
0
 90
2
 40
0.0
 41
0.0
173
1
 91
-1056964608
 92
-2
290
1
 42
2.0
291
1
 43
8.0
  3
Standard
 44
4.0
300

342
29
174
1
175
1
176
0
178
1
 93
-1056964608
 45
4.0
292
0
297
0
 46
4.0
 94
-1056964608
 47
1.0
 49
1.0
140
1.0
294
1
141
0.0
177
0
142
1.0
295
0
296
0
143
3.75
271
0
272
9
273
9
  0
DICTIONARY
  5
2D
330
A
100
AcDbDictionary
280
1
281
1
  3
CREATED_BY_EZDXF
350
2E
  3
WRITTEN_BY_EZDXF
350
36
  0
DICTIONARYVAR
  5
2E
330
2D
100
DictionaryVariables
280
0
  1
1.4.2 @ 2025-08-24T12:13:48.480590+00:00
  0
DICTIONARYVAR
  5
36
330
2D
100
DictionaryVariables
280
0
  1
1.4.2 @ 2025-08-24T12:13:48.483663+00:00
  0
ENDSEC
  0
EOF
