  0
SECTION
  2
HEADER
  9
$ACADVER
  1
AC1024
  9
$ACADMAINTVER
 70
6
  9
$DWGCODEPAGE
  3
ANSI_1252
  9
$LASTSAVEDBY
  1
ezdxf
  9
$INSBASE
 10
0.0
 20
0.0
 30
0.0
  9
$EXTMIN
 10
1e+20
 20
1e+20
 30
1e+20
  9
$EXTMAX
 10
-1e+20
 20
-1e+20
 30
-1e+20
  9
$LIMMIN
 10
0.0
 20
0.0
  9
$LIMMAX
 10
420.0
 20
297.0
  9
$ORTHOMODE
 70
0
  9
$REGENMODE
 70
1
  9
$FILLMODE
 70
1
  9
$QTEXTMODE
 70
0
  9
$MIRRTEXT
 70
1
  9
$LTSCALE
 40
1.0
  9
$ATTMODE
 70
1
  9
$TEXTSIZE
 40
2.5
  9
$TRACEWID
 40
1.0
  9
$TEXTSTYLE
  7
Standard
  9
$CLAYER
  8
0
  9
$CELTYPE
  6
ByLayer
  9
$CECOLOR
 62
256
  9
$CELTSCALE
 40
1.0
  9
$DISPSILH
 70
0
  9
$DIMSCALE
 40
1.0
  9
$DIMASZ
 40
2.5
  9
$DIMEXO
 40
0.625
  9
$DIMDLI
 40
3.75
  9
$DIMRND
 40
0.0
  9
$DIMDLE
 40
0.0
  9
$DIMEXE
 40
1.25
  9
$DIMTP
 40
0.0
  9
$DIMTM
 40
0.0
  9
$DIMTXT
 40
2.5
  9
$DIMCEN
 40
2.5
  9
$DIMTSZ
 40
0.0
  9
$DIMTOL
 70
0
  9
$DIMLIM
 70
0
  9
$DIMTIH
 70
0
  9
$DIMTOH
 70
0
  9
$DIMSE1
 70
0
  9
$DIMSE2
 70
0
  9
$DIMTAD
 70
1
  9
$DIMZIN
 70
8
  9
$DIMBLK
  1

  9
$DIMASO
 70
1
  9
$DIMSHO
 70
1
  9
$DIMPOST
  1

  9
$DIMAPOST
  1

  9
$DIMALT
 70
0
  9
$DIMALTD
 70
3
  9
$DIMALTF
 40
0.03937007874
  9
$DIMLFAC
 40
1.0
  9
$DIMTOFL
 70
1
  9
$DIMTVP
 40
0.0
  9
$DIMTIX
 70
0
  9
$DIMSOXD
 70
0
  9
$DIMSAH
 70
0
  9
$DIMBLK1
  1

  9
$DIMBLK2
  1

  9
$DIMSTYLE
  2
ISO-25
  9
$DIMCLRD
 70
0
  9
$DIMCLRE
 70
0
  9
$DIMCLRT
 70
0
  9
$DIMTFAC
 40
1.0
  9
$DIMGAP
 40
0.625
  9
$DIMJUST
 70
0
  9
$DIMSD1
 70
0
  9
$DIMSD2
 70
0
  9
$DIMTOLJ
 70
0
  9
$DIMTZIN
 70
8
  9
$DIMALTZ
 70
0
  9
$DIMALTTZ
 70
0
  9
$DIMUPT
 70
0
  9
$DIMDEC
 70
2
  9
$DIMTDEC
 70
2
  9
$DIMALTU
 70
2
  9
$DIMALTTD
 70
3
  9
$DIMTXSTY
  7
Standard
  9
$DIMAUNIT
 70
0
  9
$DIMADEC
 70
0
  9
$DIMALTRND
 40
0.0
  9
$DIMAZIN
 70
0
  9
$DIMDSEP
 70
44
  9
$DIMATFIT
 70
3
  9
$DIMFRAC
 70
0
  9
$DIMLDRBLK
  1

  9
$DIMLUNIT
 70
2
  9
$DIMLWD
 70
-2
  9
$DIMLWE
 70
-2
  9
$DIMTMOVE
 70
0
  9
$DIMFXL
 40
1.0
  9
$DIMFXLON
 70
0
  9
$DIMJOGANG
 40
0.785398163397
  9
$DIMTFILL
 70
0
  9
$DIMTFILLCLR
 70
0
  9
$DIMARCSYM
 70
0
  9
$DIMLTYPE
  6

  9
$DIMLTEX1
  6

  9
$DIMLTEX2
  6

  9
$DIMTXTDIRECTION
 70
0
  9
$LUNITS
 70
2
  9
$LUPREC
 70
4
  9
$SKETCHINC
 40
1.0
  9
$FILLETRAD
 40
10.0
  9
$AUNITS
 70
0
  9
$AUPREC
 70
2
  9
$MENU
  1
.
  9
$ELEVATION
 40
0.0
  9
$PELEVATION
 40
0.0
  9
$THICKNESS
 40
0.0
  9
$LIMCHECK
 70
0
  9
$CHAMFERA
 40
0.0
  9
$CHAMFERB
 40
0.0
  9
$CHAMFERC
 40
0.0
  9
$CHAMFERD
 40
0.0
  9
$SKPOLY
 70
0
  9
$TDCREATE
 40
2460912.6345833335
  9
$TDUCREATE
 40
2458532.153996898
  9
$TDUPDATE
 40
2460912.6345833335
  9
$TDUUPDATE
 40
2458532.1544311
  9
$TDINDWG
 40
0.0
  9
$TDUSRTIMER
 40
0.0
  9
$USRTIMER
 70
1
  9
$ANGBASE
 50
0.0
  9
$ANGDIR
 70
0
  9
$PDMODE
 70
0
  9
$PDSIZE
 40
0.0
  9
$PLINEWID
 40
0.0
  9
$SPLFRAME
 70
0
  9
$SPLINETYPE
 70
6
  9
$SPLINESEGS
 70
8
  9
$HANDSEED
  5
37
  9
$SURFTAB1
 70
6
  9
$SURFTAB2
 70
6
  9
$SURFTYPE
 70
6
  9
$SURFU
 70
6
  9
$SURFV
 70
6
  9
$UCSBASE
  2

  9
$UCSNAME
  2

  9
$UCSORG
 10
0.0
 20
0.0
 30
0.0
  9
$UCSXDIR
 10
1.0
 20
0.0
 30
0.0
  9
$UCSYDIR
 10
0.0
 20
1.0
 30
0.0
  9
$UCSORTHOREF
  2

  9
$UCSORTHOVIEW
 70
0
  9
$UCSORGTOP
 10
0.0
 20
0.0
 30
0.0
  9
$UCSORGBOTTOM
 10
0.0
 20
0.0
 30
0.0
  9
$UCSORGLEFT
 10
0.0
 20
0.0
 30
0.0
  9
$UCSORGRIGHT
 10
0.0
 20
0.0
 30
0.0
  9
$UCSORGFRONT
 10
0.0
 20
0.0
 30
0.0
  9
$UCSORGBACK
 10
0.0
 20
0.0
 30
0.0
  9
$PUCSBASE
  2

  9
$PUCSNAME
  2

  9
$PUCSORG
 10
0.0
 20
0.0
 30
0.0
  9
$PUCSXDIR
 10
1.0
 20
0.0
 30
0.0
  9
$PUCSYDIR
 10
0.0
 20
1.0
 30
0.0
  9
$PUCSORTHOREF
  2

  9
$PUCSORTHOVIEW
 70
0
  9
$PUCSORGTOP
 10
0.0
 20
0.0
 30
0.0
  9
$PUCSORGBOTTOM
 10
0.0
 20
0.0
 30
0.0
  9
$PUCSORGLEFT
 10
0.0
 20
0.0
 30
0.0
  9
$PUCSORGRIGHT
 10
0.0
 20
0.0
 30
0.0
  9
$PUCSORGFRONT
 10
0.0
 20
0.0
 30
0.0
  9
$PUCSORGBACK
 10
0.0
 20
0.0
 30
0.0
  9
$USERI1
 70
0
  9
$USERI2
 70
0
  9
$USERI3
 70
0
  9
$USERI4
 70
0
  9
$USERI5
 70
0
  9
$USERR1
 40
0.0
  9
$USERR2
 40
0.0
  9
$USERR3
 40
0.0
  9
$USERR4
 40
0.0
  9
$USERR5
 40
0.0
  9
$WORLDVIEW
 70
1
  9
$SHADEDGE
 70
3
  9
$SHADEDIF
 70
70
  9
$TILEMODE
 70
1
  9
$MAXACTVP
 70
64
  9
$PINSBASE
 10
0.0
 20
0.0
 30
0.0
  9
$PLIMCHECK
 70
0
  9
$PEXTMIN
 10
1e+20
 20
1e+20
 30
1e+20
  9
$PEXTMAX
 10
-1e+20
 20
-1e+20
 30
-1e+20
  9
$PLIMMIN
 10
0.0
 20
0.0
  9
$PLIMMAX
 10
420.0
 20
297.0
  9
$UNITMODE
 70
0
  9
$VISRETAIN
 70
1
  9
$PLINEGEN
 70
0
  9
$PSLTSCALE
 70
1
  9
$TREEDEPTH
 70
3020
  9
$CMLSTYLE
  2
Standard
  9
$CMLJUST
 70
0
  9
$CMLSCALE
 40
20.0
  9
$PROXYGRAPHICS
 70
1
  9
$MEASUREMENT
 70
1
  9
$CELWEIGHT
370
-1
  9
$ENDCAPS
280
0
  9
$JOINSTYLE
280
0
  9
$LWDISPLAY
290
0
  9
$INSUNITS
 70
6
  9
$HYPERLINKBASE
  1

  9
$STYLESHEET
  1

  9
$XEDIT
290
1
  9
$CEPSNTYPE
380
0
  9
$PSTYLEMODE
290
1
  9
$FINGERPRINTGUID
  2
{4F766341-FCE0-41A7-987C-997887EB91A5}
  9
$VERSIONGUID
  2
{4AB61BC3-6411-41D0-AEA0-68EC7C593152}
  9
$EXTNAMES
290
1
  9
$PSVPSCALE
 40
0.0
  9
$OLESTARTUP
290
0
  9
$SORTENTS
280
127
  9
$INDEXCTL
280
0
  9
$HIDETEXT
280
1
  9
$XCLIPFRAME
280
1
  9
$HALOGAP
280
0
  9
$OBSCOLOR
 70
257
  9
$OBSLTYPE
280
0
  9
$INTERSECTIONDISPLAY
280
0
  9
$INTERSECTIONCOLOR
 70
257
  9
$DIMASSOC
280
2
  9
$PROJECTNAME
  1

  9
$CAMERADISPLAY
290
0
  9
$LENSLENGTH
 40
50.0
  9
$CAMERAHEIGHT
 40
0.0
  9
$STEPSPERSEC
 40
24.0
  9
$STEPSIZE
 40
100.0
  9
$3DDWFPREC
 40
2.0
  9
$PSOLWIDTH
 40
0.005
  9
$PSOLHEIGHT
 40
0.08
  9
$LOFTANG1
 40
1.570796326795
  9
$LOFTANG2
 40
1.570796326795
  9
$LOFTMAG1
 40
0.0
  9
$LOFTMAG2
 40
0.0
  9
$LOFTPARAM
 70
7
  9
$LOFTNORMALS
280
1
  9
$LATITUDE
 40
37.795
  9
$LONGITUDE
 40
-122.394
  9
$NORTHDIRECTION
 40
0.0
  9
$TIMEZONE
 70
-8000
  9
$LIGHTGLYPHDISPLAY
280
1
  9
$TILEMODELIGHTSYNCH
280
1
  9
$CMATERIAL
347
20
  9
$SOLIDHIST
280
0
  9
$SHOWHIST
280
1
  9
$DWFFRAME
280
2
  9
$DGNFRAME
280
2
  9
$REALWORLDSCALE
290
1
  9
$INTERFERECOLOR
 62
256
  9
$CSHADOW
280
0
  9
$SHADOWPLANELOCATION
 40
0.0
  0
ENDSEC
  0
SECTION
  2
CLASSES
  0
CLASS
  1
ACDBDICTIONARYWDFLT
  2
AcDbDictionaryWithDefault
  3
ObjectDBX Classes
 90
0
 91
0
280
0
281
0
  0
CLASS
  1
SUN
  2
AcDbSun
  3
SCENEOE
 90
1153
 91
0
280
0
281
0
  0
CLASS
  1
VISUALSTYLE
  2
AcDbVisualStyle
  3
ObjectDBX Classes
 90
4095
 91
0
280
0
281
0
  0
CLASS
  1
MATERIAL
  2
AcDbMaterial
  3
ObjectDBX Classes
 90
1153
 91
0
280
0
281
0
  0
CLASS
  1
SCALE
  2
AcDbScale
  3
ObjectDBX Classes
 90
1153
 91
0
280
0
281
0
  0
CLASS
  1
TABLESTYLE
  2
AcDbTableStyle
  3
ObjectDBX Classes
 90
4095
 91
0
280
0
281
0
  0
CLASS
  1
MLEADERSTYLE
  2
AcDbMLeaderStyle
  3
ACDB_MLEADERSTYLE_CLASS
 90
4095
 91
0
280
0
281
0
  0
CLASS
  1
DICTIONARYVAR
  2
AcDbDictionaryVar
  3
ObjectDBX Classes
 90
0
 91
0
280
0
281
0
  0
CLASS
  1
CELLSTYLEMAP
  2
AcDbCellStyleMap
  3
ObjectDBX Classes
 90
1152
 91
0
280
0
281
0
  0
CLASS
  1
MENTALRAYRENDERSETTINGS
  2
AcDbMentalRayRenderSettings
  3
SCENEOE
 90
1024
 91
0
280
0
281
0
  0
CLASS
  1
ACDBDETAILVIEWSTYLE
  2
AcDbDetailViewStyle
  3
ObjectDBX Classes
 90
1025
 91
0
280
0
281
0
  0
CLASS
  1
ACDBSECTIONVIEWSTYLE
  2
AcDbSectionViewStyle
  3
ObjectDBX Classes
 90
1025
 91
0
280
0
281
0
  0
CLASS
  1
RASTERVARIABLES
  2
AcDbRasterVariables
  3
ISM
 90
0
 91
0
280
0
281
0
  0
CLASS
  1
LAYOUT
  2
AcDbLayout
  3
ObjectDBX Classes
 90
0
 91
0
280
0
281
0
  0
CLASS
  1
ACDBPLACEHOLDER
  2
AcDbPlaceHolder
  3
ObjectDBX Classes
 90
0
 91
0
280
0
281
0
  0
ENDSEC
  0
SECTION
  2
TABLES
  0
TABLE
  2
VPORT
  5
8
330
0
100
AcDbSymbolTable
 70
1
  0
VPORT
  5
23
330
8
100
AcDbSymbolTableRecord
100
AcDbViewportTableRecord
  2
*Active
 70
0
 10
0.0
 20
0.0
 11
1.0
 21
1.0
 12
0.0
 22
0.0
 13
0.0
 23
0.0
 14
0.5
 24
0.5
 15
0.5
 25
0.5
 16
0.0
 26
0.0
 36
1.0
 17
0.0
 27
0.0
 37
0.0
 40
1000.0
 41
1.34
 42
50.0
 43
0.0
 44
0.0
 50
0.0
 51
0.0
 71
0
 72
1000
 73
1
 74
3
 75
0
 76
0
 77
0
 78
0
281
0
 65
0
146
0.0
  0
ENDTAB
  0
TABLE
  2
LTYPE
  5
2
330
0
100
AcDbSymbolTable
 70
3
  0
LTYPE
  5
24
330
2
100
AcDbSymbolTableRecord
100
AcDbLinetypeTableRecord
  2
ByBlock
 70
0
  3

 72
65
 73
0
 40
0.0
  0
LTYPE
  5
25
330
2
100
AcDbSymbolTableRecord
100
AcDbLinetypeTableRecord
  2
ByLayer
 70
0
  3

 72
65
 73
0
 40
0.0
  0
LTYPE
  5
26
330
2
100
AcDbSymbolTableRecord
100
AcDbLinetypeTableRecord
  2
Continuous
 70
0
  3

 72
65
 73
0
 40
0.0
  0
ENDTAB
  0
TABLE
  2
LAYER
  5
1
330
0
100
AcDbSymbolTable
 70
2
  0
LAYER
  5
27
330
1
100
AcDbSymbolTableRecord
100
AcDbLayerTableRecord
  2
0
 70
0
 62
7
  6
Continuous
370
-3
390
13
347
21
  0
LAYER
  5
28
330
1
100
AcDbSymbolTableRecord
100
AcDbLayerTableRecord
  2
Defpoints
 70
0
 62
7
  6
Continuous
290
0
370
-3
390
13
347
21
  0
ENDTAB
  0
TABLE
  2
STYLE
  5
5
330
0
100
AcDbSymbolTable
 70
1
  0
STYLE
  5
29
330
5
100
AcDbSymbolTableRecord
100
AcDbTextStyleTableRecord
  2
Standard
 70
0
 40
0.0
 41
1.0
 50
0.0
 71
0
 42
2.5
  3
txt
  4

  0
ENDTAB
  0
TABLE
  2
VIEW
  5
7
330
0
100
AcDbSymbolTable
 70
0
  0
ENDTAB
  0
TABLE
  2
UCS
  5
6
330
0
100
AcDbSymbolTable
 70
0
  0
ENDTAB
  0
TABLE
  2
APPID
  5
3
330
0
100
AcDbSymbolTable
 70
3
  0
APPID
  5
2A
330
3
100
AcDbSymbolTableRecord
100
AcDbRegAppTableRecord
  2
ACAD
 70
0
  0
APPID
  5
34
330
3
100
AcDbSymbolTableRecord
100
AcDbRegAppTableRecord
  2
HATCHBACKGROUNDCOLOR
 70
0
  0
APPID
  5
35
330
3
100
AcDbSymbolTableRecord
100
AcDbRegAppTableRecord
  2
EZDXF
 70
0
  0
ENDTAB
  0
TABLE
  2
DIMSTYLE
  5
4
330
0
100
AcDbSymbolTable
 70
1
100
AcDbDimStyleTable
  0
DIMSTYLE
105
2B
330
4
100
AcDbSymbolTableRecord
100
AcDbDimStyleTableRecord
  2
Standard
 70
0
 40
1.0
 41
2.5
 42
0.625
 43
3.75
 44
1.25
 45
0.0
 46
0.0
 47
0.0
 48
0.0
 49
2.5
140
2.5
141
2.5
142
0.0
143
0.03937007874
144
1.0
145
0.0
146
1.0
147
0.625
148
0.0
 69
0
 70
0
 71
0
 72
0
 73
0
 74
0
 75
0
 76
0
 77
1
 78
8
 79
3
170
0
171
3
172
1
173
0
174
0
175
0
176
0
177
0
178
0
179
2
271
2
272
2
273
2
274
3
275
0
276
0
277
2
278
44
279
0
280
0
281
0
282
0
283
0
284
8
285
0
286
0
288
0
289
3
290
0
371
-2
372
-2
  0
ENDTAB
  0
TABLE
  2
BLOCK_RECORD
  5
9
330
0
100
AcDbSymbolTable
 70
2
  0
BLOCK_RECORD
  5
17
330
9
100
AcDbSymbolTableRecord
100
AcDbBlockTableRecord
  2
*Model_Space
340
1A
 70
0
280
1
281
0
  0
BLOCK_RECORD
  5
1B
330
9
100
AcDbSymbolTableRecord
100
AcDbBlockTableRecord
  2
*Paper_Space
340
1E
 70
0
280
1
281
0
  0
ENDTAB
  0
ENDSEC
  0
SECTION
  2
BLOCKS
  0
BLOCK
  5
18
330
17
100
AcDbEntity
  8
0
100
AcDbBlockBegin
  2
*Model_Space
 70
0
 10
0.0
 20
0.0
 30
0.0
  3
*Model_Space
  1

  0
ENDBLK
  5
19
330
17
100
AcDbEntity
  8
0
100
AcDbBlockEnd
  0
BLOCK
  5
1C
330
1B
100
AcDbEntity
  8
0
100
AcDbBlockBegin
  2
*Paper_Space
 70
0
 10
0.0
 20
0.0
 30
0.0
  3
*Paper_Space
  1

  0
ENDBLK
  5
1D
330
1B
100
AcDbEntity
  8
0
100
AcDbBlockEnd
  0
ENDSEC
  0
SECTION
  2
ENTITIES
  0
LWPOLYLINE
  5
2F
330
17
100
AcDbEntity
  8
FRAME
100
AcDbPolyline
 90
5
 70
1
 10
280.0
 20
-20.0
 10
620.0
 20
-20.0
 10
620.0
 20
320.0
 10
280.0
 20
320.0
 10
280.0
 20
-20.0
  0
CIRCLE
  5
30
330
17
100
AcDbEntity
  8
CIRCLES
100
AcDbCircle
 10
450.0
 20
100.0
 30
0.0
 40
5.0
  0
CIRCLE
  5
31
330
17
100
AcDbEntity
  8
CIRCLES
100
AcDbCircle
 10
400.0
 20
200.0
 30
0.0
 40
5.0
  0
CIRCLE
  5
32
330
17
100
AcDbEntity
  8
CIRCLES
100
AcDbCircle
 10
500.0
 20
200.0
 30
0.0
 40
5.0
  0
LWPOLYLINE
  5
33
330
17
100
AcDbEntity
  8
CONTOUR_1
100
AcDbPolyline
 90
503
 70
1
 10
300.0027465701546
 20
0.2507169257304725
 10
301.2281699040176
 20
1.4761402595934807
 10
301.2281699040176
 20
6.377833595045513
 10
298.7773232362916
 20
8.82868026277153
 10
297.5518999024286
 20
8.82868026277153
 10
297.5518999024286
 20
11.279526930497546
 10
298.7773232362916
 20
12.504950264360554
 10
298.7773232362916
 20
14.955796932086571
 10
300.0027465701546
 20
16.18122026594958
 10
300.0027465701546
 20
17.406643599812586
 10
301.2281699040176
 20
18.632066933675596
 10
301.2281699040176
 20
21.08291360140161
 10
298.7773232362916
 20
23.533760269127626
 10
298.7773232362916
 20
25.984606936853645
 10
300.0027465701546
 20
27.21003027071665
 10
300.0027465701546
 20
29.66087693844267
 10
301.2281699040176
 20
30.886300272305675
 10
301.2281699040176
 20
33.337146940031694
 10
302.4535932378806
 20
34.5625702738947
 10
302.4535932378806
 20
35.78799360775771
 10
303.6790165717436
 20
35.78799360775771
 10
304.90443990560664
 20
37.01341694162072
 10
304.90443990560664
 20
38.238840275483724
 10
306.1298632394696
 20
39.46426360934674
 10
306.1298632394696
 20
40.68968694320974
 10
307.35528657333265
 20
41.91511027707275
 10
307.35528657333265
 20
44.36595694479877
 10
308.5807099071956
 20
45.591380278661774
 10
308.5807099071956
 20
48.04222694638779
 10
306.1298632394696
 20
50.493073614113804
 10
303.6790165717436
 20
50.493073614113804
 10
302.4535932378806
 20
51.71849694797682
 10
301.2281699040176
 20
51.71849694797682
 10
302.4535932378806
 20
51.71849694797682
 10
303.6790165717436
 20
50.493073614113804
 10
306.1298632394696
 20
52.94392028183982
 10
306.1298632394696
 20
54.16934361570283
 10
307.35528657333265
 20
55.39476694956584
 10
307.35528657333265
 20
56.62019028342885
 10
308.5807099071956
 20
57.84561361729185
 10
308.5807099071956
 20
60.29646028501787
 10
309.80613324105866
 20
61.52188361888088
 10
309.80613324105866
 20
62.74730695274389
 10
307.35528657333265
 20
65.19815362046991
 10
304.90443990560664
 20
65.19815362046991
 10
306.1298632394696
 20
66.42357695433292
 10
306.1298632394696
 20
67.64900028819592
 10
307.35528657333265
 20
68.87442362205893
 10
307.35528657333265
 20
70.09984695592193
 10
308.5807099071956
 20
71.32527028978495
 10
308.5807099071956
 20
72.55069362364796
 10
309.80613324105866
 20
73.77611695751096
 10
309.80613324105866
 20
75.00154029137397
 10
311.0315565749217
 20
76.22696362523698
 10
311.0315565749217
 20
77.45238695909998
 10
307.35528657333265
 20
81.12865696068901
 10
306.1298632394696
 20
81.12865696068901
 10
304.90443990560664
 20
82.35408029455202
 10
303.6790165717436
 20
82.35408029455202
 10
302.4535932378806
 20
83.57950362841503
 10
301.2281699040176
 20
83.57950362841503
 10
301.2281699040176
 20
88.48119696386706
 10
302.4535932378806
 20
88.48119696386706
 10
304.90443990560664
 20
90.93204363159307
 10
304.90443990560664
 20
92.15746696545608
 10
306.1298632394696
 20
93.38289029931909
 10
306.1298632394696
 20
95.83373696704511
 10
307.35528657333265
 20
97.05916030090812
 10
307.35528657333265
 20
98.28458363477112
 10
308.5807099071956
 20
99.51000696863413
 10
308.5807099071956
 20
103.18627697022316
 10
307.35528657333265
 20
104.41170030408617
 10
306.1298632394696
 20
104.41170030408617
 10
304.90443990560664
 20
105.63712363794917
 10
303.6790165717436
 20
105.63712363794917
 10
302.4535932378806
 20
106.86254697181218
 10
301.2281699040176
 20
106.86254697181218
 10
298.7773232362916
 20
109.3133936395382
 10
298.7773232362916
 20
112.98966364112722
 10
300.0027465701546
 20
114.21508697499023
 10
300.0027465701546
 20
117.89135697657926
 10
301.2281699040176
 20
119.11678031044227
 10
302.4535932378806
 20
119.11678031044227
 10
303.6790165717436
 20
120.34220364430527
 10
303.6790165717436
 20
124.0184736458943
 10
302.4535932378806
 20
125.24389697975731
 10
303.6790165717436
 20
126.46932031362032
 10
303.6790165717436
 20
127.69474364748332
 10
304.90443990560664
 20
128.92016698134634
 10
304.90443990560664
 20
130.14559031520935
 10
306.1298632394696
 20
131.37101364907235
 10
306.1298632394696
 20
132.59643698293536
 10
307.35528657333265
 20
133.82186031679836
 10
307.35528657333265
 20
135.04728365066137
 10
308.5807099071956
 20
136.27270698452438
 10
308.5807099071956
 20
137.49813031838738
 10
307.35528657333265
 20
138.7235536522504
 10
306.1298632394696
 20
138.7235536522504
 10
304.90443990560664
 20
139.9489769861134
 10
301.2281699040176
 20
139.9489769861134
 10
301.2281699040176
 20
142.39982365383943
 10
298.7773232362916
 20
144.85067032156545
 10
300.0027465701546
 20
146.07609365542845
 10
300.0027465701546
 20
148.52694032315446
 10
301.2281699040176
 20
149.75236365701747
 10
301.2281699040176
 20
153.4286336586065
 10
302.4535932378806
 20
154.6540569924695
 10
302.4535932378806
 20
155.8794803263325
 10
301.2281699040176
 20
157.1049036601955
 10
301.2281699040176
 20
160.78117366178452
 10
300.0027465701546
 20
162.00659699564753
 10
300.0027465701546
 20
174.2608303342776
 10
303.6790165717436
 20
174.2608303342776
 10
304.90443990560664
 20
175.48625366814062
 10
304.90443990560664
 20
186.5150636729077
 10
303.6790165717436
 20
187.7404870067707
 10
303.6790165717436
 20
190.19133367449672
 10
302.4535932378806
 20
191.41675700835972
 10
302.4535932378806
 20
195.09302700994874
 10
301.2281699040176
 20
196.31845034381178
 10
301.2281699040176
 20
208.57268368244183
 10
303.6790165717436
 20
211.02353035016785
 10
304.90443990560664
 20
211.02353035016785
 10
306.1298632394696
 20
212.24895368403088
 10
306.1298632394696
 20
213.4743770178939
 10
307.35528657333265
 20
214.6998003517569
 10
307.35528657333265
 20
217.1506470194829
 10
306.1298632394696
 20
218.3760703533459
 10
306.1298632394696
 20
219.60149368720892
 10
303.6790165717436
 20
222.05234035493493
 10
303.6790165717436
 20
223.27776368879793
 10
301.2281699040176
 20
225.72861035652394
 10
301.2281699040176
 20
226.95403369038698
 10
296.32647656856557
 20
231.855727025839
 10
296.32647656856557
 20
233.081150359702
 10
293.87562990083956
 20
235.53199702742802
 10
295.10105323470253
 20
236.75742036129103
 10
296.32647656856557
 20
236.75742036129103
 10
303.6790165717436
 20
244.1099603644691
 10
301.2281699040176
 20
246.5608070321951
 10
301.2281699040176
 20
247.7862303660581
 10
300.0027465701546
 20
249.0116536999211
 10
300.0027465701546
 20
252.68792370151013
 10
301.2281699040176
 20
253.91334703537314
 10
301.2281699040176
 20
256.36419370309915
 10
304.90443990560664
 20
260.0404637046882
 10
304.90443990560664
 20
261.26588703855117
 10
296.32647656856557
 20
269.84385037559224
 10
298.7773232362916
 20
272.29469704331825
 10
298.7773232362916
 20
273.5201203771813
 10
300.0027465701546
 20
274.74554371104426
 10
300.0027465701546
 20
275.9709670449073
 10
301.2281699040176
 20
277.1963903787703
 10
301.2281699040176
 20
282.09808371422235
 10
297.5518999024286
 20
285.77435371581134
 10
296.32647656856557
 20
285.77435371581134
 10
293.87562990083956
 20
288.22520038353736
 10
292.6502065669765
 20
288.22520038353736
 10
291.42478323311354
 20
289.4506237174004
 10
291.42478323311354
 20
291.9014703851264
 10
293.87562990083956
 20
294.3523170528524
 10
293.87562990083956
 20
295.57774038671545
 10
296.32647656856557
 20
298.02858705444146
 10
296.32647656856557
 20
299.25401038830444
 10
297.5518999024286
 20
299.25401038830444
 10
298.7773232362916
 20
298.02858705444146
 10
301.2281699040176
 20
298.02858705444146
 10
302.4535932378806
 20
299.25401038830444
 10
308.5807099071956
 20
299.25401038830444
 10
309.80613324105866
 20
300.47943372216747
 10
319.6095199119627
 20
300.47943372216747
 10
322.0603665796887
 20
298.02858705444146
 10
323.28578991355175
 20
298.02858705444146
 10
324.51121324741473
 20
299.25401038830444
 10
322.0603665796887
 20
301.70485705603045
 10
322.0603665796887
 20
302.9302803898935
 10
328.1874832490038
 20
309.05739705920854
 10
330.6383299167298
 20
309.05739705920854
 10
339.21629325377086
 20
300.47943372216747
 10
340.4417165876339
 20
300.47943372216747
 10
342.8925632553599
 20
298.02858705444146
 10
344.1179865892229
 20
298.02858705444146
 10
345.3434099230859
 20
296.8031637205784
 10
346.5688332569489
 20
296.8031637205784
 10
353.9213732601269
 20
289.4506237174004
 10
355.14679659398996
 20
289.4506237174004
 10
360.048489929442
 20
294.3523170528524
 10
360.048489929442
 20
295.57774038671545
 10
362.499336597168
 20
298.02858705444146
 10
367.40102993262
 20
298.02858705444146
 10
368.62645326648305
 20
299.25401038830444
 10
368.62645326648305
 20
300.47943372216747
 10
371.07729993420907
 20
302.9302803898935
 10
371.07729993420907
 20
304.15570372375646
 10
373.5281466019351
 20
306.6065503914825
 10
373.5281466019351
 20
307.8319737253455
 10
374.7535699357981
 20
307.8319737253455
 10
377.2044166035241
 20
305.3811270576195
 10
378.4298399373871
 20
305.3811270576195
 10
383.3315332728391
 20
300.47943372216747
 10
384.55695660670216
 20
300.47943372216747
 10
387.00780327442817
 20
298.02858705444146
 10
393.1349199437432
 20
298.02858705444146
 10
395.58576661146924
 20
300.47943372216747
 10
395.58576661146924
 20
301.70485705603045
 10
398.03661327919525
 20
304.15570372375646
 10
398.03661327919525
 20
305.3811270576195
 10
399.2620366130582
 20
306.6065503914825
 10
400.48745994692126
 20
306.6065503914825
 10
400.48745994692126
 20
299.25401038830444
 10
401.7128832807843
 20
298.02858705444146
 10
402.9383066146473
 20
298.02858705444146
 10
404.1637299485103
 20
299.25401038830444
 10
404.1637299485103
 20
304.15570372375646
 10
405.3891532823733
 20
304.15570372375646
 10
406.6145766162363
 20
302.9302803898935
 10
407.8399999500993
 20
302.9302803898935
 10
409.06542328396233
 20
301.70485705603045
 10
410.2908466178253
 20
301.70485705603045
 10
411.51626995168834
 20
300.47943372216747
 10
412.7416932855513
 20
300.47943372216747
 10
415.1925399532774
 20
298.02858705444146
 10
421.3196566225924
 20
298.02858705444146
 10
422.5450799564554
 20
296.8031637205784
 10
426.2213499580444
 20
296.8031637205784
 10
427.44677329190745
 20
295.57774038671545
 10
431.1230432934965
 20
295.57774038671545
 10
433.5738899612225
 20
298.02858705444146
 10
433.5738899612225
 20
299.25401038830444
 10
434.7993132950855
 20
300.47943372216747
 10
434.7993132950855
 20
301.70485705603045
 10
436.0247366289485
 20
302.9302803898935
 10
436.0247366289485
 20
305.3811270576195
 10
443.37727663212655
 20
305.3811270576195
 10
443.37727663212655
 20
299.25401038830444
 10
444.60269996598953
 20
298.02858705444146
 10
445.82812329985256
 20
299.25401038830444
 10
445.82812329985256
 20
300.47943372216747
 10
447.0535466337156
 20
301.70485705603045
 10
447.0535466337156
 20
304.15570372375646
 10
451.9552399691676
 20
304.15570372375646
 10
453.1806633030306
 20
302.9302803898935
 10
456.85693330461964
 20
302.9302803898935
 10
456.85693330461964
 20
299.25401038830444
 10
458.0823566384826
 20
298.02858705444146
 10
459.30777997234566
 20
298.02858705444146
 10
460.5332033062087
 20
299.25401038830444
 10
460.5332033062087
 20
302.9302803898935
 10
461.75862664007167
 20
302.9302803898935
 10
462.9840499739347
 20
301.70485705603045
 10
467.8857433093867
 20
301.70485705603045
 10
467.8857433093867
 20
299.25401038830444
 10
469.1111666432497
 20
298.02858705444146
 10
470.33658997711274
 20
298.02858705444146
 10
471.5620133109757
 20
299.25401038830444
 10
471.5620133109757
 20
301.70485705603045
 10
474.0128599787017
 20
301.70485705603045
 10
475.23828331256476
 20
300.47943372216747
 10
478.9145533141538
 20
300.47943372216747
 10
478.9145533141538
 20
299.25401038830444
 10
480.1399766480168
 20
298.02858705444146
 10
481.3653999818798
 20
298.02858705444146
 10
482.5908233157428
 20
299.25401038830444
 10
493.6196333205099
 20
299.25401038830444
 10
494.8450566543729
 20
298.02858705444146
 10
498.5213266559619
 20
298.02858705444146
 10
499.74674998982493
 20
299.25401038830444
 10
510.775559994592
 20
299.25401038830444
 10
512.000983328455
 20
298.02858705444146
 10
526.7060633348111
 20
298.02858705444146
 10
527.9314866686741
 20
299.25401038830444
 10
527.9314866686741
 20
300.47943372216747
 10
529.1569100025371
 20
301.70485705603045
 10
531.6077566702631
 20
301.70485705603045
 10
532.8331800041261
 20
302.9302803898935
 10
535.2840266718522
 20
302.9302803898935
 10
536.5094500057152
 20
304.15570372375646
 10
536.5094500057152
 20
299.25401038830444
 10
537.7348733395781
 20
298.02858705444146
 10
537.7348733395781
 20
295.57774038671545
 10
538.9602966734412
 20
294.3523170528524
 10
541.4111433411672
 20
296.8031637205784
 10
542.6365666750302
 20
296.8031637205784
 10
543.8619900088933
 20
298.02858705444146
 10
545.0874133427562
 20
298.02858705444146
 10
549.9891066782083
 20
302.9302803898935
 10
551.2145300120712
 20
301.70485705603045
 10
551.2145300120712
 20
300.47943372216747
 10
553.6653766797973
 20
298.02858705444146
 10
554.8908000136603
 20
298.02858705444146
 10
554.8908000136603
 20
296.8031637205784
 10
556.1162233475233
 20
295.57774038671545
 10
556.1162233475233
 20
294.3523170528524
 10
558.5670700152493
 20
291.9014703851264
 10
559.7924933491123
 20
293.1268937189894
 10
561.0179166829753
 20
293.1268937189894
 10
562.2433400168384
 20
294.3523170528524
 10
563.4687633507014
 20
294.3523170528524
 10
564.6941866845643
 20
295.57774038671545
 10
565.9196100184274
 20
295.57774038671545
 10
568.3704566861534
 20
298.02858705444146
 10
572.0467266877424
 20
298.02858705444146
 10
573.2721500216054
 20
299.25401038830444
 10
574.4975733554684
 20
299.25401038830444
 10
574.4975733554684
 20
296.8031637205784
 10
575.7229966893315
 20
295.57774038671545
 10
576.9484200231944
 20
295.57774038671545
 10
578.1738433570574
 20
296.8031637205784
 10
580.6246900247835
 20
296.8031637205784
 10
581.8501133586465
 20
298.02858705444146
 10
585.5263833602355
 20
298.02858705444146
 10
586.7518066940985
 20
299.25401038830444
 10
589.2026533618246
 20
299.25401038830444
 10
590.4280766956875
 20
300.47943372216747
 10
591.6535000295505
 20
300.47943372216747
 10
592.8789233634135
 20
301.70485705603045
 10
595.3297700311396
 20
301.70485705603045
 10
596.5551933650025
 20
302.9302803898935
 10
597.7806166988656
 20
302.9302803898935
 10
599.0060400327286
 20
304.15570372375646
 10
600.2314633665916
 20
302.9302803898935
 10
600.2314633665916
 20
301.70485705603045
 10
601.4568867004546
 20
300.47943372216747
 10
601.4568867004546
 20
299.25401038830444
 10
602.6823100343177
 20
298.02858705444146
 10
602.6823100343177
 20
296.8031637205784
 10
603.9077333681806
 20
295.57774038671545
 10
603.9077333681806
 20
293.1268937189894
 10
601.4568867004546
 20
293.1268937189894
 10
600.2314633665916
 20
291.9014703851264
 10
599.0060400327286
 20
291.9014703851264
 10
597.7806166988656
 20
290.67604705126337
 10
597.7806166988656
 20
289.4506237174004
 10
599.0060400327286
 20
288.22520038353736
 10
600.2314633665916
 20
288.22520038353736
 10
601.4568867004546
 20
289.4506237174004
 10
602.6823100343177
 20
289.4506237174004
 10
602.6823100343177
 20
288.22520038353736
 10
603.9077333681806
 20
286.9997770496744
 10
603.9077333681806
 20
285.77435371581134
 10
605.1331567020436
 20
284.54893038194837
 10
605.1331567020436
 20
283.32350704808533
 10
599.0060400327286
 20
283.32350704808533
 10
597.7806166988656
 20
282.09808371422235
 10
596.5551933650025
 20
282.09808371422235
 10
595.3297700311396
 20
280.8726603803593
 10
595.3297700311396
 20
268.61842704172926
 10
596.5551933650025
 20
267.3930037078662
 10
597.7806166988656
 20
267.3930037078662
 10
596.5551933650025
 20
266.16758037400325
 10
596.5551933650025
 20
255.13877036923614
 10
597.7806166988656
 20
253.91334703537314
 10
597.7806166988656
 20
250.23707703378412
 10
595.3297700311396
 20
247.7862303660581
 10
595.3297700311396
 20
236.75742036129103
 10
596.5551933650025
 20
235.53199702742802
 10
597.7806166988656
 20
235.53199702742802
 10
599.0060400327286
 20
234.306573693565
 10
599.0060400327286
 20
223.27776368879793
 10
597.7806166988656
 20
222.05234035493493
 10
597.7806166988656
 20
195.09302700994874
 10
599.0060400327286
 20
193.86760367608574
 10
600.2314633665916
 20
195.09302700994874
 10
602.6823100343177
 20
195.09302700994874
 10
603.9077333681806
 20
193.86760367608574
 10
603.9077333681806
 20
192.64218034222273
 10
605.1331567020436
 20
191.41675700835972
 10
605.1331567020436
 20
188.9659103406337
 10
606.3585800359066
 20
187.7404870067707
 10
606.3585800359066
 20
186.5150636729077
 10
607.5840033697697
 20
185.2896403390447
 10
606.3585800359066
 20
184.0642170051817
 10
603.9077333681806
 20
184.0642170051817
 10
602.6823100343177
 20
182.83879367131868
 10
602.6823100343177
 20
179.16252366972964
 10
603.9077333681806
 20
177.93710033586663
 10
603.9077333681806
 20
174.2608303342776
 10
605.1331567020436
 20
173.0354070004146
 10
605.1331567020436
 20
169.3591369988256
 10
603.9077333681806
 20
169.3591369988256
 10
602.6823100343177
 20
168.13371366496258
 10
599.0060400327286
 20
168.13371366496258
 10
596.5551933650025
 20
165.68286699723654
 10
596.5551933650025
 20
164.45744366337354
 10
597.7806166988656
 20
163.23202032951053
 10
597.7806166988656
 20
159.55575032792152
 10
599.0060400327286
 20
158.3303269940585
 10
599.0060400327286
 20
157.1049036601955
 10
600.2314633665916
 20
155.8794803263325
 10
600.2314633665916
 20
153.4286336586065
 10
599.0060400327286
 20
153.4286336586065
 10
597.7806166988656
 20
152.20321032474348
 10
599.0060400327286
 20
150.97778699088047
 10
597.7806166988656
 20
149.75236365701747
 10
597.7806166988656
 20
144.85067032156545
 10
599.0060400327286
 20
143.62524698770244
 10
599.0060400327286
 20
139.9489769861134
 10
600.2314633665916
 20
138.7235536522504
 10
600.2314633665916
 20
133.82186031679836
 10
599.0060400327286
 20
133.82186031679836
 10
597.7806166988656
 20
132.59643698293536
 10
597.7806166988656
 20
131.37101364907235
 10
599.0060400327286
 20
130.14559031520935
 10
600.2314633665916
 20
131.37101364907235
 10
602.6823100343177
 20
131.37101364907235
 10
603.9077333681806
 20
132.59643698293536
 10
605.1331567020436
 20
131.37101364907235
 10
605.1331567020436
 20
128.92016698134634
 10
606.3585800359066
 20
127.69474364748332
 10
606.3585800359066
 20
125.24389697975731
 10
607.5840033697697
 20
124.0184736458943
 10
607.5840033697697
 20
120.34220364430527
 10
605.1331567020436
 20
120.34220364430527
 10
603.9077333681806
 20
119.11678031044227
 10
599.0060400327286
 20
119.11678031044227
 10
597.7806166988656
 20
117.89135697657926
 10
597.7806166988656
 20
116.66593364271625
 10
600.2314633665916
 20
114.21508697499023
 10
600.2314633665916
 20
112.98966364112722
 10
601.4568867004546
 20
111.76424030726422
 10
601.4568867004546
 20
110.53881697340121
 10
599.0060400327286
 20
110.53881697340121
 10
597.7806166988656
 20
109.3133936395382
 10
597.7806166988656
 20
106.86254697181218
 10
600.2314633665916
 20
104.41170030408617
 10
600.2314633665916
 20
103.18627697022316
 10
601.4568867004546
 20
101.96085363636016
 10
601.4568867004546
 20
100.73543030249714
 10
602.6823100343177
 20
99.51000696863413
 10
602.6823100343177
 20
98.28458363477112
 10
603.9077333681806
 20
97.05916030090812
 10
602.6823100343177
 20
95.83373696704511
 10
601.4568867004546
 20
95.83373696704511
 10
600.2314633665916
 20
94.6083136331821
 10
599.0060400327286
 20
94.6083136331821
 10
596.5551933650025
 20
92.15746696545608
 10
595.3297700311396
 20
92.15746696545608
 10
594.1043466972766
 20
90.93204363159307
 10
594.1043466972766
 20
86.03035029614104
 10
595.3297700311396
 20
84.80492696227803
 10
596.5551933650025
 20
86.03035029614104
 10
597.7806166988656
 20
86.03035029614104
 10
599.0060400327286
 20
84.80492696227803
 10
600.2314633665916
 20
86.03035029614104
 10
601.4568867004546
 20
86.03035029614104
 10
603.9077333681806
 20
83.57950362841503
 10
603.9077333681806
 20
82.35408029455202
 10
606.3585800359066
 20
79.90323362682601
 10
606.3585800359066
 20
78.677810292963
 10
607.5840033697697
 20
77.45238695909998
 10
606.3585800359066
 20
76.22696362523698
 10
603.9077333681806
 20
76.22696362523698
 10
602.6823100343177
 20
75.00154029137397
 10
601.4568867004546
 20
75.00154029137397
 10
600.2314633665916
 20
73.77611695751096
 10
599.0060400327286
 20
73.77611695751096
 10
597.7806166988656
 20
72.55069362364796
 10
597.7806166988656
 20
70.09984695592193
 10
599.0060400327286
 20
68.87442362205893
 10
600.2314633665916
 20
70.09984695592193
 10
602.6823100343177
 20
70.09984695592193
 10
602.6823100343177
 20
68.87442362205893
 10
603.9077333681806
 20
67.64900028819592
 10
603.9077333681806
 20
66.42357695433292
 10
605.1331567020436
 20
65.19815362046991
 10
605.1331567020436
 20
63.9727302866069
 10
606.3585800359066
 20
62.74730695274389
 10
606.3585800359066
 20
61.52188361888088
 10
605.1331567020436
 20
60.29646028501787
 10
602.6823100343177
 20
60.29646028501787
 10
601.4568867004546
 20
59.071036951154866
 10
599.0060400327286
 20
59.071036951154866
 10
597.7806166988656
 20
57.84561361729185
 10
597.7806166988656
 20
50.493073614113804
 10
599.0060400327286
 20
49.2676502802508
 10
599.0060400327286
 20
48.04222694638779
 10
600.2314633665916
 20
46.81680361252478
 10
600.2314633665916
 20
43.140533610935755
 10
599.0060400327286
 20
43.140533610935755
 10
597.7806166988656
 20
41.91511027707275
 10
597.7806166988656
 20
35.78799360775771
 10
600.2314633665916
 20
33.337146940031694
 10
600.2314633665916
 20
32.11172360616869
 10
602.6823100343177
 20
29.66087693844267
 10
602.6823100343177
 20
28.43545360457966
 10
600.2314633665916
 20
25.984606936853645
 10
599.0060400327286
 20
25.984606936853645
 10
597.7806166988656
 20
24.759183602990635
 10
597.7806166988656
 20
21.08291360140161
 10
600.2314633665916
 20
18.632066933675596
 10
600.2314633665916
 20
17.406643599812586
 10
601.4568867004546
 20
16.18122026594958
 10
601.4568867004546
 20
14.955796932086571
 10
602.6823100343177
 20
13.730373598223562
 10
602.6823100343177
 20
11.279526930497546
 10
601.4568867004546
 20
11.279526930497546
 10
600.2314633665916
 20
10.054103596634539
 10
599.0060400327286
 20
10.054103596634539
 10
596.5551933650025
 20
7.603256928908522
 10
596.5551933650025
 20
2.701563593456489
 10
597.7806166988656
 20
1.4761402595934807
 10
597.7806166988656
 20
0.2507169257304725
 10
300.0027465701546
 20
0.2507169257304725
  0
ENDSEC
  0
SECTION
  2
OBJECTS
  0
DICTIONARY
  5
A
330
0
100
AcDbDictionary
281
1
  3
ACAD_COLOR
350
B
  3
ACAD_GROUP
350
C
  3
ACAD_LAYOUT
350
D
  3
ACAD_MATERIAL
350
E
  3
ACAD_MLEADERSTYLE
350
F
  3
ACAD_MLINESTYLE
350
10
  3
ACAD_PLOTSETTINGS
350
11
  3
ACAD_PLOTSTYLENAME
350
12
  3
ACAD_SCALELIST
350
14
  3
ACAD_TABLESTYLE
350
15
  3
ACAD_VISUALSTYLE
350
16
  3
EZDXF_META
350
2D
  0
DICTIONARY
  5
B
330
A
100
AcDbDictionary
281
1
  0
DICTIONARY
  5
C
330
A
100
AcDbDictionary
281
1
  0
DICTIONARY
  5
D
330
A
100
AcDbDictionary
281
1
  3
Model
350
1A
  3
Layout1
350
1E
  0
DICTIONARY
  5
E
330
A
100
AcDbDictionary
281
1
  3
ByBlock
350
1F
  3
ByLayer
350
20
  3
Global
350
21
  0
DICTIONARY
  5
F
330
A
100
AcDbDictionary
281
1
  3
Standard
350
2C
  0
DICTIONARY
  5
10
330
A
100
AcDbDictionary
281
1
  3
Standard
350
22
  0
DICTIONARY
  5
11
330
A
100
AcDbDictionary
281
1
  0
ACDBDICTIONARYWDFLT
  5
12
330
A
100
AcDbDictionary
281
1
  3
Normal
350
13
100
AcDbDictionaryWithDefault
340
13
  0
ACDBPLACEHOLDER
  5
13
330
12
  0
DICTIONARY
  5
14
330
A
100
AcDbDictionary
281
1
  0
DICTIONARY
  5
15
330
A
100
AcDbDictionary
281
1
  0
DICTIONARY
  5
16
330
A
100
AcDbDictionary
281
1
  0
LAYOUT
  5
1A
330
D
100
AcDbPlotSettings
  1

  4
A3
  6

 40
7.5
 41
20.0
 42
7.5
 43
20.0
 44
420.0
 45
297.0
 46
0.0
 47
0.0
 48
0.0
 49
0.0
140
0.0
141
0.0
142
1.0
143
1.0
 70
1024
 72
1
 73
0
 74
5
  7

 75
16
 76
0
 77
2
 78
300
147
1.0
148
0.0
149
0.0
100
AcDbLayout
  1
Model
 70
1
 71
0
 10
0.0
 20
0.0
 11
420.0
 21
297.0
 12
0.0
 22
0.0
 32
0.0
 14
1e+20
 24
1e+20
 34
1e+20
 15
-1e+20
 25
-1e+20
 35
-1e+20
146
0.0
 13
0.0
 23
0.0
 33
0.0
 16
1.0
 26
0.0
 36
0.0
 17
0.0
 27
1.0
 37
0.0
 76
1
330
17
  0
LAYOUT
  5
1E
330
D
100
AcDbPlotSettings
  1

  4
A3
  6

 40
7.5
 41
20.0
 42
7.5
 43
20.0
 44
420.0
 45
297.0
 46
0.0
 47
0.0
 48
0.0
 49
0.0
140
0.0
141
0.0
142
1.0
143
1.0
 70
0
 72
1
 73
0
 74
5
  7

 75
16
 76
0
 77
2
 78
300
147
1.0
148
0.0
149
0.0
100
AcDbLayout
  1
Layout1
 70
1
 71
1
 10
0.0
 20
0.0
 11
420.0
 21
297.0
 12
0.0
 22
0.0
 32
0.0
 14
1e+20
 24
1e+20
 34
1e+20
 15
-1e+20
 25
-1e+20
 35
-1e+20
146
0.0
 13
0.0
 23
0.0
 33
0.0
 16
1.0
 26
0.0
 36
0.0
 17
0.0
 27
1.0
 37
0.0
 76
1
330
1B
  0
MATERIAL
  5
1F
102
{ACAD_REACTORS
330
E
102
}
330
E
100
AcDbMaterial
  1
ByBlock
  2

 70
0
 40
1.0
 71
1
 41
1.0
 91
-1023410177
 42
1.0
 72
1
  3

 73
1
 74
1
 75
1
 44
0.5
 73
0
 45
1.0
 46
1.0
 77
1
  4

 78
1
 79
1
170
1
 48
1.0
171
1
  6

172
1
173
1
174
1
140
1.0
141
1.0
175
1
  7

176
1
177
1
178
1
143
1.0
179
1
  8

270
1
271
1
272
1
145
1.0
146
1.0
273
1
  9

274
1
275
1
276
1
 42
1.0
 72
1
  3

 73
1
 74
1
 75
1
 94
63
  0
MATERIAL
  5
20
102
{ACAD_REACTORS
330
E
102
}
330
E
100
AcDbMaterial
  1
ByLayer
  2

 70
0
 40
1.0
 71
1
 41
1.0
 91
-1023410177
 42
1.0
 72
1
  3

 73
1
 74
1
 75
1
 44
0.5
 73
0
 45
1.0
 46
1.0
 77
1
  4

 78
1
 79
1
170
1
 48
1.0
171
1
  6

172
1
173
1
174
1
140
1.0
141
1.0
175
1
  7

176
1
177
1
178
1
143
1.0
179
1
  8

270
1
271
1
272
1
145
1.0
146
1.0
273
1
  9

274
1
275
1
276
1
 42
1.0
 72
1
  3

 73
1
 74
1
 75
1
 94
63
  0
MATERIAL
  5
21
102
{ACAD_REACTORS
330
E
102
}
330
E
100
AcDbMaterial
  1
Global
  2

 70
0
 40
1.0
 71
1
 41
1.0
 91
-1023410177
 42
1.0
 72
1
  3

 73
1
 74
1
 75
1
 44
0.5
 73
0
 45
1.0
 46
1.0
 77
1
  4

 78
1
 79
1
170
1
 48
1.0
171
1
  6

172
1
173
1
174
1
140
1.0
141
1.0
175
1
  7

176
1
177
1
178
1
143
1.0
179
1
  8

270
1
271
1
272
1
145
1.0
146
1.0
273
1
  9

274
1
275
1
276
1
 42
1.0
 72
1
  3

 73
1
 74
1
 75
1
 94
63
  0
MLINESTYLE
  5
22
102
{ACAD_REACTORS
330
10
102
}
330
10
100
AcDbMlineStyle
  2
Standard
 70
0
  3

 62
256
 51
90.0
 52
90.0
 71
2
 49
0.5
 62
256
  6
BYLAYER
 49
-0.5
 62
256
  6
BYLAYER
  0
MLEADERSTYLE
  5
2C
102
{ACAD_REACTORS
330
F
102
}
330
F
100
AcDbMLeaderStyle
179
2
170
2
171
1
172
0
 90
2
 40
0.0
 41
0.0
173
1
 91
-1056964608
 92
-2
290
1
 42
2.0
291
1
 43
8.0
  3
Standard
 44
4.0
300

342
29
174
1
175
1
176
0
178
1
 93
-1056964608
 45
4.0
292
0
297
0
 46
4.0
 94
-1056964608
 47
1.0
 49
1.0
140
1.0
294
1
141
0.0
177
0
142
1.0
295
0
296
0
143
3.75
271
0
272
9
273
9
  0
DICTIONARY
  5
2D
330
A
100
AcDbDictionary
280
1
281
1
  3
CREATED_BY_EZDXF
350
2E
  3
WRITTEN_BY_EZDXF
350
36
  0
DICTIONARYVAR
  5
2E
330
2D
100
DictionaryVariables
280
0
  1
1.4.2 @ 2025-08-24T12:13:48.489371+00:00
  0
DICTIONARYVAR
  5
36
330
2D
100
DictionaryVariables
280
0
  1
1.4.2 @ 2025-08-24T12:13:48.491854+00:00
  0
ENDSEC
  0
EOF
