  0
SECTION
  2
HEADER
  9
$ACADVER
  1
AC1024
  9
$ACADMAINTVER
 70
6
  9
$DWGCODEPAGE
  3
ANSI_1252
  9
$LASTSAVEDBY
  1
ezdxf
  9
$INSBASE
 10
0.0
 20
0.0
 30
0.0
  9
$EXTMIN
 10
1e+20
 20
1e+20
 30
1e+20
  9
$EXTMAX
 10
-1e+20
 20
-1e+20
 30
-1e+20
  9
$LIMMIN
 10
0.0
 20
0.0
  9
$LIMMAX
 10
420.0
 20
297.0
  9
$ORTHOMODE
 70
0
  9
$REGENMODE
 70
1
  9
$FILLMODE
 70
1
  9
$QTEXTMODE
 70
0
  9
$MIRRTEXT
 70
1
  9
$LTSCALE
 40
1.0
  9
$ATTMODE
 70
1
  9
$TEXTSIZE
 40
2.5
  9
$TRACEWID
 40
1.0
  9
$TEXTSTYLE
  7
Standard
  9
$CLAYER
  8
0
  9
$CELTYPE
  6
ByLayer
  9
$CECOLOR
 62
256
  9
$CELTSCALE
 40
1.0
  9
$DISPSILH
 70
0
  9
$DIMSCALE
 40
1.0
  9
$DIMASZ
 40
2.5
  9
$DIMEXO
 40
0.625
  9
$DIMDLI
 40
3.75
  9
$DIMRND
 40
0.0
  9
$DIMDLE
 40
0.0
  9
$DIMEXE
 40
1.25
  9
$DIMTP
 40
0.0
  9
$DIMTM
 40
0.0
  9
$DIMTXT
 40
2.5
  9
$DIMCEN
 40
2.5
  9
$DIMTSZ
 40
0.0
  9
$DIMTOL
 70
0
  9
$DIMLIM
 70
0
  9
$DIMTIH
 70
0
  9
$DIMTOH
 70
0
  9
$DIMSE1
 70
0
  9
$DIMSE2
 70
0
  9
$DIMTAD
 70
1
  9
$DIMZIN
 70
8
  9
$DIMBLK
  1

  9
$DIMASO
 70
1
  9
$DIMSHO
 70
1
  9
$DIMPOST
  1

  9
$DIMAPOST
  1

  9
$DIMALT
 70
0
  9
$DIMALTD
 70
3
  9
$DIMALTF
 40
0.03937007874
  9
$DIMLFAC
 40
1.0
  9
$DIMTOFL
 70
1
  9
$DIMTVP
 40
0.0
  9
$DIMTIX
 70
0
  9
$DIMSOXD
 70
0
  9
$DIMSAH
 70
0
  9
$DIMBLK1
  1

  9
$DIMBLK2
  1

  9
$DIMSTYLE
  2
ISO-25
  9
$DIMCLRD
 70
0
  9
$DIMCLRE
 70
0
  9
$DIMCLRT
 70
0
  9
$DIMTFAC
 40
1.0
  9
$DIMGAP
 40
0.625
  9
$DIMJUST
 70
0
  9
$DIMSD1
 70
0
  9
$DIMSD2
 70
0
  9
$DIMTOLJ
 70
0
  9
$DIMTZIN
 70
8
  9
$DIMALTZ
 70
0
  9
$DIMALTTZ
 70
0
  9
$DIMUPT
 70
0
  9
$DIMDEC
 70
2
  9
$DIMTDEC
 70
2
  9
$DIMALTU
 70
2
  9
$DIMALTTD
 70
3
  9
$DIMTXSTY
  7
Standard
  9
$DIMAUNIT
 70
0
  9
$DIMADEC
 70
0
  9
$DIMALTRND
 40
0.0
  9
$DIMAZIN
 70
0
  9
$DIMDSEP
 70
44
  9
$DIMATFIT
 70
3
  9
$DIMFRAC
 70
0
  9
$DIMLDRBLK
  1

  9
$DIMLUNIT
 70
2
  9
$DIMLWD
 70
-2
  9
$DIMLWE
 70
-2
  9
$DIMTMOVE
 70
0
  9
$DIMFXL
 40
1.0
  9
$DIMFXLON
 70
0
  9
$DIMJOGANG
 40
0.785398163397
  9
$DIMTFILL
 70
0
  9
$DIMTFILLCLR
 70
0
  9
$DIMARCSYM
 70
0
  9
$DIMLTYPE
  6

  9
$DIMLTEX1
  6

  9
$DIMLTEX2
  6

  9
$DIMTXTDIRECTION
 70
0
  9
$LUNITS
 70
2
  9
$LUPREC
 70
4
  9
$SKETCHINC
 40
1.0
  9
$FILLETRAD
 40
10.0
  9
$AUNITS
 70
0
  9
$AUPREC
 70
2
  9
$MENU
  1
.
  9
$ELEVATION
 40
0.0
  9
$PELEVATION
 40
0.0
  9
$THICKNESS
 40
0.0
  9
$LIMCHECK
 70
0
  9
$CHAMFERA
 40
0.0
  9
$CHAMFERB
 40
0.0
  9
$CHAMFERC
 40
0.0
  9
$CHAMFERD
 40
0.0
  9
$SKPOLY
 70
0
  9
$TDCREATE
 40
2460912.6345833335
  9
$TDUCREATE
 40
2458532.153996898
  9
$TDUPDATE
 40
2460912.6345833335
  9
$TDUUPDATE
 40
2458532.1544311
  9
$TDINDWG
 40
0.0
  9
$TDUSRTIMER
 40
0.0
  9
$USRTIMER
 70
1
  9
$ANGBASE
 50
0.0
  9
$ANGDIR
 70
0
  9
$PDMODE
 70
0
  9
$PDSIZE
 40
0.0
  9
$PLINEWID
 40
0.0
  9
$SPLFRAME
 70
0
  9
$SPLINETYPE
 70
6
  9
$SPLINESEGS
 70
8
  9
$HANDSEED
  5
37
  9
$SURFTAB1
 70
6
  9
$SURFTAB2
 70
6
  9
$SURFTYPE
 70
6
  9
$SURFU
 70
6
  9
$SURFV
 70
6
  9
$UCSBASE
  2

  9
$UCSNAME
  2

  9
$UCSORG
 10
0.0
 20
0.0
 30
0.0
  9
$UCSXDIR
 10
1.0
 20
0.0
 30
0.0
  9
$UCSYDIR
 10
0.0
 20
1.0
 30
0.0
  9
$UCSORTHOREF
  2

  9
$UCSORTHOVIEW
 70
0
  9
$UCSORGTOP
 10
0.0
 20
0.0
 30
0.0
  9
$UCSORGBOTTOM
 10
0.0
 20
0.0
 30
0.0
  9
$UCSORGLEFT
 10
0.0
 20
0.0
 30
0.0
  9
$UCSORGRIGHT
 10
0.0
 20
0.0
 30
0.0
  9
$UCSORGFRONT
 10
0.0
 20
0.0
 30
0.0
  9
$UCSORGBACK
 10
0.0
 20
0.0
 30
0.0
  9
$PUCSBASE
  2

  9
$PUCSNAME
  2

  9
$PUCSORG
 10
0.0
 20
0.0
 30
0.0
  9
$PUCSXDIR
 10
1.0
 20
0.0
 30
0.0
  9
$PUCSYDIR
 10
0.0
 20
1.0
 30
0.0
  9
$PUCSORTHOREF
  2

  9
$PUCSORTHOVIEW
 70
0
  9
$PUCSORGTOP
 10
0.0
 20
0.0
 30
0.0
  9
$PUCSORGBOTTOM
 10
0.0
 20
0.0
 30
0.0
  9
$PUCSORGLEFT
 10
0.0
 20
0.0
 30
0.0
  9
$PUCSORGRIGHT
 10
0.0
 20
0.0
 30
0.0
  9
$PUCSORGFRONT
 10
0.0
 20
0.0
 30
0.0
  9
$PUCSORGBACK
 10
0.0
 20
0.0
 30
0.0
  9
$USERI1
 70
0
  9
$USERI2
 70
0
  9
$USERI3
 70
0
  9
$USERI4
 70
0
  9
$USERI5
 70
0
  9
$USERR1
 40
0.0
  9
$USERR2
 40
0.0
  9
$USERR3
 40
0.0
  9
$USERR4
 40
0.0
  9
$USERR5
 40
0.0
  9
$WORLDVIEW
 70
1
  9
$SHADEDGE
 70
3
  9
$SHADEDIF
 70
70
  9
$TILEMODE
 70
1
  9
$MAXACTVP
 70
64
  9
$PINSBASE
 10
0.0
 20
0.0
 30
0.0
  9
$PLIMCHECK
 70
0
  9
$PEXTMIN
 10
1e+20
 20
1e+20
 30
1e+20
  9
$PEXTMAX
 10
-1e+20
 20
-1e+20
 30
-1e+20
  9
$PLIMMIN
 10
0.0
 20
0.0
  9
$PLIMMAX
 10
420.0
 20
297.0
  9
$UNITMODE
 70
0
  9
$VISRETAIN
 70
1
  9
$PLINEGEN
 70
0
  9
$PSLTSCALE
 70
1
  9
$TREEDEPTH
 70
3020
  9
$CMLSTYLE
  2
Standard
  9
$CMLJUST
 70
0
  9
$CMLSCALE
 40
20.0
  9
$PROXYGRAPHICS
 70
1
  9
$MEASUREMENT
 70
1
  9
$CELWEIGHT
370
-1
  9
$ENDCAPS
280
0
  9
$JOINSTYLE
280
0
  9
$LWDISPLAY
290
0
  9
$INSUNITS
 70
6
  9
$HYPERLINKBASE
  1

  9
$STYLESHEET
  1

  9
$XEDIT
290
1
  9
$CEPSNTYPE
380
0
  9
$PSTYLEMODE
290
1
  9
$FINGERPRINTGUID
  2
{159DF8E7-F714-4DB2-BB32-89505884CE88}
  9
$VERSIONGUID
  2
{E686D828-FD0F-4C9A-B0DB-FF879C916063}
  9
$EXTNAMES
290
1
  9
$PSVPSCALE
 40
0.0
  9
$OLESTARTUP
290
0
  9
$SORTENTS
280
127
  9
$INDEXCTL
280
0
  9
$HIDETEXT
280
1
  9
$XCLIPFRAME
280
1
  9
$HALOGAP
280
0
  9
$OBSCOLOR
 70
257
  9
$OBSLTYPE
280
0
  9
$INTERSECTIONDISPLAY
280
0
  9
$INTERSECTIONCOLOR
 70
257
  9
$DIMASSOC
280
2
  9
$PROJECTNAME
  1

  9
$CAMERADISPLAY
290
0
  9
$LENSLENGTH
 40
50.0
  9
$CAMERAHEIGHT
 40
0.0
  9
$STEPSPERSEC
 40
24.0
  9
$STEPSIZE
 40
100.0
  9
$3DDWFPREC
 40
2.0
  9
$PSOLWIDTH
 40
0.005
  9
$PSOLHEIGHT
 40
0.08
  9
$LOFTANG1
 40
1.570796326795
  9
$LOFTANG2
 40
1.570796326795
  9
$LOFTMAG1
 40
0.0
  9
$LOFTMAG2
 40
0.0
  9
$LOFTPARAM
 70
7
  9
$LOFTNORMALS
280
1
  9
$LATITUDE
 40
37.795
  9
$LONGITUDE
 40
-122.394
  9
$NORTHDIRECTION
 40
0.0
  9
$TIMEZONE
 70
-8000
  9
$LIGHTGLYPHDISPLAY
280
1
  9
$TILEMODELIGHTSYNCH
280
1
  9
$CMATERIAL
347
20
  9
$SOLIDHIST
280
0
  9
$SHOWHIST
280
1
  9
$DWFFRAME
280
2
  9
$DGNFRAME
280
2
  9
$REALWORLDSCALE
290
1
  9
$INTERFERECOLOR
 62
256
  9
$CSHADOW
280
0
  9
$SHADOWPLANELOCATION
 40
0.0
  0
ENDSEC
  0
SECTION
  2
CLASSES
  0
CLASS
  1
ACDBDICTIONARYWDFLT
  2
AcDbDictionaryWithDefault
  3
ObjectDBX Classes
 90
0
 91
0
280
0
281
0
  0
CLASS
  1
SUN
  2
AcDbSun
  3
SCENEOE
 90
1153
 91
0
280
0
281
0
  0
CLASS
  1
VISUALSTYLE
  2
AcDbVisualStyle
  3
ObjectDBX Classes
 90
4095
 91
0
280
0
281
0
  0
CLASS
  1
MATERIAL
  2
AcDbMaterial
  3
ObjectDBX Classes
 90
1153
 91
0
280
0
281
0
  0
CLASS
  1
SCALE
  2
AcDbScale
  3
ObjectDBX Classes
 90
1153
 91
0
280
0
281
0
  0
CLASS
  1
TABLESTYLE
  2
AcDbTableStyle
  3
ObjectDBX Classes
 90
4095
 91
0
280
0
281
0
  0
CLASS
  1
MLEADERSTYLE
  2
AcDbMLeaderStyle
  3
ACDB_MLEADERSTYLE_CLASS
 90
4095
 91
0
280
0
281
0
  0
CLASS
  1
DICTIONARYVAR
  2
AcDbDictionaryVar
  3
ObjectDBX Classes
 90
0
 91
0
280
0
281
0
  0
CLASS
  1
CELLSTYLEMAP
  2
AcDbCellStyleMap
  3
ObjectDBX Classes
 90
1152
 91
0
280
0
281
0
  0
CLASS
  1
MENTALRAYRENDERSETTINGS
  2
AcDbMentalRayRenderSettings
  3
SCENEOE
 90
1024
 91
0
280
0
281
0
  0
CLASS
  1
ACDBDETAILVIEWSTYLE
  2
AcDbDetailViewStyle
  3
ObjectDBX Classes
 90
1025
 91
0
280
0
281
0
  0
CLASS
  1
ACDBSECTIONVIEWSTYLE
  2
AcDbSectionViewStyle
  3
ObjectDBX Classes
 90
1025
 91
0
280
0
281
0
  0
CLASS
  1
RASTERVARIABLES
  2
AcDbRasterVariables
  3
ISM
 90
0
 91
0
280
0
281
0
  0
CLASS
  1
LAYOUT
  2
AcDbLayout
  3
ObjectDBX Classes
 90
0
 91
0
280
0
281
0
  0
CLASS
  1
ACDBPLACEHOLDER
  2
AcDbPlaceHolder
  3
ObjectDBX Classes
 90
0
 91
0
280
0
281
0
  0
ENDSEC
  0
SECTION
  2
TABLES
  0
TABLE
  2
VPORT
  5
8
330
0
100
AcDbSymbolTable
 70
1
  0
VPORT
  5
23
330
8
100
AcDbSymbolTableRecord
100
AcDbViewportTableRecord
  2
*Active
 70
0
 10
0.0
 20
0.0
 11
1.0
 21
1.0
 12
0.0
 22
0.0
 13
0.0
 23
0.0
 14
0.5
 24
0.5
 15
0.5
 25
0.5
 16
0.0
 26
0.0
 36
1.0
 17
0.0
 27
0.0
 37
0.0
 40
1000.0
 41
1.34
 42
50.0
 43
0.0
 44
0.0
 50
0.0
 51
0.0
 71
0
 72
1000
 73
1
 74
3
 75
0
 76
0
 77
0
 78
0
281
0
 65
0
146
0.0
  0
ENDTAB
  0
TABLE
  2
LTYPE
  5
2
330
0
100
AcDbSymbolTable
 70
3
  0
LTYPE
  5
24
330
2
100
AcDbSymbolTableRecord
100
AcDbLinetypeTableRecord
  2
ByBlock
 70
0
  3

 72
65
 73
0
 40
0.0
  0
LTYPE
  5
25
330
2
100
AcDbSymbolTableRecord
100
AcDbLinetypeTableRecord
  2
ByLayer
 70
0
  3

 72
65
 73
0
 40
0.0
  0
LTYPE
  5
26
330
2
100
AcDbSymbolTableRecord
100
AcDbLinetypeTableRecord
  2
Continuous
 70
0
  3

 72
65
 73
0
 40
0.0
  0
ENDTAB
  0
TABLE
  2
LAYER
  5
1
330
0
100
AcDbSymbolTable
 70
2
  0
LAYER
  5
27
330
1
100
AcDbSymbolTableRecord
100
AcDbLayerTableRecord
  2
0
 70
0
 62
7
  6
Continuous
370
-3
390
13
347
21
  0
LAYER
  5
28
330
1
100
AcDbSymbolTableRecord
100
AcDbLayerTableRecord
  2
Defpoints
 70
0
 62
7
  6
Continuous
290
0
370
-3
390
13
347
21
  0
ENDTAB
  0
TABLE
  2
STYLE
  5
5
330
0
100
AcDbSymbolTable
 70
1
  0
STYLE
  5
29
330
5
100
AcDbSymbolTableRecord
100
AcDbTextStyleTableRecord
  2
Standard
 70
0
 40
0.0
 41
1.0
 50
0.0
 71
0
 42
2.5
  3
txt
  4

  0
ENDTAB
  0
TABLE
  2
VIEW
  5
7
330
0
100
AcDbSymbolTable
 70
0
  0
ENDTAB
  0
TABLE
  2
UCS
  5
6
330
0
100
AcDbSymbolTable
 70
0
  0
ENDTAB
  0
TABLE
  2
APPID
  5
3
330
0
100
AcDbSymbolTable
 70
3
  0
APPID
  5
2A
330
3
100
AcDbSymbolTableRecord
100
AcDbRegAppTableRecord
  2
ACAD
 70
0
  0
APPID
  5
34
330
3
100
AcDbSymbolTableRecord
100
AcDbRegAppTableRecord
  2
HATCHBACKGROUNDCOLOR
 70
0
  0
APPID
  5
35
330
3
100
AcDbSymbolTableRecord
100
AcDbRegAppTableRecord
  2
EZDXF
 70
0
  0
ENDTAB
  0
TABLE
  2
DIMSTYLE
  5
4
330
0
100
AcDbSymbolTable
 70
1
100
AcDbDimStyleTable
  0
DIMSTYLE
105
2B
330
4
100
AcDbSymbolTableRecord
100
AcDbDimStyleTableRecord
  2
Standard
 70
0
 40
1.0
 41
2.5
 42
0.625
 43
3.75
 44
1.25
 45
0.0
 46
0.0
 47
0.0
 48
0.0
 49
2.5
140
2.5
141
2.5
142
0.0
143
0.03937007874
144
1.0
145
0.0
146
1.0
147
0.625
148
0.0
 69
0
 70
0
 71
0
 72
0
 73
0
 74
0
 75
0
 76
0
 77
1
 78
8
 79
3
170
0
171
3
172
1
173
0
174
0
175
0
176
0
177
0
178
0
179
2
271
2
272
2
273
2
274
3
275
0
276
0
277
2
278
44
279
0
280
0
281
0
282
0
283
0
284
8
285
0
286
0
288
0
289
3
290
0
371
-2
372
-2
  0
ENDTAB
  0
TABLE
  2
BLOCK_RECORD
  5
9
330
0
100
AcDbSymbolTable
 70
2
  0
BLOCK_RECORD
  5
17
330
9
100
AcDbSymbolTableRecord
100
AcDbBlockTableRecord
  2
*Model_Space
340
1A
 70
0
280
1
281
0
  0
BLOCK_RECORD
  5
1B
330
9
100
AcDbSymbolTableRecord
100
AcDbBlockTableRecord
  2
*Paper_Space
340
1E
 70
0
280
1
281
0
  0
ENDTAB
  0
ENDSEC
  0
SECTION
  2
BLOCKS
  0
BLOCK
  5
18
330
17
100
AcDbEntity
  8
0
100
AcDbBlockBegin
  2
*Model_Space
 70
0
 10
0.0
 20
0.0
 30
0.0
  3
*Model_Space
  1

  0
ENDBLK
  5
19
330
17
100
AcDbEntity
  8
0
100
AcDbBlockEnd
  0
BLOCK
  5
1C
330
1B
100
AcDbEntity
  8
0
100
AcDbBlockBegin
  2
*Paper_Space
 70
0
 10
0.0
 20
0.0
 30
0.0
  3
*Paper_Space
  1

  0
ENDBLK
  5
1D
330
1B
100
AcDbEntity
  8
0
100
AcDbBlockEnd
  0
ENDSEC
  0
SECTION
  2
ENTITIES
  0
LWPOLYLINE
  5
2F
330
17
100
AcDbEntity
  8
FRAME
100
AcDbPolyline
 90
5
 70
1
 10
-20.0
 20
280.0
 10
320.0
 20
280.0
 10
320.0
 20
620.0
 10
-20.0
 20
620.0
 10
-20.0
 20
280.0
  0
CIRCLE
  5
30
330
17
100
AcDbEntity
  8
CIRCLES
100
AcDbCircle
 10
150.0
 20
400.0
 30
0.0
 40
5.0
  0
CIRCLE
  5
31
330
17
100
AcDbEntity
  8
CIRCLES
100
AcDbCircle
 10
100.0
 20
500.0
 30
0.0
 40
5.0
  0
CIRCLE
  5
32
330
17
100
AcDbEntity
  8
CIRCLES
100
AcDbCircle
 10
200.0
 20
500.0
 30
0.0
 40
5.0
  0
LWPOLYLINE
  5
33
330
17
100
AcDbEntity
  8
CONTOUR_1
100
AcDbPolyline
 90
528
 70
1
 10
263.2400465542643
 20
293.1268937189894
 10
263.2400465542643
 20
294.3523170528524
 10
257.1129298849493
 20
300.47943372216747
 10
254.66208321722328
 20
300.47943372216747
 10
254.66208321722328
 20
301.70485705603045
 10
252.21123654949727
 20
304.15570372375646
 10
252.21123654949727
 20
305.3811270576195
 10
250.98581321563427
 20
306.6065503914825
 10
249.76038988177126
 20
306.6065503914825
 10
248.53496654790825
 20
305.3811270576195
 10
247.30954321404525
 20
305.3811270576195
 10
244.85869654631924
 20
302.9302803898935
 10
243.63327321245623
 20
302.9302803898935
 10
242.4078498785932
 20
301.70485705603045
 10
241.1824265447302
 20
301.70485705603045
 10
239.95700321086719
 20
300.47943372216747
 10
238.73157987700418
 20
300.47943372216747
 10
236.28073320927817
 20
302.9302803898935
 10
235.05530987541516
 20
302.9302803898935
 10
232.60446320768915
 20
300.47943372216747
 10
230.15361653996314
 20
300.47943372216747
 10
228.92819320610013
 20
299.25401038830444
 10
227.7027698722371
 20
299.25401038830444
 10
226.4773465383741
 20
298.02858705444146
 10
225.2519232045111
 20
298.02858705444146
 10
219.12480653519606
 20
304.15570372375646
 10
217.89938320133305
 20
302.9302803898935
 10
216.67395986747005
 20
302.9302803898935
 10
215.44853653360704
 20
301.70485705603045
 10
214.22311319974403
 20
301.70485705603045
 10
212.997689865881
 20
300.47943372216747
 10
206.87057319656597
 20
300.47943372216747
 10
205.64514986270297
 20
301.70485705603045
 10
201.96887986111395
 20
301.70485705603045
 10
200.74345652725094
 20
300.47943372216747
 10
190.94006985634687
 20
300.47943372216747
 10
189.71464652248386
 20
299.25401038830444
 10
190.94006985634687
 20
298.02858705444146
 10
190.94006985634687
 20
296.8031637205784
 10
188.48922318862085
 20
296.8031637205784
 10
188.48922318862085
 20
298.02858705444146
 10
186.03837652089484
 20
300.47943372216747
 10
186.03837652089484
 20
301.70485705603045
 10
184.81295318703184
 20
302.9302803898935
 10
184.81295318703184
 20
305.3811270576195
 10
182.3621065193058
 20
307.8319737253455
 10
181.1366831854428
 20
306.6065503914825
 10
178.68583651771678
 20
306.6065503914825
 10
177.46041318385377
 20
305.3811270576195
 10
176.23498984999077
 20
305.3811270576195
 10
175.00956651612776
 20
304.15570372375646
 10
173.78414318226476
 20
304.15570372375646
 10
172.55871984840175
 20
302.9302803898935
 10
157.85363984204565
 20
302.9302803898935
 10
156.62821650818265
 20
301.70485705603045
 10
155.40279317431964
 20
301.70485705603045
 10
152.9519465065936
 20
299.25401038830444
 10
152.9519465065936
 20
295.57774038671545
 10
151.7265231727306
 20
296.8031637205784
 10
150.5010998388676
 20
296.8031637205784
 10
148.05025317114158
 20
299.25401038830444
 10
146.82482983727857
 20
299.25401038830444
 10
145.59940650341557
 20
300.47943372216747
 10
144.37398316955256
 20
300.47943372216747
 10
143.14855983568955
 20
301.70485705603045
 10
134.57059649864848
 20
301.70485705603045
 10
133.34517316478548
 20
300.47943372216747
 10
123.54178649388142
 20
300.47943372216747
 10
122.31636316001841
 20
299.25401038830444
 10
118.64009315842938
 20
299.25401038830444
 10
117.41466982456637
 20
300.47943372216747
 10
114.96382315684036
 20
300.47943372216747
 10
113.73839982297736
 20
301.70485705603045
 10
112.51297648911435
 20
300.47943372216747
 10
107.61128315366231
 20
300.47943372216747
 10
105.1604364859363
 20
302.9302803898935
 10
105.1604364859363
 20
304.15570372375646
 10
100.25874315048426
 20
309.05739705920854
 10
97.80789648275825
 20
309.05739705920854
 10
96.58247314889523
 20
307.8319737253455
 10
95.35704981503223
 20
307.8319737253455
 10
92.90620314730621
 20
305.3811270576195
 10
91.68077981344321
 20
305.3811270576195
 10
90.4553564795802
 20
304.15570372375646
 10
89.22993314571718
 20
304.15570372375646
 10
88.00450981185418
 20
302.9302803898935
 10
85.55366314412817
 20
305.3811270576195
 10
85.55366314412817
 20
306.6065503914825
 10
83.10281647640215
 20
309.05739705920854
 10
80.65196980867613
 20
309.05739705920854
 10
78.20112314095012
 20
306.6065503914825
 10
76.97569980708711
 20
306.6065503914825
 10
75.7502764732241
 20
305.3811270576195
 10
74.52485313936108
 20
305.3811270576195
 10
73.29942980549808
 20
304.15570372375646
 10
72.07400647163507
 20
304.15570372375646
 10
70.84858313777207
 20
302.9302803898935
 10
68.39773647004606
 20
302.9302803898935
 10
67.17231313618304
 20
301.70485705603045
 10
65.94688980232003
 20
301.70485705603045
 10
64.72146646845702
 20
300.47943372216747
 10
61.045196466868
 20
300.47943372216747
 10
59.81977313300499
 20
299.25401038830444
 10
56.14350313141597
 20
299.25401038830444
 10
54.91807979755296
 20
298.02858705444146
 10
53.69265646368995
 20
298.02858705444146
 10
53.69265646368995
 20
299.25401038830444
 10
52.467233129826944
 20
300.47943372216747
 10
51.24180979596394
 20
300.47943372216747
 10
50.016386462100925
 20
301.70485705603045
 10
50.016386462100925
 20
302.9302803898935
 10
48.79096312823792
 20
304.15570372375646
 10
47.565539794374914
 20
302.9302803898935
 10
45.114693126648895
 20
302.9302803898935
 10
43.88926979278589
 20
301.70485705603045
 10
42.663846458922876
 20
301.70485705603045
 10
41.43842312505987
 20
300.47943372216747
 10
36.53672978960784
 20
300.47943372216747
 10
35.31130645574483
 20
301.70485705603045
 10
31.635036454155806
 20
301.70485705603045
 10
30.409613120292796
 20
300.47943372216747
 10
24.282496450977757
 20
300.47943372216747
 10
23.057073117114747
 20
299.25401038830444
 10
21.83164978325174
 20
300.47943372216747
 10
20.606226449388732
 20
300.47943372216747
 10
20.606226449388732
 20
304.15570372375646
 10
19.380803115525723
 20
305.3811270576195
 10
14.47910978007369
 20
305.3811270576195
 10
13.253686446210683
 20
304.15570372375646
 10
9.577416444621658
 20
304.15570372375646
 10
7.126569776895642
 20
301.70485705603045
 10
7.126569776895642
 20
300.47943372216747
 10
5.9011464430326335
 20
299.25401038830444
 10
7.126569776895642
 20
298.02858705444146
 10
2.224876441443609
 20
298.02858705444146
 10
2.224876441443609
 20
299.25401038830444
 10
0.9994531075806008
 20
300.47943372216747
 10
0.9994531075806008
 20
598.2573038508784
 10
2.224876441443609
 20
599.4827271847414
 10
2.224876441443609
 20
604.3844205201934
 10
2.224876441443609
 20
601.9335738524675
 10
3.450299775306617
 20
600.7081505186045
 10
3.450299775306617
 20
599.4827271847414
 10
4.675723109169625
 20
598.2573038508784
 10
4.675723109169625
 20
595.8064571831525
 10
7.126569776895642
 20
593.3556105154264
 10
8.35199311075865
 20
593.3556105154264
 10
9.577416444621658
 20
594.5810338492894
 10
10.802839778484666
 20
594.5810338492894
 10
12.028263112347675
 20
595.8064571831525
 10
14.47910978007369
 20
595.8064571831525
 10
15.704533113936698
 20
597.0318805170155
 10
16.929956447799707
 20
597.0318805170155
 10
18.155379781662717
 20
598.2573038508784
 10
23.057073117114747
 20
598.2573038508784
 10
24.282496450977757
 20
599.4827271847414
 10
26.733343118703772
 20
599.4827271847414
 10
27.95876645256678
 20
600.7081505186045
 10
31.635036454155806
 20
600.7081505186045
 10
31.635036454155806
 20
599.4827271847414
 10
32.860459788018815
 20
598.2573038508784
 10
42.663846458922876
 20
598.2573038508784
 10
43.88926979278589
 20
599.4827271847414
 10
45.114693126648895
 20
599.4827271847414
 10
46.3401164605119
 20
600.7081505186045
 10
46.3401164605119
 20
599.4827271847414
 10
47.565539794374914
 20
598.2573038508784
 10
48.79096312823792
 20
598.2573038508784
 10
50.016386462100925
 20
597.0318805170155
 10
52.467233129826944
 20
597.0318805170155
 10
53.69265646368995
 20
598.2573038508784
 10
56.14350313141597
 20
598.2573038508784
 10
57.368926465278975
 20
599.4827271847414
 10
58.59434979914199
 20
599.4827271847414
 10
59.81977313300499
 20
600.7081505186045
 10
62.27061980073101
 20
600.7081505186045
 10
64.72146646845702
 20
598.2573038508784
 10
65.94688980232003
 20
598.2573038508784
 10
67.17231313618304
 20
599.4827271847414
 10
65.94688980232003
 20
600.7081505186045
 10
65.94688980232003
 20
601.9335738524675
 10
67.17231313618304
 20
603.1589971863305
 10
68.39773647004606
 20
603.1589971863305
 10
69.62315980390906
 20
604.3844205201934
 10
70.84858313777207
 20
604.3844205201934
 10
72.07400647163507
 20
605.6098438540565
 10
73.29942980549808
 20
605.6098438540565
 10
74.52485313936108
 20
606.8352671879195
 10
75.7502764732241
 20
606.8352671879195
 10
75.7502764732241
 20
605.6098438540565
 10
76.97569980708711
 20
604.3844205201934
 10
76.97569980708711
 20
603.1589971863305
 10
78.20112314095012
 20
601.9335738524675
 10
78.20112314095012
 20
600.7081505186045
 10
81.87739314253913
 20
597.0318805170155
 10
81.87739314253913
 20
595.8064571831525
 10
85.55366314412817
 20
592.1301871815634
 10
86.77908647799117
 20
593.3556105154264
 10
88.00450981185418
 20
593.3556105154264
 10
89.22993314571718
 20
594.5810338492894
 10
90.4553564795802
 20
594.5810338492894
 10
91.68077981344321
 20
595.8064571831525
 10
94.13162648116922
 20
595.8064571831525
 10
97.80789648275825
 20
599.4827271847414
 10
96.58247314889523
 20
600.7081505186045
 10
96.58247314889523
 20
601.9335738524675
 10
101.48416648434727
 20
601.9335738524675
 10
101.48416648434727
 20
600.7081505186045
 10
106.38585981979931
 20
595.8064571831525
 10
106.38585981979931
 20
594.5810338492894
 10
107.61128315366231
 20
593.3556105154264
 10
107.61128315366231
 20
592.1301871815634
 10
108.83670648752532
 20
590.9047638477003
 10
110.06212982138833
 20
590.9047638477003
 10
117.41466982456637
 20
598.2573038508784
 10
119.8655164922924
 20
598.2573038508784
 10
125.99263316160743
 20
592.1301871815634
 10
127.21805649547044
 20
592.1301871815634
 10
128.44347982933346
 20
593.3556105154264
 10
128.44347982933346
 20
595.8064571831525
 10
129.66890316319646
 20
597.0318805170155
 10
129.66890316319646
 20
598.2573038508784
 10
132.11974983092247
 20
600.7081505186045
 10
132.11974983092247
 20
601.9335738524675
 10
133.34517316478548
 20
603.1589971863305
 10
135.7960198325115
 20
600.7081505186045
 10
137.0214431663745
 20
600.7081505186045
 10
139.47228983410054
 20
598.2573038508784
 10
140.69771316796354
 20
598.2573038508784
 10
143.14855983568955
 20
595.8064571831525
 10
144.37398316955256
 20
595.8064571831525
 10
145.59940650341557
 20
594.5810338492894
 10
146.82482983727857
 20
595.8064571831525
 10
146.82482983727857
 20
598.2573038508784
 10
151.7265231727306
 20
598.2573038508784
 10
154.17736984045663
 20
595.8064571831525
 10
155.40279317431964
 20
595.8064571831525
 10
156.62821650818265
 20
594.5810338492894
 10
157.85363984204565
 20
594.5810338492894
 10
159.07906317590866
 20
593.3556105154264
 10
160.30448650977166
 20
593.3556105154264
 10
162.75533317749768
 20
590.9047638477003
 10
165.2061798452237
 20
590.9047638477003
 10
166.4316031790867
 20
592.1301871815634
 10
166.4316031790867
 20
593.3556105154264
 10
167.6570265129497
 20
594.5810338492894
 10
167.6570265129497
 20
595.8064571831525
 10
168.88244984681273
 20
597.0318805170155
 10
168.88244984681273
 20
598.2573038508784
 10
170.10787318067574
 20
598.2573038508784
 10
171.33329651453874
 20
599.4827271847414
 10
171.33329651453874
 20
600.7081505186045
 10
172.55871984840175
 20
600.7081505186045
 10
173.78414318226476
 20
599.4827271847414
 10
176.23498984999077
 20
599.4827271847414
 10
177.46041318385377
 20
598.2573038508784
 10
181.1366831854428
 20
598.2573038508784
 10
182.3621065193058
 20
597.0318805170155
 10
184.81295318703184
 20
597.0318805170155
 10
186.03837652089484
 20
595.8064571831525
 10
188.48922318862085
 20
595.8064571831525
 10
189.71464652248386
 20
594.5810338492894
 10
190.94006985634687
 20
595.8064571831525
 10
192.16549319020987
 20
594.5810338492894
 10
198.29260985952493
 20
594.5810338492894
 10
200.74345652725094
 20
597.0318805170155
 10
200.74345652725094
 20
598.2573038508784
 10
203.19430319497695
 20
600.7081505186045
 10
203.19430319497695
 20
605.6098438540565
 10
204.41972652883996
 20
606.8352671879195
 10
205.64514986270297
 20
605.6098438540565
 10
206.87057319656597
 20
605.6098438540565
 10
208.09599653042898
 20
604.3844205201934
 10
209.32141986429198
 20
604.3844205201934
 10
210.546843198155
 20
603.1589971863305
 10
211.772266532018
 20
603.1589971863305
 10
214.22311319974403
 20
600.7081505186045
 10
212.997689865881
 20
599.4827271847414
 10
214.22311319974403
 20
598.2573038508784
 10
219.12480653519606
 20
598.2573038508784
 10
220.35022986905906
 20
597.0318805170155
 10
222.80107653678508
 20
597.0318805170155
 10
224.02649987064808
 20
595.8064571831525
 10
227.7027698722371
 20
595.8064571831525
 10
232.60446320768915
 20
600.7081505186045
 10
233.82988654155216
 20
600.7081505186045
 10
235.05530987541516
 20
599.4827271847414
 10
236.28073320927817
 20
599.4827271847414
 10
237.50615654314117
 20
598.2573038508784
 10
239.95700321086719
 20
598.2573038508784
 10
242.4078498785932
 20
600.7081505186045
 10
242.4078498785932
 20
601.9335738524675
 10
243.63327321245623
 20
603.1589971863305
 10
243.63327321245623
 20
604.3844205201934
 10
244.85869654631924
 20
605.6098438540565
 10
244.85869654631924
 20
606.8352671879195
 10
246.08411988018224
 20
608.0606905217825
 10
248.53496654790825
 20
605.6098438540565
 10
249.76038988177126
 20
605.6098438540565
 10
253.43665988336028
 20
601.9335738524675
 10
253.43665988336028
 20
599.4827271847414
 10
254.66208321722328
 20
598.2573038508784
 10
255.8875065510863
 20
598.2573038508784
 10
257.1129298849493
 20
599.4827271847414
 10
257.1129298849493
 20
600.7081505186045
 10
258.3383532188123
 20
601.9335738524675
 10
258.3383532188123
 20
603.1589971863305
 10
259.56377655267534
 20
604.3844205201934
 10
263.2400465542643
 20
604.3844205201934
 10
262.01462322040135
 20
603.1589971863305
 10
262.01462322040135
 20
601.9335738524675
 10
260.7891998865383
 20
600.7081505186045
 10
260.7891998865383
 20
599.4827271847414
 10
262.01462322040135
 20
598.2573038508784
 10
266.91631655585337
 20
598.2573038508784
 10
268.1417398897164
 20
597.0318805170155
 10
270.5925865574424
 20
597.0318805170155
 10
271.8180098913054
 20
595.8064571831525
 10
273.0434332251684
 20
595.8064571831525
 10
274.2688565590314
 20
594.5810338492894
 10
276.7197032267574
 20
597.0318805170155
 10
277.94512656062045
 20
597.0318805170155
 10
280.39597322834646
 20
594.5810338492894
 10
281.6213965622095
 20
594.5810338492894
 10
282.8468198960725
 20
593.3556105154264
 10
284.0722432299355
 20
593.3556105154264
 10
286.5230898976615
 20
590.9047638477003
 10
288.97393656538753
 20
590.9047638477003
 10
291.42478323311354
 20
593.3556105154264
 10
291.42478323311354
 20
594.5810338492894
 10
293.87562990083956
 20
597.0318805170155
 10
293.87562990083956
 20
598.2573038508784
 10
295.10105323470253
 20
598.2573038508784
 10
297.5518999024286
 20
600.7081505186045
 10
298.7773232362916
 20
599.4827271847414
 10
300.0027465701546
 20
599.4827271847414
 10
301.2281699040176
 20
598.2573038508784
 10
302.4535932378806
 20
598.2573038508784
 10
304.90443990560664
 20
595.8064571831525
 10
306.1298632394696
 20
595.8064571831525
 10
306.1298632394696
 20
593.3556105154264
 10
303.6790165717436
 20
590.9047638477003
 10
303.6790165717436
 20
589.6793405138374
 10
301.2281699040176
 20
587.2284938461114
 10
301.2281699040176
 20
586.0030705122483
 10
298.7773232362916
 20
583.5522238445224
 10
298.7773232362916
 20
579.8759538429333
 10
297.5518999024286
 20
578.6505305090703
 10
297.5518999024286
 20
577.4251071752074
 10
296.32647656856557
 20
576.1996838413443
 10
296.32647656856557
 20
574.9742605074813
 10
295.10105323470253
 20
573.7488371736183
 10
295.10105323470253
 20
572.5234138397552
 10
293.87562990083956
 20
571.2979905058922
 10
293.87562990083956
 20
568.8471438381663
 10
292.6502065669765
 20
567.6217205043032
 10
292.6502065669765
 20
566.3962971704402
 10
291.42478323311354
 20
565.1708738365772
 10
291.42478323311354
 20
563.9454505027143
 10
292.6502065669765
 20
562.7200271688512
 10
293.87562990083956
 20
562.7200271688512
 10
295.10105323470253
 20
563.9454505027143
 10
302.4535932378806
 20
563.9454505027143
 10
303.6790165717436
 20
565.1708738365772
 10
306.1298632394696
 20
565.1708738365772
 10
306.1298632394696
 20
562.7200271688512
 10
304.90443990560664
 20
561.4946038349882
 10
304.90443990560664
 20
560.2691805011252
 10
303.6790165717436
 20
559.0437571672621
 10
303.6790165717436
 20
556.5929104995362
 10
302.4535932378806
 20
555.3674871656732
 10
302.4535932378806
 20
554.1420638318101
 10
301.2281699040176
 20
555.3674871656732
 10
297.5518999024286
 20
555.3674871656732
 10
296.32647656856557
 20
554.1420638318101
 10
296.32647656856557
 20
549.2403704963581
 10
295.10105323470253
 20
548.0149471624951
 10
295.10105323470253
 20
541.8878304931801
 10
297.5518999024286
 20
539.436983825454
 10
298.7773232362916
 20
539.436983825454
 10
298.7773232362916
 20
538.2115604915911
 10
300.0027465701546
 20
536.9861371577281
 10
301.2281699040176
 20
536.9861371577281
 10
302.4535932378806
 20
535.760713823865
 10
303.6790165717436
 20
535.760713823865
 10
302.4535932378806
 20
534.535290490002
 10
302.4535932378806
 20
533.309867156139
 10
301.2281699040176
 20
532.084443822276
 10
301.2281699040176
 20
530.859020488413
 10
300.0027465701546
 20
529.63359715455
 10
300.0027465701546
 20
528.408173820687
 10
298.7773232362916
 20
527.1827504868239
 10
298.7773232362916
 20
523.506480485235
 10
300.0027465701546
 20
522.2810571513719
 10
301.2281699040176
 20
522.2810571513719
 10
302.4535932378806
 20
521.0556338175089
 10
303.6790165717436
 20
521.0556338175089
 10
304.90443990560664
 20
519.8302104836459
 10
306.1298632394696
 20
519.8302104836459
 10
307.35528657333265
 20
518.604787149783
 10
308.5807099071956
 20
518.604787149783
 10
308.5807099071956
 20
517.3793638159199
 10
307.35528657333265
 20
516.1539404820569
 10
307.35528657333265
 20
514.9285171481939
 10
306.1298632394696
 20
513.7030938143308
 10
306.1298632394696
 20
511.2522471466049
 10
304.90443990560664
 20
510.02682381274184
 10
304.90443990560664
 20
508.80140047887886
 10
303.6790165717436
 20
507.5759771450158
 10
302.4535932378806
 20
508.80140047887886
 10
301.2281699040176
 20
508.80140047887886
 10
300.0027465701546
 20
510.02682381274184
 10
297.5518999024286
 20
510.02682381274184
 10
295.10105323470253
 20
507.5759771450158
 10
295.10105323470253
 20
506.35055381115285
 10
293.87562990083956
 20
505.1251304772898
 10
293.87562990083956
 20
502.6742838095638
 10
292.6502065669765
 20
501.44886047570077
 10
292.6502065669765
 20
500.2234371418378
 10
297.5518999024286
 20
495.32174380638577
 10
297.5518999024286
 20
479.39124046616666
 10
298.7773232362916
 20
478.16581713230363
 10
302.4535932378806
 20
478.16581713230363
 10
303.6790165717436
 20
476.94039379844065
 10
303.6790165717436
 20
475.7149704645776
 10
302.4535932378806
 20
474.48954713071464
 10
302.4535932378806
 20
470.8132771291256
 10
301.2281699040176
 20
469.58785379526256
 10
301.2281699040176
 20
464.68616045981054
 10
300.0027465701546
 20
464.68616045981054
 10
298.7773232362916
 20
463.46073712594756
 10
300.0027465701546
 20
462.2353137920845
 10
303.6790165717436
 20
462.2353137920845
 10
303.6790165717436
 20
454.8827737889065
 10
304.90443990560664
 20
453.65735045504346
 10
302.4535932378806
 20
451.20650378731744
 10
302.4535932378806
 20
445.07938711800244
 10
297.5518999024286
 20
445.07938711800244
 10
296.32647656856557
 20
446.3048104518654
 10
295.10105323470253
 20
445.07938711800244
 10
295.10105323470253
 20
434.05057711323536
 10
296.32647656856557
 20
432.82515377937233
 10
296.32647656856557
 20
430.3743071116463
 10
297.5518999024286
 20
429.14888377778334
 10
297.5518999024286
 20
427.9234604439203
 10
298.7773232362916
 20
426.69803711005727
 10
298.7773232362916
 20
425.4726137761943
 10
300.0027465701546
 20
424.24719044233126
 10
300.0027465701546
 20
421.79634377460525
 10
298.7773232362916
 20
420.57092044074227
 10
296.32647656856557
 20
420.57092044074227
 10
295.10105323470253
 20
419.34549710687924
 10
293.87562990083956
 20
419.34549710687924
 10
291.42478323311354
 20
416.8946504391532
 10
291.42478323311354
 20
415.66922710529025
 10
292.6502065669765
 20
414.4438037714272
 10
292.6502065669765
 20
413.21838043756424
 10
293.87562990083956
 20
411.9929571037012
 10
293.87562990083956
 20
410.76753376983817
 10
295.10105323470253
 20
409.5421104359752
 10
295.10105323470253
 20
408.31668710211216
 10
297.5518999024286
 20
405.86584043438614
 10
298.7773232362916
 20
405.86584043438614
 10
300.0027465701546
 20
404.64041710052317
 10
303.6790165717436
 20
404.64041710052317
 10
303.6790165717436
 20
402.18957043279715
 10
301.2281699040176
 20
402.18957043279715
 10
298.7773232362916
 20
399.73872376507114
 10
300.0027465701546
 20
398.5133004312081
 10
301.2281699040176
 20
398.5133004312081
 10
302.4535932378806
 20
397.2878770973451
 10
302.4535932378806
 20
396.0624537634821
 10
303.6790165717436
 20
394.83703042961906
 10
303.6790165717436
 20
393.6116070957561
 10
304.90443990560664
 20
392.38618376189305
 10
304.90443990560664
 20
391.1607604280301
 10
306.1298632394696
 20
389.93533709416704
 10
306.1298632394696
 20
388.70991376030406
 10
303.6790165717436
 20
388.70991376030406
 10
302.4535932378806
 20
387.484490426441
 10
300.0027465701546
 20
387.484490426441
 10
298.7773232362916
 20
386.25906709257805
 10
298.7773232362916
 20
385.033643758715
 10
297.5518999024286
 20
385.033643758715
 10
295.10105323470253
 20
382.582797090989
 10
295.10105323470253
 20
380.131950423263
 10
296.32647656856557
 20
378.90652708939996
 10
296.32647656856557
 20
377.681103755537
 10
297.5518999024286
 20
376.45568042167395
 10
297.5518999024286
 20
375.23025708781097
 10
298.7773232362916
 20
374.00483375394793
 10
298.7773232362916
 20
370.32856375235895
 10
297.5518999024286
 20
369.1031404184959
 10
297.5518999024286
 20
365.42687041690687
 10
298.7773232362916
 20
364.2014470830439
 10
298.7773232362916
 20
360.52517708145484
 10
300.0027465701546
 20
359.29975374759186
 10
300.0027465701546
 20
356.84890707986585
 10
298.7773232362916
 20
355.6234837460028
 10
300.0027465701546
 20
354.39806041213984
 10
300.0027465701546
 20
343.36925040737276
 10
298.7773232362916
 20
342.1438270735097
 10
298.7773232362916
 20
340.91840373964675
 10
300.0027465701546
 20
339.6929804057837
 10
301.2281699040176
 20
339.6929804057837
 10
301.2281699040176
 20
336.01671040419467
 10
302.4535932378806
 20
334.7912870703317
 10
302.4535932378806
 20
328.66417040101663
 10
300.0027465701546
 20
328.66417040101663
 10
298.7773232362916
 20
327.43874706715366
 10
298.7773232362916
 20
316.4099370623866
 10
300.0027465701546
 20
315.18451372852354
 10
300.0027465701546
 20
313.95909039466056
 10
298.7773232362916
 20
312.73366706079753
 10
296.32647656856557
 20
312.73366706079753
 10
295.10105323470253
 20
311.50824372693455
 10
288.97393656538753
 20
311.50824372693455
 10
286.5230898976615
 20
309.05739705920854
 10
284.0722432299355
 20
311.50824372693455
 10
282.8468198960725
 20
311.50824372693455
 10
277.94512656062045
 20
306.6065503914825
 10
277.94512656062045
 20
305.3811270576195
 10
273.0434332251684
 20
300.47943372216747
 10
271.8180098913054
 20
300.47943372216747
 10
268.1417398897164
 20
296.8031637205784
 10
268.1417398897164
 20
295.57774038671545
 10
265.6908932219904
 20
293.1268937189894
 10
263.2400465542643
 20
293.1268937189894
  0
ENDSEC
  0
SECTION
  2
OBJECTS
  0
DICTIONARY
  5
A
330
0
100
AcDbDictionary
281
1
  3
ACAD_COLOR
350
B
  3
ACAD_GROUP
350
C
  3
ACAD_LAYOUT
350
D
  3
ACAD_MATERIAL
350
E
  3
ACAD_MLEADERSTYLE
350
F
  3
ACAD_MLINESTYLE
350
10
  3
ACAD_PLOTSETTINGS
350
11
  3
ACAD_PLOTSTYLENAME
350
12
  3
ACAD_SCALELIST
350
14
  3
ACAD_TABLESTYLE
350
15
  3
ACAD_VISUALSTYLE
350
16
  3
EZDXF_META
350
2D
  0
DICTIONARY
  5
B
330
A
100
AcDbDictionary
281
1
  0
DICTIONARY
  5
C
330
A
100
AcDbDictionary
281
1
  0
DICTIONARY
  5
D
330
A
100
AcDbDictionary
281
1
  3
Model
350
1A
  3
Layout1
350
1E
  0
DICTIONARY
  5
E
330
A
100
AcDbDictionary
281
1
  3
ByBlock
350
1F
  3
ByLayer
350
20
  3
Global
350
21
  0
DICTIONARY
  5
F
330
A
100
AcDbDictionary
281
1
  3
Standard
350
2C
  0
DICTIONARY
  5
10
330
A
100
AcDbDictionary
281
1
  3
Standard
350
22
  0
DICTIONARY
  5
11
330
A
100
AcDbDictionary
281
1
  0
ACDBDICTIONARYWDFLT
  5
12
330
A
100
AcDbDictionary
281
1
  3
Normal
350
13
100
AcDbDictionaryWithDefault
340
13
  0
ACDBPLACEHOLDER
  5
13
330
12
  0
DICTIONARY
  5
14
330
A
100
AcDbDictionary
281
1
  0
DICTIONARY
  5
15
330
A
100
AcDbDictionary
281
1
  0
DICTIONARY
  5
16
330
A
100
AcDbDictionary
281
1
  0
LAYOUT
  5
1A
330
D
100
AcDbPlotSettings
  1

  4
A3
  6

 40
7.5
 41
20.0
 42
7.5
 43
20.0
 44
420.0
 45
297.0
 46
0.0
 47
0.0
 48
0.0
 49
0.0
140
0.0
141
0.0
142
1.0
143
1.0
 70
1024
 72
1
 73
0
 74
5
  7

 75
16
 76
0
 77
2
 78
300
147
1.0
148
0.0
149
0.0
100
AcDbLayout
  1
Model
 70
1
 71
0
 10
0.0
 20
0.0
 11
420.0
 21
297.0
 12
0.0
 22
0.0
 32
0.0
 14
1e+20
 24
1e+20
 34
1e+20
 15
-1e+20
 25
-1e+20
 35
-1e+20
146
0.0
 13
0.0
 23
0.0
 33
0.0
 16
1.0
 26
0.0
 36
0.0
 17
0.0
 27
1.0
 37
0.0
 76
1
330
17
  0
LAYOUT
  5
1E
330
D
100
AcDbPlotSettings
  1

  4
A3
  6

 40
7.5
 41
20.0
 42
7.5
 43
20.0
 44
420.0
 45
297.0
 46
0.0
 47
0.0
 48
0.0
 49
0.0
140
0.0
141
0.0
142
1.0
143
1.0
 70
0
 72
1
 73
0
 74
5
  7

 75
16
 76
0
 77
2
 78
300
147
1.0
148
0.0
149
0.0
100
AcDbLayout
  1
Layout1
 70
1
 71
1
 10
0.0
 20
0.0
 11
420.0
 21
297.0
 12
0.0
 22
0.0
 32
0.0
 14
1e+20
 24
1e+20
 34
1e+20
 15
-1e+20
 25
-1e+20
 35
-1e+20
146
0.0
 13
0.0
 23
0.0
 33
0.0
 16
1.0
 26
0.0
 36
0.0
 17
0.0
 27
1.0
 37
0.0
 76
1
330
1B
  0
MATERIAL
  5
1F
102
{ACAD_REACTORS
330
E
102
}
330
E
100
AcDbMaterial
  1
ByBlock
  2

 70
0
 40
1.0
 71
1
 41
1.0
 91
-1023410177
 42
1.0
 72
1
  3

 73
1
 74
1
 75
1
 44
0.5
 73
0
 45
1.0
 46
1.0
 77
1
  4

 78
1
 79
1
170
1
 48
1.0
171
1
  6

172
1
173
1
174
1
140
1.0
141
1.0
175
1
  7

176
1
177
1
178
1
143
1.0
179
1
  8

270
1
271
1
272
1
145
1.0
146
1.0
273
1
  9

274
1
275
1
276
1
 42
1.0
 72
1
  3

 73
1
 74
1
 75
1
 94
63
  0
MATERIAL
  5
20
102
{ACAD_REACTORS
330
E
102
}
330
E
100
AcDbMaterial
  1
ByLayer
  2

 70
0
 40
1.0
 71
1
 41
1.0
 91
-1023410177
 42
1.0
 72
1
  3

 73
1
 74
1
 75
1
 44
0.5
 73
0
 45
1.0
 46
1.0
 77
1
  4

 78
1
 79
1
170
1
 48
1.0
171
1
  6

172
1
173
1
174
1
140
1.0
141
1.0
175
1
  7

176
1
177
1
178
1
143
1.0
179
1
  8

270
1
271
1
272
1
145
1.0
146
1.0
273
1
  9

274
1
275
1
276
1
 42
1.0
 72
1
  3

 73
1
 74
1
 75
1
 94
63
  0
MATERIAL
  5
21
102
{ACAD_REACTORS
330
E
102
}
330
E
100
AcDbMaterial
  1
Global
  2

 70
0
 40
1.0
 71
1
 41
1.0
 91
-1023410177
 42
1.0
 72
1
  3

 73
1
 74
1
 75
1
 44
0.5
 73
0
 45
1.0
 46
1.0
 77
1
  4

 78
1
 79
1
170
1
 48
1.0
171
1
  6

172
1
173
1
174
1
140
1.0
141
1.0
175
1
  7

176
1
177
1
178
1
143
1.0
179
1
  8

270
1
271
1
272
1
145
1.0
146
1.0
273
1
  9

274
1
275
1
276
1
 42
1.0
 72
1
  3

 73
1
 74
1
 75
1
 94
63
  0
MLINESTYLE
  5
22
102
{ACAD_REACTORS
330
10
102
}
330
10
100
AcDbMlineStyle
  2
Standard
 70
0
  3

 62
256
 51
90.0
 52
90.0
 71
2
 49
0.5
 62
256
  6
BYLAYER
 49
-0.5
 62
256
  6
BYLAYER
  0
MLEADERSTYLE
  5
2C
102
{ACAD_REACTORS
330
F
102
}
330
F
100
AcDbMLeaderStyle
179
2
170
2
171
1
172
0
 90
2
 40
0.0
 41
0.0
173
1
 91
-1056964608
 92
-2
290
1
 42
2.0
291
1
 43
8.0
  3
Standard
 44
4.0
300

342
29
174
1
175
1
176
0
178
1
 93
-1056964608
 45
4.0
292
0
297
0
 46
4.0
 94
-1056964608
 47
1.0
 49
1.0
140
1.0
294
1
141
0.0
177
0
142
1.0
295
0
296
0
143
3.75
271
0
272
9
273
9
  0
DICTIONARY
  5
2D
330
A
100
AcDbDictionary
280
1
281
1
  3
CREATED_BY_EZDXF
350
2E
  3
WRITTEN_BY_EZDXF
350
36
  0
DICTIONARYVAR
  5
2E
330
2D
100
DictionaryVariables
280
0
  1
1.4.2 @ 2025-08-24T12:13:48.516446+00:00
  0
DICTIONARYVAR
  5
36
330
2D
100
DictionaryVariables
280
0
  1
1.4.2 @ 2025-08-24T12:13:48.520436+00:00
  0
ENDSEC
  0
EOF
