  0
SECTION
  2
HEADER
  9
$ACADVER
  1
AC1024
  9
$ACADMAINTVER
 70
6
  9
$DWGCODEPAGE
  3
ANSI_1252
  9
$LASTSAVEDBY
  1
ezdxf
  9
$INSBASE
 10
0.0
 20
0.0
 30
0.0
  9
$EXTMIN
 10
1e+20
 20
1e+20
 30
1e+20
  9
$EXTMAX
 10
-1e+20
 20
-1e+20
 30
-1e+20
  9
$LIMMIN
 10
0.0
 20
0.0
  9
$LIMMAX
 10
420.0
 20
297.0
  9
$ORTHOMODE
 70
0
  9
$REGENMODE
 70
1
  9
$FILLMODE
 70
1
  9
$QTEXTMODE
 70
0
  9
$MIRRTEXT
 70
1
  9
$LTSCALE
 40
1.0
  9
$ATTMODE
 70
1
  9
$TEXTSIZE
 40
2.5
  9
$TRACEWID
 40
1.0
  9
$TEXTSTYLE
  7
Standard
  9
$CLAYER
  8
0
  9
$CELTYPE
  6
ByLayer
  9
$CECOLOR
 62
256
  9
$CELTSCALE
 40
1.0
  9
$DISPSILH
 70
0
  9
$DIMSCALE
 40
1.0
  9
$DIMASZ
 40
2.5
  9
$DIMEXO
 40
0.625
  9
$DIMDLI
 40
3.75
  9
$DIMRND
 40
0.0
  9
$DIMDLE
 40
0.0
  9
$DIMEXE
 40
1.25
  9
$DIMTP
 40
0.0
  9
$DIMTM
 40
0.0
  9
$DIMTXT
 40
2.5
  9
$DIMCEN
 40
2.5
  9
$DIMTSZ
 40
0.0
  9
$DIMTOL
 70
0
  9
$DIMLIM
 70
0
  9
$DIMTIH
 70
0
  9
$DIMTOH
 70
0
  9
$DIMSE1
 70
0
  9
$DIMSE2
 70
0
  9
$DIMTAD
 70
1
  9
$DIMZIN
 70
8
  9
$DIMBLK
  1

  9
$DIMASO
 70
1
  9
$DIMSHO
 70
1
  9
$DIMPOST
  1

  9
$DIMAPOST
  1

  9
$DIMALT
 70
0
  9
$DIMALTD
 70
3
  9
$DIMALTF
 40
0.03937007874
  9
$DIMLFAC
 40
1.0
  9
$DIMTOFL
 70
1
  9
$DIMTVP
 40
0.0
  9
$DIMTIX
 70
0
  9
$DIMSOXD
 70
0
  9
$DIMSAH
 70
0
  9
$DIMBLK1
  1

  9
$DIMBLK2
  1

  9
$DIMSTYLE
  2
ISO-25
  9
$DIMCLRD
 70
0
  9
$DIMCLRE
 70
0
  9
$DIMCLRT
 70
0
  9
$DIMTFAC
 40
1.0
  9
$DIMGAP
 40
0.625
  9
$DIMJUST
 70
0
  9
$DIMSD1
 70
0
  9
$DIMSD2
 70
0
  9
$DIMTOLJ
 70
0
  9
$DIMTZIN
 70
8
  9
$DIMALTZ
 70
0
  9
$DIMALTTZ
 70
0
  9
$DIMUPT
 70
0
  9
$DIMDEC
 70
2
  9
$DIMTDEC
 70
2
  9
$DIMALTU
 70
2
  9
$DIMALTTD
 70
3
  9
$DIMTXSTY
  7
Standard
  9
$DIMAUNIT
 70
0
  9
$DIMADEC
 70
0
  9
$DIMALTRND
 40
0.0
  9
$DIMAZIN
 70
0
  9
$DIMDSEP
 70
44
  9
$DIMATFIT
 70
3
  9
$DIMFRAC
 70
0
  9
$DIMLDRBLK
  1

  9
$DIMLUNIT
 70
2
  9
$DIMLWD
 70
-2
  9
$DIMLWE
 70
-2
  9
$DIMTMOVE
 70
0
  9
$DIMFXL
 40
1.0
  9
$DIMFXLON
 70
0
  9
$DIMJOGANG
 40
0.785398163397
  9
$DIMTFILL
 70
0
  9
$DIMTFILLCLR
 70
0
  9
$DIMARCSYM
 70
0
  9
$DIMLTYPE
  6

  9
$DIMLTEX1
  6

  9
$DIMLTEX2
  6

  9
$DIMTXTDIRECTION
 70
0
  9
$LUNITS
 70
2
  9
$LUPREC
 70
4
  9
$SKETCHINC
 40
1.0
  9
$FILLETRAD
 40
10.0
  9
$AUNITS
 70
0
  9
$AUPREC
 70
2
  9
$MENU
  1
.
  9
$ELEVATION
 40
0.0
  9
$PELEVATION
 40
0.0
  9
$THICKNESS
 40
0.0
  9
$LIMCHECK
 70
0
  9
$CHAMFERA
 40
0.0
  9
$CHAMFERB
 40
0.0
  9
$CHAMFERC
 40
0.0
  9
$CHAMFERD
 40
0.0
  9
$SKPOLY
 70
0
  9
$TDCREATE
 40
2460912.6345833335
  9
$TDUCREATE
 40
2458532.153996898
  9
$TDUPDATE
 40
2460912.6345833335
  9
$TDUUPDATE
 40
2458532.1544311
  9
$TDINDWG
 40
0.0
  9
$TDUSRTIMER
 40
0.0
  9
$USRTIMER
 70
1
  9
$ANGBASE
 50
0.0
  9
$ANGDIR
 70
0
  9
$PDMODE
 70
0
  9
$PDSIZE
 40
0.0
  9
$PLINEWID
 40
0.0
  9
$SPLFRAME
 70
0
  9
$SPLINETYPE
 70
6
  9
$SPLINESEGS
 70
8
  9
$HANDSEED
  5
37
  9
$SURFTAB1
 70
6
  9
$SURFTAB2
 70
6
  9
$SURFTYPE
 70
6
  9
$SURFU
 70
6
  9
$SURFV
 70
6
  9
$UCSBASE
  2

  9
$UCSNAME
  2

  9
$UCSORG
 10
0.0
 20
0.0
 30
0.0
  9
$UCSXDIR
 10
1.0
 20
0.0
 30
0.0
  9
$UCSYDIR
 10
0.0
 20
1.0
 30
0.0
  9
$UCSORTHOREF
  2

  9
$UCSORTHOVIEW
 70
0
  9
$UCSORGTOP
 10
0.0
 20
0.0
 30
0.0
  9
$UCSORGBOTTOM
 10
0.0
 20
0.0
 30
0.0
  9
$UCSORGLEFT
 10
0.0
 20
0.0
 30
0.0
  9
$UCSORGRIGHT
 10
0.0
 20
0.0
 30
0.0
  9
$UCSORGFRONT
 10
0.0
 20
0.0
 30
0.0
  9
$UCSORGBACK
 10
0.0
 20
0.0
 30
0.0
  9
$PUCSBASE
  2

  9
$PUCSNAME
  2

  9
$PUCSORG
 10
0.0
 20
0.0
 30
0.0
  9
$PUCSXDIR
 10
1.0
 20
0.0
 30
0.0
  9
$PUCSYDIR
 10
0.0
 20
1.0
 30
0.0
  9
$PUCSORTHOREF
  2

  9
$PUCSORTHOVIEW
 70
0
  9
$PUCSORGTOP
 10
0.0
 20
0.0
 30
0.0
  9
$PUCSORGBOTTOM
 10
0.0
 20
0.0
 30
0.0
  9
$PUCSORGLEFT
 10
0.0
 20
0.0
 30
0.0
  9
$PUCSORGRIGHT
 10
0.0
 20
0.0
 30
0.0
  9
$PUCSORGFRONT
 10
0.0
 20
0.0
 30
0.0
  9
$PUCSORGBACK
 10
0.0
 20
0.0
 30
0.0
  9
$USERI1
 70
0
  9
$USERI2
 70
0
  9
$USERI3
 70
0
  9
$USERI4
 70
0
  9
$USERI5
 70
0
  9
$USERR1
 40
0.0
  9
$USERR2
 40
0.0
  9
$USERR3
 40
0.0
  9
$USERR4
 40
0.0
  9
$USERR5
 40
0.0
  9
$WORLDVIEW
 70
1
  9
$SHADEDGE
 70
3
  9
$SHADEDIF
 70
70
  9
$TILEMODE
 70
1
  9
$MAXACTVP
 70
64
  9
$PINSBASE
 10
0.0
 20
0.0
 30
0.0
  9
$PLIMCHECK
 70
0
  9
$PEXTMIN
 10
1e+20
 20
1e+20
 30
1e+20
  9
$PEXTMAX
 10
-1e+20
 20
-1e+20
 30
-1e+20
  9
$PLIMMIN
 10
0.0
 20
0.0
  9
$PLIMMAX
 10
420.0
 20
297.0
  9
$UNITMODE
 70
0
  9
$VISRETAIN
 70
1
  9
$PLINEGEN
 70
0
  9
$PSLTSCALE
 70
1
  9
$TREEDEPTH
 70
3020
  9
$CMLSTYLE
  2
Standard
  9
$CMLJUST
 70
0
  9
$CMLSCALE
 40
20.0
  9
$PROXYGRAPHICS
 70
1
  9
$MEASUREMENT
 70
1
  9
$CELWEIGHT
370
-1
  9
$ENDCAPS
280
0
  9
$JOINSTYLE
280
0
  9
$LWDISPLAY
290
0
  9
$INSUNITS
 70
6
  9
$HYPERLINKBASE
  1

  9
$STYLESHEET
  1

  9
$XEDIT
290
1
  9
$CEPSNTYPE
380
0
  9
$PSTYLEMODE
290
1
  9
$FINGERPRINTGUID
  2
{4D4F5E0F-37D8-4DE7-BD95-A6A80D167B0F}
  9
$VERSIONGUID
  2
{D5EAC0EB-2BA4-44F8-9EDE-8DC0B641A235}
  9
$EXTNAMES
290
1
  9
$PSVPSCALE
 40
0.0
  9
$OLESTARTUP
290
0
  9
$SORTENTS
280
127
  9
$INDEXCTL
280
0
  9
$HIDETEXT
280
1
  9
$XCLIPFRAME
280
1
  9
$HALOGAP
280
0
  9
$OBSCOLOR
 70
257
  9
$OBSLTYPE
280
0
  9
$INTERSECTIONDISPLAY
280
0
  9
$INTERSECTIONCOLOR
 70
257
  9
$DIMASSOC
280
2
  9
$PROJECTNAME
  1

  9
$CAMERADISPLAY
290
0
  9
$LENSLENGTH
 40
50.0
  9
$CAMERAHEIGHT
 40
0.0
  9
$STEPSPERSEC
 40
24.0
  9
$STEPSIZE
 40
100.0
  9
$3DDWFPREC
 40
2.0
  9
$PSOLWIDTH
 40
0.005
  9
$PSOLHEIGHT
 40
0.08
  9
$LOFTANG1
 40
1.570796326795
  9
$LOFTANG2
 40
1.570796326795
  9
$LOFTMAG1
 40
0.0
  9
$LOFTMAG2
 40
0.0
  9
$LOFTPARAM
 70
7
  9
$LOFTNORMALS
280
1
  9
$LATITUDE
 40
37.795
  9
$LONGITUDE
 40
-122.394
  9
$NORTHDIRECTION
 40
0.0
  9
$TIMEZONE
 70
-8000
  9
$LIGHTGLYPHDISPLAY
280
1
  9
$TILEMODELIGHTSYNCH
280
1
  9
$CMATERIAL
347
20
  9
$SOLIDHIST
280
0
  9
$SHOWHIST
280
1
  9
$DWFFRAME
280
2
  9
$DGNFRAME
280
2
  9
$REALWORLDSCALE
290
1
  9
$INTERFERECOLOR
 62
256
  9
$CSHADOW
280
0
  9
$SHADOWPLANELOCATION
 40
0.0
  0
ENDSEC
  0
SECTION
  2
CLASSES
  0
CLASS
  1
ACDBDICTIONARYWDFLT
  2
AcDbDictionaryWithDefault
  3
ObjectDBX Classes
 90
0
 91
0
280
0
281
0
  0
CLASS
  1
SUN
  2
AcDbSun
  3
SCENEOE
 90
1153
 91
0
280
0
281
0
  0
CLASS
  1
VISUALSTYLE
  2
AcDbVisualStyle
  3
ObjectDBX Classes
 90
4095
 91
0
280
0
281
0
  0
CLASS
  1
MATERIAL
  2
AcDbMaterial
  3
ObjectDBX Classes
 90
1153
 91
0
280
0
281
0
  0
CLASS
  1
SCALE
  2
AcDbScale
  3
ObjectDBX Classes
 90
1153
 91
0
280
0
281
0
  0
CLASS
  1
TABLESTYLE
  2
AcDbTableStyle
  3
ObjectDBX Classes
 90
4095
 91
0
280
0
281
0
  0
CLASS
  1
MLEADERSTYLE
  2
AcDbMLeaderStyle
  3
ACDB_MLEADERSTYLE_CLASS
 90
4095
 91
0
280
0
281
0
  0
CLASS
  1
DICTIONARYVAR
  2
AcDbDictionaryVar
  3
ObjectDBX Classes
 90
0
 91
0
280
0
281
0
  0
CLASS
  1
CELLSTYLEMAP
  2
AcDbCellStyleMap
  3
ObjectDBX Classes
 90
1152
 91
0
280
0
281
0
  0
CLASS
  1
MENTALRAYRENDERSETTINGS
  2
AcDbMentalRayRenderSettings
  3
SCENEOE
 90
1024
 91
0
280
0
281
0
  0
CLASS
  1
ACDBDETAILVIEWSTYLE
  2
AcDbDetailViewStyle
  3
ObjectDBX Classes
 90
1025
 91
0
280
0
281
0
  0
CLASS
  1
ACDBSECTIONVIEWSTYLE
  2
AcDbSectionViewStyle
  3
ObjectDBX Classes
 90
1025
 91
0
280
0
281
0
  0
CLASS
  1
RASTERVARIABLES
  2
AcDbRasterVariables
  3
ISM
 90
0
 91
0
280
0
281
0
  0
CLASS
  1
LAYOUT
  2
AcDbLayout
  3
ObjectDBX Classes
 90
0
 91
0
280
0
281
0
  0
CLASS
  1
ACDBPLACEHOLDER
  2
AcDbPlaceHolder
  3
ObjectDBX Classes
 90
0
 91
0
280
0
281
0
  0
ENDSEC
  0
SECTION
  2
TABLES
  0
TABLE
  2
VPORT
  5
8
330
0
100
AcDbSymbolTable
 70
1
  0
VPORT
  5
23
330
8
100
AcDbSymbolTableRecord
100
AcDbViewportTableRecord
  2
*Active
 70
0
 10
0.0
 20
0.0
 11
1.0
 21
1.0
 12
0.0
 22
0.0
 13
0.0
 23
0.0
 14
0.5
 24
0.5
 15
0.5
 25
0.5
 16
0.0
 26
0.0
 36
1.0
 17
0.0
 27
0.0
 37
0.0
 40
1000.0
 41
1.34
 42
50.0
 43
0.0
 44
0.0
 50
0.0
 51
0.0
 71
0
 72
1000
 73
1
 74
3
 75
0
 76
0
 77
0
 78
0
281
0
 65
0
146
0.0
  0
ENDTAB
  0
TABLE
  2
LTYPE
  5
2
330
0
100
AcDbSymbolTable
 70
3
  0
LTYPE
  5
24
330
2
100
AcDbSymbolTableRecord
100
AcDbLinetypeTableRecord
  2
ByBlock
 70
0
  3

 72
65
 73
0
 40
0.0
  0
LTYPE
  5
25
330
2
100
AcDbSymbolTableRecord
100
AcDbLinetypeTableRecord
  2
ByLayer
 70
0
  3

 72
65
 73
0
 40
0.0
  0
LTYPE
  5
26
330
2
100
AcDbSymbolTableRecord
100
AcDbLinetypeTableRecord
  2
Continuous
 70
0
  3

 72
65
 73
0
 40
0.0
  0
ENDTAB
  0
TABLE
  2
LAYER
  5
1
330
0
100
AcDbSymbolTable
 70
2
  0
LAYER
  5
27
330
1
100
AcDbSymbolTableRecord
100
AcDbLayerTableRecord
  2
0
 70
0
 62
7
  6
Continuous
370
-3
390
13
347
21
  0
LAYER
  5
28
330
1
100
AcDbSymbolTableRecord
100
AcDbLayerTableRecord
  2
Defpoints
 70
0
 62
7
  6
Continuous
290
0
370
-3
390
13
347
21
  0
ENDTAB
  0
TABLE
  2
STYLE
  5
5
330
0
100
AcDbSymbolTable
 70
1
  0
STYLE
  5
29
330
5
100
AcDbSymbolTableRecord
100
AcDbTextStyleTableRecord
  2
Standard
 70
0
 40
0.0
 41
1.0
 50
0.0
 71
0
 42
2.5
  3
txt
  4

  0
ENDTAB
  0
TABLE
  2
VIEW
  5
7
330
0
100
AcDbSymbolTable
 70
0
  0
ENDTAB
  0
TABLE
  2
UCS
  5
6
330
0
100
AcDbSymbolTable
 70
0
  0
ENDTAB
  0
TABLE
  2
APPID
  5
3
330
0
100
AcDbSymbolTable
 70
3
  0
APPID
  5
2A
330
3
100
AcDbSymbolTableRecord
100
AcDbRegAppTableRecord
  2
ACAD
 70
0
  0
APPID
  5
34
330
3
100
AcDbSymbolTableRecord
100
AcDbRegAppTableRecord
  2
HATCHBACKGROUNDCOLOR
 70
0
  0
APPID
  5
35
330
3
100
AcDbSymbolTableRecord
100
AcDbRegAppTableRecord
  2
EZDXF
 70
0
  0
ENDTAB
  0
TABLE
  2
DIMSTYLE
  5
4
330
0
100
AcDbSymbolTable
 70
1
100
AcDbDimStyleTable
  0
DIMSTYLE
105
2B
330
4
100
AcDbSymbolTableRecord
100
AcDbDimStyleTableRecord
  2
Standard
 70
0
 40
1.0
 41
2.5
 42
0.625
 43
3.75
 44
1.25
 45
0.0
 46
0.0
 47
0.0
 48
0.0
 49
2.5
140
2.5
141
2.5
142
0.0
143
0.03937007874
144
1.0
145
0.0
146
1.0
147
0.625
148
0.0
 69
0
 70
0
 71
0
 72
0
 73
0
 74
0
 75
0
 76
0
 77
1
 78
8
 79
3
170
0
171
3
172
1
173
0
174
0
175
0
176
0
177
0
178
0
179
2
271
2
272
2
273
2
274
3
275
0
276
0
277
2
278
44
279
0
280
0
281
0
282
0
283
0
284
8
285
0
286
0
288
0
289
3
290
0
371
-2
372
-2
  0
ENDTAB
  0
TABLE
  2
BLOCK_RECORD
  5
9
330
0
100
AcDbSymbolTable
 70
2
  0
BLOCK_RECORD
  5
17
330
9
100
AcDbSymbolTableRecord
100
AcDbBlockTableRecord
  2
*Model_Space
340
1A
 70
0
280
1
281
0
  0
BLOCK_RECORD
  5
1B
330
9
100
AcDbSymbolTableRecord
100
AcDbBlockTableRecord
  2
*Paper_Space
340
1E
 70
0
280
1
281
0
  0
ENDTAB
  0
ENDSEC
  0
SECTION
  2
BLOCKS
  0
BLOCK
  5
18
330
17
100
AcDbEntity
  8
0
100
AcDbBlockBegin
  2
*Model_Space
 70
0
 10
0.0
 20
0.0
 30
0.0
  3
*Model_Space
  1

  0
ENDBLK
  5
19
330
17
100
AcDbEntity
  8
0
100
AcDbBlockEnd
  0
BLOCK
  5
1C
330
1B
100
AcDbEntity
  8
0
100
AcDbBlockBegin
  2
*Paper_Space
 70
0
 10
0.0
 20
0.0
 30
0.0
  3
*Paper_Space
  1

  0
ENDBLK
  5
1D
330
1B
100
AcDbEntity
  8
0
100
AcDbBlockEnd
  0
ENDSEC
  0
SECTION
  2
ENTITIES
  0
LWPOLYLINE
  5
2F
330
17
100
AcDbEntity
  8
FRAME
100
AcDbPolyline
 90
5
 70
1
 10
280.0
 20
280.0
 10
620.0
 20
280.0
 10
620.0
 20
620.0
 10
280.0
 20
620.0
 10
280.0
 20
280.0
  0
CIRCLE
  5
30
330
17
100
AcDbEntity
  8
CIRCLES
100
AcDbCircle
 10
450.0
 20
400.0
 30
0.0
 40
5.0
  0
CIRCLE
  5
31
330
17
100
AcDbEntity
  8
CIRCLES
100
AcDbCircle
 10
400.0
 20
500.0
 30
0.0
 40
5.0
  0
CIRCLE
  5
32
330
17
100
AcDbEntity
  8
CIRCLES
100
AcDbCircle
 10
500.0
 20
500.0
 30
0.0
 40
5.0
  0
LWPOLYLINE
  5
33
330
17
100
AcDbEntity
  8
CONTOUR_1
100
AcDbPolyline
 90
656
 70
1
 10
353.9213732601269
 20
291.9014703851264
 10
345.3434099230859
 20
300.47943372216747
 10
342.8925632553599
 20
300.47943372216747
 10
334.31459991831883
 20
309.05739705920854
 10
333.0891765844558
 20
309.05739705920854
 10
329.4129065828668
 20
312.73366706079753
 10
322.0603665796887
 20
305.3811270576195
 10
320.83494324582574
 20
305.3811270576195
 10
319.6095199119627
 20
304.15570372375646
 10
319.6095199119627
 20
302.9302803898935
 10
308.5807099071956
 20
302.9302803898935
 10
307.35528657333265
 20
301.70485705603045
 10
298.7773232362916
 20
301.70485705603045
 10
296.32647656856557
 20
304.15570372375646
 10
295.10105323470253
 20
304.15570372375646
 10
292.6502065669765
 20
306.6065503914825
 10
291.42478323311354
 20
306.6065503914825
 10
288.97393656538753
 20
309.05739705920854
 10
287.7485132315245
 20
309.05739705920854
 10
292.6502065669765
 20
309.05739705920854
 10
293.87562990083956
 20
310.2828203930715
 10
298.7773232362916
 20
310.2828203930715
 10
301.2281699040176
 20
312.73366706079753
 10
301.2281699040176
 20
313.95909039466056
 10
302.4535932378806
 20
315.18451372852354
 10
301.2281699040176
 20
316.4099370623866
 10
301.2281699040176
 20
326.2133237332906
 10
302.4535932378806
 20
327.43874706715366
 10
303.6790165717436
 20
327.43874706715366
 10
304.90443990560664
 20
328.66417040101663
 10
304.90443990560664
 20
334.7912870703317
 10
303.6790165717436
 20
336.01671040419467
 10
303.6790165717436
 20
339.6929804057837
 10
301.2281699040176
 20
342.1438270735097
 10
302.4535932378806
 20
343.36925040737276
 10
302.4535932378806
 20
354.39806041213984
 10
301.2281699040176
 20
355.6234837460028
 10
302.4535932378806
 20
356.84890707986585
 10
302.4535932378806
 20
359.29975374759186
 10
301.2281699040176
 20
360.52517708145484
 10
301.2281699040176
 20
364.2014470830439
 10
300.0027465701546
 20
365.42687041690687
 10
300.0027465701546
 20
369.1031404184959
 10
301.2281699040176
 20
370.32856375235895
 10
301.2281699040176
 20
374.00483375394793
 10
300.0027465701546
 20
375.23025708781097
 10
300.0027465701546
 20
376.45568042167395
 10
298.7773232362916
 20
377.681103755537
 10
298.7773232362916
 20
378.90652708939996
 10
297.5518999024286
 20
380.131950423263
 10
297.5518999024286
 20
382.582797090989
 10
298.7773232362916
 20
382.582797090989
 10
300.0027465701546
 20
383.80822042485204
 10
300.0027465701546
 20
385.033643758715
 10
301.2281699040176
 20
385.033643758715
 10
302.4535932378806
 20
386.25906709257805
 10
304.90443990560664
 20
386.25906709257805
 10
306.1298632394696
 20
387.484490426441
 10
307.35528657333265
 20
387.484490426441
 10
308.5807099071956
 20
388.70991376030406
 10
308.5807099071956
 20
389.93533709416704
 10
307.35528657333265
 20
391.1607604280301
 10
307.35528657333265
 20
392.38618376189305
 10
306.1298632394696
 20
393.6116070957561
 10
306.1298632394696
 20
394.83703042961906
 10
304.90443990560664
 20
396.0624537634821
 10
304.90443990560664
 20
397.2878770973451
 10
302.4535932378806
 20
399.73872376507114
 10
302.4535932378806
 20
400.9641470989341
 10
303.6790165717436
 20
400.9641470989341
 10
306.1298632394696
 20
403.41499376666013
 10
306.1298632394696
 20
404.64041710052317
 10
303.6790165717436
 20
407.0912637682492
 10
300.0027465701546
 20
407.0912637682492
 10
298.7773232362916
 20
408.31668710211216
 10
297.5518999024286
 20
408.31668710211216
 10
297.5518999024286
 20
409.5421104359752
 10
296.32647656856557
 20
410.76753376983817
 10
296.32647656856557
 20
411.9929571037012
 10
295.10105323470253
 20
413.21838043756424
 10
295.10105323470253
 20
414.4438037714272
 10
293.87562990083956
 20
415.66922710529025
 10
293.87562990083956
 20
416.8946504391532
 10
295.10105323470253
 20
418.12007377301626
 10
297.5518999024286
 20
418.12007377301626
 10
300.0027465701546
 20
420.57092044074227
 10
301.2281699040176
 20
420.57092044074227
 10
302.4535932378806
 20
421.79634377460525
 10
302.4535932378806
 20
424.24719044233126
 10
301.2281699040176
 20
425.4726137761943
 10
301.2281699040176
 20
426.69803711005727
 10
300.0027465701546
 20
427.9234604439203
 10
300.0027465701546
 20
429.14888377778334
 10
298.7773232362916
 20
430.3743071116463
 10
298.7773232362916
 20
432.82515377937233
 10
297.5518999024286
 20
434.05057711323536
 10
297.5518999024286
 20
443.8539637841394
 10
300.0027465701546
 20
443.8539637841394
 10
301.2281699040176
 20
442.62854045027643
 10
303.6790165717436
 20
442.62854045027643
 10
304.90443990560664
 20
443.8539637841394
 10
304.90443990560664
 20
451.20650378731744
 10
306.1298632394696
 20
452.4319271211805
 10
306.1298632394696
 20
462.2353137920845
 10
303.6790165717436
 20
464.68616045981054
 10
302.4535932378806
 20
464.68616045981054
 10
303.6790165717436
 20
465.91158379367357
 10
303.6790165717436
 20
470.8132771291256
 10
304.90443990560664
 20
472.0387004629886
 10
304.90443990560664
 20
475.7149704645776
 10
306.1298632394696
 20
476.94039379844065
 10
302.4535932378806
 20
480.61666380002964
 10
300.0027465701546
 20
480.61666380002964
 10
300.0027465701546
 20
495.32174380638577
 10
295.10105323470253
 20
500.2234371418378
 10
295.10105323470253
 20
502.6742838095638
 10
296.32647656856557
 20
503.89970714342684
 10
296.32647656856557
 20
506.35055381115285
 10
297.5518999024286
 20
507.5759771450158
 10
297.5518999024286
 20
508.80140047887886
 10
298.7773232362916
 20
507.5759771450158
 10
301.2281699040176
 20
507.5759771450158
 10
302.4535932378806
 20
506.35055381115285
 10
304.90443990560664
 20
506.35055381115285
 10
306.1298632394696
 20
507.5759771450158
 10
306.1298632394696
 20
508.80140047887886
 10
307.35528657333265
 20
510.02682381274184
 10
307.35528657333265
 20
511.2522471466049
 10
308.5807099071956
 20
512.4776704804679
 10
308.5807099071956
 20
514.9285171481939
 10
309.80613324105866
 20
516.1539404820569
 10
309.80613324105866
 20
517.3793638159199
 10
311.0315565749217
 20
518.604787149783
 10
308.5807099071956
 20
521.0556338175089
 10
307.35528657333265
 20
521.0556338175089
 10
306.1298632394696
 20
522.2810571513719
 10
304.90443990560664
 20
522.2810571513719
 10
303.6790165717436
 20
523.506480485235
 10
302.4535932378806
 20
523.506480485235
 10
301.2281699040176
 20
524.731903819098
 10
301.2281699040176
 20
528.408173820687
 10
302.4535932378806
 20
529.63359715455
 10
302.4535932378806
 20
530.859020488413
 10
303.6790165717436
 20
532.084443822276
 10
303.6790165717436
 20
533.309867156139
 10
304.90443990560664
 20
534.535290490002
 10
304.90443990560664
 20
536.9861371577281
 10
303.6790165717436
 20
538.2115604915911
 10
302.4535932378806
 20
538.2115604915911
 10
298.7773232362916
 20
541.8878304931801
 10
297.5518999024286
 20
541.8878304931801
 10
297.5518999024286
 20
549.2403704963581
 10
298.7773232362916
 20
550.4657938302212
 10
298.7773232362916
 20
554.1420638318101
 10
300.0027465701546
 20
554.1420638318101
 10
301.2281699040176
 20
552.9166404979471
 10
302.4535932378806
 20
552.9166404979471
 10
304.90443990560664
 20
555.3674871656732
 10
304.90443990560664
 20
556.5929104995362
 10
306.1298632394696
 20
557.8183338333992
 10
306.1298632394696
 20
560.2691805011252
 10
307.35528657333265
 20
561.4946038349882
 10
307.35528657333265
 20
562.7200271688512
 10
308.5807099071956
 20
563.9454505027143
 10
308.5807099071956
 20
566.3962971704402
 10
307.35528657333265
 20
567.6217205043032
 10
304.90443990560664
 20
567.6217205043032
 10
303.6790165717436
 20
566.3962971704402
 10
296.32647656856557
 20
566.3962971704402
 10
295.10105323470253
 20
565.1708738365772
 10
293.87562990083956
 20
565.1708738365772
 10
293.87562990083956
 20
566.3962971704402
 10
295.10105323470253
 20
567.6217205043032
 10
295.10105323470253
 20
568.8471438381663
 10
296.32647656856557
 20
570.0725671720293
 10
296.32647656856557
 20
571.2979905058922
 10
297.5518999024286
 20
572.5234138397552
 10
297.5518999024286
 20
574.9742605074813
 10
298.7773232362916
 20
576.1996838413443
 10
298.7773232362916
 20
577.4251071752074
 10
300.0027465701546
 20
578.6505305090703
 10
300.0027465701546
 20
579.8759538429333
 10
301.2281699040176
 20
581.1013771767963
 10
301.2281699040176
 20
583.5522238445224
 10
302.4535932378806
 20
584.7776471783853
 10
302.4535932378806
 20
586.0030705122483
 10
304.90443990560664
 20
588.4539171799744
 10
304.90443990560664
 20
589.6793405138374
 10
307.35528657333265
 20
592.1301871815634
 10
307.35528657333265
 20
593.3556105154264
 10
308.5807099071956
 20
594.5810338492894
 10
308.5807099071956
 20
595.8064571831525
 10
309.80613324105866
 20
597.0318805170155
 10
309.80613324105866
 20
598.2573038508784
 10
311.0315565749217
 20
598.2573038508784
 10
313.4824032426477
 20
600.7081505186045
 10
314.7078265765107
 20
600.7081505186045
 10
314.7078265765107
 20
599.4827271847414
 10
315.9332499103737
 20
598.2573038508784
 10
317.1586732442367
 20
598.2573038508784
 10
318.38409657809973
 20
599.4827271847414
 10
323.28578991355175
 20
599.4827271847414
 10
324.51121324741473
 20
598.2573038508784
 10
325.73663658127776
 20
598.2573038508784
 10
326.9620599151408
 20
599.4827271847414
 10
330.6383299167298
 20
599.4827271847414
 10
331.8637532505928
 20
598.2573038508784
 10
339.21629325377086
 20
598.2573038508784
 10
341.66713992149687
 20
600.7081505186045
 10
344.1179865892229
 20
600.7081505186045
 10
345.3434099230859
 20
599.4827271847414
 10
349.0196799246749
 20
599.4827271847414
 10
350.24510325853794
 20
598.2573038508784
 10
353.9213732601269
 20
598.2573038508784
 10
352.69594992626395
 20
597.0318805170155
 10
352.69594992626395
 20
593.3556105154264
 10
353.9213732601269
 20
592.1301871815634
 10
366.17560659875704
 20
592.1301871815634
 10
368.62645326648305
 20
594.5810338492894
 10
368.62645326648305
 20
597.0318805170155
 10
371.07729993420907
 20
599.4827271847414
 10
371.07729993420907
 20
600.7081505186045
 10
375.9789932696611
 20
600.7081505186045
 10
374.7535699357981
 20
599.4827271847414
 10
375.9789932696611
 20
598.2573038508784
 10
378.4298399373871
 20
598.2573038508784
 10
379.65526327125013
 20
599.4827271847414
 10
379.65526327125013
 20
600.7081505186045
 10
388.2332266082912
 20
609.2861138556456
 10
389.4586499421542
 20
609.2861138556456
 10
389.4586499421542
 20
608.0606905217825
 10
391.9094966098802
 20
605.6098438540565
 10
391.9094966098802
 20
604.3844205201934
 10
393.1349199437432
 20
603.1589971863305
 10
393.1349199437432
 20
601.9335738524675
 10
394.3603432776062
 20
600.7081505186045
 10
393.1349199437432
 20
600.7081505186045
 10
391.9094966098802
 20
599.4827271847414
 10
393.1349199437432
 20
598.2573038508784
 10
411.51626995168834
 20
598.2573038508784
 10
412.7416932855513
 20
599.4827271847414
 10
412.7416932855513
 20
600.7081505186045
 10
415.1925399532774
 20
600.7081505186045
 10
416.41796328714037
 20
601.9335738524675
 10
418.8688099548664
 20
601.9335738524675
 10
420.0942332887294
 20
603.1589971863305
 10
423.7705032903184
 20
603.1589971863305
 10
424.99592662418144
 20
604.3844205201934
 10
428.6721966257704
 20
604.3844205201934
 10
429.89761995963346
 20
605.6098438540565
 10
431.1230432934965
 20
605.6098438540565
 10
431.1230432934965
 20
599.4827271847414
 10
432.34846662735947
 20
598.2573038508784
 10
432.34846662735947
 20
595.8064571831525
 10
433.5738899612225
 20
594.5810338492894
 10
438.47558329667453
 20
594.5810338492894
 10
439.7010066305375
 20
595.8064571831525
 10
443.37727663212655
 20
595.8064571831525
 10
444.60269996598953
 20
597.0318805170155
 10
453.1806633030306
 20
597.0318805170155
 10
454.40608663689363
 20
598.2573038508784
 10
455.6315099707566
 20
598.2573038508784
 10
456.85693330461964
 20
597.0318805170155
 10
465.4348966416607
 20
597.0318805170155
 10
466.6603199755237
 20
598.2573038508784
 10
469.1111666432497
 20
598.2573038508784
 10
474.0128599787017
 20
593.3556105154264
 10
475.23828331256476
 20
593.3556105154264
 10
476.4637066464278
 20
594.5810338492894
 10
477.6891299802908
 20
594.5810338492894
 10
478.9145533141538
 20
595.8064571831525
 10
480.1399766480168
 20
595.8064571831525
 10
481.3653999818798
 20
597.0318805170155
 10
483.81624664960583
 20
597.0318805170155
 10
485.0416699834688
 20
598.2573038508784
 10
486.26709331733184
 20
598.2573038508784
 10
487.4925166511948
 20
597.0318805170155
 10
487.4925166511948
 20
595.8064571831525
 10
489.9433633189209
 20
593.3556105154264
 10
492.3942099866469
 20
593.3556105154264
 10
493.6196333205099
 20
594.5810338492894
 10
494.8450566543729
 20
594.5810338492894
 10
496.0704799882359
 20
595.8064571831525
 10
497.2959033220989
 20
595.8064571831525
 10
498.5213266559619
 20
597.0318805170155
 10
499.74674998982493
 20
597.0318805170155
 10
500.9721733236879
 20
598.2573038508784
 10
504.64844332527696
 20
598.2573038508784
 10
505.87386665914
 20
599.4827271847414
 10
505.87386665914
 20
601.9335738524675
 10
504.64844332527696
 20
603.1589971863305
 10
505.87386665914
 20
601.9335738524675
 10
508.324713326866
 20
601.9335738524675
 10
509.550136660729
 20
600.7081505186045
 10
512.000983328455
 20
600.7081505186045
 10
513.226406662318
 20
599.4827271847414
 10
514.451829996181
 20
599.4827271847414
 10
515.677253330044
 20
598.2573038508784
 10
525.4806400009481
 20
598.2573038508784
 10
526.7060633348111
 20
599.4827271847414
 10
526.7060633348111
 20
600.7081505186045
 10
525.4806400009481
 20
601.9335738524675
 10
525.4806400009481
 20
604.3844205201934
 10
524.255216667085
 20
605.6098438540565
 10
524.255216667085
 20
608.0606905217825
 10
523.0297933332221
 20
609.2861138556456
 10
524.255216667085
 20
608.0606905217825
 10
525.4806400009481
 20
608.0606905217825
 10
527.9314866686741
 20
605.6098438540565
 10
529.1569100025371
 20
605.6098438540565
 10
531.6077566702631
 20
603.1589971863305
 10
532.8331800041261
 20
603.1589971863305
 10
534.0586033379891
 20
601.9335738524675
 10
535.2840266718522
 20
601.9335738524675
 10
538.9602966734412
 20
598.2573038508784
 10
542.6365666750302
 20
598.2573038508784
 10
547.5382600104822
 20
603.1589971863305
 10
547.5382600104822
 20
604.3844205201934
 10
549.9891066782083
 20
606.8352671879195
 10
551.2145300120712
 20
606.8352671879195
 10
551.2145300120712
 20
605.6098438540565
 10
556.1162233475233
 20
600.7081505186045
 10
556.1162233475233
 20
599.4827271847414
 10
557.3416466813864
 20
598.2573038508784
 10
559.7924933491123
 20
598.2573038508784
 10
562.2433400168384
 20
595.8064571831525
 10
563.4687633507014
 20
597.0318805170155
 10
564.6941866845643
 20
597.0318805170155
 10
565.9196100184274
 20
598.2573038508784
 10
568.3704566861534
 20
598.2573038508784
 10
572.0467266877424
 20
601.9335738524675
 10
575.7229966893315
 20
598.2573038508784
 10
583.0755366925094
 20
598.2573038508784
 10
584.3009600263725
 20
599.4827271847414
 10
583.0755366925094
 20
600.7081505186045
 10
583.0755366925094
 20
601.9335738524675
 10
581.8501133586465
 20
603.1589971863305
 10
581.8501133586465
 20
604.3844205201934
 10
584.3009600263725
 20
604.3844205201934
 10
585.5263833602355
 20
605.6098438540565
 10
586.7518066940985
 20
605.6098438540565
 10
587.9772300279615
 20
606.8352671879195
 10
589.2026533618246
 20
606.8352671879195
 10
590.4280766956875
 20
608.0606905217825
 10
592.8789233634135
 20
608.0606905217825
 10
592.8789233634135
 20
606.8352671879195
 10
594.1043466972766
 20
605.6098438540565
 10
594.1043466972766
 20
604.3844205201934
 10
595.3297700311396
 20
603.1589971863305
 10
595.3297700311396
 20
601.9335738524675
 10
597.7806166988656
 20
599.4827271847414
 10
597.7806166988656
 20
595.8064571831525
 10
599.0060400327286
 20
594.5810338492894
 10
600.2314633665916
 20
594.5810338492894
 10
600.2314633665916
 20
592.1301871815634
 10
601.4568867004546
 20
590.9047638477003
 10
601.4568867004546
 20
589.6793405138374
 10
602.6823100343177
 20
588.4539171799744
 10
602.6823100343177
 20
586.0030705122483
 10
603.9077333681806
 20
584.7776471783853
 10
603.9077333681806
 20
583.5522238445224
 10
601.4568867004546
 20
581.1013771767963
 10
599.0060400327286
 20
581.1013771767963
 10
597.7806166988656
 20
579.8759538429333
 10
597.7806166988656
 20
578.6505305090703
 10
596.5551933650025
 20
578.6505305090703
 10
595.3297700311396
 20
577.4251071752074
 10
594.1043466972766
 20
577.4251071752074
 10
592.8789233634135
 20
576.1996838413443
 10
592.8789233634135
 20
574.9742605074813
 10
594.1043466972766
 20
573.7488371736183
 10
594.1043466972766
 20
572.5234138397552
 10
595.3297700311396
 20
571.2979905058922
 10
595.3297700311396
 20
570.0725671720293
 10
596.5551933650025
 20
568.8471438381663
 10
596.5551933650025
 20
567.6217205043032
 10
597.7806166988656
 20
566.3962971704402
 10
597.7806166988656
 20
561.4946038349882
 10
599.0060400327286
 20
560.2691805011252
 10
599.0060400327286
 20
559.0437571672621
 10
596.5551933650025
 20
556.5929104995362
 10
596.5551933650025
 20
552.9166404979471
 10
597.7806166988656
 20
551.6912171640842
 10
597.7806166988656
 20
546.7895238286321
 10
599.0060400327286
 20
545.564100494769
 10
597.7806166988656
 20
544.3386771609061
 10
597.7806166988656
 20
543.1132538270431
 10
600.2314633665916
 20
540.662407159317
 10
600.2314633665916
 20
534.535290490002
 10
601.4568867004546
 20
533.309867156139
 10
601.4568867004546
 20
528.408173820687
 10
599.0060400327286
 20
528.408173820687
 10
597.7806166988656
 20
527.1827504868239
 10
597.7806166988656
 20
525.9573271529609
 10
599.0060400327286
 20
524.731903819098
 10
600.2314633665916
 20
525.9573271529609
 10
601.4568867004546
 20
525.9573271529609
 10
602.6823100343177
 20
524.731903819098
 10
602.6823100343177
 20
517.3793638159199
 10
601.4568867004546
 20
517.3793638159199
 10
600.2314633665916
 20
516.1539404820569
 10
599.0060400327286
 20
516.1539404820569
 10
597.7806166988656
 20
514.9285171481939
 10
597.7806166988656
 20
513.7030938143308
 10
599.0060400327286
 20
512.4776704804679
 10
600.2314633665916
 20
513.7030938143308
 10
602.6823100343177
 20
513.7030938143308
 10
603.9077333681806
 20
514.9285171481939
 10
603.9077333681806
 20
513.7030938143308
 10
605.1331567020436
 20
512.4776704804679
 10
605.1331567020436
 20
507.5759771450158
 10
606.3585800359066
 20
506.35055381115285
 10
606.3585800359066
 20
501.44886047570077
 10
607.5840033697697
 20
500.2234371418378
 10
599.0060400327286
 20
500.2234371418378
 10
597.7806166988656
 20
498.99801380797476
 10
597.7806166988656
 20
497.7725904741118
 10
595.3297700311396
 20
497.7725904741118
 10
594.1043466972766
 20
496.54716714024875
 10
594.1043466972766
 20
491.6454738047967
 10
595.3297700311396
 20
490.42005047093375
 10
595.3297700311396
 20
486.7437804693447
 10
596.5551933650025
 20
485.51835713548166
 10
596.5551933650025
 20
483.06751046775565
 10
597.7806166988656
 20
481.8420871338927
 10
597.7806166988656
 20
473.2641237968516
 10
599.0060400327286
 20
472.0387004629886
 10
599.0060400327286
 20
470.8132771291256
 10
600.2314633665916
 20
469.58785379526256
 10
600.2314633665916
 20
468.3624304613996
 10
601.4568867004546
 20
467.13700712753655
 10
601.4568867004546
 20
465.91158379367357
 10
600.2314633665916
 20
464.68616045981054
 10
599.0060400327286
 20
464.68616045981054
 10
597.7806166988656
 20
463.46073712594756
 10
597.7806166988656
 20
461.00989045822155
 10
594.1043466972766
 20
457.3336204566325
 10
594.1043466972766
 20
456.10819712276947
 10
595.3297700311396
 20
454.8827737889065
 10
596.5551933650025
 20
454.8827737889065
 10
597.7806166988656
 20
453.65735045504346
 10
597.7806166988656
 20
452.4319271211805
 10
599.0060400327286
 20
451.20650378731744
 10
600.2314633665916
 20
451.20650378731744
 10
601.4568867004546
 20
449.98108045345447
 10
602.6823100343177
 20
449.98108045345447
 10
602.6823100343177
 20
447.53023378572846
 10
601.4568867004546
 20
446.3048104518654
 10
601.4568867004546
 20
443.8539637841394
 10
600.2314633665916
 20
442.62854045027643
 10
600.2314633665916
 20
440.17769378255036
 10
599.0060400327286
 20
440.17769378255036
 10
597.7806166988656
 20
438.9522704486874
 10
597.7806166988656
 20
436.5014237809614
 10
600.2314633665916
 20
434.05057711323536
 10
599.0060400327286
 20
434.05057711323536
 10
597.7806166988656
 20
432.82515377937233
 10
597.7806166988656
 20
430.3743071116463
 10
599.0060400327286
 20
429.14888377778334
 10
601.4568867004546
 20
431.59973044550935
 10
602.6823100343177
 20
430.3743071116463
 10
602.6823100343177
 20
429.14888377778334
 10
605.1331567020436
 20
426.69803711005727
 10
605.1331567020436
 20
425.4726137761943
 10
607.5840033697697
 20
423.0217671084683
 10
607.5840033697697
 20
421.79634377460525
 10
608.8094267036327
 20
420.57092044074227
 10
608.8094267036327
 20
419.34549710687924
 10
610.0348500374956
 20
418.12007377301626
 10
610.0348500374956
 20
416.8946504391532
 10
607.5840033697697
 20
416.8946504391532
 10
606.3585800359066
 20
415.66922710529025
 10
603.9077333681806
 20
415.66922710529025
 10
602.6823100343177
 20
414.4438037714272
 10
601.4568867004546
 20
414.4438037714272
 10
600.2314633665916
 20
413.21838043756424
 10
599.0060400327286
 20
413.21838043756424
 10
597.7806166988656
 20
411.9929571037012
 10
597.7806166988656
 20
410.76753376983817
 10
595.3297700311396
 20
408.31668710211216
 10
595.3297700311396
 20
405.86584043438614
 10
596.5551933650025
 20
404.64041710052317
 10
596.5551933650025
 20
400.9641470989341
 10
597.7806166988656
 20
399.73872376507114
 10
597.7806166988656
 20
391.1607604280301
 10
599.0060400327286
 20
389.93533709416704
 10
600.2314633665916
 20
391.1607604280301
 10
606.3585800359066
 20
385.033643758715
 10
606.3585800359066
 20
383.80822042485204
 10
603.9077333681806
 20
381.35737375712597
 10
602.6823100343177
 20
381.35737375712597
 10
601.4568867004546
 20
380.131950423263
 10
600.2314633665916
 20
380.131950423263
 10
597.7806166988656
 20
377.681103755537
 10
597.7806166988656
 20
375.23025708781097
 10
599.0060400327286
 20
374.00483375394793
 10
601.4568867004546
 20
376.45568042167395
 10
602.6823100343177
 20
376.45568042167395
 10
610.0348500374956
 20
369.1031404184959
 10
607.5840033697697
 20
366.6522937507699
 10
606.3585800359066
 20
366.6522937507699
 10
603.9077333681806
 20
364.2014470830439
 10
602.6823100343177
 20
364.2014470830439
 10
600.2314633665916
 20
361.7506004153179
 10
599.0060400327286
 20
361.7506004153179
 10
597.7806166988656
 20
360.52517708145484
 10
597.7806166988656
 20
350.7217904105508
 10
602.6823100343177
 20
345.8200970750988
 10
603.9077333681806
 20
345.8200970750988
 10
606.3585800359066
 20
343.36925040737276
 10
603.9077333681806
 20
340.91840373964675
 10
602.6823100343177
 20
340.91840373964675
 10
601.4568867004546
 20
339.6929804057837
 10
600.2314633665916
 20
339.6929804057837
 10
597.7806166988656
 20
337.2421337380577
 10
597.7806166988656
 20
336.01671040419467
 10
599.0060400327286
 20
334.7912870703317
 10
600.2314633665916
 20
336.01671040419467
 10
601.4568867004546
 20
336.01671040419467
 10
602.6823100343177
 20
337.2421337380577
 10
602.6823100343177
 20
329.88959373487967
 10
601.4568867004546
 20
329.88959373487967
 10
600.2314633665916
 20
328.66417040101663
 10
599.0060400327286
 20
328.66417040101663
 10
596.5551933650025
 20
326.2133237332906
 10
596.5551933650025
 20
322.5370537317016
 10
597.7806166988656
 20
321.3116303978386
 10
597.7806166988656
 20
316.4099370623866
 10
600.2314633665916
 20
313.95909039466056
 10
599.0060400327286
 20
313.95909039466056
 10
597.7806166988656
 20
312.73366706079753
 10
597.7806166988656
 20
311.50824372693455
 10
599.0060400327286
 20
310.2828203930715
 10
600.2314633665916
 20
311.50824372693455
 10
601.4568867004546
 20
311.50824372693455
 10
602.6823100343177
 20
312.73366706079753
 10
602.6823100343177
 20
307.8319737253455
 10
600.2314633665916
 20
307.8319737253455
 10
597.7806166988656
 20
305.3811270576195
 10
596.5551933650025
 20
305.3811270576195
 10
595.3297700311396
 20
304.15570372375646
 10
592.8789233634135
 20
304.15570372375646
 10
591.6535000295505
 20
302.9302803898935
 10
590.4280766956875
 20
302.9302803898935
 10
589.2026533618246
 20
301.70485705603045
 10
586.7518066940985
 20
301.70485705603045
 10
585.5263833602355
 20
300.47943372216747
 10
581.8501133586465
 20
300.47943372216747
 10
580.6246900247835
 20
299.25401038830444
 10
578.1738433570574
 20
299.25401038830444
 10
576.9484200231944
 20
298.02858705444146
 10
576.9484200231944
 20
299.25401038830444
 10
574.4975733554684
 20
301.70485705603045
 10
573.2721500216054
 20
301.70485705603045
 10
572.0467266877424
 20
300.47943372216747
 10
568.3704566861534
 20
300.47943372216747
 10
565.9196100184274
 20
298.02858705444146
 10
564.6941866845643
 20
298.02858705444146
 10
563.4687633507014
 20
296.8031637205784
 10
562.2433400168384
 20
296.8031637205784
 10
561.0179166829753
 20
295.57774038671545
 10
559.7924933491123
 20
295.57774038671545
 10
558.5670700152493
 20
294.3523170528524
 10
558.5670700152493
 20
295.57774038671545
 10
557.3416466813864
 20
296.8031637205784
 10
557.3416466813864
 20
299.25401038830444
 10
556.1162233475233
 20
300.47943372216747
 10
553.6653766797973
 20
300.47943372216747
 10
553.6653766797973
 20
301.70485705603045
 10
552.4399533459343
 20
302.9302803898935
 10
552.4399533459343
 20
304.15570372375646
 10
551.2145300120712
 20
305.3811270576195
 10
549.9891066782083
 20
305.3811270576195
 10
545.0874133427562
 20
300.47943372216747
 10
542.6365666750302
 20
300.47943372216747
 10
540.1857200073042
 20
298.02858705444146
 10
540.1857200073042
 20
299.25401038830444
 10
538.9602966734412
 20
300.47943372216747
 10
538.9602966734412
 20
305.3811270576195
 10
537.7348733395781
 20
306.6065503914825
 10
536.5094500057152
 20
306.6065503914825
 10
535.2840266718522
 20
305.3811270576195
 10
532.8331800041261
 20
305.3811270576195
 10
531.6077566702631
 20
304.15570372375646
 10
529.1569100025371
 20
304.15570372375646
 10
525.4806400009481
 20
300.47943372216747
 10
513.226406662318
 20
300.47943372216747
 10
512.000983328455
 20
301.70485705603045
 10
498.5213266559619
 20
301.70485705603045
 10
497.2959033220989
 20
300.47943372216747
 10
496.0704799882359
 20
300.47943372216747
 10
494.8450566543729
 20
301.70485705603045
 10
481.3653999818798
 20
301.70485705603045
 10
480.1399766480168
 20
302.9302803898935
 10
475.23828331256476
 20
302.9302803898935
 10
474.0128599787017
 20
304.15570372375646
 10
464.2094733077977
 20
304.15570372375646
 10
462.9840499739347
 20
305.3811270576195
 10
460.5332033062087
 20
305.3811270576195
 10
459.30777997234566
 20
304.15570372375646
 10
458.0823566384826
 20
305.3811270576195
 10
453.1806633030306
 20
305.3811270576195
 10
451.9552399691676
 20
306.6065503914825
 10
444.60269996598953
 20
306.6065503914825
 10
443.37727663212655
 20
307.8319737253455
 10
436.0247366289485
 20
307.8319737253455
 10
434.7993132950855
 20
306.6065503914825
 10
434.7993132950855
 20
305.3811270576195
 10
433.5738899612225
 20
304.15570372375646
 10
433.5738899612225
 20
302.9302803898935
 10
432.34846662735947
 20
301.70485705603045
 10
432.34846662735947
 20
300.47943372216747
 10
431.1230432934965
 20
299.25401038830444
 10
431.1230432934965
 20
298.02858705444146
 10
427.44677329190745
 20
298.02858705444146
 10
426.2213499580444
 20
299.25401038830444
 10
422.5450799564554
 20
299.25401038830444
 10
421.3196566225924
 20
300.47943372216747
 10
416.41796328714037
 20
300.47943372216747
 10
415.1925399532774
 20
301.70485705603045
 10
413.96711661941436
 20
301.70485705603045
 10
412.7416932855513
 20
302.9302803898935
 10
411.51626995168834
 20
302.9302803898935
 10
410.2908466178253
 20
304.15570372375646
 10
409.06542328396233
 20
304.15570372375646
 10
407.8399999500993
 20
305.3811270576195
 10
406.6145766162363
 20
305.3811270576195
 10
405.3891532823733
 20
306.6065503914825
 10
402.9383066146473
 20
306.6065503914825
 10
400.48745994692126
 20
309.05739705920854
 10
398.03661327919525
 20
309.05739705920854
 10
396.8111899453322
 20
307.8319737253455
 10
396.8111899453322
 20
306.6065503914825
 10
394.3603432776062
 20
304.15570372375646
 10
394.3603432776062
 20
302.9302803898935
 10
393.1349199437432
 20
301.70485705603045
 10
393.1349199437432
 20
300.47943372216747
 10
387.00780327442817
 20
300.47943372216747
 10
383.3315332728391
 20
304.15570372375646
 10
382.10610993897615
 20
304.15570372375646
 10
378.4298399373871
 20
307.8319737253455
 10
377.2044166035241
 20
307.8319737253455
 10
374.7535699357981
 20
310.2828203930715
 10
373.5281466019351
 20
310.2828203930715
 10
371.07729993420907
 20
307.8319737253455
 10
371.07729993420907
 20
306.6065503914825
 10
368.62645326648305
 20
304.15570372375646
 10
368.62645326648305
 20
302.9302803898935
 10
366.17560659875704
 20
300.47943372216747
 10
361.273913263305
 20
300.47943372216747
 10
360.048489929442
 20
299.25401038830444
 10
360.048489929442
 20
298.02858705444146
 10
356.372219927853
 20
294.3523170528524
 10
356.372219927853
 20
293.1268937189894
 10
355.14679659398996
 20
291.9014703851264
 10
353.9213732601269
 20
291.9014703851264
  0
ENDSEC
  0
SECTION
  2
OBJECTS
  0
DICTIONARY
  5
A
330
0
100
AcDbDictionary
281
1
  3
ACAD_COLOR
350
B
  3
ACAD_GROUP
350
C
  3
ACAD_LAYOUT
350
D
  3
ACAD_MATERIAL
350
E
  3
ACAD_MLEADERSTYLE
350
F
  3
ACAD_MLINESTYLE
350
10
  3
ACAD_PLOTSETTINGS
350
11
  3
ACAD_PLOTSTYLENAME
350
12
  3
ACAD_SCALELIST
350
14
  3
ACAD_TABLESTYLE
350
15
  3
ACAD_VISUALSTYLE
350
16
  3
EZDXF_META
350
2D
  0
DICTIONARY
  5
B
330
A
100
AcDbDictionary
281
1
  0
DICTIONARY
  5
C
330
A
100
AcDbDictionary
281
1
  0
DICTIONARY
  5
D
330
A
100
AcDbDictionary
281
1
  3
Model
350
1A
  3
Layout1
350
1E
  0
DICTIONARY
  5
E
330
A
100
AcDbDictionary
281
1
  3
ByBlock
350
1F
  3
ByLayer
350
20
  3
Global
350
21
  0
DICTIONARY
  5
F
330
A
100
AcDbDictionary
281
1
  3
Standard
350
2C
  0
DICTIONARY
  5
10
330
A
100
AcDbDictionary
281
1
  3
Standard
350
22
  0
DICTIONARY
  5
11
330
A
100
AcDbDictionary
281
1
  0
ACDBDICTIONARYWDFLT
  5
12
330
A
100
AcDbDictionary
281
1
  3
Normal
350
13
100
AcDbDictionaryWithDefault
340
13
  0
ACDBPLACEHOLDER
  5
13
330
12
  0
DICTIONARY
  5
14
330
A
100
AcDbDictionary
281
1
  0
DICTIONARY
  5
15
330
A
100
AcDbDictionary
281
1
  0
DICTIONARY
  5
16
330
A
100
AcDbDictionary
281
1
  0
LAYOUT
  5
1A
330
D
100
AcDbPlotSettings
  1

  4
A3
  6

 40
7.5
 41
20.0
 42
7.5
 43
20.0
 44
420.0
 45
297.0
 46
0.0
 47
0.0
 48
0.0
 49
0.0
140
0.0
141
0.0
142
1.0
143
1.0
 70
1024
 72
1
 73
0
 74
5
  7

 75
16
 76
0
 77
2
 78
300
147
1.0
148
0.0
149
0.0
100
AcDbLayout
  1
Model
 70
1
 71
0
 10
0.0
 20
0.0
 11
420.0
 21
297.0
 12
0.0
 22
0.0
 32
0.0
 14
1e+20
 24
1e+20
 34
1e+20
 15
-1e+20
 25
-1e+20
 35
-1e+20
146
0.0
 13
0.0
 23
0.0
 33
0.0
 16
1.0
 26
0.0
 36
0.0
 17
0.0
 27
1.0
 37
0.0
 76
1
330
17
  0
LAYOUT
  5
1E
330
D
100
AcDbPlotSettings
  1

  4
A3
  6

 40
7.5
 41
20.0
 42
7.5
 43
20.0
 44
420.0
 45
297.0
 46
0.0
 47
0.0
 48
0.0
 49
0.0
140
0.0
141
0.0
142
1.0
143
1.0
 70
0
 72
1
 73
0
 74
5
  7

 75
16
 76
0
 77
2
 78
300
147
1.0
148
0.0
149
0.0
100
AcDbLayout
  1
Layout1
 70
1
 71
1
 10
0.0
 20
0.0
 11
420.0
 21
297.0
 12
0.0
 22
0.0
 32
0.0
 14
1e+20
 24
1e+20
 34
1e+20
 15
-1e+20
 25
-1e+20
 35
-1e+20
146
0.0
 13
0.0
 23
0.0
 33
0.0
 16
1.0
 26
0.0
 36
0.0
 17
0.0
 27
1.0
 37
0.0
 76
1
330
1B
  0
MATERIAL
  5
1F
102
{ACAD_REACTORS
330
E
102
}
330
E
100
AcDbMaterial
  1
ByBlock
  2

 70
0
 40
1.0
 71
1
 41
1.0
 91
-1023410177
 42
1.0
 72
1
  3

 73
1
 74
1
 75
1
 44
0.5
 73
0
 45
1.0
 46
1.0
 77
1
  4

 78
1
 79
1
170
1
 48
1.0
171
1
  6

172
1
173
1
174
1
140
1.0
141
1.0
175
1
  7

176
1
177
1
178
1
143
1.0
179
1
  8

270
1
271
1
272
1
145
1.0
146
1.0
273
1
  9

274
1
275
1
276
1
 42
1.0
 72
1
  3

 73
1
 74
1
 75
1
 94
63
  0
MATERIAL
  5
20
102
{ACAD_REACTORS
330
E
102
}
330
E
100
AcDbMaterial
  1
ByLayer
  2

 70
0
 40
1.0
 71
1
 41
1.0
 91
-1023410177
 42
1.0
 72
1
  3

 73
1
 74
1
 75
1
 44
0.5
 73
0
 45
1.0
 46
1.0
 77
1
  4

 78
1
 79
1
170
1
 48
1.0
171
1
  6

172
1
173
1
174
1
140
1.0
141
1.0
175
1
  7

176
1
177
1
178
1
143
1.0
179
1
  8

270
1
271
1
272
1
145
1.0
146
1.0
273
1
  9

274
1
275
1
276
1
 42
1.0
 72
1
  3

 73
1
 74
1
 75
1
 94
63
  0
MATERIAL
  5
21
102
{ACAD_REACTORS
330
E
102
}
330
E
100
AcDbMaterial
  1
Global
  2

 70
0
 40
1.0
 71
1
 41
1.0
 91
-1023410177
 42
1.0
 72
1
  3

 73
1
 74
1
 75
1
 44
0.5
 73
0
 45
1.0
 46
1.0
 77
1
  4

 78
1
 79
1
170
1
 48
1.0
171
1
  6

172
1
173
1
174
1
140
1.0
141
1.0
175
1
  7

176
1
177
1
178
1
143
1.0
179
1
  8

270
1
271
1
272
1
145
1.0
146
1.0
273
1
  9

274
1
275
1
276
1
 42
1.0
 72
1
  3

 73
1
 74
1
 75
1
 94
63
  0
MLINESTYLE
  5
22
102
{ACAD_REACTORS
330
10
102
}
330
10
100
AcDbMlineStyle
  2
Standard
 70
0
  3

 62
256
 51
90.0
 52
90.0
 71
2
 49
0.5
 62
256
  6
BYLAYER
 49
-0.5
 62
256
  6
BYLAYER
  0
MLEADERSTYLE
  5
2C
102
{ACAD_REACTORS
330
F
102
}
330
F
100
AcDbMLeaderStyle
179
2
170
2
171
1
172
0
 90
2
 40
0.0
 41
0.0
173
1
 91
-1056964608
 92
-2
290
1
 42
2.0
291
1
 43
8.0
  3
Standard
 44
4.0
300

342
29
174
1
175
1
176
0
178
1
 93
-1056964608
 45
4.0
292
0
297
0
 46
4.0
 94
-1056964608
 47
1.0
 49
1.0
140
1.0
294
1
141
0.0
177
0
142
1.0
295
0
296
0
143
3.75
271
0
272
9
273
9
  0
DICTIONARY
  5
2D
330
A
100
AcDbDictionary
280
1
281
1
  3
CREATED_BY_EZDXF
350
2E
  3
WRITTEN_BY_EZDXF
350
36
  0
DICTIONARYVAR
  5
2E
330
2D
100
DictionaryVariables
280
0
  1
1.4.2 @ 2025-08-24T12:13:48.526438+00:00
  0
DICTIONARYVAR
  5
36
330
2D
100
DictionaryVariables
280
0
  1
1.4.2 @ 2025-08-24T12:13:48.529433+00:00
  0
ENDSEC
  0
EOF
