  0
SECTION
  2
HEADER
  9
$ACADVER
  1
AC1024
  9
$ACADMAINTVER
 70
6
  9
$DWGCODEPAGE
  3
ANSI_1252
  9
$LASTSAVEDBY
  1
ezdxf
  9
$INSBASE
 10
0.0
 20
0.0
 30
0.0
  9
$EXTMIN
 10
1e+20
 20
1e+20
 30
1e+20
  9
$EXTMAX
 10
-1e+20
 20
-1e+20
 30
-1e+20
  9
$LIMMIN
 10
0.0
 20
0.0
  9
$LIMMAX
 10
420.0
 20
297.0
  9
$ORTHOMODE
 70
0
  9
$REGENMODE
 70
1
  9
$FILLMODE
 70
1
  9
$QTEXTMODE
 70
0
  9
$MIRRTEXT
 70
1
  9
$LTSCALE
 40
1.0
  9
$ATTMODE
 70
1
  9
$TEXTSIZE
 40
2.5
  9
$TRACEWID
 40
1.0
  9
$TEXTSTYLE
  7
Standard
  9
$CLAYER
  8
0
  9
$CELTYPE
  6
ByLayer
  9
$CECOLOR
 62
256
  9
$CELTSCALE
 40
1.0
  9
$DISPSILH
 70
0
  9
$DIMSCALE
 40
1.0
  9
$DIMASZ
 40
2.5
  9
$DIMEXO
 40
0.625
  9
$DIMDLI
 40
3.75
  9
$DIMRND
 40
0.0
  9
$DIMDLE
 40
0.0
  9
$DIMEXE
 40
1.25
  9
$DIMTP
 40
0.0
  9
$DIMTM
 40
0.0
  9
$DIMTXT
 40
2.5
  9
$DIMCEN
 40
2.5
  9
$DIMTSZ
 40
0.0
  9
$DIMTOL
 70
0
  9
$DIMLIM
 70
0
  9
$DIMTIH
 70
0
  9
$DIMTOH
 70
0
  9
$DIMSE1
 70
0
  9
$DIMSE2
 70
0
  9
$DIMTAD
 70
1
  9
$DIMZIN
 70
8
  9
$DIMBLK
  1

  9
$DIMASO
 70
1
  9
$DIMSHO
 70
1
  9
$DIMPOST
  1

  9
$DIMAPOST
  1

  9
$DIMALT
 70
0
  9
$DIMALTD
 70
3
  9
$DIMALTF
 40
0.03937007874
  9
$DIMLFAC
 40
1.0
  9
$DIMTOFL
 70
1
  9
$DIMTVP
 40
0.0
  9
$DIMTIX
 70
0
  9
$DIMSOXD
 70
0
  9
$DIMSAH
 70
0
  9
$DIMBLK1
  1

  9
$DIMBLK2
  1

  9
$DIMSTYLE
  2
ISO-25
  9
$DIMCLRD
 70
0
  9
$DIMCLRE
 70
0
  9
$DIMCLRT
 70
0
  9
$DIMTFAC
 40
1.0
  9
$DIMGAP
 40
0.625
  9
$DIMJUST
 70
0
  9
$DIMSD1
 70
0
  9
$DIMSD2
 70
0
  9
$DIMTOLJ
 70
0
  9
$DIMTZIN
 70
8
  9
$DIMALTZ
 70
0
  9
$DIMALTTZ
 70
0
  9
$DIMUPT
 70
0
  9
$DIMDEC
 70
2
  9
$DIMTDEC
 70
2
  9
$DIMALTU
 70
2
  9
$DIMALTTD
 70
3
  9
$DIMTXSTY
  7
Standard
  9
$DIMAUNIT
 70
0
  9
$DIMADEC
 70
0
  9
$DIMALTRND
 40
0.0
  9
$DIMAZIN
 70
0
  9
$DIMDSEP
 70
44
  9
$DIMATFIT
 70
3
  9
$DIMFRAC
 70
0
  9
$DIMLDRBLK
  1

  9
$DIMLUNIT
 70
2
  9
$DIMLWD
 70
-2
  9
$DIMLWE
 70
-2
  9
$DIMTMOVE
 70
0
  9
$DIMFXL
 40
1.0
  9
$DIMFXLON
 70
0
  9
$DIMJOGANG
 40
0.785398163397
  9
$DIMTFILL
 70
0
  9
$DIMTFILLCLR
 70
0
  9
$DIMARCSYM
 70
0
  9
$DIMLTYPE
  6

  9
$DIMLTEX1
  6

  9
$DIMLTEX2
  6

  9
$DIMTXTDIRECTION
 70
0
  9
$LUNITS
 70
2
  9
$LUPREC
 70
4
  9
$SKETCHINC
 40
1.0
  9
$FILLETRAD
 40
10.0
  9
$AUNITS
 70
0
  9
$AUPREC
 70
2
  9
$MENU
  1
.
  9
$ELEVATION
 40
0.0
  9
$PELEVATION
 40
0.0
  9
$THICKNESS
 40
0.0
  9
$LIMCHECK
 70
0
  9
$CHAMFERA
 40
0.0
  9
$CHAMFERB
 40
0.0
  9
$CHAMFERC
 40
0.0
  9
$CHAMFERD
 40
0.0
  9
$SKPOLY
 70
0
  9
$TDCREATE
 40
2460912.6345833335
  9
$TDUCREATE
 40
2458532.153996898
  9
$TDUPDATE
 40
2460912.6345833335
  9
$TDUUPDATE
 40
2458532.1544311
  9
$TDINDWG
 40
0.0
  9
$TDUSRTIMER
 40
0.0
  9
$USRTIMER
 70
1
  9
$ANGBASE
 50
0.0
  9
$ANGDIR
 70
0
  9
$PDMODE
 70
0
  9
$PDSIZE
 40
0.0
  9
$PLINEWID
 40
0.0
  9
$SPLFRAME
 70
0
  9
$SPLINETYPE
 70
6
  9
$SPLINESEGS
 70
8
  9
$HANDSEED
  5
37
  9
$SURFTAB1
 70
6
  9
$SURFTAB2
 70
6
  9
$SURFTYPE
 70
6
  9
$SURFU
 70
6
  9
$SURFV
 70
6
  9
$UCSBASE
  2

  9
$UCSNAME
  2

  9
$UCSORG
 10
0.0
 20
0.0
 30
0.0
  9
$UCSXDIR
 10
1.0
 20
0.0
 30
0.0
  9
$UCSYDIR
 10
0.0
 20
1.0
 30
0.0
  9
$UCSORTHOREF
  2

  9
$UCSORTHOVIEW
 70
0
  9
$UCSORGTOP
 10
0.0
 20
0.0
 30
0.0
  9
$UCSORGBOTTOM
 10
0.0
 20
0.0
 30
0.0
  9
$UCSORGLEFT
 10
0.0
 20
0.0
 30
0.0
  9
$UCSORGRIGHT
 10
0.0
 20
0.0
 30
0.0
  9
$UCSORGFRONT
 10
0.0
 20
0.0
 30
0.0
  9
$UCSORGBACK
 10
0.0
 20
0.0
 30
0.0
  9
$PUCSBASE
  2

  9
$PUCSNAME
  2

  9
$PUCSORG
 10
0.0
 20
0.0
 30
0.0
  9
$PUCSXDIR
 10
1.0
 20
0.0
 30
0.0
  9
$PUCSYDIR
 10
0.0
 20
1.0
 30
0.0
  9
$PUCSORTHOREF
  2

  9
$PUCSORTHOVIEW
 70
0
  9
$PUCSORGTOP
 10
0.0
 20
0.0
 30
0.0
  9
$PUCSORGBOTTOM
 10
0.0
 20
0.0
 30
0.0
  9
$PUCSORGLEFT
 10
0.0
 20
0.0
 30
0.0
  9
$PUCSORGRIGHT
 10
0.0
 20
0.0
 30
0.0
  9
$PUCSORGFRONT
 10
0.0
 20
0.0
 30
0.0
  9
$PUCSORGBACK
 10
0.0
 20
0.0
 30
0.0
  9
$USERI1
 70
0
  9
$USERI2
 70
0
  9
$USERI3
 70
0
  9
$USERI4
 70
0
  9
$USERI5
 70
0
  9
$USERR1
 40
0.0
  9
$USERR2
 40
0.0
  9
$USERR3
 40
0.0
  9
$USERR4
 40
0.0
  9
$USERR5
 40
0.0
  9
$WORLDVIEW
 70
1
  9
$SHADEDGE
 70
3
  9
$SHADEDIF
 70
70
  9
$TILEMODE
 70
1
  9
$MAXACTVP
 70
64
  9
$PINSBASE
 10
0.0
 20
0.0
 30
0.0
  9
$PLIMCHECK
 70
0
  9
$PEXTMIN
 10
1e+20
 20
1e+20
 30
1e+20
  9
$PEXTMAX
 10
-1e+20
 20
-1e+20
 30
-1e+20
  9
$PLIMMIN
 10
0.0
 20
0.0
  9
$PLIMMAX
 10
420.0
 20
297.0
  9
$UNITMODE
 70
0
  9
$VISRETAIN
 70
1
  9
$PLINEGEN
 70
0
  9
$PSLTSCALE
 70
1
  9
$TREEDEPTH
 70
3020
  9
$CMLSTYLE
  2
Standard
  9
$CMLJUST
 70
0
  9
$CMLSCALE
 40
20.0
  9
$PROXYGRAPHICS
 70
1
  9
$MEASUREMENT
 70
1
  9
$CELWEIGHT
370
-1
  9
$ENDCAPS
280
0
  9
$JOINSTYLE
280
0
  9
$LWDISPLAY
290
0
  9
$INSUNITS
 70
6
  9
$HYPERLINKBASE
  1

  9
$STYLESHEET
  1

  9
$XEDIT
290
1
  9
$CEPSNTYPE
380
0
  9
$PSTYLEMODE
290
1
  9
$FINGERPRINTGUID
  2
{AAC27DB6-F944-49BA-895B-71E8F9948D17}
  9
$VERSIONGUID
  2
{479A8346-26B4-4526-A931-EECE4ED2B009}
  9
$EXTNAMES
290
1
  9
$PSVPSCALE
 40
0.0
  9
$OLESTARTUP
290
0
  9
$SORTENTS
280
127
  9
$INDEXCTL
280
0
  9
$HIDETEXT
280
1
  9
$XCLIPFRAME
280
1
  9
$HALOGAP
280
0
  9
$OBSCOLOR
 70
257
  9
$OBSLTYPE
280
0
  9
$INTERSECTIONDISPLAY
280
0
  9
$INTERSECTIONCOLOR
 70
257
  9
$DIMASSOC
280
2
  9
$PROJECTNAME
  1

  9
$CAMERADISPLAY
290
0
  9
$LENSLENGTH
 40
50.0
  9
$CAMERAHEIGHT
 40
0.0
  9
$STEPSPERSEC
 40
24.0
  9
$STEPSIZE
 40
100.0
  9
$3DDWFPREC
 40
2.0
  9
$PSOLWIDTH
 40
0.005
  9
$PSOLHEIGHT
 40
0.08
  9
$LOFTANG1
 40
1.570796326795
  9
$LOFTANG2
 40
1.570796326795
  9
$LOFTMAG1
 40
0.0
  9
$LOFTMAG2
 40
0.0
  9
$LOFTPARAM
 70
7
  9
$LOFTNORMALS
280
1
  9
$LATITUDE
 40
37.795
  9
$LONGITUDE
 40
-122.394
  9
$NORTHDIRECTION
 40
0.0
  9
$TIMEZONE
 70
-8000
  9
$LIGHTGLYPHDISPLAY
280
1
  9
$TILEMODELIGHTSYNCH
280
1
  9
$CMATERIAL
347
20
  9
$SOLIDHIST
280
0
  9
$SHOWHIST
280
1
  9
$DWFFRAME
280
2
  9
$DGNFRAME
280
2
  9
$REALWORLDSCALE
290
1
  9
$INTERFERECOLOR
 62
256
  9
$CSHADOW
280
0
  9
$SHADOWPLANELOCATION
 40
0.0
  0
ENDSEC
  0
SECTION
  2
CLASSES
  0
CLASS
  1
ACDBDICTIONARYWDFLT
  2
AcDbDictionaryWithDefault
  3
ObjectDBX Classes
 90
0
 91
0
280
0
281
0
  0
CLASS
  1
SUN
  2
AcDbSun
  3
SCENEOE
 90
1153
 91
0
280
0
281
0
  0
CLASS
  1
VISUALSTYLE
  2
AcDbVisualStyle
  3
ObjectDBX Classes
 90
4095
 91
0
280
0
281
0
  0
CLASS
  1
MATERIAL
  2
AcDbMaterial
  3
ObjectDBX Classes
 90
1153
 91
0
280
0
281
0
  0
CLASS
  1
SCALE
  2
AcDbScale
  3
ObjectDBX Classes
 90
1153
 91
0
280
0
281
0
  0
CLASS
  1
TABLESTYLE
  2
AcDbTableStyle
  3
ObjectDBX Classes
 90
4095
 91
0
280
0
281
0
  0
CLASS
  1
MLEADERSTYLE
  2
AcDbMLeaderStyle
  3
ACDB_MLEADERSTYLE_CLASS
 90
4095
 91
0
280
0
281
0
  0
CLASS
  1
DICTIONARYVAR
  2
AcDbDictionaryVar
  3
ObjectDBX Classes
 90
0
 91
0
280
0
281
0
  0
CLASS
  1
CELLSTYLEMAP
  2
AcDbCellStyleMap
  3
ObjectDBX Classes
 90
1152
 91
0
280
0
281
0
  0
CLASS
  1
MENTALRAYRENDERSETTINGS
  2
AcDbMentalRayRenderSettings
  3
SCENEOE
 90
1024
 91
0
280
0
281
0
  0
CLASS
  1
ACDBDETAILVIEWSTYLE
  2
AcDbDetailViewStyle
  3
ObjectDBX Classes
 90
1025
 91
0
280
0
281
0
  0
CLASS
  1
ACDBSECTIONVIEWSTYLE
  2
AcDbSectionViewStyle
  3
ObjectDBX Classes
 90
1025
 91
0
280
0
281
0
  0
CLASS
  1
RASTERVARIABLES
  2
AcDbRasterVariables
  3
ISM
 90
0
 91
0
280
0
281
0
  0
CLASS
  1
LAYOUT
  2
AcDbLayout
  3
ObjectDBX Classes
 90
0
 91
0
280
0
281
0
  0
CLASS
  1
ACDBPLACEHOLDER
  2
AcDbPlaceHolder
  3
ObjectDBX Classes
 90
0
 91
0
280
0
281
0
  0
ENDSEC
  0
SECTION
  2
TABLES
  0
TABLE
  2
VPORT
  5
8
330
0
100
AcDbSymbolTable
 70
1
  0
VPORT
  5
23
330
8
100
AcDbSymbolTableRecord
100
AcDbViewportTableRecord
  2
*Active
 70
0
 10
0.0
 20
0.0
 11
1.0
 21
1.0
 12
0.0
 22
0.0
 13
0.0
 23
0.0
 14
0.5
 24
0.5
 15
0.5
 25
0.5
 16
0.0
 26
0.0
 36
1.0
 17
0.0
 27
0.0
 37
0.0
 40
1000.0
 41
1.34
 42
50.0
 43
0.0
 44
0.0
 50
0.0
 51
0.0
 71
0
 72
1000
 73
1
 74
3
 75
0
 76
0
 77
0
 78
0
281
0
 65
0
146
0.0
  0
ENDTAB
  0
TABLE
  2
LTYPE
  5
2
330
0
100
AcDbSymbolTable
 70
3
  0
LTYPE
  5
24
330
2
100
AcDbSymbolTableRecord
100
AcDbLinetypeTableRecord
  2
ByBlock
 70
0
  3

 72
65
 73
0
 40
0.0
  0
LTYPE
  5
25
330
2
100
AcDbSymbolTableRecord
100
AcDbLinetypeTableRecord
  2
ByLayer
 70
0
  3

 72
65
 73
0
 40
0.0
  0
LTYPE
  5
26
330
2
100
AcDbSymbolTableRecord
100
AcDbLinetypeTableRecord
  2
Continuous
 70
0
  3

 72
65
 73
0
 40
0.0
  0
ENDTAB
  0
TABLE
  2
LAYER
  5
1
330
0
100
AcDbSymbolTable
 70
2
  0
LAYER
  5
27
330
1
100
AcDbSymbolTableRecord
100
AcDbLayerTableRecord
  2
0
 70
0
 62
7
  6
Continuous
370
-3
390
13
347
21
  0
LAYER
  5
28
330
1
100
AcDbSymbolTableRecord
100
AcDbLayerTableRecord
  2
Defpoints
 70
0
 62
7
  6
Continuous
290
0
370
-3
390
13
347
21
  0
ENDTAB
  0
TABLE
  2
STYLE
  5
5
330
0
100
AcDbSymbolTable
 70
1
  0
STYLE
  5
29
330
5
100
AcDbSymbolTableRecord
100
AcDbTextStyleTableRecord
  2
Standard
 70
0
 40
0.0
 41
1.0
 50
0.0
 71
0
 42
2.5
  3
txt
  4

  0
ENDTAB
  0
TABLE
  2
VIEW
  5
7
330
0
100
AcDbSymbolTable
 70
0
  0
ENDTAB
  0
TABLE
  2
UCS
  5
6
330
0
100
AcDbSymbolTable
 70
0
  0
ENDTAB
  0
TABLE
  2
APPID
  5
3
330
0
100
AcDbSymbolTable
 70
3
  0
APPID
  5
2A
330
3
100
AcDbSymbolTableRecord
100
AcDbRegAppTableRecord
  2
ACAD
 70
0
  0
APPID
  5
34
330
3
100
AcDbSymbolTableRecord
100
AcDbRegAppTableRecord
  2
HATCHBACKGROUNDCOLOR
 70
0
  0
APPID
  5
35
330
3
100
AcDbSymbolTableRecord
100
AcDbRegAppTableRecord
  2
EZDXF
 70
0
  0
ENDTAB
  0
TABLE
  2
DIMSTYLE
  5
4
330
0
100
AcDbSymbolTable
 70
1
100
AcDbDimStyleTable
  0
DIMSTYLE
105
2B
330
4
100
AcDbSymbolTableRecord
100
AcDbDimStyleTableRecord
  2
Standard
 70
0
 40
1.0
 41
2.5
 42
0.625
 43
3.75
 44
1.25
 45
0.0
 46
0.0
 47
0.0
 48
0.0
 49
2.5
140
2.5
141
2.5
142
0.0
143
0.03937007874
144
1.0
145
0.0
146
1.0
147
0.625
148
0.0
 69
0
 70
0
 71
0
 72
0
 73
0
 74
0
 75
0
 76
0
 77
1
 78
8
 79
3
170
0
171
3
172
1
173
0
174
0
175
0
176
0
177
0
178
0
179
2
271
2
272
2
273
2
274
3
275
0
276
0
277
2
278
44
279
0
280
0
281
0
282
0
283
0
284
8
285
0
286
0
288
0
289
3
290
0
371
-2
372
-2
  0
ENDTAB
  0
TABLE
  2
BLOCK_RECORD
  5
9
330
0
100
AcDbSymbolTable
 70
2
  0
BLOCK_RECORD
  5
17
330
9
100
AcDbSymbolTableRecord
100
AcDbBlockTableRecord
  2
*Model_Space
340
1A
 70
0
280
1
281
0
  0
BLOCK_RECORD
  5
1B
330
9
100
AcDbSymbolTableRecord
100
AcDbBlockTableRecord
  2
*Paper_Space
340
1E
 70
0
280
1
281
0
  0
ENDTAB
  0
ENDSEC
  0
SECTION
  2
BLOCKS
  0
BLOCK
  5
18
330
17
100
AcDbEntity
  8
0
100
AcDbBlockBegin
  2
*Model_Space
 70
0
 10
0.0
 20
0.0
 30
0.0
  3
*Model_Space
  1

  0
ENDBLK
  5
19
330
17
100
AcDbEntity
  8
0
100
AcDbBlockEnd
  0
BLOCK
  5
1C
330
1B
100
AcDbEntity
  8
0
100
AcDbBlockBegin
  2
*Paper_Space
 70
0
 10
0.0
 20
0.0
 30
0.0
  3
*Paper_Space
  1

  0
ENDBLK
  5
1D
330
1B
100
AcDbEntity
  8
0
100
AcDbBlockEnd
  0
ENDSEC
  0
SECTION
  2
ENTITIES
  0
LWPOLYLINE
  5
2F
330
17
100
AcDbEntity
  8
FRAME
100
AcDbPolyline
 90
5
 70
1
 10
580.0
 20
280.0
 10
920.0
 20
280.0
 10
920.0
 20
620.0
 10
580.0
 20
620.0
 10
580.0
 20
280.0
  0
CIRCLE
  5
30
330
17
100
AcDbEntity
  8
CIRCLES
100
AcDbCircle
 10
750.0
 20
400.0
 30
0.0
 40
5.0
  0
CIRCLE
  5
31
330
17
100
AcDbEntity
  8
CIRCLES
100
AcDbCircle
 10
700.0
 20
500.0
 30
0.0
 40
5.0
  0
CIRCLE
  5
32
330
17
100
AcDbEntity
  8
CIRCLES
100
AcDbCircle
 10
800.0
 20
500.0
 30
0.0
 40
5.0
  0
LWPOLYLINE
  5
33
330
17
100
AcDbEntity
  8
CONTOUR_1
100
AcDbPolyline
 90
661
 70
1
 10
677.4331333999611
 20
291.9014703851264
 10
676.207710066098
 20
293.1268937189894
 10
674.982286732235
 20
293.1268937189894
 10
673.756863398372
 20
294.3523170528524
 10
672.531440064509
 20
294.3523170528524
 10
671.306016730646
 20
295.57774038671545
 10
670.080593396783
 20
295.57774038671545
 10
668.85517006292
 20
296.8031637205784
 10
670.080593396783
 20
298.02858705444146
 10
670.080593396783
 20
299.25401038830444
 10
668.85517006292
 20
300.47943372216747
 10
666.404323395194
 20
300.47943372216747
 10
662.7280533936049
 20
304.15570372375646
 10
661.5026300597419
 20
304.15570372375646
 10
659.0517833920159
 20
306.6065503914825
 10
656.6009367242899
 20
306.6065503914825
 10
654.1500900565638
 20
304.15570372375646
 10
654.1500900565638
 20
302.9302803898935
 10
651.6992433888379
 20
300.47943372216747
 10
648.0229733872488
 20
300.47943372216747
 10
646.7975500533859
 20
299.25401038830444
 10
646.7975500533859
 20
298.02858705444146
 10
645.5721267195228
 20
298.02858705444146
 10
644.3467033856598
 20
296.8031637205784
 10
643.1212800517968
 20
296.8031637205784
 10
641.8958567179338
 20
295.57774038671545
 10
640.6704333840707
 20
295.57774038671545
 10
639.4450100502078
 20
294.3523170528524
 10
638.2195867163448
 20
294.3523170528524
 10
636.9941633824818
 20
293.1268937189894
 10
634.5433167147557
 20
293.1268937189894
 10
634.5433167147557
 20
295.57774038671545
 10
633.3178933808928
 20
296.8031637205784
 10
633.3178933808928
 20
299.25401038830444
 10
632.0924700470298
 20
300.47943372216747
 10
630.8670467131667
 20
300.47943372216747
 10
630.8670467131667
 20
301.70485705603045
 10
628.4162000454407
 20
304.15570372375646
 10
627.1907767115778
 20
304.15570372375646
 10
625.9653533777148
 20
302.9302803898935
 10
624.7399300438518
 20
302.9302803898935
 10
623.5145067099887
 20
301.70485705603045
 10
622.2890833761257
 20
301.70485705603045
 10
621.0636600422628
 20
300.47943372216747
 10
616.1619667068107
 20
300.47943372216747
 10
614.9365433729477
 20
299.25401038830444
 10
613.7111200390847
 20
299.25401038830444
 10
612.4856967052217
 20
298.02858705444146
 10
611.2602733713587
 20
298.02858705444146
 10
610.0348500374956
 20
296.8031637205784
 10
608.8094267036327
 20
296.8031637205784
 10
607.5840033697697
 20
295.57774038671545
 10
607.5840033697697
 20
296.8031637205784
 10
606.3585800359066
 20
298.02858705444146
 10
606.3585800359066
 20
299.25401038830444
 10
605.1331567020436
 20
300.47943372216747
 10
603.9077333681806
 20
300.47943372216747
 10
602.6823100343177
 20
301.70485705603045
 10
602.6823100343177
 20
302.9302803898935
 10
601.4568867004546
 20
304.15570372375646
 10
601.4568867004546
 20
305.3811270576195
 10
605.1331567020436
 20
309.05739705920854
 10
605.1331567020436
 20
312.73366706079753
 10
603.9077333681806
 20
313.95909039466056
 10
601.4568867004546
 20
313.95909039466056
 10
601.4568867004546
 20
315.18451372852354
 10
600.2314633665916
 20
316.4099370623866
 10
600.2314633665916
 20
321.3116303978386
 10
599.0060400327286
 20
322.5370537317016
 10
599.0060400327286
 20
324.98790039942764
 10
600.2314633665916
 20
326.2133237332906
 10
600.2314633665916
 20
327.43874706715366
 10
601.4568867004546
 20
327.43874706715366
 10
605.1331567020436
 20
331.11501706874265
 10
605.1331567020436
 20
337.2421337380577
 10
603.9077333681806
 20
338.46755707192074
 10
601.4568867004546
 20
338.46755707192074
 10
602.6823100343177
 20
338.46755707192074
 10
603.9077333681806
 20
339.6929804057837
 10
605.1331567020436
 20
339.6929804057837
 10
608.8094267036327
 20
343.36925040737276
 10
603.9077333681806
 20
348.2709437428248
 10
602.6823100343177
 20
348.2709437428248
 10
600.2314633665916
 20
350.7217904105508
 10
600.2314633665916
 20
360.52517708145484
 10
601.4568867004546
 20
361.7506004153179
 10
602.6823100343177
 20
361.7506004153179
 10
603.9077333681806
 20
362.97602374918085
 10
605.1331567020436
 20
362.97602374918085
 10
607.5840033697697
 20
365.42687041690687
 10
608.8094267036327
 20
365.42687041690687
 10
612.4856967052217
 20
369.1031404184959
 10
602.6823100343177
 20
378.90652708939996
 10
601.4568867004546
 20
377.681103755537
 10
600.2314633665916
 20
377.681103755537
 10
601.4568867004546
 20
378.90652708939996
 10
602.6823100343177
 20
378.90652708939996
 10
603.9077333681806
 20
380.131950423263
 10
605.1331567020436
 20
380.131950423263
 10
608.8094267036327
 20
383.80822042485204
 10
608.8094267036327
 20
385.033643758715
 10
601.4568867004546
 20
392.38618376189305
 10
600.2314633665916
 20
392.38618376189305
 10
600.2314633665916
 20
399.73872376507114
 10
599.0060400327286
 20
400.9641470989341
 10
599.0060400327286
 20
404.64041710052317
 10
597.7806166988656
 20
405.86584043438614
 10
597.7806166988656
 20
408.31668710211216
 10
600.2314633665916
 20
410.76753376983817
 10
600.2314633665916
 20
411.9929571037012
 10
601.4568867004546
 20
411.9929571037012
 10
602.6823100343177
 20
413.21838043756424
 10
605.1331567020436
 20
413.21838043756424
 10
606.3585800359066
 20
414.4438037714272
 10
608.8094267036327
 20
414.4438037714272
 10
610.0348500374956
 20
415.66922710529025
 10
611.2602733713587
 20
415.66922710529025
 10
612.4856967052217
 20
416.8946504391532
 10
612.4856967052217
 20
418.12007377301626
 10
611.2602733713587
 20
419.34549710687924
 10
611.2602733713587
 20
420.57092044074227
 10
610.0348500374956
 20
421.79634377460525
 10
610.0348500374956
 20
423.0217671084683
 10
607.5840033697697
 20
425.4726137761943
 10
607.5840033697697
 20
426.69803711005727
 10
605.1331567020436
 20
429.14888377778334
 10
605.1331567020436
 20
430.3743071116463
 10
602.6823100343177
 20
432.82515377937233
 10
601.4568867004546
 20
432.82515377937233
 10
601.4568867004546
 20
435.27600044709834
 10
600.2314633665916
 20
436.5014237809614
 10
600.2314633665916
 20
437.72684711482435
 10
601.4568867004546
 20
438.9522704486874
 10
601.4568867004546
 20
440.17769378255036
 10
602.6823100343177
 20
441.4031171164134
 10
602.6823100343177
 20
443.8539637841394
 10
603.9077333681806
 20
445.07938711800244
 10
603.9077333681806
 20
447.53023378572846
 10
605.1331567020436
 20
448.75565711959143
 10
605.1331567020436
 20
449.98108045345447
 10
602.6823100343177
 20
452.4319271211805
 10
601.4568867004546
 20
452.4319271211805
 10
600.2314633665916
 20
453.65735045504346
 10
600.2314633665916
 20
454.8827737889065
 10
599.0060400327286
 20
456.10819712276947
 10
597.7806166988656
 20
456.10819712276947
 10
596.5551933650025
 20
457.3336204566325
 10
596.5551933650025
 20
458.55904379049554
 10
597.7806166988656
 20
459.7844671243585
 10
599.0060400327286
 20
459.7844671243585
 10
600.2314633665916
 20
461.00989045822155
 10
600.2314633665916
 20
463.46073712594756
 10
603.9077333681806
 20
467.13700712753655
 10
602.6823100343177
 20
468.3624304613996
 10
602.6823100343177
 20
469.58785379526256
 10
601.4568867004546
 20
470.8132771291256
 10
601.4568867004546
 20
472.0387004629886
 10
600.2314633665916
 20
473.2641237968516
 10
600.2314633665916
 20
481.8420871338927
 10
599.0060400327286
 20
483.06751046775565
 10
599.0060400327286
 20
484.2929338016187
 10
600.2314633665916
 20
485.51835713548166
 10
600.2314633665916
 20
486.7437804693447
 10
599.0060400327286
 20
487.96920380320773
 10
597.7806166988656
 20
486.7437804693447
 10
597.7806166988656
 20
490.42005047093375
 10
596.5551933650025
 20
491.6454738047967
 10
596.5551933650025
 20
495.32174380638577
 10
599.0060400327286
 20
495.32174380638577
 10
600.2314633665916
 20
496.54716714024875
 10
600.2314633665916
 20
497.7725904741118
 10
607.5840033697697
 20
497.7725904741118
 10
608.8094267036327
 20
498.99801380797476
 10
608.8094267036327
 20
506.35055381115285
 10
607.5840033697697
 20
507.5759771450158
 10
607.5840033697697
 20
512.4776704804679
 10
606.3585800359066
 20
513.7030938143308
 10
606.3585800359066
 20
514.9285171481939
 10
605.1331567020436
 20
516.1539404820569
 10
603.9077333681806
 20
516.1539404820569
 10
605.1331567020436
 20
517.3793638159199
 10
605.1331567020436
 20
524.731903819098
 10
602.6823100343177
 20
527.1827504868239
 10
603.9077333681806
 20
528.408173820687
 10
603.9077333681806
 20
533.309867156139
 10
602.6823100343177
 20
534.535290490002
 10
602.6823100343177
 20
540.662407159317
 10
601.4568867004546
 20
541.8878304931801
 10
601.4568867004546
 20
543.1132538270431
 10
600.2314633665916
 20
544.3386771609061
 10
600.2314633665916
 20
551.6912171640842
 10
599.0060400327286
 20
552.9166404979471
 10
599.0060400327286
 20
555.3674871656732
 10
600.2314633665916
 20
556.5929104995362
 10
600.2314633665916
 20
557.8183338333992
 10
601.4568867004546
 20
559.0437571672621
 10
601.4568867004546
 20
560.2691805011252
 10
600.2314633665916
 20
561.4946038349882
 10
600.2314633665916
 20
566.3962971704402
 10
599.0060400327286
 20
567.6217205043032
 10
599.0060400327286
 20
568.8471438381663
 10
597.7806166988656
 20
570.0725671720293
 10
597.7806166988656
 20
571.2979905058922
 10
596.5551933650025
 20
572.5234138397552
 10
596.5551933650025
 20
573.7488371736183
 10
595.3297700311396
 20
574.9742605074813
 10
595.3297700311396
 20
576.1996838413443
 10
596.5551933650025
 20
576.1996838413443
 10
597.7806166988656
 20
577.4251071752074
 10
599.0060400327286
 20
577.4251071752074
 10
601.4568867004546
 20
579.8759538429333
 10
602.6823100343177
 20
579.8759538429333
 10
606.3585800359066
 20
583.5522238445224
 10
606.3585800359066
 20
584.7776471783853
 10
605.1331567020436
 20
586.0030705122483
 10
605.1331567020436
 20
588.4539171799744
 10
603.9077333681806
 20
589.6793405138374
 10
603.9077333681806
 20
590.9047638477003
 10
602.6823100343177
 20
592.1301871815634
 10
602.6823100343177
 20
594.5810338492894
 10
600.2314633665916
 20
597.0318805170155
 10
600.2314633665916
 20
600.7081505186045
 10
601.4568867004546
 20
600.7081505186045
 10
602.6823100343177
 20
601.9335738524675
 10
603.9077333681806
 20
601.9335738524675
 10
605.1331567020436
 20
603.1589971863305
 10
606.3585800359066
 20
603.1589971863305
 10
607.5840033697697
 20
604.3844205201934
 10
608.8094267036327
 20
604.3844205201934
 10
610.0348500374956
 20
603.1589971863305
 10
610.0348500374956
 20
599.4827271847414
 10
611.2602733713587
 20
598.2573038508784
 10
618.6128133745367
 20
598.2573038508784
 10
621.0636600422628
 20
600.7081505186045
 10
623.5145067099887
 20
598.2573038508784
 10
624.7399300438518
 20
598.2573038508784
 10
625.9653533777148
 20
597.0318805170155
 10
625.9653533777148
 20
595.8064571831525
 10
629.6416233793037
 20
592.1301871815634
 10
630.8670467131667
 20
592.1301871815634
 10
632.0924700470298
 20
593.3556105154264
 10
633.3178933808928
 20
593.3556105154264
 10
634.5433167147557
 20
594.5810338492894
 10
635.7687400486187
 20
594.5810338492894
 10
638.2195867163448
 20
597.0318805170155
 10
639.4450100502078
 20
597.0318805170155
 10
640.6704333840707
 20
598.2573038508784
 10
659.0517833920159
 20
598.2573038508784
 10
662.7280533936049
 20
594.5810338492894
 10
663.953476727468
 20
594.5810338492894
 10
665.178900061331
 20
595.8064571831525
 10
665.178900061331
 20
598.2573038508784
 10
671.306016730646
 20
598.2573038508784
 10
672.531440064509
 20
597.0318805170155
 10
673.756863398372
 20
597.0318805170155
 10
674.982286732235
 20
595.8064571831525
 10
677.4331333999611
 20
595.8064571831525
 10
678.6585567338241
 20
594.5810338492894
 10
679.883980067687
 20
594.5810338492894
 10
681.10940340155
 20
593.3556105154264
 10
683.5602500692761
 20
595.8064571831525
 10
683.5602500692761
 20
597.0318805170155
 10
684.7856734031391
 20
598.2573038508784
 10
697.0399067417692
 20
598.2573038508784
 10
698.2653300756322
 20
599.4827271847414
 10
699.4907534094951
 20
599.4827271847414
 10
700.7161767433582
 20
600.7081505186045
 10
701.9416000772212
 20
600.7081505186045
 10
703.1670234110842
 20
601.9335738524675
 10
704.3924467449472
 20
601.9335738524675
 10
705.6178700788103
 20
603.1589971863305
 10
708.0687167465362
 20
603.1589971863305
 10
708.0687167465362
 20
600.7081505186045
 10
706.8432934126732
 20
599.4827271847414
 10
708.0687167465362
 20
598.2573038508784
 10
711.7449867481253
 20
598.2573038508784
 10
712.9704100819882
 20
599.4827271847414
 10
715.4212567497143
 20
599.4827271847414
 10
716.6466800835773
 20
600.7081505186045
 10
717.8721034174403
 20
600.7081505186045
 10
719.0975267513033
 20
601.9335738524675
 10
720.3229500851663
 20
601.9335738524675
 10
720.3229500851663
 20
600.7081505186045
 10
722.7737967528924
 20
598.2573038508784
 10
722.7737967528924
 20
597.0318805170155
 10
725.2246434206183
 20
594.5810338492894
 10
737.4788767592485
 20
594.5810338492894
 10
738.7043000931114
 20
595.8064571831525
 10
739.9297234269744
 20
595.8064571831525
 10
741.1551467608375
 20
594.5810338492894
 10
748.5076867640155
 20
594.5810338492894
 10
749.7331100978785
 20
593.3556105154264
 10
753.4093800994675
 20
593.3556105154264
 10
754.6348034333306
 20
594.5810338492894
 10
754.6348034333306
 20
598.2573038508784
 10
755.8602267671936
 20
599.4827271847414
 10
755.8602267671936
 20
605.6098438540565
 10
765.6636134380976
 20
605.6098438540565
 10
764.4381901042346
 20
604.3844205201934
 10
764.4381901042346
 20
599.4827271847414
 10
765.6636134380976
 20
598.2573038508784
 10
768.1144601058237
 20
600.7081505186045
 10
768.1144601058237
 20
604.3844205201934
 10
769.3398834396867
 20
604.3844205201934
 10
770.5653067735497
 20
603.1589971863305
 10
773.0161534412757
 20
603.1589971863305
 10
774.2415767751387
 20
601.9335738524675
 10
775.4670001090017
 20
601.9335738524675
 10
776.6924234428647
 20
600.7081505186045
 10
779.1432701105907
 20
600.7081505186045
 10
780.3686934444537
 20
599.4827271847414
 10
781.5941167783168
 20
599.4827271847414
 10
782.8195401121798
 20
598.2573038508784
 10
786.4958101137688
 20
598.2573038508784
 10
790.1720801153577
 20
594.5810338492894
 10
791.3975034492208
 20
594.5810338492894
 10
792.6229267830838
 20
593.3556105154264
 10
793.8483501169468
 20
593.3556105154264
 10
795.0737734508098
 20
594.5810338492894
 10
795.0737734508098
 20
598.2573038508784
 10
797.5246201185358
 20
598.2573038508784
 10
799.9754667862619
 20
595.8064571831525
 10
801.2008901201249
 20
595.8064571831525
 10
803.6517367878508
 20
598.2573038508784
 10
807.3280067894399
 20
598.2573038508784
 10
808.5534301233029
 20
599.4827271847414
 10
808.5534301233029
 20
600.7081505186045
 10
815.905970126481
 20
600.7081505186045
 10
817.1313934603439
 20
599.4827271847414
 10
818.356816794207
 20
599.4827271847414
 10
819.58224012807
 20
598.2573038508784
 10
828.1602034651111
 20
598.2573038508784
 10
829.385626798974
 20
599.4827271847414
 10
830.611050132837
 20
598.2573038508784
 10
836.7381668021521
 20
598.2573038508784
 10
837.9635901360151
 20
597.0318805170155
 10
841.6398601376042
 20
597.0318805170155
 10
842.8652834714671
 20
595.8064571831525
 10
844.0907068053301
 20
595.8064571831525
 10
847.7669768069192
 20
599.4827271847414
 10
847.7669768069192
 20
600.7081505186045
 10
848.9924001407821
 20
601.9335738524675
 10
848.9924001407821
 20
603.1589971863305
 10
850.2178234746452
 20
604.3844205201934
 10
850.2178234746452
 20
605.6098438540565
 10
851.4432468085082
 20
606.8352671879195
 10
852.6686701423712
 20
606.8352671879195
 10
853.8940934762342
 20
605.6098438540565
 10
855.1195168100973
 20
605.6098438540565
 10
855.1195168100973
 20
604.3844205201934
 10
856.3449401439602
 20
603.1589971863305
 10
856.3449401439602
 20
601.9335738524675
 10
857.5703634778232
 20
600.7081505186045
 10
857.5703634778232
 20
599.4827271847414
 10
858.7957868116863
 20
598.2573038508784
 10
858.7957868116863
 20
597.0318805170155
 10
860.0212101455493
 20
595.8064571831525
 10
860.0212101455493
 20
594.5810338492894
 10
861.2466334794123
 20
593.3556105154264
 10
862.4720568132752
 20
593.3556105154264
 10
863.6974801471383
 20
594.5810338492894
 10
866.1483268148643
 20
594.5810338492894
 10
867.3737501487273
 20
595.8064571831525
 10
868.5991734825903
 20
595.8064571831525
 10
869.8245968164533
 20
597.0318805170155
 10
871.0500201503163
 20
597.0318805170155
 10
872.2754434841794
 20
598.2573038508784
 10
882.0788301550834
 20
598.2573038508784
 10
884.5296768228094
 20
595.8064571831525
 10
885.7551001566725
 20
595.8064571831525
 10
890.6567934921245
 20
590.9047638477003
 10
898.0093334953025
 20
598.2573038508784
 10
898.0093334953025
 20
595.8064571831525
 10
899.2347568291655
 20
594.5810338492894
 10
900.4601801630286
 20
594.5810338492894
 10
905.3618734984806
 20
589.6793405138374
 10
905.3618734984806
 20
587.2284938461114
 10
900.4601801630286
 20
582.3268005106594
 10
899.2347568291655
 20
582.3268005106594
 10
898.0093334953025
 20
581.1013771767963
 10
898.0093334953025
 20
578.6505305090703
 10
899.2347568291655
 20
577.4251071752074
 10
899.2347568291655
 20
574.9742605074813
 10
898.0093334953025
 20
573.7488371736183
 10
898.0093334953025
 20
561.4946038349882
 10
896.7839101614395
 20
560.2691805011252
 10
896.7839101614395
 20
556.5929104995362
 10
898.0093334953025
 20
555.3674871656732
 10
898.0093334953025
 20
551.6912171640842
 10
896.7839101614395
 20
550.4657938302212
 10
896.7839101614395
 20
548.0149471624951
 10
898.0093334953025
 20
546.7895238286321
 10
898.0093334953025
 20
535.760713823865
 10
899.2347568291655
 20
534.535290490002
 10
900.4601801630286
 20
535.760713823865
 10
901.6856034968915
 20
535.760713823865
 10
902.9110268307545
 20
534.535290490002
 10
902.9110268307545
 20
533.309867156139
 10
904.1364501646176
 20
532.084443822276
 10
904.1364501646176
 20
530.859020488413
 10
905.3618734984806
 20
529.63359715455
 10
905.3618734984806
 20
528.408173820687
 10
906.5872968323436
 20
527.1827504868239
 10
906.5872968323436
 20
525.9573271529609
 10
904.1364501646176
 20
525.9573271529609
 10
902.9110268307545
 20
524.731903819098
 10
904.1364501646176
 20
523.506480485235
 10
905.3618734984806
 20
523.506480485235
 10
905.3618734984806
 20
519.8302104836459
 10
902.9110268307545
 20
519.8302104836459
 10
901.6856034968915
 20
518.604787149783
 10
899.2347568291655
 20
518.604787149783
 10
898.0093334953025
 20
517.3793638159199
 10
898.0093334953025
 20
516.1539404820569
 10
899.2347568291655
 20
514.9285171481939
 10
900.4601801630286
 20
516.1539404820569
 10
901.6856034968915
 20
516.1539404820569
 10
901.6856034968915
 20
514.9285171481939
 10
902.9110268307545
 20
513.7030938143308
 10
902.9110268307545
 20
511.2522471466049
 10
904.1364501646176
 20
510.02682381274184
 10
904.1364501646176
 20
507.5759771450158
 10
905.3618734984806
 20
506.35055381115285
 10
904.1364501646176
 20
506.35055381115285
 10
902.9110268307545
 20
505.1251304772898
 10
899.2347568291655
 20
505.1251304772898
 10
898.0093334953025
 20
503.89970714342684
 10
898.0093334953025
 20
491.6454738047967
 10
896.7839101614395
 20
490.42005047093375
 10
898.0093334953025
 20
489.1946271370707
 10
898.0093334953025
 20
487.96920380320773
 10
899.2347568291655
 20
486.7437804693447
 10
901.6856034968915
 20
486.7437804693447
 10
901.6856034968915
 20
475.7149704645776
 10
900.4601801630286
 20
475.7149704645776
 10
899.2347568291655
 20
476.94039379844065
 10
898.0093334953025
 20
475.7149704645776
 10
898.0093334953025
 20
470.8132771291256
 10
895.5584868275765
 20
470.8132771291256
 10
894.3330634937134
 20
469.58785379526256
 10
893.1076401598505
 20
469.58785379526256
 10
891.8822168259875
 20
468.3624304613996
 10
891.8822168259875
 20
467.13700712753655
 10
893.1076401598505
 20
465.91158379367357
 10
893.1076401598505
 20
463.46073712594756
 10
894.3330634937134
 20
462.2353137920845
 10
894.3330634937134
 20
458.55904379049554
 10
895.5584868275765
 20
457.3336204566325
 10
895.5584868275765
 20
456.10819712276947
 10
894.3330634937134
 20
456.10819712276947
 10
893.1076401598505
 20
454.8827737889065
 10
891.8822168259875
 20
454.8827737889065
 10
889.4313701582614
 20
452.4319271211805
 10
890.6567934921245
 20
451.20650378731744
 10
890.6567934921245
 20
449.98108045345447
 10
891.8822168259875
 20
448.75565711959143
 10
891.8822168259875
 20
446.3048104518654
 10
893.1076401598505
 20
445.07938711800244
 10
893.1076401598505
 20
442.62854045027643
 10
895.5584868275765
 20
440.17769378255036
 10
898.0093334953025
 20
440.17769378255036
 10
899.2347568291655
 20
438.9522704486874
 10
900.4601801630286
 20
440.17769378255036
 10
901.6856034968915
 20
438.9522704486874
 10
901.6856034968915
 20
437.72684711482435
 10
902.9110268307545
 20
436.5014237809614
 10
902.9110268307545
 20
434.05057711323536
 10
900.4601801630286
 20
431.59973044550935
 10
899.2347568291655
 20
431.59973044550935
 10
898.0093334953025
 20
430.3743071116463
 10
898.0093334953025
 20
427.9234604439203
 10
895.5584868275765
 20
425.4726137761943
 10
894.3330634937134
 20
425.4726137761943
 10
888.2059468243984
 20
419.34549710687924
 10
889.4313701582614
 20
418.12007377301626
 10
890.6567934921245
 20
418.12007377301626
 10
898.0093334953025
 20
410.76753376983817
 10
898.0093334953025
 20
400.9641470989341
 10
895.5584868275765
 20
398.5133004312081
 10
895.5584868275765
 20
397.2878770973451
 10
898.0093334953025
 20
394.83703042961906
 10
898.0093334953025
 20
393.6116070957561
 10
899.2347568291655
 20
392.38618376189305
 10
900.4601801630286
 20
392.38618376189305
 10
902.9110268307545
 20
389.93533709416704
 10
904.1364501646176
 20
389.93533709416704
 10
904.1364501646176
 20
388.70991376030406
 10
898.0093334953025
 20
382.582797090989
 10
898.0093334953025
 20
381.35737375712597
 10
899.2347568291655
 20
380.131950423263
 10
900.4601801630286
 20
381.35737375712597
 10
902.9110268307545
 20
378.90652708939996
 10
902.9110268307545
 20
377.681103755537
 10
904.1364501646176
 20
376.45568042167395
 10
904.1364501646176
 20
375.23025708781097
 10
905.3618734984806
 20
374.00483375394793
 10
905.3618734984806
 20
371.5539870862219
 10
904.1364501646176
 20
371.5539870862219
 10
902.9110268307545
 20
370.32856375235895
 10
901.6856034968915
 20
370.32856375235895
 10
900.4601801630286
 20
369.1031404184959
 10
899.2347568291655
 20
369.1031404184959
 10
898.0093334953025
 20
367.8777170846329
 10
898.0093334953025
 20
366.6522937507699
 10
899.2347568291655
 20
365.42687041690687
 10
900.4601801630286
 20
366.6522937507699
 10
901.6856034968915
 20
366.6522937507699
 10
901.6856034968915
 20
365.42687041690687
 10
902.9110268307545
 20
364.2014470830439
 10
901.6856034968915
 20
362.97602374918085
 10
899.2347568291655
 20
362.97602374918085
 10
898.0093334953025
 20
361.7506004153179
 10
898.0093334953025
 20
358.07433041372883
 10
900.4601801630286
 20
355.6234837460028
 10
900.4601801630286
 20
354.39806041213984
 10
901.6856034968915
 20
353.1726370782768
 10
901.6856034968915
 20
350.7217904105508
 10
902.9110268307545
 20
349.49636707668776
 10
902.9110268307545
 20
348.2709437428248
 10
900.4601801630286
 20
345.8200970750988
 10
899.2347568291655
 20
345.8200970750988
 10
898.0093334953025
 20
344.59467374123574
 10
898.0093334953025
 20
334.7912870703317
 10
899.2347568291655
 20
333.56586373646866
 10
900.4601801630286
 20
334.7912870703317
 10
905.3618734984806
 20
334.7912870703317
 10
906.5872968323436
 20
333.56586373646866
 10
906.5872968323436
 20
332.3404404026057
 10
905.3618734984806
 20
331.11501706874265
 10
904.1364501646176
 20
331.11501706874265
 10
901.6856034968915
 20
328.66417040101663
 10
899.2347568291655
 20
328.66417040101663
 10
898.0093334953025
 20
327.43874706715366
 10
898.0093334953025
 20
324.98790039942764
 10
899.2347568291655
 20
323.7624770655646
 10
900.4601801630286
 20
324.98790039942764
 10
900.4601801630286
 20
323.7624770655646
 10
904.1364501646176
 20
320.08620706397556
 10
904.1364501646176
 20
318.8607837301126
 10
906.5872968323436
 20
316.4099370623866
 10
905.3618734984806
 20
315.18451372852354
 10
904.1364501646176
 20
315.18451372852354
 10
901.6856034968915
 20
312.73366706079753
 10
899.2347568291655
 20
312.73366706079753
 10
898.0093334953025
 20
311.50824372693455
 10
898.0093334953025
 20
310.2828203930715
 10
899.2347568291655
 20
309.05739705920854
 10
901.6856034968915
 20
309.05739705920854
 10
901.6856034968915
 20
306.6065503914825
 10
900.4601801630286
 20
305.3811270576195
 10
900.4601801630286
 20
302.9302803898935
 10
889.4313701582614
 20
302.9302803898935
 10
888.2059468243984
 20
304.15570372375646
 10
884.5296768228094
 20
304.15570372375646
 10
883.3042534889464
 20
305.3811270576195
 10
879.6279834873574
 20
305.3811270576195
 10
878.4025601534944
 20
304.15570372375646
 10
877.1771368196314
 20
305.3811270576195
 10
873.5008668180424
 20
305.3811270576195
 10
872.2754434841794
 20
306.6065503914825
 10
867.3737501487273
 20
306.6065503914825
 10
866.1483268148643
 20
307.8319737253455
 10
863.6974801471383
 20
305.3811270576195
 10
863.6974801471383
 20
304.15570372375646
 10
862.4720568132752
 20
302.9302803898935
 10
862.4720568132752
 20
300.47943372216747
 10
861.2466334794123
 20
300.47943372216747
 10
860.0212101455493
 20
299.25401038830444
 10
860.0212101455493
 20
296.8031637205784
 10
852.6686701423712
 20
296.8031637205784
 10
851.4432468085082
 20
298.02858705444146
 10
852.6686701423712
 20
299.25401038830444
 10
851.4432468085082
 20
300.47943372216747
 10
848.9924001407821
 20
300.47943372216747
 10
847.7669768069192
 20
299.25401038830444
 10
847.7669768069192
 20
298.02858705444146
 10
846.5415534730562
 20
298.02858705444146
 10
845.3161301391932
 20
299.25401038830444
 10
841.6398601376042
 20
299.25401038830444
 10
840.4144368037412
 20
300.47943372216747
 10
831.8364734667001
 20
300.47943372216747
 10
830.611050132837
 20
299.25401038830444
 10
829.385626798974
 20
300.47943372216747
 10
828.1602034651111
 20
300.47943372216747
 10
825.709356797385
 20
302.9302803898935
 10
824.483933463522
 20
302.9302803898935
 10
822.033086795796
 20
305.3811270576195
 10
819.58224012807
 20
305.3811270576195
 10
818.356816794207
 20
304.15570372375646
 10
818.356816794207
 20
300.47943372216747
 10
799.9754667862619
 20
300.47943372216747
 10
798.7500434523988
 20
301.70485705603045
 10
797.5246201185358
 20
301.70485705603045
 10
796.2991967846729
 20
300.47943372216747
 10
795.0737734508098
 20
301.70485705603045
 10
787.7212334476318
 20
301.70485705603045
 10
786.4958101137688
 20
302.9302803898935
 10
780.3686934444537
 20
302.9302803898935
 10
779.1432701105907
 20
304.15570372375646
 10
774.2415767751387
 20
304.15570372375646
 10
773.0161534412757
 20
305.3811270576195
 10
766.8890367719606
 20
305.3811270576195
 10
765.6636134380976
 20
304.15570372375646
 10
765.6636134380976
 20
302.9302803898935
 10
764.4381901042346
 20
301.70485705603045
 10
764.4381901042346
 20
300.47943372216747
 10
763.2127667703716
 20
300.47943372216747
 10
761.9873434365086
 20
299.25401038830444
 10
761.9873434365086
 20
298.02858705444146
 10
760.7619201026456
 20
296.8031637205784
 10
760.7619201026456
 20
295.57774038671545
 10
759.5364967687826
 20
296.8031637205784
 10
758.3110734349195
 20
296.8031637205784
 10
757.0856501010566
 20
298.02858705444146
 10
755.8602267671936
 20
298.02858705444146
 10
754.6348034333306
 20
299.25401038830444
 10
753.4093800994675
 20
299.25401038830444
 10
752.1839567656045
 20
300.47943372216747
 10
748.5076867640155
 20
300.47943372216747
 10
747.2822634301525
 20
301.70485705603045
 10
746.0568400962895
 20
301.70485705603045
 10
743.6059934285635
 20
304.15570372375646
 10
742.3805700947005
 20
304.15570372375646
 10
741.1551467608375
 20
305.3811270576195
 10
739.9297234269744
 20
305.3811270576195
 10
737.4788767592485
 20
302.9302803898935
 10
737.4788767592485
 20
301.70485705603045
 10
736.2534534253855
 20
300.47943372216747
 10
731.3517600899334
 20
300.47943372216747
 10
731.3517600899334
 20
302.9302803898935
 10
730.1263367560704
 20
304.15570372375646
 10
728.9009134222074
 20
304.15570372375646
 10
722.7737967528924
 20
298.02858705444146
 10
721.5483734190293
 20
298.02858705444146
 10
719.0975267513033
 20
300.47943372216747
 10
715.4212567497143
 20
300.47943372216747
 10
714.1958334158513
 20
301.70485705603045
 10
712.9704100819882
 20
301.70485705603045
 10
711.7449867481253
 20
302.9302803898935
 10
710.5195634142623
 20
302.9302803898935
 10
708.0687167465362
 20
300.47943372216747
 10
706.8432934126732
 20
300.47943372216747
 10
705.6178700788103
 20
299.25401038830444
 10
704.3924467449472
 20
300.47943372216747
 10
698.2653300756322
 20
300.47943372216747
 10
697.0399067417692
 20
301.70485705603045
 10
695.8144834079062
 20
301.70485705603045
 10
694.5890600740431
 20
302.9302803898935
 10
693.3636367401801
 20
302.9302803898935
 10
689.6873667385911
 20
299.25401038830444
 10
686.011096737002
 20
299.25401038830444
 10
684.7856734031391
 20
300.47943372216747
 10
683.5602500692761
 20
300.47943372216747
 10
682.3348267354131
 20
299.25401038830444
 10
682.3348267354131
 20
298.02858705444146
 10
681.10940340155
 20
296.8031637205784
 10
681.10940340155
 20
295.57774038671545
 10
679.883980067687
 20
294.3523170528524
 10
679.883980067687
 20
293.1268937189894
 10
678.6585567338241
 20
291.9014703851264
 10
677.4331333999611
 20
291.9014703851264
  0
ENDSEC
  0
SECTION
  2
OBJECTS
  0
DICTIONARY
  5
A
330
0
100
AcDbDictionary
281
1
  3
ACAD_COLOR
350
B
  3
ACAD_GROUP
350
C
  3
ACAD_LAYOUT
350
D
  3
ACAD_MATERIAL
350
E
  3
ACAD_MLEADERSTYLE
350
F
  3
ACAD_MLINESTYLE
350
10
  3
ACAD_PLOTSETTINGS
350
11
  3
ACAD_PLOTSTYLENAME
350
12
  3
ACAD_SCALELIST
350
14
  3
ACAD_TABLESTYLE
350
15
  3
ACAD_VISUALSTYLE
350
16
  3
EZDXF_META
350
2D
  0
DICTIONARY
  5
B
330
A
100
AcDbDictionary
281
1
  0
DICTIONARY
  5
C
330
A
100
AcDbDictionary
281
1
  0
DICTIONARY
  5
D
330
A
100
AcDbDictionary
281
1
  3
Model
350
1A
  3
Layout1
350
1E
  0
DICTIONARY
  5
E
330
A
100
AcDbDictionary
281
1
  3
ByBlock
350
1F
  3
ByLayer
350
20
  3
Global
350
21
  0
DICTIONARY
  5
F
330
A
100
AcDbDictionary
281
1
  3
Standard
350
2C
  0
DICTIONARY
  5
10
330
A
100
AcDbDictionary
281
1
  3
Standard
350
22
  0
DICTIONARY
  5
11
330
A
100
AcDbDictionary
281
1
  0
ACDBDICTIONARYWDFLT
  5
12
330
A
100
AcDbDictionary
281
1
  3
Normal
350
13
100
AcDbDictionaryWithDefault
340
13
  0
ACDBPLACEHOLDER
  5
13
330
12
  0
DICTIONARY
  5
14
330
A
100
AcDbDictionary
281
1
  0
DICTIONARY
  5
15
330
A
100
AcDbDictionary
281
1
  0
DICTIONARY
  5
16
330
A
100
AcDbDictionary
281
1
  0
LAYOUT
  5
1A
330
D
100
AcDbPlotSettings
  1

  4
A3
  6

 40
7.5
 41
20.0
 42
7.5
 43
20.0
 44
420.0
 45
297.0
 46
0.0
 47
0.0
 48
0.0
 49
0.0
140
0.0
141
0.0
142
1.0
143
1.0
 70
1024
 72
1
 73
0
 74
5
  7

 75
16
 76
0
 77
2
 78
300
147
1.0
148
0.0
149
0.0
100
AcDbLayout
  1
Model
 70
1
 71
0
 10
0.0
 20
0.0
 11
420.0
 21
297.0
 12
0.0
 22
0.0
 32
0.0
 14
1e+20
 24
1e+20
 34
1e+20
 15
-1e+20
 25
-1e+20
 35
-1e+20
146
0.0
 13
0.0
 23
0.0
 33
0.0
 16
1.0
 26
0.0
 36
0.0
 17
0.0
 27
1.0
 37
0.0
 76
1
330
17
  0
LAYOUT
  5
1E
330
D
100
AcDbPlotSettings
  1

  4
A3
  6

 40
7.5
 41
20.0
 42
7.5
 43
20.0
 44
420.0
 45
297.0
 46
0.0
 47
0.0
 48
0.0
 49
0.0
140
0.0
141
0.0
142
1.0
143
1.0
 70
0
 72
1
 73
0
 74
5
  7

 75
16
 76
0
 77
2
 78
300
147
1.0
148
0.0
149
0.0
100
AcDbLayout
  1
Layout1
 70
1
 71
1
 10
0.0
 20
0.0
 11
420.0
 21
297.0
 12
0.0
 22
0.0
 32
0.0
 14
1e+20
 24
1e+20
 34
1e+20
 15
-1e+20
 25
-1e+20
 35
-1e+20
146
0.0
 13
0.0
 23
0.0
 33
0.0
 16
1.0
 26
0.0
 36
0.0
 17
0.0
 27
1.0
 37
0.0
 76
1
330
1B
  0
MATERIAL
  5
1F
102
{ACAD_REACTORS
330
E
102
}
330
E
100
AcDbMaterial
  1
ByBlock
  2

 70
0
 40
1.0
 71
1
 41
1.0
 91
-1023410177
 42
1.0
 72
1
  3

 73
1
 74
1
 75
1
 44
0.5
 73
0
 45
1.0
 46
1.0
 77
1
  4

 78
1
 79
1
170
1
 48
1.0
171
1
  6

172
1
173
1
174
1
140
1.0
141
1.0
175
1
  7

176
1
177
1
178
1
143
1.0
179
1
  8

270
1
271
1
272
1
145
1.0
146
1.0
273
1
  9

274
1
275
1
276
1
 42
1.0
 72
1
  3

 73
1
 74
1
 75
1
 94
63
  0
MATERIAL
  5
20
102
{ACAD_REACTORS
330
E
102
}
330
E
100
AcDbMaterial
  1
ByLayer
  2

 70
0
 40
1.0
 71
1
 41
1.0
 91
-1023410177
 42
1.0
 72
1
  3

 73
1
 74
1
 75
1
 44
0.5
 73
0
 45
1.0
 46
1.0
 77
1
  4

 78
1
 79
1
170
1
 48
1.0
171
1
  6

172
1
173
1
174
1
140
1.0
141
1.0
175
1
  7

176
1
177
1
178
1
143
1.0
179
1
  8

270
1
271
1
272
1
145
1.0
146
1.0
273
1
  9

274
1
275
1
276
1
 42
1.0
 72
1
  3

 73
1
 74
1
 75
1
 94
63
  0
MATERIAL
  5
21
102
{ACAD_REACTORS
330
E
102
}
330
E
100
AcDbMaterial
  1
Global
  2

 70
0
 40
1.0
 71
1
 41
1.0
 91
-1023410177
 42
1.0
 72
1
  3

 73
1
 74
1
 75
1
 44
0.5
 73
0
 45
1.0
 46
1.0
 77
1
  4

 78
1
 79
1
170
1
 48
1.0
171
1
  6

172
1
173
1
174
1
140
1.0
141
1.0
175
1
  7

176
1
177
1
178
1
143
1.0
179
1
  8

270
1
271
1
272
1
145
1.0
146
1.0
273
1
  9

274
1
275
1
276
1
 42
1.0
 72
1
  3

 73
1
 74
1
 75
1
 94
63
  0
MLINESTYLE
  5
22
102
{ACAD_REACTORS
330
10
102
}
330
10
100
AcDbMlineStyle
  2
Standard
 70
0
  3

 62
256
 51
90.0
 52
90.0
 71
2
 49
0.5
 62
256
  6
BYLAYER
 49
-0.5
 62
256
  6
BYLAYER
  0
MLEADERSTYLE
  5
2C
102
{ACAD_REACTORS
330
F
102
}
330
F
100
AcDbMLeaderStyle
179
2
170
2
171
1
172
0
 90
2
 40
0.0
 41
0.0
173
1
 91
-1056964608
 92
-2
290
1
 42
2.0
291
1
 43
8.0
  3
Standard
 44
4.0
300

342
29
174
1
175
1
176
0
178
1
 93
-1056964608
 45
4.0
292
0
297
0
 46
4.0
 94
-1056964608
 47
1.0
 49
1.0
140
1.0
294
1
141
0.0
177
0
142
1.0
295
0
296
0
143
3.75
271
0
272
9
273
9
  0
DICTIONARY
  5
2D
330
A
100
AcDbDictionary
280
1
281
1
  3
CREATED_BY_EZDXF
350
2E
  3
WRITTEN_BY_EZDXF
350
36
  0
DICTIONARYVAR
  5
2E
330
2D
100
DictionaryVariables
280
0
  1
1.4.2 @ 2025-08-24T12:13:48.536440+00:00
  0
DICTIONARYVAR
  5
36
330
2D
100
DictionaryVariables
280
0
  1
1.4.2 @ 2025-08-24T12:13:48.541436+00:00
  0
ENDSEC
  0
EOF
