  0
SECTION
  2
HEADER
  9
$ACADVER
  1
AC1024
  9
$ACADMAINTVER
 70
6
  9
$DWGCODEPAGE
  3
ANSI_1252
  9
$LASTSAVEDBY
  1
ezdxf
  9
$INSBASE
 10
0.0
 20
0.0
 30
0.0
  9
$EXTMIN
 10
1e+20
 20
1e+20
 30
1e+20
  9
$EXTMAX
 10
-1e+20
 20
-1e+20
 30
-1e+20
  9
$LIMMIN
 10
0.0
 20
0.0
  9
$LIMMAX
 10
420.0
 20
297.0
  9
$ORTHOMODE
 70
0
  9
$REGENMODE
 70
1
  9
$FILLMODE
 70
1
  9
$QTEXTMODE
 70
0
  9
$MIRRTEXT
 70
1
  9
$LTSCALE
 40
1.0
  9
$ATTMODE
 70
1
  9
$TEXTSIZE
 40
2.5
  9
$TRACEWID
 40
1.0
  9
$TEXTSTYLE
  7
Standard
  9
$CLAYER
  8
0
  9
$CELTYPE
  6
ByLayer
  9
$CECOLOR
 62
256
  9
$CELTSCALE
 40
1.0
  9
$DISPSILH
 70
0
  9
$DIMSCALE
 40
1.0
  9
$DIMASZ
 40
2.5
  9
$DIMEXO
 40
0.625
  9
$DIMDLI
 40
3.75
  9
$DIMRND
 40
0.0
  9
$DIMDLE
 40
0.0
  9
$DIMEXE
 40
1.25
  9
$DIMTP
 40
0.0
  9
$DIMTM
 40
0.0
  9
$DIMTXT
 40
2.5
  9
$DIMCEN
 40
2.5
  9
$DIMTSZ
 40
0.0
  9
$DIMTOL
 70
0
  9
$DIMLIM
 70
0
  9
$DIMTIH
 70
0
  9
$DIMTOH
 70
0
  9
$DIMSE1
 70
0
  9
$DIMSE2
 70
0
  9
$DIMTAD
 70
1
  9
$DIMZIN
 70
8
  9
$DIMBLK
  1

  9
$DIMASO
 70
1
  9
$DIMSHO
 70
1
  9
$DIMPOST
  1

  9
$DIMAPOST
  1

  9
$DIMALT
 70
0
  9
$DIMALTD
 70
3
  9
$DIMALTF
 40
0.03937007874
  9
$DIMLFAC
 40
1.0
  9
$DIMTOFL
 70
1
  9
$DIMTVP
 40
0.0
  9
$DIMTIX
 70
0
  9
$DIMSOXD
 70
0
  9
$DIMSAH
 70
0
  9
$DIMBLK1
  1

  9
$DIMBLK2
  1

  9
$DIMSTYLE
  2
ISO-25
  9
$DIMCLRD
 70
0
  9
$DIMCLRE
 70
0
  9
$DIMCLRT
 70
0
  9
$DIMTFAC
 40
1.0
  9
$DIMGAP
 40
0.625
  9
$DIMJUST
 70
0
  9
$DIMSD1
 70
0
  9
$DIMSD2
 70
0
  9
$DIMTOLJ
 70
0
  9
$DIMTZIN
 70
8
  9
$DIMALTZ
 70
0
  9
$DIMALTTZ
 70
0
  9
$DIMUPT
 70
0
  9
$DIMDEC
 70
2
  9
$DIMTDEC
 70
2
  9
$DIMALTU
 70
2
  9
$DIMALTTD
 70
3
  9
$DIMTXSTY
  7
Standard
  9
$DIMAUNIT
 70
0
  9
$DIMADEC
 70
0
  9
$DIMALTRND
 40
0.0
  9
$DIMAZIN
 70
0
  9
$DIMDSEP
 70
44
  9
$DIMATFIT
 70
3
  9
$DIMFRAC
 70
0
  9
$DIMLDRBLK
  1

  9
$DIMLUNIT
 70
2
  9
$DIMLWD
 70
-2
  9
$DIMLWE
 70
-2
  9
$DIMTMOVE
 70
0
  9
$DIMFXL
 40
1.0
  9
$DIMFXLON
 70
0
  9
$DIMJOGANG
 40
0.785398163397
  9
$DIMTFILL
 70
0
  9
$DIMTFILLCLR
 70
0
  9
$DIMARCSYM
 70
0
  9
$DIMLTYPE
  6

  9
$DIMLTEX1
  6

  9
$DIMLTEX2
  6

  9
$DIMTXTDIRECTION
 70
0
  9
$LUNITS
 70
2
  9
$LUPREC
 70
4
  9
$SKETCHINC
 40
1.0
  9
$FILLETRAD
 40
10.0
  9
$AUNITS
 70
0
  9
$AUPREC
 70
2
  9
$MENU
  1
.
  9
$ELEVATION
 40
0.0
  9
$PELEVATION
 40
0.0
  9
$THICKNESS
 40
0.0
  9
$LIMCHECK
 70
0
  9
$CHAMFERA
 40
0.0
  9
$CHAMFERB
 40
0.0
  9
$CHAMFERC
 40
0.0
  9
$CHAMFERD
 40
0.0
  9
$SKPOLY
 70
0
  9
$TDCREATE
 40
2460912.6345833335
  9
$TDUCREATE
 40
2458532.153996898
  9
$TDUPDATE
 40
2460912.6345833335
  9
$TDUUPDATE
 40
2458532.1544311
  9
$TDINDWG
 40
0.0
  9
$TDUSRTIMER
 40
0.0
  9
$USRTIMER
 70
1
  9
$ANGBASE
 50
0.0
  9
$ANGDIR
 70
0
  9
$PDMODE
 70
0
  9
$PDSIZE
 40
0.0
  9
$PLINEWID
 40
0.0
  9
$SPLFRAME
 70
0
  9
$SPLINETYPE
 70
6
  9
$SPLINESEGS
 70
8
  9
$HANDSEED
  5
37
  9
$SURFTAB1
 70
6
  9
$SURFTAB2
 70
6
  9
$SURFTYPE
 70
6
  9
$SURFU
 70
6
  9
$SURFV
 70
6
  9
$UCSBASE
  2

  9
$UCSNAME
  2

  9
$UCSORG
 10
0.0
 20
0.0
 30
0.0
  9
$UCSXDIR
 10
1.0
 20
0.0
 30
0.0
  9
$UCSYDIR
 10
0.0
 20
1.0
 30
0.0
  9
$UCSORTHOREF
  2

  9
$UCSORTHOVIEW
 70
0
  9
$UCSORGTOP
 10
0.0
 20
0.0
 30
0.0
  9
$UCSORGBOTTOM
 10
0.0
 20
0.0
 30
0.0
  9
$UCSORGLEFT
 10
0.0
 20
0.0
 30
0.0
  9
$UCSORGRIGHT
 10
0.0
 20
0.0
 30
0.0
  9
$UCSORGFRONT
 10
0.0
 20
0.0
 30
0.0
  9
$UCSORGBACK
 10
0.0
 20
0.0
 30
0.0
  9
$PUCSBASE
  2

  9
$PUCSNAME
  2

  9
$PUCSORG
 10
0.0
 20
0.0
 30
0.0
  9
$PUCSXDIR
 10
1.0
 20
0.0
 30
0.0
  9
$PUCSYDIR
 10
0.0
 20
1.0
 30
0.0
  9
$PUCSORTHOREF
  2

  9
$PUCSORTHOVIEW
 70
0
  9
$PUCSORGTOP
 10
0.0
 20
0.0
 30
0.0
  9
$PUCSORGBOTTOM
 10
0.0
 20
0.0
 30
0.0
  9
$PUCSORGLEFT
 10
0.0
 20
0.0
 30
0.0
  9
$PUCSORGRIGHT
 10
0.0
 20
0.0
 30
0.0
  9
$PUCSORGFRONT
 10
0.0
 20
0.0
 30
0.0
  9
$PUCSORGBACK
 10
0.0
 20
0.0
 30
0.0
  9
$USERI1
 70
0
  9
$USERI2
 70
0
  9
$USERI3
 70
0
  9
$USERI4
 70
0
  9
$USERI5
 70
0
  9
$USERR1
 40
0.0
  9
$USERR2
 40
0.0
  9
$USERR3
 40
0.0
  9
$USERR4
 40
0.0
  9
$USERR5
 40
0.0
  9
$WORLDVIEW
 70
1
  9
$SHADEDGE
 70
3
  9
$SHADEDIF
 70
70
  9
$TILEMODE
 70
1
  9
$MAXACTVP
 70
64
  9
$PINSBASE
 10
0.0
 20
0.0
 30
0.0
  9
$PLIMCHECK
 70
0
  9
$PEXTMIN
 10
1e+20
 20
1e+20
 30
1e+20
  9
$PEXTMAX
 10
-1e+20
 20
-1e+20
 30
-1e+20
  9
$PLIMMIN
 10
0.0
 20
0.0
  9
$PLIMMAX
 10
420.0
 20
297.0
  9
$UNITMODE
 70
0
  9
$VISRETAIN
 70
1
  9
$PLINEGEN
 70
0
  9
$PSLTSCALE
 70
1
  9
$TREEDEPTH
 70
3020
  9
$CMLSTYLE
  2
Standard
  9
$CMLJUST
 70
0
  9
$CMLSCALE
 40
20.0
  9
$PROXYGRAPHICS
 70
1
  9
$MEASUREMENT
 70
1
  9
$CELWEIGHT
370
-1
  9
$ENDCAPS
280
0
  9
$JOINSTYLE
280
0
  9
$LWDISPLAY
290
0
  9
$INSUNITS
 70
6
  9
$HYPERLINKBASE
  1

  9
$STYLESHEET
  1

  9
$XEDIT
290
1
  9
$CEPSNTYPE
380
0
  9
$PSTYLEMODE
290
1
  9
$FINGERPRINTGUID
  2
{F567A760-FC57-4B2D-B961-FB1F3534B866}
  9
$VERSIONGUID
  2
{21BA1DEB-9955-4B77-8CC2-38386D37C31E}
  9
$EXTNAMES
290
1
  9
$PSVPSCALE
 40
0.0
  9
$OLESTARTUP
290
0
  9
$SORTENTS
280
127
  9
$INDEXCTL
280
0
  9
$HIDETEXT
280
1
  9
$XCLIPFRAME
280
1
  9
$HALOGAP
280
0
  9
$OBSCOLOR
 70
257
  9
$OBSLTYPE
280
0
  9
$INTERSECTIONDISPLAY
280
0
  9
$INTERSECTIONCOLOR
 70
257
  9
$DIMASSOC
280
2
  9
$PROJECTNAME
  1

  9
$CAMERADISPLAY
290
0
  9
$LENSLENGTH
 40
50.0
  9
$CAMERAHEIGHT
 40
0.0
  9
$STEPSPERSEC
 40
24.0
  9
$STEPSIZE
 40
100.0
  9
$3DDWFPREC
 40
2.0
  9
$PSOLWIDTH
 40
0.005
  9
$PSOLHEIGHT
 40
0.08
  9
$LOFTANG1
 40
1.570796326795
  9
$LOFTANG2
 40
1.570796326795
  9
$LOFTMAG1
 40
0.0
  9
$LOFTMAG2
 40
0.0
  9
$LOFTPARAM
 70
7
  9
$LOFTNORMALS
280
1
  9
$LATITUDE
 40
37.795
  9
$LONGITUDE
 40
-122.394
  9
$NORTHDIRECTION
 40
0.0
  9
$TIMEZONE
 70
-8000
  9
$LIGHTGLYPHDISPLAY
280
1
  9
$TILEMODELIGHTSYNCH
280
1
  9
$CMATERIAL
347
20
  9
$SOLIDHIST
280
0
  9
$SHOWHIST
280
1
  9
$DWFFRAME
280
2
  9
$DGNFRAME
280
2
  9
$REALWORLDSCALE
290
1
  9
$INTERFERECOLOR
 62
256
  9
$CSHADOW
280
0
  9
$SHADOWPLANELOCATION
 40
0.0
  0
ENDSEC
  0
SECTION
  2
CLASSES
  0
CLASS
  1
ACDBDICTIONARYWDFLT
  2
AcDbDictionaryWithDefault
  3
ObjectDBX Classes
 90
0
 91
0
280
0
281
0
  0
CLASS
  1
SUN
  2
AcDbSun
  3
SCENEOE
 90
1153
 91
0
280
0
281
0
  0
CLASS
  1
VISUALSTYLE
  2
AcDbVisualStyle
  3
ObjectDBX Classes
 90
4095
 91
0
280
0
281
0
  0
CLASS
  1
MATERIAL
  2
AcDbMaterial
  3
ObjectDBX Classes
 90
1153
 91
0
280
0
281
0
  0
CLASS
  1
SCALE
  2
AcDbScale
  3
ObjectDBX Classes
 90
1153
 91
0
280
0
281
0
  0
CLASS
  1
TABLESTYLE
  2
AcDbTableStyle
  3
ObjectDBX Classes
 90
4095
 91
0
280
0
281
0
  0
CLASS
  1
MLEADERSTYLE
  2
AcDbMLeaderStyle
  3
ACDB_MLEADERSTYLE_CLASS
 90
4095
 91
0
280
0
281
0
  0
CLASS
  1
DICTIONARYVAR
  2
AcDbDictionaryVar
  3
ObjectDBX Classes
 90
0
 91
0
280
0
281
0
  0
CLASS
  1
CELLSTYLEMAP
  2
AcDbCellStyleMap
  3
ObjectDBX Classes
 90
1152
 91
0
280
0
281
0
  0
CLASS
  1
MENTALRAYRENDERSETTINGS
  2
AcDbMentalRayRenderSettings
  3
SCENEOE
 90
1024
 91
0
280
0
281
0
  0
CLASS
  1
ACDBDETAILVIEWSTYLE
  2
AcDbDetailViewStyle
  3
ObjectDBX Classes
 90
1025
 91
0
280
0
281
0
  0
CLASS
  1
ACDBSECTIONVIEWSTYLE
  2
AcDbSectionViewStyle
  3
ObjectDBX Classes
 90
1025
 91
0
280
0
281
0
  0
CLASS
  1
RASTERVARIABLES
  2
AcDbRasterVariables
  3
ISM
 90
0
 91
0
280
0
281
0
  0
CLASS
  1
LAYOUT
  2
AcDbLayout
  3
ObjectDBX Classes
 90
0
 91
0
280
0
281
0
  0
CLASS
  1
ACDBPLACEHOLDER
  2
AcDbPlaceHolder
  3
ObjectDBX Classes
 90
0
 91
0
280
0
281
0
  0
ENDSEC
  0
SECTION
  2
TABLES
  0
TABLE
  2
VPORT
  5
8
330
0
100
AcDbSymbolTable
 70
1
  0
VPORT
  5
23
330
8
100
AcDbSymbolTableRecord
100
AcDbViewportTableRecord
  2
*Active
 70
0
 10
0.0
 20
0.0
 11
1.0
 21
1.0
 12
0.0
 22
0.0
 13
0.0
 23
0.0
 14
0.5
 24
0.5
 15
0.5
 25
0.5
 16
0.0
 26
0.0
 36
1.0
 17
0.0
 27
0.0
 37
0.0
 40
1000.0
 41
1.34
 42
50.0
 43
0.0
 44
0.0
 50
0.0
 51
0.0
 71
0
 72
1000
 73
1
 74
3
 75
0
 76
0
 77
0
 78
0
281
0
 65
0
146
0.0
  0
ENDTAB
  0
TABLE
  2
LTYPE
  5
2
330
0
100
AcDbSymbolTable
 70
3
  0
LTYPE
  5
24
330
2
100
AcDbSymbolTableRecord
100
AcDbLinetypeTableRecord
  2
ByBlock
 70
0
  3

 72
65
 73
0
 40
0.0
  0
LTYPE
  5
25
330
2
100
AcDbSymbolTableRecord
100
AcDbLinetypeTableRecord
  2
ByLayer
 70
0
  3

 72
65
 73
0
 40
0.0
  0
LTYPE
  5
26
330
2
100
AcDbSymbolTableRecord
100
AcDbLinetypeTableRecord
  2
Continuous
 70
0
  3

 72
65
 73
0
 40
0.0
  0
ENDTAB
  0
TABLE
  2
LAYER
  5
1
330
0
100
AcDbSymbolTable
 70
2
  0
LAYER
  5
27
330
1
100
AcDbSymbolTableRecord
100
AcDbLayerTableRecord
  2
0
 70
0
 62
7
  6
Continuous
370
-3
390
13
347
21
  0
LAYER
  5
28
330
1
100
AcDbSymbolTableRecord
100
AcDbLayerTableRecord
  2
Defpoints
 70
0
 62
7
  6
Continuous
290
0
370
-3
390
13
347
21
  0
ENDTAB
  0
TABLE
  2
STYLE
  5
5
330
0
100
AcDbSymbolTable
 70
1
  0
STYLE
  5
29
330
5
100
AcDbSymbolTableRecord
100
AcDbTextStyleTableRecord
  2
Standard
 70
0
 40
0.0
 41
1.0
 50
0.0
 71
0
 42
2.5
  3
txt
  4

  0
ENDTAB
  0
TABLE
  2
VIEW
  5
7
330
0
100
AcDbSymbolTable
 70
0
  0
ENDTAB
  0
TABLE
  2
UCS
  5
6
330
0
100
AcDbSymbolTable
 70
0
  0
ENDTAB
  0
TABLE
  2
APPID
  5
3
330
0
100
AcDbSymbolTable
 70
3
  0
APPID
  5
2A
330
3
100
AcDbSymbolTableRecord
100
AcDbRegAppTableRecord
  2
ACAD
 70
0
  0
APPID
  5
34
330
3
100
AcDbSymbolTableRecord
100
AcDbRegAppTableRecord
  2
HATCHBACKGROUNDCOLOR
 70
0
  0
APPID
  5
35
330
3
100
AcDbSymbolTableRecord
100
AcDbRegAppTableRecord
  2
EZDXF
 70
0
  0
ENDTAB
  0
TABLE
  2
DIMSTYLE
  5
4
330
0
100
AcDbSymbolTable
 70
1
100
AcDbDimStyleTable
  0
DIMSTYLE
105
2B
330
4
100
AcDbSymbolTableRecord
100
AcDbDimStyleTableRecord
  2
Standard
 70
0
 40
1.0
 41
2.5
 42
0.625
 43
3.75
 44
1.25
 45
0.0
 46
0.0
 47
0.0
 48
0.0
 49
2.5
140
2.5
141
2.5
142
0.0
143
0.03937007874
144
1.0
145
0.0
146
1.0
147
0.625
148
0.0
 69
0
 70
0
 71
0
 72
0
 73
0
 74
0
 75
0
 76
0
 77
1
 78
8
 79
3
170
0
171
3
172
1
173
0
174
0
175
0
176
0
177
0
178
0
179
2
271
2
272
2
273
2
274
3
275
0
276
0
277
2
278
44
279
0
280
0
281
0
282
0
283
0
284
8
285
0
286
0
288
0
289
3
290
0
371
-2
372
-2
  0
ENDTAB
  0
TABLE
  2
BLOCK_RECORD
  5
9
330
0
100
AcDbSymbolTable
 70
2
  0
BLOCK_RECORD
  5
17
330
9
100
AcDbSymbolTableRecord
100
AcDbBlockTableRecord
  2
*Model_Space
340
1A
 70
0
280
1
281
0
  0
BLOCK_RECORD
  5
1B
330
9
100
AcDbSymbolTableRecord
100
AcDbBlockTableRecord
  2
*Paper_Space
340
1E
 70
0
280
1
281
0
  0
ENDTAB
  0
ENDSEC
  0
SECTION
  2
BLOCKS
  0
BLOCK
  5
18
330
17
100
AcDbEntity
  8
0
100
AcDbBlockBegin
  2
*Model_Space
 70
0
 10
0.0
 20
0.0
 30
0.0
  3
*Model_Space
  1

  0
ENDBLK
  5
19
330
17
100
AcDbEntity
  8
0
100
AcDbBlockEnd
  0
BLOCK
  5
1C
330
1B
100
AcDbEntity
  8
0
100
AcDbBlockBegin
  2
*Paper_Space
 70
0
 10
0.0
 20
0.0
 30
0.0
  3
*Paper_Space
  1

  0
ENDBLK
  5
1D
330
1B
100
AcDbEntity
  8
0
100
AcDbBlockEnd
  0
ENDSEC
  0
SECTION
  2
ENTITIES
  0
LWPOLYLINE
  5
2F
330
17
100
AcDbEntity
  8
FRAME
100
AcDbPolyline
 90
5
 70
1
 10
880.0
 20
280.0
 10
1220.0
 20
280.0
 10
1220.0
 20
620.0
 10
880.0
 20
620.0
 10
880.0
 20
280.0
  0
CIRCLE
  5
30
330
17
100
AcDbEntity
  8
CIRCLES
100
AcDbCircle
 10
1050.0
 20
400.0
 30
0.0
 40
5.0
  0
CIRCLE
  5
31
330
17
100
AcDbEntity
  8
CIRCLES
100
AcDbCircle
 10
1000.0
 20
500.0
 30
0.0
 40
5.0
  0
CIRCLE
  5
32
330
17
100
AcDbEntity
  8
CIRCLES
100
AcDbCircle
 10
1100.0
 20
500.0
 30
0.0
 40
5.0
  0
LWPOLYLINE
  5
33
330
17
100
AcDbEntity
  8
CONTOUR_1
100
AcDbPolyline
 90
268
 70
1
 10
980.112696864124
 20
291.9014703851264
 10
978.887273530261
 20
293.1268937189894
 10
977.6618501963981
 20
293.1268937189894
 10
976.4364268625351
 20
294.3523170528524
 10
975.211003528672
 20
294.3523170528524
 10
973.985580194809
 20
295.57774038671545
 10
971.534733527083
 20
295.57774038671545
 10
970.30931019322
 20
296.8031637205784
 10
966.6330401916309
 20
296.8031637205784
 10
966.6330401916309
 20
299.25401038830444
 10
965.407616857768
 20
300.47943372216747
 10
964.182193523905
 20
300.47943372216747
 10
961.7313468561789
 20
298.02858705444146
 10
961.7313468561789
 20
296.8031637205784
 10
960.5059235223159
 20
295.57774038671545
 10
960.5059235223159
 20
294.3523170528524
 10
960.5059235223159
 20
295.57774038671545
 10
958.0550768545899
 20
298.02858705444146
 10
958.0550768545899
 20
299.25401038830444
 10
956.8296535207269
 20
300.47943372216747
 10
955.6042301868639
 20
300.47943372216747
 10
955.6042301868639
 20
301.70485705603045
 10
953.1533835191378
 20
304.15570372375646
 10
948.2516901836858
 20
304.15570372375646
 10
947.0262668498228
 20
302.9302803898935
 10
935.9974568450558
 20
302.9302803898935
 10
934.7720335111927
 20
301.70485705603045
 10
931.0957635096038
 20
301.70485705603045
 10
929.8703401757407
 20
302.9302803898935
 10
916.3906835032476
 20
302.9302803898935
 10
915.1652601693846
 20
301.70485705603045
 10
913.9398368355216
 20
302.9302803898935
 10
901.6856034968915
 20
302.9302803898935
 10
902.9110268307545
 20
304.15570372375646
 10
902.9110268307545
 20
306.6065503914825
 10
904.1364501646176
 20
307.8319737253455
 10
904.1364501646176
 20
309.05739705920854
 10
901.6856034968915
 20
311.50824372693455
 10
902.9110268307545
 20
311.50824372693455
 10
907.8127201662065
 20
316.4099370623866
 10
907.8127201662065
 20
317.63536039624955
 10
906.5872968323436
 20
318.8607837301126
 10
906.5872968323436
 20
320.08620706397556
 10
902.9110268307545
 20
323.7624770655646
 10
902.9110268307545
 20
324.98790039942764
 10
901.6856034968915
 20
326.2133237332906
 10
900.4601801630286
 20
326.2133237332906
 10
901.6856034968915
 20
327.43874706715366
 10
902.9110268307545
 20
327.43874706715366
 10
905.3618734984806
 20
329.88959373487967
 10
906.5872968323436
 20
329.88959373487967
 10
909.0381435000696
 20
332.3404404026057
 10
909.0381435000696
 20
333.56586373646866
 10
905.3618734984806
 20
337.2421337380577
 10
901.6856034968915
 20
337.2421337380577
 10
900.4601801630286
 20
336.01671040419467
 10
900.4601801630286
 20
344.59467374123574
 10
901.6856034968915
 20
345.8200970750988
 10
902.9110268307545
 20
345.8200970750988
 10
905.3618734984806
 20
348.2709437428248
 10
905.3618734984806
 20
349.49636707668776
 10
904.1364501646176
 20
350.7217904105508
 10
904.1364501646176
 20
353.1726370782768
 10
902.9110268307545
 20
354.39806041213984
 10
902.9110268307545
 20
355.6234837460028
 10
900.4601801630286
 20
358.07433041372883
 10
900.4601801630286
 20
360.52517708145484
 10
904.1364501646176
 20
364.2014470830439
 10
904.1364501646176
 20
367.8777170846329
 10
902.9110268307545
 20
369.1031404184959
 10
904.1364501646176
 20
369.1031404184959
 10
905.3618734984806
 20
370.32856375235895
 10
906.5872968323436
 20
370.32856375235895
 10
907.8127201662065
 20
371.5539870862219
 10
907.8127201662065
 20
374.00483375394793
 10
906.5872968323436
 20
375.23025708781097
 10
906.5872968323436
 20
376.45568042167395
 10
905.3618734984806
 20
377.681103755537
 10
905.3618734984806
 20
378.90652708939996
 10
901.6856034968915
 20
382.582797090989
 10
901.6856034968915
 20
383.80822042485204
 10
905.3618734984806
 20
387.484490426441
 10
905.3618734984806
 20
388.70991376030406
 10
906.5872968323436
 20
389.93533709416704
 10
904.1364501646176
 20
392.38618376189305
 10
902.9110268307545
 20
392.38618376189305
 10
900.4601801630286
 20
394.83703042961906
 10
900.4601801630286
 20
396.0624537634821
 10
899.2347568291655
 20
397.2878770973451
 10
898.0093334953025
 20
397.2878770973451
 10
898.0093334953025
 20
399.73872376507114
 10
899.2347568291655
 20
399.73872376507114
 10
900.4601801630286
 20
400.9641470989341
 10
900.4601801630286
 20
411.9929571037012
 10
899.2347568291655
 20
413.21838043756424
 10
898.0093334953025
 20
413.21838043756424
 10
890.6567934921245
 20
420.57092044074227
 10
891.8822168259875
 20
420.57092044074227
 10
896.7839101614395
 20
425.4726137761943
 10
898.0093334953025
 20
425.4726137761943
 10
900.4601801630286
 20
427.9234604439203
 10
900.4601801630286
 20
429.14888377778334
 10
905.3618734984806
 20
434.05057711323536
 10
905.3618734984806
 20
436.5014237809614
 10
904.1364501646176
 20
437.72684711482435
 10
904.1364501646176
 20
438.9522704486874
 10
901.6856034968915
 20
441.4031171164134
 10
900.4601801630286
 20
441.4031171164134
 10
899.2347568291655
 20
442.62854045027643
 10
895.5584868275765
 20
442.62854045027643
 10
895.5584868275765
 20
445.07938711800244
 10
894.3330634937134
 20
446.3048104518654
 10
894.3330634937134
 20
448.75565711959143
 10
893.1076401598505
 20
449.98108045345447
 10
893.1076401598505
 20
451.20650378731744
 10
891.8822168259875
 20
452.4319271211805
 10
893.1076401598505
 20
453.65735045504346
 10
899.2347568291655
 20
453.65735045504346
 10
900.4601801630286
 20
454.8827737889065
 10
900.4601801630286
 20
456.10819712276947
 10
899.2347568291655
 20
457.3336204566325
 10
898.0093334953025
 20
457.3336204566325
 10
896.7839101614395
 20
458.55904379049554
 10
896.7839101614395
 20
462.2353137920845
 10
895.5584868275765
 20
463.46073712594756
 10
895.5584868275765
 20
465.91158379367357
 10
894.3330634937134
 20
467.13700712753655
 10
894.3330634937134
 20
468.3624304613996
 10
899.2347568291655
 20
468.3624304613996
 10
900.4601801630286
 20
469.58785379526256
 10
900.4601801630286
 20
474.48954713071464
 10
901.6856034968915
 20
474.48954713071464
 10
904.1364501646176
 20
476.94039379844065
 10
904.1364501646176
 20
486.7437804693447
 10
901.6856034968915
 20
489.1946271370707
 10
900.4601801630286
 20
489.1946271370707
 10
899.2347568291655
 20
490.42005047093375
 10
900.4601801630286
 20
491.6454738047967
 10
900.4601801630286
 20
502.6742838095638
 10
901.6856034968915
 20
502.6742838095638
 10
902.9110268307545
 20
503.89970714342684
 10
905.3618734984806
 20
503.89970714342684
 10
906.5872968323436
 20
505.1251304772898
 10
906.5872968323436
 20
510.02682381274184
 10
905.3618734984806
 20
511.2522471466049
 10
905.3618734984806
 20
513.7030938143308
 10
904.1364501646176
 20
514.9285171481939
 10
904.1364501646176
 20
516.1539404820569
 10
902.9110268307545
 20
517.3793638159199
 10
904.1364501646176
 20
517.3793638159199
 10
907.8127201662065
 20
521.0556338175089
 10
907.8127201662065
 20
523.506480485235
 10
906.5872968323436
 20
524.731903819098
 10
907.8127201662065
 20
524.731903819098
 10
909.0381435000696
 20
525.9573271529609
 10
909.0381435000696
 20
527.1827504868239
 10
907.8127201662065
 20
528.408173820687
 10
907.8127201662065
 20
529.63359715455
 10
906.5872968323436
 20
530.859020488413
 10
906.5872968323436
 20
532.084443822276
 10
905.3618734984806
 20
533.309867156139
 10
905.3618734984806
 20
534.535290490002
 10
901.6856034968915
 20
538.2115604915911
 10
900.4601801630286
 20
538.2115604915911
 10
900.4601801630286
 20
546.7895238286321
 10
899.2347568291655
 20
548.0149471624951
 10
899.2347568291655
 20
550.4657938302212
 10
900.4601801630286
 20
551.6912171640842
 10
900.4601801630286
 20
555.3674871656732
 10
899.2347568291655
 20
556.5929104995362
 10
899.2347568291655
 20
560.2691805011252
 10
900.4601801630286
 20
561.4946038349882
 10
900.4601801630286
 20
574.9742605074813
 10
901.6856034968915
 20
576.1996838413443
 10
901.6856034968915
 20
579.8759538429333
 10
900.4601801630286
 20
581.1013771767963
 10
907.8127201662065
 20
588.4539171799744
 10
907.8127201662065
 20
589.6793405138374
 10
900.4601801630286
 20
597.0318805170155
 10
900.4601801630286
 20
598.2573038508784
 10
905.3618734984806
 20
603.1589971863305
 10
905.3618734984806
 20
604.3844205201934
 10
909.0381435000696
 20
608.0606905217825
 10
910.2635668339326
 20
608.0606905217825
 10
911.4889901677956
 20
606.8352671879195
 10
912.7144135016586
 20
606.8352671879195
 10
915.1652601693846
 20
604.3844205201934
 10
916.3906835032476
 20
604.3844205201934
 10
917.6161068371107
 20
603.1589971863305
 10
915.1652601693846
 20
600.7081505186045
 10
915.1652601693846
 20
599.4827271847414
 10
916.3906835032476
 20
598.2573038508784
 10
918.8415301709737
 20
598.2573038508784
 10
921.2923768386996
 20
600.7081505186045
 10
923.7432235064257
 20
598.2573038508784
 10
927.4194935080147
 20
598.2573038508784
 10
932.3211868434668
 20
593.3556105154264
 10
933.5466101773297
 20
593.3556105154264
 10
938.4483035127818
 20
598.2573038508784
 10
942.1245735143708
 20
598.2573038508784
 10
943.3499968482338
 20
599.4827271847414
 10
944.5754201820969
 20
599.4827271847414
 10
947.0262668498228
 20
601.9335738524675
 10
949.4771135175489
 20
601.9335738524675
 10
949.4771135175489
 20
600.7081505186045
 10
951.9279601852749
 20
598.2573038508784
 10
953.1533835191378
 20
598.2573038508784
 10
953.1533835191378
 20
597.0318805170155
 10
954.3788068530009
 20
595.8064571831525
 10
954.3788068530009
 20
594.5810338492894
 10
956.8296535207269
 20
592.1301871815634
 10
958.0550768545899
 20
593.3556105154264
 10
961.7313468561789
 20
593.3556105154264
 10
962.956770190042
 20
594.5810338492894
 10
966.6330401916309
 20
594.5810338492894
 10
967.858463525494
 20
595.8064571831525
 10
969.083886859357
 20
595.8064571831525
 10
970.30931019322
 20
597.0318805170155
 10
971.534733527083
 20
595.8064571831525
 10
983.7889668657131
 20
595.8064571831525
 10
985.014390199576
 20
597.0318805170155
 10
986.2398135334391
 20
595.8064571831525
 10
987.4652368673021
 20
595.8064571831525
 10
988.6906602011651
 20
594.5810338492894
 10
992.3669302027541
 20
594.5810338492894
 10
998.4940468720691
 20
600.7081505186045
 10
998.4940468720691
 20
601.9335738524675
 10
999.7194702059322
 20
603.1589971863305
 10
1000.9448935397952
 20
601.9335738524675
 10
1000.9448935397952
 20
600.7081505186045
 10
1003.3957402075212
 20
598.2573038508784
 10
1007.0720102091102
 20
598.2573038508784
 10
1009.5228568768363
 20
595.8064571831525
 10
1010.7482802106992
 20
595.8064571831525
 10
1013.1991268784253
 20
598.2573038508784
 10
1016.8753968800143
 20
598.2573038508784
 10
1019.3262435477403
 20
600.7081505186045
 10
1020.5516668816033
 20
600.7081505186045
 10
1020.5516668816033
 20
599.4827271847414
 10
1021.7770902154664
 20
598.2573038508784
 10
1198.2380502917395
 20
598.2573038508784
 10
1198.2380502917395
 20
300.47943372216747
 10
1020.5516668816033
 20
300.47943372216747
 10
1018.1008202138773
 20
302.9302803898935
 10
1016.8753968800143
 20
302.9302803898935
 10
1015.6499735461513
 20
304.15570372375646
 10
1014.4245502122883
 20
304.15570372375646
 10
1011.9737035445622
 20
306.6065503914825
 10
1010.7482802106992
 20
306.6065503914825
 10
1009.5228568768363
 20
307.8319737253455
 10
1002.1703168736582
 20
307.8319737253455
 10
1000.9448935397952
 20
306.6065503914825
 10
994.8177768704802
 20
306.6065503914825
 10
993.5923535366171
 20
305.3811270576195
 10
992.3669302027541
 20
305.3811270576195
 10
991.1415068688912
 20
304.15570372375646
 10
989.9160835350282
 20
304.15570372375646
 10
987.4652368673021
 20
301.70485705603045
 10
987.4652368673021
 20
300.47943372216747
 10
986.2398135334391
 20
300.47943372216747
 10
985.014390199576
 20
299.25401038830444
 10
985.014390199576
 20
298.02858705444146
 10
983.7889668657131
 20
296.8031637205784
 10
983.7889668657131
 20
295.57774038671545
 10
982.5635435318501
 20
294.3523170528524
 10
982.5635435318501
 20
293.1268937189894
 10
981.3381201979871
 20
291.9014703851264
 10
980.112696864124
 20
291.9014703851264
  0
ENDSEC
  0
SECTION
  2
OBJECTS
  0
DICTIONARY
  5
A
330
0
100
AcDbDictionary
281
1
  3
ACAD_COLOR
350
B
  3
ACAD_GROUP
350
C
  3
ACAD_LAYOUT
350
D
  3
ACAD_MATERIAL
350
E
  3
ACAD_MLEADERSTYLE
350
F
  3
ACAD_MLINESTYLE
350
10
  3
ACAD_PLOTSETTINGS
350
11
  3
ACAD_PLOTSTYLENAME
350
12
  3
ACAD_SCALELIST
350
14
  3
ACAD_TABLESTYLE
350
15
  3
ACAD_VISUALSTYLE
350
16
  3
EZDXF_META
350
2D
  0
DICTIONARY
  5
B
330
A
100
AcDbDictionary
281
1
  0
DICTIONARY
  5
C
330
A
100
AcDbDictionary
281
1
  0
DICTIONARY
  5
D
330
A
100
AcDbDictionary
281
1
  3
Model
350
1A
  3
Layout1
350
1E
  0
DICTIONARY
  5
E
330
A
100
AcDbDictionary
281
1
  3
ByBlock
350
1F
  3
ByLayer
350
20
  3
Global
350
21
  0
DICTIONARY
  5
F
330
A
100
AcDbDictionary
281
1
  3
Standard
350
2C
  0
DICTIONARY
  5
10
330
A
100
AcDbDictionary
281
1
  3
Standard
350
22
  0
DICTIONARY
  5
11
330
A
100
AcDbDictionary
281
1
  0
ACDBDICTIONARYWDFLT
  5
12
330
A
100
AcDbDictionary
281
1
  3
Normal
350
13
100
AcDbDictionaryWithDefault
340
13
  0
ACDBPLACEHOLDER
  5
13
330
12
  0
DICTIONARY
  5
14
330
A
100
AcDbDictionary
281
1
  0
DICTIONARY
  5
15
330
A
100
AcDbDictionary
281
1
  0
DICTIONARY
  5
16
330
A
100
AcDbDictionary
281
1
  0
LAYOUT
  5
1A
330
D
100
AcDbPlotSettings
  1

  4
A3
  6

 40
7.5
 41
20.0
 42
7.5
 43
20.0
 44
420.0
 45
297.0
 46
0.0
 47
0.0
 48
0.0
 49
0.0
140
0.0
141
0.0
142
1.0
143
1.0
 70
1024
 72
1
 73
0
 74
5
  7

 75
16
 76
0
 77
2
 78
300
147
1.0
148
0.0
149
0.0
100
AcDbLayout
  1
Model
 70
1
 71
0
 10
0.0
 20
0.0
 11
420.0
 21
297.0
 12
0.0
 22
0.0
 32
0.0
 14
1e+20
 24
1e+20
 34
1e+20
 15
-1e+20
 25
-1e+20
 35
-1e+20
146
0.0
 13
0.0
 23
0.0
 33
0.0
 16
1.0
 26
0.0
 36
0.0
 17
0.0
 27
1.0
 37
0.0
 76
1
330
17
  0
LAYOUT
  5
1E
330
D
100
AcDbPlotSettings
  1

  4
A3
  6

 40
7.5
 41
20.0
 42
7.5
 43
20.0
 44
420.0
 45
297.0
 46
0.0
 47
0.0
 48
0.0
 49
0.0
140
0.0
141
0.0
142
1.0
143
1.0
 70
0
 72
1
 73
0
 74
5
  7

 75
16
 76
0
 77
2
 78
300
147
1.0
148
0.0
149
0.0
100
AcDbLayout
  1
Layout1
 70
1
 71
1
 10
0.0
 20
0.0
 11
420.0
 21
297.0
 12
0.0
 22
0.0
 32
0.0
 14
1e+20
 24
1e+20
 34
1e+20
 15
-1e+20
 25
-1e+20
 35
-1e+20
146
0.0
 13
0.0
 23
0.0
 33
0.0
 16
1.0
 26
0.0
 36
0.0
 17
0.0
 27
1.0
 37
0.0
 76
1
330
1B
  0
MATERIAL
  5
1F
102
{ACAD_REACTORS
330
E
102
}
330
E
100
AcDbMaterial
  1
ByBlock
  2

 70
0
 40
1.0
 71
1
 41
1.0
 91
-1023410177
 42
1.0
 72
1
  3

 73
1
 74
1
 75
1
 44
0.5
 73
0
 45
1.0
 46
1.0
 77
1
  4

 78
1
 79
1
170
1
 48
1.0
171
1
  6

172
1
173
1
174
1
140
1.0
141
1.0
175
1
  7

176
1
177
1
178
1
143
1.0
179
1
  8

270
1
271
1
272
1
145
1.0
146
1.0
273
1
  9

274
1
275
1
276
1
 42
1.0
 72
1
  3

 73
1
 74
1
 75
1
 94
63
  0
MATERIAL
  5
20
102
{ACAD_REACTORS
330
E
102
}
330
E
100
AcDbMaterial
  1
ByLayer
  2

 70
0
 40
1.0
 71
1
 41
1.0
 91
-1023410177
 42
1.0
 72
1
  3

 73
1
 74
1
 75
1
 44
0.5
 73
0
 45
1.0
 46
1.0
 77
1
  4

 78
1
 79
1
170
1
 48
1.0
171
1
  6

172
1
173
1
174
1
140
1.0
141
1.0
175
1
  7

176
1
177
1
178
1
143
1.0
179
1
  8

270
1
271
1
272
1
145
1.0
146
1.0
273
1
  9

274
1
275
1
276
1
 42
1.0
 72
1
  3

 73
1
 74
1
 75
1
 94
63
  0
MATERIAL
  5
21
102
{ACAD_REACTORS
330
E
102
}
330
E
100
AcDbMaterial
  1
Global
  2

 70
0
 40
1.0
 71
1
 41
1.0
 91
-1023410177
 42
1.0
 72
1
  3

 73
1
 74
1
 75
1
 44
0.5
 73
0
 45
1.0
 46
1.0
 77
1
  4

 78
1
 79
1
170
1
 48
1.0
171
1
  6

172
1
173
1
174
1
140
1.0
141
1.0
175
1
  7

176
1
177
1
178
1
143
1.0
179
1
  8

270
1
271
1
272
1
145
1.0
146
1.0
273
1
  9

274
1
275
1
276
1
 42
1.0
 72
1
  3

 73
1
 74
1
 75
1
 94
63
  0
MLINESTYLE
  5
22
102
{ACAD_REACTORS
330
10
102
}
330
10
100
AcDbMlineStyle
  2
Standard
 70
0
  3

 62
256
 51
90.0
 52
90.0
 71
2
 49
0.5
 62
256
  6
BYLAYER
 49
-0.5
 62
256
  6
BYLAYER
  0
MLEADERSTYLE
  5
2C
102
{ACAD_REACTORS
330
F
102
}
330
F
100
AcDbMLeaderStyle
179
2
170
2
171
1
172
0
 90
2
 40
0.0
 41
0.0
173
1
 91
-1056964608
 92
-2
290
1
 42
2.0
291
1
 43
8.0
  3
Standard
 44
4.0
300

342
29
174
1
175
1
176
0
178
1
 93
-1056964608
 45
4.0
292
0
297
0
 46
4.0
 94
-1056964608
 47
1.0
 49
1.0
140
1.0
294
1
141
0.0
177
0
142
1.0
295
0
296
0
143
3.75
271
0
272
9
273
9
  0
DICTIONARY
  5
2D
330
A
100
AcDbDictionary
280
1
281
1
  3
CREATED_BY_EZDXF
350
2E
  3
WRITTEN_BY_EZDXF
350
36
  0
DICTIONARYVAR
  5
2E
330
2D
100
DictionaryVariables
280
0
  1
1.4.2 @ 2025-08-24T12:13:48.549436+00:00
  0
DICTIONARYVAR
  5
36
330
2D
100
DictionaryVariables
280
0
  1
1.4.2 @ 2025-08-24T12:13:48.551557+00:00
  0
ENDSEC
  0
EOF
