  0
SECTION
  2
HEADER
  9
$ACADVER
  1
AC1024
  9
$ACADMAINTVER
 70
6
  9
$DWGCODEPAGE
  3
ANSI_1252
  9
$LASTSAVEDBY
  1
ezdxf
  9
$INSBASE
 10
0.0
 20
0.0
 30
0.0
  9
$EXTMIN
 10
1e+20
 20
1e+20
 30
1e+20
  9
$EXTMAX
 10
-1e+20
 20
-1e+20
 30
-1e+20
  9
$LIMMIN
 10
0.0
 20
0.0
  9
$LIMMAX
 10
420.0
 20
297.0
  9
$ORTHOMODE
 70
0
  9
$REGENMODE
 70
1
  9
$FILLMODE
 70
1
  9
$QTEXTMODE
 70
0
  9
$MIRRTEXT
 70
1
  9
$LTSCALE
 40
1.0
  9
$ATTMODE
 70
1
  9
$TEXTSIZE
 40
2.5
  9
$TRACEWID
 40
1.0
  9
$TEXTSTYLE
  7
Standard
  9
$CLAYER
  8
0
  9
$CELTYPE
  6
ByLayer
  9
$CECOLOR
 62
256
  9
$CELTSCALE
 40
1.0
  9
$DISPSILH
 70
0
  9
$DIMSCALE
 40
1.0
  9
$DIMASZ
 40
2.5
  9
$DIMEXO
 40
0.625
  9
$DIMDLI
 40
3.75
  9
$DIMRND
 40
0.0
  9
$DIMDLE
 40
0.0
  9
$DIMEXE
 40
1.25
  9
$DIMTP
 40
0.0
  9
$DIMTM
 40
0.0
  9
$DIMTXT
 40
2.5
  9
$DIMCEN
 40
2.5
  9
$DIMTSZ
 40
0.0
  9
$DIMTOL
 70
0
  9
$DIMLIM
 70
0
  9
$DIMTIH
 70
0
  9
$DIMTOH
 70
0
  9
$DIMSE1
 70
0
  9
$DIMSE2
 70
0
  9
$DIMTAD
 70
1
  9
$DIMZIN
 70
8
  9
$DIMBLK
  1

  9
$DIMASO
 70
1
  9
$DIMSHO
 70
1
  9
$DIMPOST
  1

  9
$DIMAPOST
  1

  9
$DIMALT
 70
0
  9
$DIMALTD
 70
3
  9
$DIMALTF
 40
0.03937007874
  9
$DIMLFAC
 40
1.0
  9
$DIMTOFL
 70
1
  9
$DIMTVP
 40
0.0
  9
$DIMTIX
 70
0
  9
$DIMSOXD
 70
0
  9
$DIMSAH
 70
0
  9
$DIMBLK1
  1

  9
$DIMBLK2
  1

  9
$DIMSTYLE
  2
ISO-25
  9
$DIMCLRD
 70
0
  9
$DIMCLRE
 70
0
  9
$DIMCLRT
 70
0
  9
$DIMTFAC
 40
1.0
  9
$DIMGAP
 40
0.625
  9
$DIMJUST
 70
0
  9
$DIMSD1
 70
0
  9
$DIMSD2
 70
0
  9
$DIMTOLJ
 70
0
  9
$DIMTZIN
 70
8
  9
$DIMALTZ
 70
0
  9
$DIMALTTZ
 70
0
  9
$DIMUPT
 70
0
  9
$DIMDEC
 70
2
  9
$DIMTDEC
 70
2
  9
$DIMALTU
 70
2
  9
$DIMALTTD
 70
3
  9
$DIMTXSTY
  7
Standard
  9
$DIMAUNIT
 70
0
  9
$DIMADEC
 70
0
  9
$DIMALTRND
 40
0.0
  9
$DIMAZIN
 70
0
  9
$DIMDSEP
 70
44
  9
$DIMATFIT
 70
3
  9
$DIMFRAC
 70
0
  9
$DIMLDRBLK
  1

  9
$DIMLUNIT
 70
2
  9
$DIMLWD
 70
-2
  9
$DIMLWE
 70
-2
  9
$DIMTMOVE
 70
0
  9
$DIMFXL
 40
1.0
  9
$DIMFXLON
 70
0
  9
$DIMJOGANG
 40
0.785398163397
  9
$DIMTFILL
 70
0
  9
$DIMTFILLCLR
 70
0
  9
$DIMARCSYM
 70
0
  9
$DIMLTYPE
  6

  9
$DIMLTEX1
  6

  9
$DIMLTEX2
  6

  9
$DIMTXTDIRECTION
 70
0
  9
$LUNITS
 70
2
  9
$LUPREC
 70
4
  9
$SKETCHINC
 40
1.0
  9
$FILLETRAD
 40
10.0
  9
$AUNITS
 70
0
  9
$AUPREC
 70
2
  9
$MENU
  1
.
  9
$ELEVATION
 40
0.0
  9
$PELEVATION
 40
0.0
  9
$THICKNESS
 40
0.0
  9
$LIMCHECK
 70
0
  9
$CHAMFERA
 40
0.0
  9
$CHAMFERB
 40
0.0
  9
$CHAMFERC
 40
0.0
  9
$CHAMFERD
 40
0.0
  9
$SKPOLY
 70
0
  9
$TDCREATE
 40
2460912.6345833335
  9
$TDUCREATE
 40
2458532.153996898
  9
$TDUPDATE
 40
2460912.6345833335
  9
$TDUUPDATE
 40
2458532.1544311
  9
$TDINDWG
 40
0.0
  9
$TDUSRTIMER
 40
0.0
  9
$USRTIMER
 70
1
  9
$ANGBASE
 50
0.0
  9
$ANGDIR
 70
0
  9
$PDMODE
 70
0
  9
$PDSIZE
 40
0.0
  9
$PLINEWID
 40
0.0
  9
$SPLFRAME
 70
0
  9
$SPLINETYPE
 70
6
  9
$SPLINESEGS
 70
8
  9
$HANDSEED
  5
37
  9
$SURFTAB1
 70
6
  9
$SURFTAB2
 70
6
  9
$SURFTYPE
 70
6
  9
$SURFU
 70
6
  9
$SURFV
 70
6
  9
$UCSBASE
  2

  9
$UCSNAME
  2

  9
$UCSORG
 10
0.0
 20
0.0
 30
0.0
  9
$UCSXDIR
 10
1.0
 20
0.0
 30
0.0
  9
$UCSYDIR
 10
0.0
 20
1.0
 30
0.0
  9
$UCSORTHOREF
  2

  9
$UCSORTHOVIEW
 70
0
  9
$UCSORGTOP
 10
0.0
 20
0.0
 30
0.0
  9
$UCSORGBOTTOM
 10
0.0
 20
0.0
 30
0.0
  9
$UCSORGLEFT
 10
0.0
 20
0.0
 30
0.0
  9
$UCSORGRIGHT
 10
0.0
 20
0.0
 30
0.0
  9
$UCSORGFRONT
 10
0.0
 20
0.0
 30
0.0
  9
$UCSORGBACK
 10
0.0
 20
0.0
 30
0.0
  9
$PUCSBASE
  2

  9
$PUCSNAME
  2

  9
$PUCSORG
 10
0.0
 20
0.0
 30
0.0
  9
$PUCSXDIR
 10
1.0
 20
0.0
 30
0.0
  9
$PUCSYDIR
 10
0.0
 20
1.0
 30
0.0
  9
$PUCSORTHOREF
  2

  9
$PUCSORTHOVIEW
 70
0
  9
$PUCSORGTOP
 10
0.0
 20
0.0
 30
0.0
  9
$PUCSORGBOTTOM
 10
0.0
 20
0.0
 30
0.0
  9
$PUCSORGLEFT
 10
0.0
 20
0.0
 30
0.0
  9
$PUCSORGRIGHT
 10
0.0
 20
0.0
 30
0.0
  9
$PUCSORGFRONT
 10
0.0
 20
0.0
 30
0.0
  9
$PUCSORGBACK
 10
0.0
 20
0.0
 30
0.0
  9
$USERI1
 70
0
  9
$USERI2
 70
0
  9
$USERI3
 70
0
  9
$USERI4
 70
0
  9
$USERI5
 70
0
  9
$USERR1
 40
0.0
  9
$USERR2
 40
0.0
  9
$USERR3
 40
0.0
  9
$USERR4
 40
0.0
  9
$USERR5
 40
0.0
  9
$WORLDVIEW
 70
1
  9
$SHADEDGE
 70
3
  9
$SHADEDIF
 70
70
  9
$TILEMODE
 70
1
  9
$MAXACTVP
 70
64
  9
$PINSBASE
 10
0.0
 20
0.0
 30
0.0
  9
$PLIMCHECK
 70
0
  9
$PEXTMIN
 10
1e+20
 20
1e+20
 30
1e+20
  9
$PEXTMAX
 10
-1e+20
 20
-1e+20
 30
-1e+20
  9
$PLIMMIN
 10
0.0
 20
0.0
  9
$PLIMMAX
 10
420.0
 20
297.0
  9
$UNITMODE
 70
0
  9
$VISRETAIN
 70
1
  9
$PLINEGEN
 70
0
  9
$PSLTSCALE
 70
1
  9
$TREEDEPTH
 70
3020
  9
$CMLSTYLE
  2
Standard
  9
$CMLJUST
 70
0
  9
$CMLSCALE
 40
20.0
  9
$PROXYGRAPHICS
 70
1
  9
$MEASUREMENT
 70
1
  9
$CELWEIGHT
370
-1
  9
$ENDCAPS
280
0
  9
$JOINSTYLE
280
0
  9
$LWDISPLAY
290
0
  9
$INSUNITS
 70
6
  9
$HYPERLINKBASE
  1

  9
$STYLESHEET
  1

  9
$XEDIT
290
1
  9
$CEPSNTYPE
380
0
  9
$PSTYLEMODE
290
1
  9
$FINGERPRINTGUID
  2
{7F7944CF-FB81-4AF1-910F-962CE9CAB94D}
  9
$VERSIONGUID
  2
{BB8CBCB2-1338-4E02-9390-A41A3E5F5C86}
  9
$EXTNAMES
290
1
  9
$PSVPSCALE
 40
0.0
  9
$OLESTARTUP
290
0
  9
$SORTENTS
280
127
  9
$INDEXCTL
280
0
  9
$HIDETEXT
280
1
  9
$XCLIPFRAME
280
1
  9
$HALOGAP
280
0
  9
$OBSCOLOR
 70
257
  9
$OBSLTYPE
280
0
  9
$INTERSECTIONDISPLAY
280
0
  9
$INTERSECTIONCOLOR
 70
257
  9
$DIMASSOC
280
2
  9
$PROJECTNAME
  1

  9
$CAMERADISPLAY
290
0
  9
$LENSLENGTH
 40
50.0
  9
$CAMERAHEIGHT
 40
0.0
  9
$STEPSPERSEC
 40
24.0
  9
$STEPSIZE
 40
100.0
  9
$3DDWFPREC
 40
2.0
  9
$PSOLWIDTH
 40
0.005
  9
$PSOLHEIGHT
 40
0.08
  9
$LOFTANG1
 40
1.570796326795
  9
$LOFTANG2
 40
1.570796326795
  9
$LOFTMAG1
 40
0.0
  9
$LOFTMAG2
 40
0.0
  9
$LOFTPARAM
 70
7
  9
$LOFTNORMALS
280
1
  9
$LATITUDE
 40
37.795
  9
$LONGITUDE
 40
-122.394
  9
$NORTHDIRECTION
 40
0.0
  9
$TIMEZONE
 70
-8000
  9
$LIGHTGLYPHDISPLAY
280
1
  9
$TILEMODELIGHTSYNCH
280
1
  9
$CMATERIAL
347
20
  9
$SOLIDHIST
280
0
  9
$SHOWHIST
280
1
  9
$DWFFRAME
280
2
  9
$DGNFRAME
280
2
  9
$REALWORLDSCALE
290
1
  9
$INTERFERECOLOR
 62
256
  9
$CSHADOW
280
0
  9
$SHADOWPLANELOCATION
 40
0.0
  0
ENDSEC
  0
SECTION
  2
CLASSES
  0
CLASS
  1
ACDBDICTIONARYWDFLT
  2
AcDbDictionaryWithDefault
  3
ObjectDBX Classes
 90
0
 91
0
280
0
281
0
  0
CLASS
  1
SUN
  2
AcDbSun
  3
SCENEOE
 90
1153
 91
0
280
0
281
0
  0
CLASS
  1
VISUALSTYLE
  2
AcDbVisualStyle
  3
ObjectDBX Classes
 90
4095
 91
0
280
0
281
0
  0
CLASS
  1
MATERIAL
  2
AcDbMaterial
  3
ObjectDBX Classes
 90
1153
 91
0
280
0
281
0
  0
CLASS
  1
SCALE
  2
AcDbScale
  3
ObjectDBX Classes
 90
1153
 91
0
280
0
281
0
  0
CLASS
  1
TABLESTYLE
  2
AcDbTableStyle
  3
ObjectDBX Classes
 90
4095
 91
0
280
0
281
0
  0
CLASS
  1
MLEADERSTYLE
  2
AcDbMLeaderStyle
  3
ACDB_MLEADERSTYLE_CLASS
 90
4095
 91
0
280
0
281
0
  0
CLASS
  1
DICTIONARYVAR
  2
AcDbDictionaryVar
  3
ObjectDBX Classes
 90
0
 91
0
280
0
281
0
  0
CLASS
  1
CELLSTYLEMAP
  2
AcDbCellStyleMap
  3
ObjectDBX Classes
 90
1152
 91
0
280
0
281
0
  0
CLASS
  1
MENTALRAYRENDERSETTINGS
  2
AcDbMentalRayRenderSettings
  3
SCENEOE
 90
1024
 91
0
280
0
281
0
  0
CLASS
  1
ACDBDETAILVIEWSTYLE
  2
AcDbDetailViewStyle
  3
ObjectDBX Classes
 90
1025
 91
0
280
0
281
0
  0
CLASS
  1
ACDBSECTIONVIEWSTYLE
  2
AcDbSectionViewStyle
  3
ObjectDBX Classes
 90
1025
 91
0
280
0
281
0
  0
CLASS
  1
RASTERVARIABLES
  2
AcDbRasterVariables
  3
ISM
 90
0
 91
0
280
0
281
0
  0
CLASS
  1
LAYOUT
  2
AcDbLayout
  3
ObjectDBX Classes
 90
0
 91
0
280
0
281
0
  0
CLASS
  1
ACDBPLACEHOLDER
  2
AcDbPlaceHolder
  3
ObjectDBX Classes
 90
0
 91
0
280
0
281
0
  0
ENDSEC
  0
SECTION
  2
TABLES
  0
TABLE
  2
VPORT
  5
8
330
0
100
AcDbSymbolTable
 70
1
  0
VPORT
  5
23
330
8
100
AcDbSymbolTableRecord
100
AcDbViewportTableRecord
  2
*Active
 70
0
 10
0.0
 20
0.0
 11
1.0
 21
1.0
 12
0.0
 22
0.0
 13
0.0
 23
0.0
 14
0.5
 24
0.5
 15
0.5
 25
0.5
 16
0.0
 26
0.0
 36
1.0
 17
0.0
 27
0.0
 37
0.0
 40
1000.0
 41
1.34
 42
50.0
 43
0.0
 44
0.0
 50
0.0
 51
0.0
 71
0
 72
1000
 73
1
 74
3
 75
0
 76
0
 77
0
 78
0
281
0
 65
0
146
0.0
  0
ENDTAB
  0
TABLE
  2
LTYPE
  5
2
330
0
100
AcDbSymbolTable
 70
3
  0
LTYPE
  5
24
330
2
100
AcDbSymbolTableRecord
100
AcDbLinetypeTableRecord
  2
ByBlock
 70
0
  3

 72
65
 73
0
 40
0.0
  0
LTYPE
  5
25
330
2
100
AcDbSymbolTableRecord
100
AcDbLinetypeTableRecord
  2
ByLayer
 70
0
  3

 72
65
 73
0
 40
0.0
  0
LTYPE
  5
26
330
2
100
AcDbSymbolTableRecord
100
AcDbLinetypeTableRecord
  2
Continuous
 70
0
  3

 72
65
 73
0
 40
0.0
  0
ENDTAB
  0
TABLE
  2
LAYER
  5
1
330
0
100
AcDbSymbolTable
 70
2
  0
LAYER
  5
27
330
1
100
AcDbSymbolTableRecord
100
AcDbLayerTableRecord
  2
0
 70
0
 62
7
  6
Continuous
370
-3
390
13
347
21
  0
LAYER
  5
28
330
1
100
AcDbSymbolTableRecord
100
AcDbLayerTableRecord
  2
Defpoints
 70
0
 62
7
  6
Continuous
290
0
370
-3
390
13
347
21
  0
ENDTAB
  0
TABLE
  2
STYLE
  5
5
330
0
100
AcDbSymbolTable
 70
1
  0
STYLE
  5
29
330
5
100
AcDbSymbolTableRecord
100
AcDbTextStyleTableRecord
  2
Standard
 70
0
 40
0.0
 41
1.0
 50
0.0
 71
0
 42
2.5
  3
txt
  4

  0
ENDTAB
  0
TABLE
  2
VIEW
  5
7
330
0
100
AcDbSymbolTable
 70
0
  0
ENDTAB
  0
TABLE
  2
UCS
  5
6
330
0
100
AcDbSymbolTable
 70
0
  0
ENDTAB
  0
TABLE
  2
APPID
  5
3
330
0
100
AcDbSymbolTable
 70
3
  0
APPID
  5
2A
330
3
100
AcDbSymbolTableRecord
100
AcDbRegAppTableRecord
  2
ACAD
 70
0
  0
APPID
  5
34
330
3
100
AcDbSymbolTableRecord
100
AcDbRegAppTableRecord
  2
HATCHBACKGROUNDCOLOR
 70
0
  0
APPID
  5
35
330
3
100
AcDbSymbolTableRecord
100
AcDbRegAppTableRecord
  2
EZDXF
 70
0
  0
ENDTAB
  0
TABLE
  2
DIMSTYLE
  5
4
330
0
100
AcDbSymbolTable
 70
1
100
AcDbDimStyleTable
  0
DIMSTYLE
105
2B
330
4
100
AcDbSymbolTableRecord
100
AcDbDimStyleTableRecord
  2
Standard
 70
0
 40
1.0
 41
2.5
 42
0.625
 43
3.75
 44
1.25
 45
0.0
 46
0.0
 47
0.0
 48
0.0
 49
2.5
140
2.5
141
2.5
142
0.0
143
0.03937007874
144
1.0
145
0.0
146
1.0
147
0.625
148
0.0
 69
0
 70
0
 71
0
 72
0
 73
0
 74
0
 75
0
 76
0
 77
1
 78
8
 79
3
170
0
171
3
172
1
173
0
174
0
175
0
176
0
177
0
178
0
179
2
271
2
272
2
273
2
274
3
275
0
276
0
277
2
278
44
279
0
280
0
281
0
282
0
283
0
284
8
285
0
286
0
288
0
289
3
290
0
371
-2
372
-2
  0
ENDTAB
  0
TABLE
  2
BLOCK_RECORD
  5
9
330
0
100
AcDbSymbolTable
 70
2
  0
BLOCK_RECORD
  5
17
330
9
100
AcDbSymbolTableRecord
100
AcDbBlockTableRecord
  2
*Model_Space
340
1A
 70
0
280
1
281
0
  0
BLOCK_RECORD
  5
1B
330
9
100
AcDbSymbolTableRecord
100
AcDbBlockTableRecord
  2
*Paper_Space
340
1E
 70
0
280
1
281
0
  0
ENDTAB
  0
ENDSEC
  0
SECTION
  2
BLOCKS
  0
BLOCK
  5
18
330
17
100
AcDbEntity
  8
0
100
AcDbBlockBegin
  2
*Model_Space
 70
0
 10
0.0
 20
0.0
 30
0.0
  3
*Model_Space
  1

  0
ENDBLK
  5
19
330
17
100
AcDbEntity
  8
0
100
AcDbBlockEnd
  0
BLOCK
  5
1C
330
1B
100
AcDbEntity
  8
0
100
AcDbBlockBegin
  2
*Paper_Space
 70
0
 10
0.0
 20
0.0
 30
0.0
  3
*Paper_Space
  1

  0
ENDBLK
  5
1D
330
1B
100
AcDbEntity
  8
0
100
AcDbBlockEnd
  0
ENDSEC
  0
SECTION
  2
ENTITIES
  0
LWPOLYLINE
  5
2F
330
17
100
AcDbEntity
  8
FRAME
100
AcDbPolyline
 90
5
 70
1
 10
-20.0
 20
580.0
 10
320.0
 20
580.0
 10
320.0
 20
920.0
 10
-20.0
 20
920.0
 10
-20.0
 20
580.0
  0
CIRCLE
  5
30
330
17
100
AcDbEntity
  8
CIRCLES
100
AcDbCircle
 10
150.0
 20
700.0
 30
0.0
 40
5.0
  0
CIRCLE
  5
31
330
17
100
AcDbEntity
  8
CIRCLES
100
AcDbCircle
 10
100.0
 20
800.0
 30
0.0
 40
5.0
  0
CIRCLE
  5
32
330
17
100
AcDbEntity
  8
CIRCLES
100
AcDbCircle
 10
200.0
 20
800.0
 30
0.0
 40
5.0
  0
LWPOLYLINE
  5
33
330
17
100
AcDbEntity
  8
CONTOUR_1
100
AcDbPolyline
 90
490
 70
1
 10
110.06212982138833
 20
593.3556105154264
 10
108.83670648752532
 20
594.5810338492894
 10
108.83670648752532
 20
595.8064571831525
 10
106.38585981979931
 20
598.2573038508784
 10
106.38585981979931
 20
599.4827271847414
 10
105.1604364859363
 20
600.7081505186045
 10
103.93501315207328
 20
600.7081505186045
 10
103.93501315207328
 20
601.9335738524675
 10
101.48416648434727
 20
604.3844205201934
 10
95.35704981503223
 20
604.3844205201934
 10
94.13162648116922
 20
603.1589971863305
 10
94.13162648116922
 20
600.7081505186045
 10
95.35704981503223
 20
599.4827271847414
 10
94.13162648116922
 20
598.2573038508784
 10
91.68077981344321
 20
598.2573038508784
 10
90.4553564795802
 20
597.0318805170155
 10
89.22993314571718
 20
597.0318805170155
 10
88.00450981185418
 20
595.8064571831525
 10
86.77908647799117
 20
595.8064571831525
 10
85.55366314412817
 20
594.5810338492894
 10
84.32823981026516
 20
595.8064571831525
 10
84.32823981026516
 20
597.0318805170155
 10
83.10281647640215
 20
598.2573038508784
 10
83.10281647640215
 20
599.4827271847414
 10
81.87739314253913
 20
600.7081505186045
 10
80.65196980867613
 20
600.7081505186045
 10
80.65196980867613
 20
601.9335738524675
 10
79.42654647481312
 20
603.1589971863305
 10
79.42654647481312
 20
604.3844205201934
 10
78.20112314095012
 20
605.6098438540565
 10
78.20112314095012
 20
606.8352671879195
 10
75.7502764732241
 20
609.2861138556456
 10
74.52485313936108
 20
609.2861138556456
 10
73.29942980549808
 20
608.0606905217825
 10
72.07400647163507
 20
608.0606905217825
 10
70.84858313777207
 20
606.8352671879195
 10
69.62315980390906
 20
606.8352671879195
 10
68.39773647004606
 20
605.6098438540565
 10
67.17231313618304
 20
605.6098438540565
 10
65.94688980232003
 20
604.3844205201934
 10
64.72146646845702
 20
604.3844205201934
 10
63.49604313459402
 20
603.1589971863305
 10
59.81977313300499
 20
603.1589971863305
 10
58.59434979914199
 20
601.9335738524675
 10
57.368926465278975
 20
601.9335738524675
 10
56.14350313141597
 20
600.7081505186045
 10
52.467233129826944
 20
600.7081505186045
 10
51.24180979596394
 20
599.4827271847414
 10
50.016386462100925
 20
600.7081505186045
 10
48.79096312823792
 20
600.7081505186045
 10
46.3401164605119
 20
603.1589971863305
 10
45.114693126648895
 20
601.9335738524675
 10
43.88926979278589
 20
601.9335738524675
 10
42.663846458922876
 20
600.7081505186045
 10
34.08588312188182
 20
600.7081505186045
 10
31.635036454155806
 20
603.1589971863305
 10
27.95876645256678
 20
603.1589971863305
 10
26.733343118703772
 20
601.9335738524675
 10
24.282496450977757
 20
601.9335738524675
 10
23.057073117114747
 20
600.7081505186045
 10
18.155379781662717
 20
600.7081505186045
 10
16.929956447799707
 20
599.4827271847414
 10
15.704533113936698
 20
599.4827271847414
 10
14.47910978007369
 20
598.2573038508784
 10
12.028263112347675
 20
598.2573038508784
 10
10.802839778484666
 20
597.0318805170155
 10
8.35199311075865
 20
597.0318805170155
 10
7.126569776895642
 20
595.8064571831525
 10
7.126569776895642
 20
598.2573038508784
 10
5.9011464430326335
 20
599.4827271847414
 10
5.9011464430326335
 20
600.7081505186045
 10
4.675723109169625
 20
601.9335738524675
 10
4.675723109169625
 20
604.3844205201934
 10
3.450299775306617
 20
605.6098438540565
 10
3.450299775306617
 20
608.0606905217825
 10
2.224876441443609
 20
609.2861138556456
 10
0.9994531075806008
 20
609.2861138556456
 10
0.9994531075806008
 20
898.4860206473155
 10
2.224876441443609
 20
898.4860206473155
 10
3.450299775306617
 20
899.7114439811785
 10
3.450299775306617
 20
902.1622906489046
 10
4.675723109169625
 20
900.9368673150416
 10
3.450299775306617
 20
899.7114439811785
 10
4.675723109169625
 20
898.4860206473155
 10
5.9011464430326335
 20
898.4860206473155
 10
7.126569776895642
 20
899.7114439811785
 10
7.126569776895642
 20
902.1622906489046
 10
8.35199311075865
 20
902.1622906489046
 10
10.802839778484666
 20
899.7114439811785
 10
12.028263112347675
 20
899.7114439811785
 10
13.253686446210683
 20
898.4860206473155
 10
19.380803115525723
 20
898.4860206473155
 10
20.606226449388732
 20
899.7114439811785
 10
19.380803115525723
 20
900.9368673150416
 10
26.733343118703772
 20
908.2894073182196
 10
34.08588312188182
 20
900.9368673150416
 10
34.08588312188182
 20
899.7114439811785
 10
35.31130645574483
 20
898.4860206473155
 10
36.53672978960784
 20
898.4860206473155
 10
37.762153123470846
 20
897.2605973134525
 10
38.98757645733385
 20
897.2605973134525
 10
40.212999791196864
 20
898.4860206473155
 10
56.14350313141597
 20
898.4860206473155
 10
58.59434979914199
 20
896.0351739795894
 10
58.59434979914199
 20
894.8097506457265
 10
62.27061980073101
 20
891.1334806441374
 10
63.49604313459402
 20
891.1334806441374
 10
67.17231313618304
 20
894.8097506457265
 10
67.17231313618304
 20
898.4860206473155
 10
78.20112314095012
 20
898.4860206473155
 10
80.65196980867613
 20
896.0351739795894
 10
81.87739314253913
 20
896.0351739795894
 10
86.77908647799117
 20
900.9368673150416
 10
86.77908647799117
 20
903.3877139827675
 10
88.00450981185418
 20
904.6131373166305
 10
88.00450981185418
 20
905.8385606504936
 10
89.22993314571718
 20
907.0639839843566
 10
96.58247314889523
 20
907.0639839843566
 10
96.58247314889523
 20
903.3877139827675
 10
97.80789648275825
 20
902.1622906489046
 10
97.80789648275825
 20
899.7114439811785
 10
99.03331981662126
 20
898.4860206473155
 10
99.03331981662126
 20
896.0351739795894
 10
100.25874315048426
 20
894.8097506457265
 10
102.70958981821028
 20
894.8097506457265
 10
103.93501315207328
 20
896.0351739795894
 10
106.38585981979931
 20
896.0351739795894
 10
107.61128315366231
 20
897.2605973134525
 10
110.06212982138833
 20
897.2605973134525
 10
111.28755315525133
 20
898.4860206473155
 10
117.41466982456637
 20
898.4860206473155
 10
119.8655164922924
 20
900.9368673150416
 10
121.0909398261554
 20
900.9368673150416
 10
125.99263316160743
 20
896.0351739795894
 10
125.99263316160743
 20
894.8097506457265
 10
129.66890316319646
 20
891.1334806441374
 10
130.89432649705947
 20
892.3589039780005
 10
132.11974983092247
 20
892.3589039780005
 10
138.2468665002375
 20
898.4860206473155
 10
139.47228983410054
 20
898.4860206473155
 10
140.69771316796354
 20
899.7114439811785
 10
149.27567650500458
 20
899.7114439811785
 10
150.5010998388676
 20
898.4860206473155
 10
167.6570265129497
 20
898.4860206473155
 10
168.88244984681273
 20
897.2605973134525
 10
182.3621065193058
 20
897.2605973134525
 10
184.81295318703184
 20
899.7114439811785
 10
184.81295318703184
 20
904.6131373166305
 10
194.61633985793588
 20
904.6131373166305
 10
194.61633985793588
 20
899.7114439811785
 10
195.8417631917989
 20
898.4860206473155
 10
200.74345652725094
 20
898.4860206473155
 10
200.74345652725094
 20
894.8097506457265
 10
201.96887986111395
 20
893.5843273118635
 10
204.41972652883996
 20
893.5843273118635
 10
205.64514986270297
 20
894.8097506457265
 10
206.87057319656597
 20
894.8097506457265
 10
208.09599653042898
 20
896.0351739795894
 10
210.546843198155
 20
896.0351739795894
 10
211.772266532018
 20
897.2605973134525
 10
212.997689865881
 20
897.2605973134525
 10
214.22311319974403
 20
898.4860206473155
 10
226.4773465383741
 20
898.4860206473155
 10
227.7027698722371
 20
899.7114439811785
 10
231.37903987382614
 20
899.7114439811785
 10
232.60446320768915
 20
898.4860206473155
 10
253.43665988336028
 20
898.4860206473155
 10
254.66208321722328
 20
899.7114439811785
 10
253.43665988336028
 20
900.9368673150416
 10
253.43665988336028
 20
902.1622906489046
 10
254.66208321722328
 20
900.9368673150416
 10
255.8875065510863
 20
900.9368673150416
 10
258.3383532188123
 20
898.4860206473155
 10
259.56377655267534
 20
898.4860206473155
 10
259.56377655267534
 20
897.2605973134525
 10
260.7891998865383
 20
896.0351739795894
 10
262.01462322040135
 20
896.0351739795894
 10
263.2400465542643
 20
894.8097506457265
 10
264.46546988812736
 20
894.8097506457265
 10
265.6908932219904
 20
893.5843273118635
 10
268.1417398897164
 20
893.5843273118635
 10
269.3671632235794
 20
892.3589039780005
 10
270.5925865574424
 20
892.3589039780005
 10
271.8180098913054
 20
891.1334806441374
 10
273.0434332251684
 20
891.1334806441374
 10
274.2688565590314
 20
892.3589039780005
 10
274.2688565590314
 20
894.8097506457265
 10
275.49427989289444
 20
896.0351739795894
 10
275.49427989289444
 20
898.4860206473155
 10
276.7197032267574
 20
898.4860206473155
 10
277.94512656062045
 20
897.2605973134525
 10
284.0722432299355
 20
897.2605973134525
 10
285.2976665637985
 20
896.0351739795894
 10
288.97393656538753
 20
896.0351739795894
 10
290.1993598992505
 20
897.2605973134525
 10
290.1993598992505
 20
898.4860206473155
 10
293.87562990083956
 20
898.4860206473155
 10
293.87562990083956
 20
894.8097506457265
 10
295.10105323470253
 20
893.5843273118635
 10
298.7773232362916
 20
893.5843273118635
 10
300.0027465701546
 20
892.3589039780005
 10
306.1298632394696
 20
892.3589039780005
 10
304.90443990560664
 20
891.1334806441374
 10
304.90443990560664
 20
887.4572106425485
 10
303.6790165717436
 20
886.2317873086854
 10
303.6790165717436
 20
882.5555173070964
 10
301.2281699040176
 20
882.5555173070964
 10
300.0027465701546
 20
881.3300939732334
 10
301.2281699040176
 20
880.1046706393704
 10
303.6790165717436
 20
880.1046706393704
 10
302.4535932378806
 20
878.8792473055074
 10
302.4535932378806
 20
875.2029773039184
 10
301.2281699040176
 20
873.9775539700554
 10
301.2281699040176
 20
870.3012839684664
 10
298.7773232362916
 20
867.8504373007403
 10
298.7773232362916
 20
858.0470506298362
 10
300.0027465701546
 20
856.8216272959733
 10
301.2281699040176
 20
856.8216272959733
 10
301.2281699040176
 20
853.1453572943842
 10
300.0027465701546
 20
851.9199339605212
 10
300.0027465701546
 20
850.6945106266581
 10
298.7773232362916
 20
849.4690872927952
 10
298.7773232362916
 20
847.0182406250692
 10
297.5518999024286
 20
845.7928172912061
 10
297.5518999024286
 20
844.5673939573431
 10
295.10105323470253
 20
842.1165472896172
 10
295.10105323470253
 20
840.8911239557541
 10
296.32647656856557
 20
839.6657006218911
 10
298.7773232362916
 20
839.6657006218911
 10
300.0027465701546
 20
838.4402772880281
 10
301.2281699040176
 20
838.4402772880281
 10
302.4535932378806
 20
837.214853954165
 10
306.1298632394696
 20
837.214853954165
 10
307.35528657333265
 20
835.9894306203021
 10
307.35528657333265
 20
834.7640072864391
 10
306.1298632394696
 20
833.5385839525761
 10
306.1298632394696
 20
832.313160618713
 10
304.90443990560664
 20
831.08773728485
 10
304.90443990560664
 20
829.8623139509871
 10
303.6790165717436
 20
828.6368906171241
 10
303.6790165717436
 20
826.186043949398
 10
301.2281699040176
 20
823.735197281672
 10
301.2281699040176
 20
821.284350613946
 10
300.0027465701546
 20
820.058927280083
 10
300.0027465701546
 20
818.8335039462199
 10
298.7773232362916
 20
817.608080612357
 10
298.7773232362916
 20
810.255540609179
 10
300.0027465701546
 20
809.0301172753159
 10
300.0027465701546
 20
799.2267306044118
 10
298.7773232362916
 20
798.0013072705489
 10
298.7773232362916
 20
795.5504606028228
 10
297.5518999024286
 20
794.3250372689598
 10
297.5518999024286
 20
791.8741906012337
 10
298.7773232362916
 20
790.6487672673708
 10
296.32647656856557
 20
788.1979205996448
 10
296.32647656856557
 20
783.2962272641928
 10
297.5518999024286
 20
782.0708039303297
 10
297.5518999024286
 20
779.6199572626037
 10
300.0027465701546
 20
777.1691105948777
 10
302.4535932378806
 20
777.1691105948777
 10
303.6790165717436
 20
778.3945339287407
 10
307.35528657333265
 20
778.3945339287407
 10
307.35528657333265
 20
777.1691105948777
 10
306.1298632394696
 20
775.9436872610147
 10
306.1298632394696
 20
768.5911472578366
 10
304.90443990560664
 20
767.3657239239736
 10
302.4535932378806
 20
767.3657239239736
 10
301.2281699040176
 20
766.1403005901107
 10
300.0027465701546
 20
766.1403005901107
 10
298.7773232362916
 20
764.9148772562477
 10
298.7773232362916
 20
760.0131839207955
 10
300.0027465701546
 20
758.7877605869326
 10
302.4535932378806
 20
758.7877605869326
 10
303.6790165717436
 20
760.0131839207955
 10
303.6790165717436
 20
755.1114905853435
 10
302.4535932378806
 20
753.8860672514805
 10
302.4535932378806
 20
752.6606439176176
 10
298.7773232362916
 20
752.6606439176176
 10
297.5518999024286
 20
751.4352205837546
 10
297.5518999024286
 20
740.4064105789874
 10
296.32647656856557
 20
739.1809872451245
 10
296.32647656856557
 20
734.2792939096724
 10
295.10105323470253
 20
733.0538705758094
 10
295.10105323470253
 20
728.1521772403573
 10
296.32647656856557
 20
726.9267539064944
 10
298.7773232362916
 20
726.9267539064944
 10
298.7773232362916
 20
725.7013305726314
 10
300.0027465701546
 20
724.4759072387684
 10
307.35528657333265
 20
724.4759072387684
 10
307.35528657333265
 20
723.2504839049053
 10
306.1298632394696
 20
722.0250605710423
 10
306.1298632394696
 20
719.5742139033163
 10
304.90443990560664
 20
718.3487905694533
 10
304.90443990560664
 20
715.8979439017273
 10
303.6790165717436
 20
714.6725205678642
 10
303.6790165717436
 20
712.2216739001383
 10
302.4535932378806
 20
710.9962505662753
 10
302.4535932378806
 20
708.5454038985492
 10
301.2281699040176
 20
709.7708272324122
 10
300.0027465701546
 20
709.7708272324122
 10
298.7773232362916
 20
708.5454038985492
 10
301.2281699040176
 20
706.0945572308233
 10
301.2281699040176
 20
704.8691338969602
 10
300.0027465701546
 20
703.6437105630972
 10
300.0027465701546
 20
702.4182872292342
 10
298.7773232362916
 20
701.1928638953711
 10
298.7773232362916
 20
698.7420172276452
 10
297.5518999024286
 20
697.5165938937822
 10
297.5518999024286
 20
692.6149005583302
 10
300.0027465701546
 20
690.1640538906041
 10
298.7773232362916
 20
688.9386305567411
 10
298.7773232362916
 20
685.2623605551521
 10
296.32647656856557
 20
682.811513887426
 10
296.32647656856557
 20
680.3606672197001
 10
295.10105323470253
 20
679.1352438858371
 10
293.87562990083956
 20
679.1352438858371
 10
292.6502065669765
 20
677.909820551974
 10
293.87562990083956
 20
676.684397218111
 10
295.10105323470253
 20
676.684397218111
 10
297.5518999024286
 20
674.233550550385
 10
298.7773232362916
 20
674.233550550385
 10
301.2281699040176
 20
671.782703882659
 10
298.7773232362916
 20
669.3318572149329
 10
298.7773232362916
 20
661.979317211755
 10
300.0027465701546
 20
660.753893877892
 10
301.2281699040176
 20
660.753893877892
 10
301.2281699040176
 20
659.5284705440289
 10
298.7773232362916
 20
657.0776238763029
 10
298.7773232362916
 20
654.6267772085769
 10
295.10105323470253
 20
650.9505072069878
 10
295.10105323470253
 20
649.7250838731248
 10
291.42478323311354
 20
646.0488138715358
 10
291.42478323311354
 20
644.8233905376728
 10
295.10105323470253
 20
641.1471205360838
 10
296.32647656856557
 20
641.1471205360838
 10
298.7773232362916
 20
638.6962738683578
 10
298.7773232362916
 20
637.4708505344947
 10
300.0027465701546
 20
636.2454272006318
 10
300.0027465701546
 20
635.0200038667688
 10
298.7773232362916
 20
633.7945805329058
 10
298.7773232362916
 20
630.1183105313168
 10
301.2281699040176
 20
627.6674638635907
 10
302.4535932378806
 20
627.6674638635907
 10
304.90443990560664
 20
625.2166171958646
 10
306.1298632394696
 20
625.2166171958646
 10
308.5807099071956
 20
622.7657705281387
 10
306.1298632394696
 20
620.3149238604126
 10
306.1298632394696
 20
619.0895005265496
 10
303.6790165717436
 20
616.6386538588235
 10
303.6790165717436
 20
615.4132305249606
 10
300.0027465701546
 20
611.7369605233715
 10
300.0027465701546
 20
610.5115371895085
 10
298.7773232362916
 20
609.2861138556456
 10
298.7773232362916
 20
605.6098438540565
 10
297.5518999024286
 20
604.3844205201934
 10
297.5518999024286
 20
603.1589971863305
 10
298.7773232362916
 20
601.9335738524675
 10
297.5518999024286
 20
603.1589971863305
 10
296.32647656856557
 20
603.1589971863305
 10
295.10105323470253
 20
601.9335738524675
 10
295.10105323470253
 20
600.7081505186045
 10
293.87562990083956
 20
600.7081505186045
 10
290.1993598992505
 20
597.0318805170155
 10
290.1993598992505
 20
595.8064571831525
 10
288.97393656538753
 20
594.5810338492894
 10
288.97393656538753
 20
593.3556105154264
 10
286.5230898976615
 20
593.3556105154264
 10
284.0722432299355
 20
595.8064571831525
 10
282.8468198960725
 20
595.8064571831525
 10
281.6213965622095
 20
597.0318805170155
 10
280.39597322834646
 20
597.0318805170155
 10
279.17054989448343
 20
598.2573038508784
 10
280.39597322834646
 20
599.4827271847414
 10
279.17054989448343
 20
600.7081505186045
 10
276.7197032267574
 20
600.7081505186045
 10
275.49427989289444
 20
599.4827271847414
 10
275.49427989289444
 20
598.2573038508784
 10
274.2688565590314
 20
597.0318805170155
 10
273.0434332251684
 20
598.2573038508784
 10
271.8180098913054
 20
598.2573038508784
 10
270.5925865574424
 20
599.4827271847414
 10
269.3671632235794
 20
599.4827271847414
 10
268.1417398897164
 20
600.7081505186045
 10
263.2400465542643
 20
600.7081505186045
 10
264.46546988812736
 20
601.9335738524675
 10
264.46546988812736
 20
603.1589971863305
 10
265.6908932219904
 20
604.3844205201934
 10
263.2400465542643
 20
606.8352671879195
 10
259.56377655267534
 20
606.8352671879195
 10
255.8875065510863
 20
603.1589971863305
 10
254.66208321722328
 20
604.3844205201934
 10
253.43665988336028
 20
604.3844205201934
 10
248.53496654790825
 20
609.2861138556456
 10
247.30954321404525
 20
609.2861138556456
 10
246.08411988018224
 20
610.5115371895085
 10
244.85869654631924
 20
610.5115371895085
 10
243.63327321245623
 20
609.2861138556456
 10
243.63327321245623
 20
608.0606905217825
 10
241.1824265447302
 20
605.6098438540565
 10
241.1824265447302
 20
604.3844205201934
 10
239.95700321086719
 20
603.1589971863305
 10
239.95700321086719
 20
601.9335738524675
 10
238.73157987700418
 20
600.7081505186045
 10
237.50615654314117
 20
600.7081505186045
 10
236.28073320927817
 20
601.9335738524675
 10
235.05530987541516
 20
601.9335738524675
 10
233.82988654155216
 20
603.1589971863305
 10
231.37903987382614
 20
603.1589971863305
 10
230.15361653996314
 20
601.9335738524675
 10
230.15361653996314
 20
600.7081505186045
 10
228.92819320610013
 20
600.7081505186045
 10
227.7027698722371
 20
599.4827271847414
 10
227.7027698722371
 20
598.2573038508784
 10
224.02649987064808
 20
598.2573038508784
 10
222.80107653678508
 20
599.4827271847414
 10
220.35022986905906
 20
599.4827271847414
 10
219.12480653519606
 20
600.7081505186045
 10
216.67395986747005
 20
600.7081505186045
 10
216.67395986747005
 20
601.9335738524675
 10
215.44853653360704
 20
603.1589971863305
 10
214.22311319974403
 20
603.1589971863305
 10
211.772266532018
 20
605.6098438540565
 10
210.546843198155
 20
605.6098438540565
 10
209.32141986429198
 20
606.8352671879195
 10
208.09599653042898
 20
606.8352671879195
 10
206.87057319656597
 20
608.0606905217825
 10
205.64514986270297
 20
608.0606905217825
 10
204.41972652883996
 20
609.2861138556456
 10
203.19430319497695
 20
609.2861138556456
 10
201.96887986111395
 20
608.0606905217825
 10
201.96887986111395
 20
606.8352671879195
 10
200.74345652725094
 20
605.6098438540565
 10
200.74345652725094
 20
600.7081505186045
 10
199.51803319338794
 20
600.7081505186045
 10
198.29260985952493
 20
599.4827271847414
 10
198.29260985952493
 20
597.0318805170155
 10
193.39091652407288
 20
597.0318805170155
 10
194.61633985793588
 20
598.2573038508784
 10
194.61633985793588
 20
599.4827271847414
 10
193.39091652407288
 20
600.7081505186045
 10
192.16549319020987
 20
600.7081505186045
 10
190.94006985634687
 20
599.4827271847414
 10
190.94006985634687
 20
598.2573038508784
 10
189.71464652248386
 20
597.0318805170155
 10
188.48922318862085
 20
598.2573038508784
 10
186.03837652089484
 20
598.2573038508784
 10
184.81295318703184
 20
599.4827271847414
 10
182.3621065193058
 20
599.4827271847414
 10
181.1366831854428
 20
600.7081505186045
 10
177.46041318385377
 20
600.7081505186045
 10
176.23498984999077
 20
601.9335738524675
 10
173.78414318226476
 20
601.9335738524675
 10
172.55871984840175
 20
603.1589971863305
 10
171.33329651453874
 20
603.1589971863305
 10
166.4316031790867
 20
598.2573038508784
 10
166.4316031790867
 20
597.0318805170155
 10
165.2061798452237
 20
595.8064571831525
 10
165.2061798452237
 20
594.5810338492894
 10
163.98075651136068
 20
593.3556105154264
 10
162.75533317749768
 20
593.3556105154264
 10
160.30448650977166
 20
595.8064571831525
 10
159.07906317590866
 20
595.8064571831525
 10
157.85363984204565
 20
597.0318805170155
 10
156.62821650818265
 20
597.0318805170155
 10
155.40279317431964
 20
598.2573038508784
 10
154.17736984045663
 20
598.2573038508784
 10
151.7265231727306
 20
600.7081505186045
 10
149.27567650500458
 20
600.7081505186045
 10
148.05025317114158
 20
601.9335738524675
 10
146.82482983727857
 20
601.9335738524675
 10
144.37398316955256
 20
599.4827271847414
 10
144.37398316955256
 20
598.2573038508784
 10
143.14855983568955
 20
599.4827271847414
 10
141.92313650182655
 20
599.4827271847414
 10
140.69771316796354
 20
600.7081505186045
 10
139.47228983410054
 20
600.7081505186045
 10
137.0214431663745
 20
603.1589971863305
 10
135.7960198325115
 20
603.1589971863305
 10
133.34517316478548
 20
605.6098438540565
 10
129.66890316319646
 20
601.9335738524675
 10
129.66890316319646
 20
600.7081505186045
 10
127.21805649547044
 20
598.2573038508784
 10
127.21805649547044
 20
597.0318805170155
 10
125.99263316160743
 20
595.8064571831525
 10
125.99263316160743
 20
594.5810338492894
 10
119.8655164922924
 20
600.7081505186045
 10
116.18924649070337
 20
600.7081505186045
 10
113.73839982297736
 20
598.2573038508784
 10
113.73839982297736
 20
597.0318805170155
 10
110.06212982138833
 20
593.3556105154264
  0
ENDSEC
  0
SECTION
  2
OBJECTS
  0
DICTIONARY
  5
A
330
0
100
AcDbDictionary
281
1
  3
ACAD_COLOR
350
B
  3
ACAD_GROUP
350
C
  3
ACAD_LAYOUT
350
D
  3
ACAD_MATERIAL
350
E
  3
ACAD_MLEADERSTYLE
350
F
  3
ACAD_MLINESTYLE
350
10
  3
ACAD_PLOTSETTINGS
350
11
  3
ACAD_PLOTSTYLENAME
350
12
  3
ACAD_SCALELIST
350
14
  3
ACAD_TABLESTYLE
350
15
  3
ACAD_VISUALSTYLE
350
16
  3
EZDXF_META
350
2D
  0
DICTIONARY
  5
B
330
A
100
AcDbDictionary
281
1
  0
DICTIONARY
  5
C
330
A
100
AcDbDictionary
281
1
  0
DICTIONARY
  5
D
330
A
100
AcDbDictionary
281
1
  3
Model
350
1A
  3
Layout1
350
1E
  0
DICTIONARY
  5
E
330
A
100
AcDbDictionary
281
1
  3
ByBlock
350
1F
  3
ByLayer
350
20
  3
Global
350
21
  0
DICTIONARY
  5
F
330
A
100
AcDbDictionary
281
1
  3
Standard
350
2C
  0
DICTIONARY
  5
10
330
A
100
AcDbDictionary
281
1
  3
Standard
350
22
  0
DICTIONARY
  5
11
330
A
100
AcDbDictionary
281
1
  0
ACDBDICTIONARYWDFLT
  5
12
330
A
100
AcDbDictionary
281
1
  3
Normal
350
13
100
AcDbDictionaryWithDefault
340
13
  0
ACDBPLACEHOLDER
  5
13
330
12
  0
DICTIONARY
  5
14
330
A
100
AcDbDictionary
281
1
  0
DICTIONARY
  5
15
330
A
100
AcDbDictionary
281
1
  0
DICTIONARY
  5
16
330
A
100
AcDbDictionary
281
1
  0
LAYOUT
  5
1A
330
D
100
AcDbPlotSettings
  1

  4
A3
  6

 40
7.5
 41
20.0
 42
7.5
 43
20.0
 44
420.0
 45
297.0
 46
0.0
 47
0.0
 48
0.0
 49
0.0
140
0.0
141
0.0
142
1.0
143
1.0
 70
1024
 72
1
 73
0
 74
5
  7

 75
16
 76
0
 77
2
 78
300
147
1.0
148
0.0
149
0.0
100
AcDbLayout
  1
Model
 70
1
 71
0
 10
0.0
 20
0.0
 11
420.0
 21
297.0
 12
0.0
 22
0.0
 32
0.0
 14
1e+20
 24
1e+20
 34
1e+20
 15
-1e+20
 25
-1e+20
 35
-1e+20
146
0.0
 13
0.0
 23
0.0
 33
0.0
 16
1.0
 26
0.0
 36
0.0
 17
0.0
 27
1.0
 37
0.0
 76
1
330
17
  0
LAYOUT
  5
1E
330
D
100
AcDbPlotSettings
  1

  4
A3
  6

 40
7.5
 41
20.0
 42
7.5
 43
20.0
 44
420.0
 45
297.0
 46
0.0
 47
0.0
 48
0.0
 49
0.0
140
0.0
141
0.0
142
1.0
143
1.0
 70
0
 72
1
 73
0
 74
5
  7

 75
16
 76
0
 77
2
 78
300
147
1.0
148
0.0
149
0.0
100
AcDbLayout
  1
Layout1
 70
1
 71
1
 10
0.0
 20
0.0
 11
420.0
 21
297.0
 12
0.0
 22
0.0
 32
0.0
 14
1e+20
 24
1e+20
 34
1e+20
 15
-1e+20
 25
-1e+20
 35
-1e+20
146
0.0
 13
0.0
 23
0.0
 33
0.0
 16
1.0
 26
0.0
 36
0.0
 17
0.0
 27
1.0
 37
0.0
 76
1
330
1B
  0
MATERIAL
  5
1F
102
{ACAD_REACTORS
330
E
102
}
330
E
100
AcDbMaterial
  1
ByBlock
  2

 70
0
 40
1.0
 71
1
 41
1.0
 91
-1023410177
 42
1.0
 72
1
  3

 73
1
 74
1
 75
1
 44
0.5
 73
0
 45
1.0
 46
1.0
 77
1
  4

 78
1
 79
1
170
1
 48
1.0
171
1
  6

172
1
173
1
174
1
140
1.0
141
1.0
175
1
  7

176
1
177
1
178
1
143
1.0
179
1
  8

270
1
271
1
272
1
145
1.0
146
1.0
273
1
  9

274
1
275
1
276
1
 42
1.0
 72
1
  3

 73
1
 74
1
 75
1
 94
63
  0
MATERIAL
  5
20
102
{ACAD_REACTORS
330
E
102
}
330
E
100
AcDbMaterial
  1
ByLayer
  2

 70
0
 40
1.0
 71
1
 41
1.0
 91
-1023410177
 42
1.0
 72
1
  3

 73
1
 74
1
 75
1
 44
0.5
 73
0
 45
1.0
 46
1.0
 77
1
  4

 78
1
 79
1
170
1
 48
1.0
171
1
  6

172
1
173
1
174
1
140
1.0
141
1.0
175
1
  7

176
1
177
1
178
1
143
1.0
179
1
  8

270
1
271
1
272
1
145
1.0
146
1.0
273
1
  9

274
1
275
1
276
1
 42
1.0
 72
1
  3

 73
1
 74
1
 75
1
 94
63
  0
MATERIAL
  5
21
102
{ACAD_REACTORS
330
E
102
}
330
E
100
AcDbMaterial
  1
Global
  2

 70
0
 40
1.0
 71
1
 41
1.0
 91
-1023410177
 42
1.0
 72
1
  3

 73
1
 74
1
 75
1
 44
0.5
 73
0
 45
1.0
 46
1.0
 77
1
  4

 78
1
 79
1
170
1
 48
1.0
171
1
  6

172
1
173
1
174
1
140
1.0
141
1.0
175
1
  7

176
1
177
1
178
1
143
1.0
179
1
  8

270
1
271
1
272
1
145
1.0
146
1.0
273
1
  9

274
1
275
1
276
1
 42
1.0
 72
1
  3

 73
1
 74
1
 75
1
 94
63
  0
MLINESTYLE
  5
22
102
{ACAD_REACTORS
330
10
102
}
330
10
100
AcDbMlineStyle
  2
Standard
 70
0
  3

 62
256
 51
90.0
 52
90.0
 71
2
 49
0.5
 62
256
  6
BYLAYER
 49
-0.5
 62
256
  6
BYLAYER
  0
MLEADERSTYLE
  5
2C
102
{ACAD_REACTORS
330
F
102
}
330
F
100
AcDbMLeaderStyle
179
2
170
2
171
1
172
0
 90
2
 40
0.0
 41
0.0
173
1
 91
-1056964608
 92
-2
290
1
 42
2.0
291
1
 43
8.0
  3
Standard
 44
4.0
300

342
29
174
1
175
1
176
0
178
1
 93
-1056964608
 45
4.0
292
0
297
0
 46
4.0
 94
-1056964608
 47
1.0
 49
1.0
140
1.0
294
1
141
0.0
177
0
142
1.0
295
0
296
0
143
3.75
271
0
272
9
273
9
  0
DICTIONARY
  5
2D
330
A
100
AcDbDictionary
280
1
281
1
  3
CREATED_BY_EZDXF
350
2E
  3
WRITTEN_BY_EZDXF
350
36
  0
DICTIONARYVAR
  5
2E
330
2D
100
DictionaryVariables
280
0
  1
1.4.2 @ 2025-08-24T12:13:48.557514+00:00
  0
DICTIONARYVAR
  5
36
330
2D
100
DictionaryVariables
280
0
  1
1.4.2 @ 2025-08-24T12:13:48.559513+00:00
  0
ENDSEC
  0
EOF
