  0
SECTION
  2
HEADER
  9
$ACADVER
  1
AC1024
  9
$ACADMAINTVER
 70
6
  9
$DWGCODEPAGE
  3
ANSI_1252
  9
$LASTSAVEDBY
  1
ezdxf
  9
$INSBASE
 10
0.0
 20
0.0
 30
0.0
  9
$EXTMIN
 10
1e+20
 20
1e+20
 30
1e+20
  9
$EXTMAX
 10
-1e+20
 20
-1e+20
 30
-1e+20
  9
$LIMMIN
 10
0.0
 20
0.0
  9
$LIMMAX
 10
420.0
 20
297.0
  9
$ORTHOMODE
 70
0
  9
$REGENMODE
 70
1
  9
$FILLMODE
 70
1
  9
$QTEXTMODE
 70
0
  9
$MIRRTEXT
 70
1
  9
$LTSCALE
 40
1.0
  9
$ATTMODE
 70
1
  9
$TEXTSIZE
 40
2.5
  9
$TRACEWID
 40
1.0
  9
$TEXTSTYLE
  7
Standard
  9
$CLAYER
  8
0
  9
$CELTYPE
  6
ByLayer
  9
$CECOLOR
 62
256
  9
$CELTSCALE
 40
1.0
  9
$DISPSILH
 70
0
  9
$DIMSCALE
 40
1.0
  9
$DIMASZ
 40
2.5
  9
$DIMEXO
 40
0.625
  9
$DIMDLI
 40
3.75
  9
$DIMRND
 40
0.0
  9
$DIMDLE
 40
0.0
  9
$DIMEXE
 40
1.25
  9
$DIMTP
 40
0.0
  9
$DIMTM
 40
0.0
  9
$DIMTXT
 40
2.5
  9
$DIMCEN
 40
2.5
  9
$DIMTSZ
 40
0.0
  9
$DIMTOL
 70
0
  9
$DIMLIM
 70
0
  9
$DIMTIH
 70
0
  9
$DIMTOH
 70
0
  9
$DIMSE1
 70
0
  9
$DIMSE2
 70
0
  9
$DIMTAD
 70
1
  9
$DIMZIN
 70
8
  9
$DIMBLK
  1

  9
$DIMASO
 70
1
  9
$DIMSHO
 70
1
  9
$DIMPOST
  1

  9
$DIMAPOST
  1

  9
$DIMALT
 70
0
  9
$DIMALTD
 70
3
  9
$DIMALTF
 40
0.03937007874
  9
$DIMLFAC
 40
1.0
  9
$DIMTOFL
 70
1
  9
$DIMTVP
 40
0.0
  9
$DIMTIX
 70
0
  9
$DIMSOXD
 70
0
  9
$DIMSAH
 70
0
  9
$DIMBLK1
  1

  9
$DIMBLK2
  1

  9
$DIMSTYLE
  2
ISO-25
  9
$DIMCLRD
 70
0
  9
$DIMCLRE
 70
0
  9
$DIMCLRT
 70
0
  9
$DIMTFAC
 40
1.0
  9
$DIMGAP
 40
0.625
  9
$DIMJUST
 70
0
  9
$DIMSD1
 70
0
  9
$DIMSD2
 70
0
  9
$DIMTOLJ
 70
0
  9
$DIMTZIN
 70
8
  9
$DIMALTZ
 70
0
  9
$DIMALTTZ
 70
0
  9
$DIMUPT
 70
0
  9
$DIMDEC
 70
2
  9
$DIMTDEC
 70
2
  9
$DIMALTU
 70
2
  9
$DIMALTTD
 70
3
  9
$DIMTXSTY
  7
Standard
  9
$DIMAUNIT
 70
0
  9
$DIMADEC
 70
0
  9
$DIMALTRND
 40
0.0
  9
$DIMAZIN
 70
0
  9
$DIMDSEP
 70
44
  9
$DIMATFIT
 70
3
  9
$DIMFRAC
 70
0
  9
$DIMLDRBLK
  1

  9
$DIMLUNIT
 70
2
  9
$DIMLWD
 70
-2
  9
$DIMLWE
 70
-2
  9
$DIMTMOVE
 70
0
  9
$DIMFXL
 40
1.0
  9
$DIMFXLON
 70
0
  9
$DIMJOGANG
 40
0.785398163397
  9
$DIMTFILL
 70
0
  9
$DIMTFILLCLR
 70
0
  9
$DIMARCSYM
 70
0
  9
$DIMLTYPE
  6

  9
$DIMLTEX1
  6

  9
$DIMLTEX2
  6

  9
$DIMTXTDIRECTION
 70
0
  9
$LUNITS
 70
2
  9
$LUPREC
 70
4
  9
$SKETCHINC
 40
1.0
  9
$FILLETRAD
 40
10.0
  9
$AUNITS
 70
0
  9
$AUPREC
 70
2
  9
$MENU
  1
.
  9
$ELEVATION
 40
0.0
  9
$PELEVATION
 40
0.0
  9
$THICKNESS
 40
0.0
  9
$LIMCHECK
 70
0
  9
$CHAMFERA
 40
0.0
  9
$CHAMFERB
 40
0.0
  9
$CHAMFERC
 40
0.0
  9
$CHAMFERD
 40
0.0
  9
$SKPOLY
 70
0
  9
$TDCREATE
 40
2460912.6345833335
  9
$TDUCREATE
 40
2458532.153996898
  9
$TDUPDATE
 40
2460912.6345833335
  9
$TDUUPDATE
 40
2458532.1544311
  9
$TDINDWG
 40
0.0
  9
$TDUSRTIMER
 40
0.0
  9
$USRTIMER
 70
1
  9
$ANGBASE
 50
0.0
  9
$ANGDIR
 70
0
  9
$PDMODE
 70
0
  9
$PDSIZE
 40
0.0
  9
$PLINEWID
 40
0.0
  9
$SPLFRAME
 70
0
  9
$SPLINETYPE
 70
6
  9
$SPLINESEGS
 70
8
  9
$HANDSEED
  5
37
  9
$SURFTAB1
 70
6
  9
$SURFTAB2
 70
6
  9
$SURFTYPE
 70
6
  9
$SURFU
 70
6
  9
$SURFV
 70
6
  9
$UCSBASE
  2

  9
$UCSNAME
  2

  9
$UCSORG
 10
0.0
 20
0.0
 30
0.0
  9
$UCSXDIR
 10
1.0
 20
0.0
 30
0.0
  9
$UCSYDIR
 10
0.0
 20
1.0
 30
0.0
  9
$UCSORTHOREF
  2

  9
$UCSORTHOVIEW
 70
0
  9
$UCSORGTOP
 10
0.0
 20
0.0
 30
0.0
  9
$UCSORGBOTTOM
 10
0.0
 20
0.0
 30
0.0
  9
$UCSORGLEFT
 10
0.0
 20
0.0
 30
0.0
  9
$UCSORGRIGHT
 10
0.0
 20
0.0
 30
0.0
  9
$UCSORGFRONT
 10
0.0
 20
0.0
 30
0.0
  9
$UCSORGBACK
 10
0.0
 20
0.0
 30
0.0
  9
$PUCSBASE
  2

  9
$PUCSNAME
  2

  9
$PUCSORG
 10
0.0
 20
0.0
 30
0.0
  9
$PUCSXDIR
 10
1.0
 20
0.0
 30
0.0
  9
$PUCSYDIR
 10
0.0
 20
1.0
 30
0.0
  9
$PUCSORTHOREF
  2

  9
$PUCSORTHOVIEW
 70
0
  9
$PUCSORGTOP
 10
0.0
 20
0.0
 30
0.0
  9
$PUCSORGBOTTOM
 10
0.0
 20
0.0
 30
0.0
  9
$PUCSORGLEFT
 10
0.0
 20
0.0
 30
0.0
  9
$PUCSORGRIGHT
 10
0.0
 20
0.0
 30
0.0
  9
$PUCSORGFRONT
 10
0.0
 20
0.0
 30
0.0
  9
$PUCSORGBACK
 10
0.0
 20
0.0
 30
0.0
  9
$USERI1
 70
0
  9
$USERI2
 70
0
  9
$USERI3
 70
0
  9
$USERI4
 70
0
  9
$USERI5
 70
0
  9
$USERR1
 40
0.0
  9
$USERR2
 40
0.0
  9
$USERR3
 40
0.0
  9
$USERR4
 40
0.0
  9
$USERR5
 40
0.0
  9
$WORLDVIEW
 70
1
  9
$SHADEDGE
 70
3
  9
$SHADEDIF
 70
70
  9
$TILEMODE
 70
1
  9
$MAXACTVP
 70
64
  9
$PINSBASE
 10
0.0
 20
0.0
 30
0.0
  9
$PLIMCHECK
 70
0
  9
$PEXTMIN
 10
1e+20
 20
1e+20
 30
1e+20
  9
$PEXTMAX
 10
-1e+20
 20
-1e+20
 30
-1e+20
  9
$PLIMMIN
 10
0.0
 20
0.0
  9
$PLIMMAX
 10
420.0
 20
297.0
  9
$UNITMODE
 70
0
  9
$VISRETAIN
 70
1
  9
$PLINEGEN
 70
0
  9
$PSLTSCALE
 70
1
  9
$TREEDEPTH
 70
3020
  9
$CMLSTYLE
  2
Standard
  9
$CMLJUST
 70
0
  9
$CMLSCALE
 40
20.0
  9
$PROXYGRAPHICS
 70
1
  9
$MEASUREMENT
 70
1
  9
$CELWEIGHT
370
-1
  9
$ENDCAPS
280
0
  9
$JOINSTYLE
280
0
  9
$LWDISPLAY
290
0
  9
$INSUNITS
 70
6
  9
$HYPERLINKBASE
  1

  9
$STYLESHEET
  1

  9
$XEDIT
290
1
  9
$CEPSNTYPE
380
0
  9
$PSTYLEMODE
290
1
  9
$FINGERPRINTGUID
  2
{70F2A2D4-331C-483D-AEFB-F37CCB60738E}
  9
$VERSIONGUID
  2
{0CDE4FE3-FDD1-4792-ABB5-6E115C25BAAE}
  9
$EXTNAMES
290
1
  9
$PSVPSCALE
 40
0.0
  9
$OLESTARTUP
290
0
  9
$SORTENTS
280
127
  9
$INDEXCTL
280
0
  9
$HIDETEXT
280
1
  9
$XCLIPFRAME
280
1
  9
$HALOGAP
280
0
  9
$OBSCOLOR
 70
257
  9
$OBSLTYPE
280
0
  9
$INTERSECTIONDISPLAY
280
0
  9
$INTERSECTIONCOLOR
 70
257
  9
$DIMASSOC
280
2
  9
$PROJECTNAME
  1

  9
$CAMERADISPLAY
290
0
  9
$LENSLENGTH
 40
50.0
  9
$CAMERAHEIGHT
 40
0.0
  9
$STEPSPERSEC
 40
24.0
  9
$STEPSIZE
 40
100.0
  9
$3DDWFPREC
 40
2.0
  9
$PSOLWIDTH
 40
0.005
  9
$PSOLHEIGHT
 40
0.08
  9
$LOFTANG1
 40
1.570796326795
  9
$LOFTANG2
 40
1.570796326795
  9
$LOFTMAG1
 40
0.0
  9
$LOFTMAG2
 40
0.0
  9
$LOFTPARAM
 70
7
  9
$LOFTNORMALS
280
1
  9
$LATITUDE
 40
37.795
  9
$LONGITUDE
 40
-122.394
  9
$NORTHDIRECTION
 40
0.0
  9
$TIMEZONE
 70
-8000
  9
$LIGHTGLYPHDISPLAY
280
1
  9
$TILEMODELIGHTSYNCH
280
1
  9
$CMATERIAL
347
20
  9
$SOLIDHIST
280
0
  9
$SHOWHIST
280
1
  9
$DWFFRAME
280
2
  9
$DGNFRAME
280
2
  9
$REALWORLDSCALE
290
1
  9
$INTERFERECOLOR
 62
256
  9
$CSHADOW
280
0
  9
$SHADOWPLANELOCATION
 40
0.0
  0
ENDSEC
  0
SECTION
  2
CLASSES
  0
CLASS
  1
ACDBDICTIONARYWDFLT
  2
AcDbDictionaryWithDefault
  3
ObjectDBX Classes
 90
0
 91
0
280
0
281
0
  0
CLASS
  1
SUN
  2
AcDbSun
  3
SCENEOE
 90
1153
 91
0
280
0
281
0
  0
CLASS
  1
VISUALSTYLE
  2
AcDbVisualStyle
  3
ObjectDBX Classes
 90
4095
 91
0
280
0
281
0
  0
CLASS
  1
MATERIAL
  2
AcDbMaterial
  3
ObjectDBX Classes
 90
1153
 91
0
280
0
281
0
  0
CLASS
  1
SCALE
  2
AcDbScale
  3
ObjectDBX Classes
 90
1153
 91
0
280
0
281
0
  0
CLASS
  1
TABLESTYLE
  2
AcDbTableStyle
  3
ObjectDBX Classes
 90
4095
 91
0
280
0
281
0
  0
CLASS
  1
MLEADERSTYLE
  2
AcDbMLeaderStyle
  3
ACDB_MLEADERSTYLE_CLASS
 90
4095
 91
0
280
0
281
0
  0
CLASS
  1
DICTIONARYVAR
  2
AcDbDictionaryVar
  3
ObjectDBX Classes
 90
0
 91
0
280
0
281
0
  0
CLASS
  1
CELLSTYLEMAP
  2
AcDbCellStyleMap
  3
ObjectDBX Classes
 90
1152
 91
0
280
0
281
0
  0
CLASS
  1
MENTALRAYRENDERSETTINGS
  2
AcDbMentalRayRenderSettings
  3
SCENEOE
 90
1024
 91
0
280
0
281
0
  0
CLASS
  1
ACDBDETAILVIEWSTYLE
  2
AcDbDetailViewStyle
  3
ObjectDBX Classes
 90
1025
 91
0
280
0
281
0
  0
CLASS
  1
ACDBSECTIONVIEWSTYLE
  2
AcDbSectionViewStyle
  3
ObjectDBX Classes
 90
1025
 91
0
280
0
281
0
  0
CLASS
  1
RASTERVARIABLES
  2
AcDbRasterVariables
  3
ISM
 90
0
 91
0
280
0
281
0
  0
CLASS
  1
LAYOUT
  2
AcDbLayout
  3
ObjectDBX Classes
 90
0
 91
0
280
0
281
0
  0
CLASS
  1
ACDBPLACEHOLDER
  2
AcDbPlaceHolder
  3
ObjectDBX Classes
 90
0
 91
0
280
0
281
0
  0
ENDSEC
  0
SECTION
  2
TABLES
  0
TABLE
  2
VPORT
  5
8
330
0
100
AcDbSymbolTable
 70
1
  0
VPORT
  5
23
330
8
100
AcDbSymbolTableRecord
100
AcDbViewportTableRecord
  2
*Active
 70
0
 10
0.0
 20
0.0
 11
1.0
 21
1.0
 12
0.0
 22
0.0
 13
0.0
 23
0.0
 14
0.5
 24
0.5
 15
0.5
 25
0.5
 16
0.0
 26
0.0
 36
1.0
 17
0.0
 27
0.0
 37
0.0
 40
1000.0
 41
1.34
 42
50.0
 43
0.0
 44
0.0
 50
0.0
 51
0.0
 71
0
 72
1000
 73
1
 74
3
 75
0
 76
0
 77
0
 78
0
281
0
 65
0
146
0.0
  0
ENDTAB
  0
TABLE
  2
LTYPE
  5
2
330
0
100
AcDbSymbolTable
 70
3
  0
LTYPE
  5
24
330
2
100
AcDbSymbolTableRecord
100
AcDbLinetypeTableRecord
  2
ByBlock
 70
0
  3

 72
65
 73
0
 40
0.0
  0
LTYPE
  5
25
330
2
100
AcDbSymbolTableRecord
100
AcDbLinetypeTableRecord
  2
ByLayer
 70
0
  3

 72
65
 73
0
 40
0.0
  0
LTYPE
  5
26
330
2
100
AcDbSymbolTableRecord
100
AcDbLinetypeTableRecord
  2
Continuous
 70
0
  3

 72
65
 73
0
 40
0.0
  0
ENDTAB
  0
TABLE
  2
LAYER
  5
1
330
0
100
AcDbSymbolTable
 70
2
  0
LAYER
  5
27
330
1
100
AcDbSymbolTableRecord
100
AcDbLayerTableRecord
  2
0
 70
0
 62
7
  6
Continuous
370
-3
390
13
347
21
  0
LAYER
  5
28
330
1
100
AcDbSymbolTableRecord
100
AcDbLayerTableRecord
  2
Defpoints
 70
0
 62
7
  6
Continuous
290
0
370
-3
390
13
347
21
  0
ENDTAB
  0
TABLE
  2
STYLE
  5
5
330
0
100
AcDbSymbolTable
 70
1
  0
STYLE
  5
29
330
5
100
AcDbSymbolTableRecord
100
AcDbTextStyleTableRecord
  2
Standard
 70
0
 40
0.0
 41
1.0
 50
0.0
 71
0
 42
2.5
  3
txt
  4

  0
ENDTAB
  0
TABLE
  2
VIEW
  5
7
330
0
100
AcDbSymbolTable
 70
0
  0
ENDTAB
  0
TABLE
  2
UCS
  5
6
330
0
100
AcDbSymbolTable
 70
0
  0
ENDTAB
  0
TABLE
  2
APPID
  5
3
330
0
100
AcDbSymbolTable
 70
3
  0
APPID
  5
2A
330
3
100
AcDbSymbolTableRecord
100
AcDbRegAppTableRecord
  2
ACAD
 70
0
  0
APPID
  5
34
330
3
100
AcDbSymbolTableRecord
100
AcDbRegAppTableRecord
  2
HATCHBACKGROUNDCOLOR
 70
0
  0
APPID
  5
35
330
3
100
AcDbSymbolTableRecord
100
AcDbRegAppTableRecord
  2
EZDXF
 70
0
  0
ENDTAB
  0
TABLE
  2
DIMSTYLE
  5
4
330
0
100
AcDbSymbolTable
 70
1
100
AcDbDimStyleTable
  0
DIMSTYLE
105
2B
330
4
100
AcDbSymbolTableRecord
100
AcDbDimStyleTableRecord
  2
Standard
 70
0
 40
1.0
 41
2.5
 42
0.625
 43
3.75
 44
1.25
 45
0.0
 46
0.0
 47
0.0
 48
0.0
 49
2.5
140
2.5
141
2.5
142
0.0
143
0.03937007874
144
1.0
145
0.0
146
1.0
147
0.625
148
0.0
 69
0
 70
0
 71
0
 72
0
 73
0
 74
0
 75
0
 76
0
 77
1
 78
8
 79
3
170
0
171
3
172
1
173
0
174
0
175
0
176
0
177
0
178
0
179
2
271
2
272
2
273
2
274
3
275
0
276
0
277
2
278
44
279
0
280
0
281
0
282
0
283
0
284
8
285
0
286
0
288
0
289
3
290
0
371
-2
372
-2
  0
ENDTAB
  0
TABLE
  2
BLOCK_RECORD
  5
9
330
0
100
AcDbSymbolTable
 70
2
  0
BLOCK_RECORD
  5
17
330
9
100
AcDbSymbolTableRecord
100
AcDbBlockTableRecord
  2
*Model_Space
340
1A
 70
0
280
1
281
0
  0
BLOCK_RECORD
  5
1B
330
9
100
AcDbSymbolTableRecord
100
AcDbBlockTableRecord
  2
*Paper_Space
340
1E
 70
0
280
1
281
0
  0
ENDTAB
  0
ENDSEC
  0
SECTION
  2
BLOCKS
  0
BLOCK
  5
18
330
17
100
AcDbEntity
  8
0
100
AcDbBlockBegin
  2
*Model_Space
 70
0
 10
0.0
 20
0.0
 30
0.0
  3
*Model_Space
  1

  0
ENDBLK
  5
19
330
17
100
AcDbEntity
  8
0
100
AcDbBlockEnd
  0
BLOCK
  5
1C
330
1B
100
AcDbEntity
  8
0
100
AcDbBlockBegin
  2
*Paper_Space
 70
0
 10
0.0
 20
0.0
 30
0.0
  3
*Paper_Space
  1

  0
ENDBLK
  5
1D
330
1B
100
AcDbEntity
  8
0
100
AcDbBlockEnd
  0
ENDSEC
  0
SECTION
  2
ENTITIES
  0
LWPOLYLINE
  5
2F
330
17
100
AcDbEntity
  8
FRAME
100
AcDbPolyline
 90
5
 70
1
 10
280.0
 20
580.0
 10
620.0
 20
580.0
 10
620.0
 20
920.0
 10
280.0
 20
920.0
 10
280.0
 20
580.0
  0
CIRCLE
  5
30
330
17
100
AcDbEntity
  8
CIRCLES
100
AcDbCircle
 10
450.0
 20
700.0
 30
0.0
 40
5.0
  0
CIRCLE
  5
31
330
17
100
AcDbEntity
  8
CIRCLES
100
AcDbCircle
 10
400.0
 20
800.0
 30
0.0
 40
5.0
  0
CIRCLE
  5
32
330
17
100
AcDbEntity
  8
CIRCLES
100
AcDbCircle
 10
500.0
 20
800.0
 30
0.0
 40
5.0
  0
LWPOLYLINE
  5
33
330
17
100
AcDbEntity
  8
CONTOUR_1
100
AcDbPolyline
 90
647
 70
1
 10
355.14679659398996
 20
594.5810338492894
 10
355.14679659398996
 20
597.0318805170155
 10
356.372219927853
 20
598.2573038508784
 10
356.372219927853
 20
599.4827271847414
 10
355.14679659398996
 20
600.7081505186045
 10
351.4705265924009
 20
600.7081505186045
 10
350.24510325853794
 20
601.9335738524675
 10
346.5688332569489
 20
601.9335738524675
 10
345.3434099230859
 20
603.1589971863305
 10
340.4417165876339
 20
603.1589971863305
 10
337.9908699199078
 20
600.7081505186045
 10
331.8637532505928
 20
600.7081505186045
 10
330.6383299167298
 20
601.9335738524675
 10
324.51121324741473
 20
601.9335738524675
 10
323.28578991355175
 20
603.1589971863305
 10
318.38409657809973
 20
603.1589971863305
 10
317.1586732442367
 20
601.9335738524675
 10
315.9332499103737
 20
601.9335738524675
 10
314.7078265765107
 20
603.1589971863305
 10
313.4824032426477
 20
603.1589971863305
 10
311.0315565749217
 20
600.7081505186045
 10
309.80613324105866
 20
600.7081505186045
 10
307.35528657333265
 20
598.2573038508784
 10
304.90443990560664
 20
600.7081505186045
 10
301.2281699040176
 20
600.7081505186045
 10
300.0027465701546
 20
601.9335738524675
 10
300.0027465701546
 20
605.6098438540565
 10
301.2281699040176
 20
606.8352671879195
 10
301.2281699040176
 20
610.5115371895085
 10
302.4535932378806
 20
611.7369605233715
 10
302.4535932378806
 20
612.9623838572345
 10
306.1298632394696
 20
616.6386538588235
 10
306.1298632394696
 20
617.8640771926865
 10
308.5807099071956
 20
620.3149238604126
 10
308.5807099071956
 20
621.5403471942756
 10
309.80613324105866
 20
622.7657705281387
 10
309.80613324105866
 20
623.9911938620016
 10
306.1298632394696
 20
627.6674638635907
 10
304.90443990560664
 20
627.6674638635907
 10
302.4535932378806
 20
630.1183105313168
 10
301.2281699040176
 20
630.1183105313168
 10
301.2281699040176
 20
635.0200038667688
 10
302.4535932378806
 20
636.2454272006318
 10
301.2281699040176
 20
637.4708505344947
 10
301.2281699040176
 20
638.6962738683578
 10
296.32647656856557
 20
643.5979672038098
 10
295.10105323470253
 20
643.5979672038098
 10
293.87562990083956
 20
644.8233905376728
 10
293.87562990083956
 20
647.2742372053989
 10
297.5518999024286
 20
650.9505072069878
 10
297.5518999024286
 20
652.1759305408509
 10
301.2281699040176
 20
655.8522005424398
 10
301.2281699040176
 20
658.3030472101659
 10
303.6790165717436
 20
660.753893877892
 10
301.2281699040176
 20
663.2047405456179
 10
301.2281699040176
 20
669.3318572149329
 10
303.6790165717436
 20
671.782703882659
 10
298.7773232362916
 20
676.684397218111
 10
297.5518999024286
 20
676.684397218111
 10
296.32647656856557
 20
677.909820551974
 10
296.32647656856557
 20
679.1352438858371
 10
298.7773232362916
 20
681.586090553563
 10
298.7773232362916
 20
684.0369372212891
 10
301.2281699040176
 20
686.4877838890151
 10
301.2281699040176
 20
691.3894772244671
 10
300.0027465701546
 20
692.6149005583302
 10
300.0027465701546
 20
698.7420172276452
 10
301.2281699040176
 20
699.9674405615082
 10
301.2281699040176
 20
702.4182872292342
 10
302.4535932378806
 20
703.6437105630972
 10
302.4535932378806
 20
704.8691338969602
 10
303.6790165717436
 20
706.0945572308233
 10
302.4535932378806
 20
707.3199805646863
 10
304.90443990560664
 20
709.7708272324122
 10
304.90443990560664
 20
712.2216739001383
 10
306.1298632394696
 20
713.4470972340013
 10
306.1298632394696
 20
715.8979439017273
 10
307.35528657333265
 20
717.1233672355903
 10
307.35528657333265
 20
719.5742139033163
 10
308.5807099071956
 20
720.7996372371794
 10
308.5807099071956
 20
723.2504839049053
 10
309.80613324105866
 20
724.4759072387684
 10
307.35528657333265
 20
726.9267539064944
 10
301.2281699040176
 20
726.9267539064944
 10
298.7773232362916
 20
729.3776005742204
 10
297.5518999024286
 20
729.3776005742204
 10
297.5518999024286
 20
734.2792939096724
 10
298.7773232362916
 20
735.5047172435354
 10
298.7773232362916
 20
740.4064105789874
 10
300.0027465701546
 20
741.6318339128504
 10
300.0027465701546
 20
751.4352205837546
 10
302.4535932378806
 20
751.4352205837546
 10
304.90443990560664
 20
753.8860672514805
 10
304.90443990560664
 20
755.1114905853435
 10
306.1298632394696
 20
756.3369139192066
 10
306.1298632394696
 20
760.0131839207955
 10
304.90443990560664
 20
761.2386072546586
 10
301.2281699040176
 20
761.2386072546586
 10
301.2281699040176
 20
764.9148772562477
 10
304.90443990560664
 20
764.9148772562477
 10
307.35528657333265
 20
767.3657239239736
 10
307.35528657333265
 20
768.5911472578366
 10
308.5807099071956
 20
769.8165705916997
 10
308.5807099071956
 20
777.1691105948777
 10
309.80613324105866
 20
778.3945339287407
 10
307.35528657333265
 20
780.8453805964667
 10
304.90443990560664
 20
780.8453805964667
 10
303.6790165717436
 20
779.6199572626037
 10
300.0027465701546
 20
779.6199572626037
 10
300.0027465701546
 20
782.0708039303297
 10
298.7773232362916
 20
783.2962272641928
 10
298.7773232362916
 20
788.1979205996448
 10
300.0027465701546
 20
789.4233439335078
 10
300.0027465701546
 20
795.5504606028228
 10
301.2281699040176
 20
796.7758839366859
 10
301.2281699040176
 20
799.2267306044118
 10
302.4535932378806
 20
800.4521539382748
 10
302.4535932378806
 20
809.0301172753159
 10
301.2281699040176
 20
810.255540609179
 10
301.2281699040176
 20
818.8335039462199
 10
302.4535932378806
 20
820.058927280083
 10
302.4535932378806
 20
821.284350613946
 10
303.6790165717436
 20
822.509773947809
 10
303.6790165717436
 20
824.960620615535
 10
306.1298632394696
 20
827.411467283261
 10
306.1298632394696
 20
829.8623139509871
 10
307.35528657333265
 20
831.08773728485
 10
307.35528657333265
 20
832.313160618713
 10
308.5807099071956
 20
833.5385839525761
 10
308.5807099071956
 20
834.7640072864391
 10
309.80613324105866
 20
835.9894306203021
 10
306.1298632394696
 20
839.6657006218911
 10
302.4535932378806
 20
839.6657006218911
 10
301.2281699040176
 20
840.8911239557541
 10
300.0027465701546
 20
840.8911239557541
 10
298.7773232362916
 20
842.1165472896172
 10
297.5518999024286
 20
842.1165472896172
 10
297.5518999024286
 20
843.3419706234802
 10
300.0027465701546
 20
845.7928172912061
 10
300.0027465701546
 20
847.0182406250692
 10
301.2281699040176
 20
848.2436639589322
 10
301.2281699040176
 20
850.6945106266581
 10
302.4535932378806
 20
851.9199339605212
 10
302.4535932378806
 20
853.1453572943842
 10
303.6790165717436
 20
854.3707806282472
 10
303.6790165717436
 20
856.8216272959733
 10
301.2281699040176
 20
859.2724739636992
 10
301.2281699040176
 20
867.8504373007403
 10
302.4535932378806
 20
869.0758606346033
 10
302.4535932378806
 20
870.3012839684664
 10
303.6790165717436
 20
871.5267073023293
 10
303.6790165717436
 20
875.2029773039184
 10
304.90443990560664
 20
876.4284006377814
 10
304.90443990560664
 20
882.5555173070964
 10
306.1298632394696
 20
883.7809406409594
 10
306.1298632394696
 20
887.4572106425485
 10
307.35528657333265
 20
888.6826339764115
 10
307.35528657333265
 20
893.5843273118635
 10
306.1298632394696
 20
894.8097506457265
 10
300.0027465701546
 20
894.8097506457265
 10
298.7773232362916
 20
896.0351739795894
 10
296.32647656856557
 20
896.0351739795894
 10
296.32647656856557
 20
902.1622906489046
 10
297.5518999024286
 20
903.3877139827675
 10
307.35528657333265
 20
903.3877139827675
 10
307.35528657333265
 20
900.9368673150416
 10
306.1298632394696
 20
899.7114439811785
 10
307.35528657333265
 20
898.4860206473155
 10
312.2569799087847
 20
898.4860206473155
 10
313.4824032426477
 20
899.7114439811785
 10
313.4824032426477
 20
904.6131373166305
 10
314.7078265765107
 20
903.3877139827675
 10
323.28578991355175
 20
903.3877139827675
 10
323.28578991355175
 20
899.7114439811785
 10
324.51121324741473
 20
898.4860206473155
 10
330.6383299167298
 20
898.4860206473155
 10
331.8637532505928
 20
899.7114439811785
 10
330.6383299167298
 20
900.9368673150416
 10
330.6383299167298
 20
902.1622906489046
 10
341.66713992149687
 20
902.1622906489046
 10
341.66713992149687
 20
899.7114439811785
 10
342.8925632553599
 20
898.4860206473155
 10
345.3434099230859
 20
898.4860206473155
 10
346.5688332569489
 20
899.7114439811785
 10
346.5688332569489
 20
900.9368673150416
 10
347.7942565908119
 20
902.1622906489046
 10
347.7942565908119
 20
904.6131373166305
 10
349.0196799246749
 20
905.8385606504936
 10
349.0196799246749
 20
908.2894073182196
 10
350.24510325853794
 20
909.5148306520825
 10
350.24510325853794
 20
910.7402539859456
 10
350.24510325853794
 20
909.5148306520825
 10
351.4705265924009
 20
908.2894073182196
 10
351.4705265924009
 20
905.8385606504936
 10
352.69594992626395
 20
904.6131373166305
 10
352.69594992626395
 20
903.3877139827675
 10
353.9213732601269
 20
902.1622906489046
 10
353.9213732601269
 20
899.7114439811785
 10
355.14679659398996
 20
898.4860206473155
 10
391.9094966098802
 20
898.4860206473155
 10
393.1349199437432
 20
899.7114439811785
 10
394.3603432776062
 20
899.7114439811785
 10
395.58576661146924
 20
900.9368673150416
 10
398.03661327919525
 20
900.9368673150416
 10
399.2620366130582
 20
902.1622906489046
 10
401.7128832807843
 20
902.1622906489046
 10
401.7128832807843
 20
899.7114439811785
 10
402.9383066146473
 20
898.4860206473155
 10
404.1637299485103
 20
898.4860206473155
 10
405.3891532823733
 20
899.7114439811785
 10
404.1637299485103
 20
900.9368673150416
 10
404.1637299485103
 20
903.3877139827675
 10
405.3891532823733
 20
903.3877139827675
 10
406.6145766162363
 20
904.6131373166305
 10
407.8399999500993
 20
904.6131373166305
 10
409.06542328396233
 20
905.8385606504936
 10
410.2908466178253
 20
905.8385606504936
 10
411.51626995168834
 20
907.0639839843566
 10
412.7416932855513
 20
907.0639839843566
 10
413.96711661941436
 20
908.2894073182196
 10
416.41796328714037
 20
908.2894073182196
 10
416.41796328714037
 20
907.0639839843566
 10
417.6433866210034
 20
905.8385606504936
 10
417.6433866210034
 20
904.6131373166305
 10
418.8688099548664
 20
903.3877139827675
 10
418.8688099548664
 20
902.1622906489046
 10
420.0942332887294
 20
900.9368673150416
 10
420.0942332887294
 20
899.7114439811785
 10
421.3196566225924
 20
898.4860206473155
 10
422.5450799564554
 20
898.4860206473155
 10
423.7705032903184
 20
897.2605973134525
 10
424.99592662418144
 20
898.4860206473155
 10
429.89761995963346
 20
898.4860206473155
 10
431.1230432934965
 20
899.7114439811785
 10
432.34846662735947
 20
899.7114439811785
 10
433.5738899612225
 20
900.9368673150416
 10
434.7993132950855
 20
900.9368673150416
 10
434.7993132950855
 20
899.7114439811785
 10
436.0247366289485
 20
898.4860206473155
 10
437.2501599628115
 20
898.4860206473155
 10
437.2501599628115
 20
897.2605973134525
 10
438.47558329667453
 20
896.0351739795894
 10
438.47558329667453
 20
894.8097506457265
 10
439.7010066305375
 20
893.5843273118635
 10
439.7010066305375
 20
892.3589039780005
 10
440.92642996440054
 20
891.1334806441374
 10
442.1518532982635
 20
891.1334806441374
 10
443.37727663212655
 20
892.3589039780005
 10
444.60269996598953
 20
892.3589039780005
 10
445.82812329985256
 20
893.5843273118635
 10
447.0535466337156
 20
893.5843273118635
 10
448.2789699675786
 20
894.8097506457265
 10
449.5043933014416
 20
894.8097506457265
 10
451.9552399691676
 20
897.2605973134525
 10
453.1806633030306
 20
897.2605973134525
 10
454.40608663689363
 20
898.4860206473155
 10
458.0823566384826
 20
898.4860206473155
 10
460.5332033062087
 20
900.9368673150416
 10
461.75862664007167
 20
900.9368673150416
 10
464.2094733077977
 20
903.3877139827675
 10
465.4348966416607
 20
903.3877139827675
 10
466.6603199755237
 20
904.6131373166305
 10
467.8857433093867
 20
904.6131373166305
 10
470.33658997711274
 20
907.0639839843566
 10
472.78743664483875
 20
907.0639839843566
 10
472.78743664483875
 20
905.8385606504936
 10
474.0128599787017
 20
904.6131373166305
 10
474.0128599787017
 20
903.3877139827675
 10
476.4637066464278
 20
900.9368673150416
 10
476.4637066464278
 20
899.7114439811785
 10
477.6891299802908
 20
898.4860206473155
 10
478.9145533141538
 20
898.4860206473155
 10
480.1399766480168
 20
897.2605973134525
 10
481.3653999818798
 20
898.4860206473155
 10
483.81624664960583
 20
898.4860206473155
 10
485.0416699834688
 20
899.7114439811785
 10
486.26709331733184
 20
898.4860206473155
 10
487.4925166511948
 20
898.4860206473155
 10
488.71793998505785
 20
899.7114439811785
 10
487.4925166511948
 20
900.9368673150416
 10
489.9433633189209
 20
903.3877139827675
 10
491.16878665278387
 20
903.3877139827675
 10
493.6196333205099
 20
905.8385606504936
 10
494.8450566543729
 20
905.8385606504936
 10
497.2959033220989
 20
908.2894073182196
 10
499.74674998982493
 20
908.2894073182196
 10
499.74674998982493
 20
907.0639839843566
 10
503.4230199914139
 20
903.3877139827675
 10
503.4230199914139
 20
902.1622906489046
 10
507.09928999300297
 20
898.4860206473155
 10
516.9026766639071
 20
898.4860206473155
 10
518.12809999777
 20
899.7114439811785
 10
516.9026766639071
 20
900.9368673150416
 10
516.9026766639071
 20
903.3877139827675
 10
519.353523331633
 20
903.3877139827675
 10
519.353523331633
 20
900.9368673150416
 10
520.5789466654961
 20
899.7114439811785
 10
520.5789466654961
 20
898.4860206473155
 10
523.0297933332221
 20
896.0351739795894
 10
529.1569100025371
 20
896.0351739795894
 10
530.3823333364002
 20
897.2605973134525
 10
530.3823333364002
 20
900.9368673150416
 10
531.6077566702631
 20
900.9368673150416
 10
532.8331800041261
 20
902.1622906489046
 10
535.2840266718522
 20
902.1622906489046
 10
536.5094500057152
 20
903.3877139827675
 10
540.1857200073042
 20
903.3877139827675
 10
540.1857200073042
 20
902.1622906489046
 10
541.4111433411672
 20
900.9368673150416
 10
541.4111433411672
 20
899.7114439811785
 10
542.6365666750302
 20
898.4860206473155
 10
543.8619900088933
 20
898.4860206473155
 10
543.8619900088933
 20
896.0351739795894
 10
545.0874133427562
 20
894.8097506457265
 10
545.0874133427562
 20
893.5843273118635
 10
547.5382600104822
 20
891.1334806441374
 10
548.7636833443453
 20
892.3589039780005
 10
549.9891066782083
 20
892.3589039780005
 10
551.2145300120712
 20
893.5843273118635
 10
552.4399533459343
 20
893.5843273118635
 10
553.6653766797973
 20
894.8097506457265
 10
554.8908000136603
 20
894.8097506457265
 10
556.1162233475233
 20
896.0351739795894
 10
557.3416466813864
 20
896.0351739795894
 10
558.5670700152493
 20
897.2605973134525
 10
558.5670700152493
 20
898.4860206473155
 10
558.5670700152493
 20
897.2605973134525
 10
559.7924933491123
 20
896.0351739795894
 10
559.7924933491123
 20
894.8097506457265
 10
561.0179166829753
 20
893.5843273118635
 10
562.2433400168384
 20
893.5843273118635
 10
563.4687633507014
 20
894.8097506457265
 10
565.9196100184274
 20
894.8097506457265
 10
567.1450333522904
 20
896.0351739795894
 10
568.3704566861534
 20
896.0351739795894
 10
569.5958800200164
 20
897.2605973134525
 10
570.8213033538794
 20
897.2605973134525
 10
572.0467266877424
 20
898.4860206473155
 10
574.4975733554684
 20
898.4860206473155
 10
575.7229966893315
 20
899.7114439811785
 10
574.4975733554684
 20
900.9368673150416
 10
574.4975733554684
 20
902.1622906489046
 10
575.7229966893315
 20
903.3877139827675
 10
578.1738433570574
 20
903.3877139827675
 10
579.3992666909205
 20
904.6131373166305
 10
580.6246900247835
 20
904.6131373166305
 10
581.8501133586465
 20
905.8385606504936
 10
584.3009600263725
 20
905.8385606504936
 10
584.3009600263725
 20
904.6131373166305
 10
585.5263833602355
 20
903.3877139827675
 10
585.5263833602355
 20
899.7114439811785
 10
586.7518066940985
 20
898.4860206473155
 10
592.8789233634135
 20
898.4860206473155
 10
594.1043466972766
 20
899.7114439811785
 10
599.0060400327286
 20
899.7114439811785
 10
600.2314633665916
 20
900.9368673150416
 10
601.4568867004546
 20
900.9368673150416
 10
601.4568867004546
 20
899.7114439811785
 10
603.9077333681806
 20
897.2605973134525
 10
603.9077333681806
 20
896.0351739795894
 10
605.1331567020436
 20
894.8097506457265
 10
605.1331567020436
 20
892.3589039780005
 10
603.9077333681806
 20
892.3589039780005
 10
602.6823100343177
 20
891.1334806441374
 10
601.4568867004546
 20
891.1334806441374
 10
600.2314633665916
 20
889.9080573102744
 10
599.0060400327286
 20
891.1334806441374
 10
597.7806166988656
 20
889.9080573102744
 10
597.7806166988656
 20
888.6826339764115
 10
596.5551933650025
 20
888.6826339764115
 10
594.1043466972766
 20
886.2317873086854
 10
594.1043466972766
 20
885.0063639748224
 10
595.3297700311396
 20
883.7809406409594
 10
595.3297700311396
 20
882.5555173070964
 10
596.5551933650025
 20
881.3300939732334
 10
596.5551933650025
 20
878.8792473055074
 10
597.7806166988656
 20
877.6538239716443
 10
597.7806166988656
 20
872.7521306361923
 10
600.2314633665916
 20
870.3012839684664
 10
600.2314633665916
 20
869.0758606346033
 10
601.4568867004546
 20
867.8504373007403
 10
601.4568867004546
 20
866.6250139668773
 10
600.2314633665916
 20
865.3995906330143
 10
601.4568867004546
 20
864.1741672991512
 10
602.6823100343177
 20
864.1741672991512
 10
602.6823100343177
 20
862.9487439652883
 10
603.9077333681806
 20
861.7233206314253
 10
603.9077333681806
 20
859.2724739636992
 10
605.1331567020436
 20
858.0470506298362
 10
605.1331567020436
 20
856.8216272959733
 10
606.3585800359066
 20
855.5962039621103
 10
606.3585800359066
 20
853.1453572943842
 10
605.1331567020436
 20
853.1453572943842
 10
603.9077333681806
 20
851.9199339605212
 10
601.4568867004546
 20
851.9199339605212
 10
600.2314633665916
 20
850.6945106266581
 10
599.0060400327286
 20
851.9199339605212
 10
597.7806166988656
 20
850.6945106266581
 10
597.7806166988656
 20
849.4690872927952
 10
595.3297700311396
 20
847.0182406250692
 10
595.3297700311396
 20
845.7928172912061
 10
596.5551933650025
 20
844.5673939573431
 10
596.5551933650025
 20
843.3419706234802
 10
597.7806166988656
 20
842.1165472896172
 10
597.7806166988656
 20
834.7640072864391
 10
600.2314633665916
 20
832.313160618713
 10
600.2314633665916
 20
828.6368906171241
 10
601.4568867004546
 20
827.411467283261
 10
601.4568867004546
 20
826.186043949398
 10
602.6823100343177
 20
824.960620615535
 10
602.6823100343177
 20
822.509773947809
 10
603.9077333681806
 20
821.284350613946
 10
603.9077333681806
 20
820.058927280083
 10
605.1331567020436
 20
818.8335039462199
 10
605.1331567020436
 20
815.157233944631
 10
600.2314633665916
 20
815.157233944631
 10
599.0060400327286
 20
816.382657278494
 10
597.7806166988656
 20
815.157233944631
 10
597.7806166988656
 20
804.1284239398639
 10
599.0060400327286
 20
802.9030006060009
 10
600.2314633665916
 20
802.9030006060009
 10
607.5840033697697
 20
795.5504606028228
 10
601.4568867004546
 20
789.4233439335078
 10
601.4568867004546
 20
788.1979205996448
 10
600.2314633665916
 20
786.9724972657817
 10
599.0060400327286
 20
786.9724972657817
 10
597.7806166988656
 20
785.7470739319187
 10
597.7806166988656
 20
782.0708039303297
 10
590.4280766956875
 20
774.7182639271517
 10
597.7806166988656
 20
767.3657239239736
 10
597.7806166988656
 20
763.6894539223846
 10
599.0060400327286
 20
762.4640305885216
 10
600.2314633665916
 20
762.4640305885216
 10
601.4568867004546
 20
761.2386072546586
 10
601.4568867004546
 20
760.0131839207955
 10
605.1331567020436
 20
756.3369139192066
 10
605.1331567020436
 20
755.1114905853435
 10
607.5840033697697
 20
752.6606439176176
 10
606.3585800359066
 20
751.4352205837546
 10
606.3585800359066
 20
750.2097972498915
 10
605.1331567020436
 20
748.9843739160285
 10
605.1331567020436
 20
747.7589505821655
 10
603.9077333681806
 20
746.5335272483024
 10
603.9077333681806
 20
745.3081039144395
 10
602.6823100343177
 20
744.0826805805765
 10
602.6823100343177
 20
742.8572572467135
 10
601.4568867004546
 20
741.6318339128504
 10
601.4568867004546
 20
736.7301405773984
 10
600.2314633665916
 20
735.5047172435354
 10
600.2314633665916
 20
736.7301405773984
 10
599.0060400327286
 20
737.9555639112615
 10
597.7806166988656
 20
736.7301405773984
 10
597.7806166988656
 20
730.6030239080834
 10
596.5551933650025
 20
729.3776005742204
 10
595.3297700311396
 20
729.3776005742204
 10
594.1043466972766
 20
728.1521772403573
 10
592.8789233634135
 20
728.1521772403573
 10
590.4280766956875
 20
725.7013305726314
 10
590.4280766956875
 20
724.4759072387684
 10
595.3297700311396
 20
719.5742139033163
 10
595.3297700311396
 20
718.3487905694533
 10
597.7806166988656
 20
715.8979439017273
 10
597.7806166988656
 20
710.9962505662753
 10
599.0060400327286
 20
709.7708272324122
 10
600.2314633665916
 20
710.9962505662753
 10
601.4568867004546
 20
709.7708272324122
 10
601.4568867004546
 20
708.5454038985492
 10
607.5840033697697
 20
702.4182872292342
 10
607.5840033697697
 20
701.1928638953711
 10
605.1331567020436
 20
698.7420172276452
 10
603.9077333681806
 20
698.7420172276452
 10
600.2314633665916
 20
695.0657472260561
 10
599.0060400327286
 20
695.0657472260561
 10
597.7806166988656
 20
693.8403238921932
 10
597.7806166988656
 20
668.10643388107
 10
599.0060400327286
 20
666.881010547207
 10
600.2314633665916
 20
666.881010547207
 10
608.8094267036327
 20
658.3030472101659
 10
607.5840033697697
 20
657.0776238763029
 10
606.3585800359066
 20
657.0776238763029
 10
605.1331567020436
 20
655.8522005424398
 10
602.6823100343177
 20
655.8522005424398
 10
601.4568867004546
 20
654.6267772085769
 10
599.0060400327286
 20
654.6267772085769
 10
597.7806166988656
 20
653.4013538747139
 10
597.7806166988656
 20
647.2742372053989
 10
599.0060400327286
 20
646.0488138715358
 10
600.2314633665916
 20
646.0488138715358
 10
603.9077333681806
 20
642.3725438699468
 10
602.6823100343177
 20
642.3725438699468
 10
600.2314633665916
 20
639.9216972022208
 10
599.0060400327286
 20
639.9216972022208
 10
597.7806166988656
 20
638.6962738683578
 10
597.7806166988656
 20
635.0200038667688
 10
595.3297700311396
 20
632.5691571990427
 10
596.5551933650025
 20
631.3437338651797
 10
596.5551933650025
 20
630.1183105313168
 10
597.7806166988656
 20
628.8928871974537
 10
597.7806166988656
 20
623.9911938620016
 10
599.0060400327286
 20
622.7657705281387
 10
600.2314633665916
 20
622.7657705281387
 10
600.2314633665916
 20
621.5403471942756
 10
601.4568867004546
 20
620.3149238604126
 10
601.4568867004546
 20
619.0895005265496
 10
600.2314633665916
 20
617.8640771926865
 10
599.0060400327286
 20
619.0895005265496
 10
597.7806166988656
 20
617.8640771926865
 10
597.7806166988656
 20
615.4132305249606
 10
596.5551933650025
 20
615.4132305249606
 10
595.3297700311396
 20
614.1878071910976
 10
594.1043466972766
 20
614.1878071910976
 10
591.6535000295505
 20
611.7369605233715
 10
594.1043466972766
 20
609.2861138556456
 10
592.8789233634135
 20
610.5115371895085
 10
590.4280766956875
 20
610.5115371895085
 10
589.2026533618246
 20
609.2861138556456
 10
587.9772300279615
 20
609.2861138556456
 10
586.7518066940985
 20
608.0606905217825
 10
585.5263833602355
 20
608.0606905217825
 10
584.3009600263725
 20
606.8352671879195
 10
581.8501133586465
 20
606.8352671879195
 10
579.3992666909205
 20
604.3844205201934
 10
579.3992666909205
 20
603.1589971863305
 10
580.6246900247835
 20
601.9335738524675
 10
580.6246900247835
 20
600.7081505186045
 10
575.7229966893315
 20
600.7081505186045
 10
574.4975733554684
 20
601.9335738524675
 10
574.4975733554684
 20
603.1589971863305
 10
573.2721500216054
 20
604.3844205201934
 10
572.0467266877424
 20
604.3844205201934
 10
568.3704566861534
 20
600.7081505186045
 10
564.6941866845643
 20
600.7081505186045
 10
562.2433400168384
 20
598.2573038508784
 10
562.2433400168384
 20
599.4827271847414
 10
561.0179166829753
 20
600.7081505186045
 10
558.5670700152493
 20
600.7081505186045
 10
554.8908000136603
 20
604.3844205201934
 10
554.8908000136603
 20
605.6098438540565
 10
551.2145300120712
 20
609.2861138556456
 10
549.9891066782083
 20
609.2861138556456
 10
543.8619900088933
 20
603.1589971863305
 10
543.8619900088933
 20
601.9335738524675
 10
542.6365666750302
 20
600.7081505186045
 10
538.9602966734412
 20
600.7081505186045
 10
535.2840266718522
 20
604.3844205201934
 10
534.0586033379891
 20
604.3844205201934
 10
531.6077566702631
 20
606.8352671879195
 10
530.3823333364002
 20
606.8352671879195
 10
529.1569100025371
 20
608.0606905217825
 10
527.9314866686741
 20
608.0606905217825
 10
525.4806400009481
 20
610.5115371895085
 10
524.255216667085
 20
610.5115371895085
 10
523.0297933332221
 20
611.7369605233715
 10
521.8043699993591
 20
611.7369605233715
 10
520.5789466654961
 20
610.5115371895085
 10
520.5789466654961
 20
609.2861138556456
 10
521.8043699993591
 20
608.0606905217825
 10
521.8043699993591
 20
605.6098438540565
 10
523.0297933332221
 20
604.3844205201934
 10
523.0297933332221
 20
601.9335738524675
 10
524.255216667085
 20
600.7081505186045
 10
515.677253330044
 20
600.7081505186045
 10
514.451829996181
 20
601.9335738524675
 10
513.226406662318
 20
601.9335738524675
 10
512.000983328455
 20
603.1589971863305
 10
509.550136660729
 20
603.1589971863305
 10
508.324713326866
 20
604.3844205201934
 10
505.87386665914
 20
604.3844205201934
 10
504.64844332527696
 20
605.6098438540565
 10
502.19759665755095
 20
603.1589971863305
 10
503.4230199914139
 20
601.9335738524675
 10
503.4230199914139
 20
600.7081505186045
 10
500.9721733236879
 20
600.7081505186045
 10
499.74674998982493
 20
599.4827271847414
 10
498.5213266559619
 20
599.4827271847414
 10
497.2959033220989
 20
598.2573038508784
 10
496.0704799882359
 20
598.2573038508784
 10
494.8450566543729
 20
597.0318805170155
 10
493.6196333205099
 20
597.0318805170155
 10
493.6196333205099
 20
599.4827271847414
 10
492.3942099866469
 20
600.7081505186045
 10
491.16878665278387
 20
600.7081505186045
 10
489.9433633189209
 20
599.4827271847414
 10
489.9433633189209
 20
598.2573038508784
 10
491.16878665278387
 20
597.0318805170155
 10
491.16878665278387
 20
595.8064571831525
 10
489.9433633189209
 20
595.8064571831525
 10
489.9433633189209
 20
597.0318805170155
 10
488.71793998505785
 20
598.2573038508784
 10
488.71793998505785
 20
599.4827271847414
 10
487.4925166511948
 20
600.7081505186045
 10
483.81624664960583
 20
600.7081505186045
 10
482.5908233157428
 20
599.4827271847414
 10
481.3653999818798
 20
599.4827271847414
 10
480.1399766480168
 20
598.2573038508784
 10
478.9145533141538
 20
598.2573038508784
 10
477.6891299802908
 20
597.0318805170155
 10
476.4637066464278
 20
597.0318805170155
 10
475.23828331256476
 20
595.8064571831525
 10
474.0128599787017
 20
595.8064571831525
 10
469.1111666432497
 20
600.7081505186045
 10
466.6603199755237
 20
600.7081505186045
 10
465.4348966416607
 20
599.4827271847414
 10
456.85693330461964
 20
599.4827271847414
 10
455.6315099707566
 20
600.7081505186045
 10
454.40608663689363
 20
600.7081505186045
 10
453.1806633030306
 20
599.4827271847414
 10
445.82812329985256
 20
599.4827271847414
 10
444.60269996598953
 20
600.7081505186045
 10
443.37727663212655
 20
600.7081505186045
 10
442.1518532982635
 20
599.4827271847414
 10
442.1518532982635
 20
598.2573038508784
 10
439.7010066305375
 20
598.2573038508784
 10
438.47558329667453
 20
597.0318805170155
 10
434.7993132950855
 20
597.0318805170155
 10
434.7993132950855
 20
599.4827271847414
 10
433.5738899612225
 20
600.7081505186045
 10
433.5738899612225
 20
606.8352671879195
 10
432.34846662735947
 20
608.0606905217825
 10
429.89761995963346
 20
608.0606905217825
 10
428.6721966257704
 20
606.8352671879195
 10
424.99592662418144
 20
606.8352671879195
 10
423.7705032903184
 20
605.6098438540565
 10
421.3196566225924
 20
605.6098438540565
 10
420.0942332887294
 20
604.3844205201934
 10
416.41796328714037
 20
604.3844205201934
 10
415.1925399532774
 20
603.1589971863305
 10
412.7416932855513
 20
603.1589971863305
 10
410.2908466178253
 20
600.7081505186045
 10
396.8111899453322
 20
600.7081505186045
 10
395.58576661146924
 20
601.9335738524675
 10
395.58576661146924
 20
603.1589971863305
 10
394.3603432776062
 20
604.3844205201934
 10
394.3603432776062
 20
605.6098438540565
 10
391.9094966098802
 20
608.0606905217825
 10
391.9094966098802
 20
609.2861138556456
 10
390.6840732760172
 20
610.5115371895085
 10
390.6840732760172
 20
611.7369605233715
 10
389.4586499421542
 20
612.9623838572345
 10
378.4298399373871
 20
601.9335738524675
 10
377.2044166035241
 20
603.1589971863305
 10
371.07729993420907
 20
603.1589971863305
 10
367.40102993262
 20
599.4827271847414
 10
367.40102993262
 20
598.2573038508784
 10
366.17560659875704
 20
597.0318805170155
 10
366.17560659875704
 20
594.5810338492894
 10
355.14679659398996
 20
594.5810338492894
  0
ENDSEC
  0
SECTION
  2
OBJECTS
  0
DICTIONARY
  5
A
330
0
100
AcDbDictionary
281
1
  3
ACAD_COLOR
350
B
  3
ACAD_GROUP
350
C
  3
ACAD_LAYOUT
350
D
  3
ACAD_MATERIAL
350
E
  3
ACAD_MLEADERSTYLE
350
F
  3
ACAD_MLINESTYLE
350
10
  3
ACAD_PLOTSETTINGS
350
11
  3
ACAD_PLOTSTYLENAME
350
12
  3
ACAD_SCALELIST
350
14
  3
ACAD_TABLESTYLE
350
15
  3
ACAD_VISUALSTYLE
350
16
  3
EZDXF_META
350
2D
  0
DICTIONARY
  5
B
330
A
100
AcDbDictionary
281
1
  0
DICTIONARY
  5
C
330
A
100
AcDbDictionary
281
1
  0
DICTIONARY
  5
D
330
A
100
AcDbDictionary
281
1
  3
Model
350
1A
  3
Layout1
350
1E
  0
DICTIONARY
  5
E
330
A
100
AcDbDictionary
281
1
  3
ByBlock
350
1F
  3
ByLayer
350
20
  3
Global
350
21
  0
DICTIONARY
  5
F
330
A
100
AcDbDictionary
281
1
  3
Standard
350
2C
  0
DICTIONARY
  5
10
330
A
100
AcDbDictionary
281
1
  3
Standard
350
22
  0
DICTIONARY
  5
11
330
A
100
AcDbDictionary
281
1
  0
ACDBDICTIONARYWDFLT
  5
12
330
A
100
AcDbDictionary
281
1
  3
Normal
350
13
100
AcDbDictionaryWithDefault
340
13
  0
ACDBPLACEHOLDER
  5
13
330
12
  0
DICTIONARY
  5
14
330
A
100
AcDbDictionary
281
1
  0
DICTIONARY
  5
15
330
A
100
AcDbDictionary
281
1
  0
DICTIONARY
  5
16
330
A
100
AcDbDictionary
281
1
  0
LAYOUT
  5
1A
330
D
100
AcDbPlotSettings
  1

  4
A3
  6

 40
7.5
 41
20.0
 42
7.5
 43
20.0
 44
420.0
 45
297.0
 46
0.0
 47
0.0
 48
0.0
 49
0.0
140
0.0
141
0.0
142
1.0
143
1.0
 70
1024
 72
1
 73
0
 74
5
  7

 75
16
 76
0
 77
2
 78
300
147
1.0
148
0.0
149
0.0
100
AcDbLayout
  1
Model
 70
1
 71
0
 10
0.0
 20
0.0
 11
420.0
 21
297.0
 12
0.0
 22
0.0
 32
0.0
 14
1e+20
 24
1e+20
 34
1e+20
 15
-1e+20
 25
-1e+20
 35
-1e+20
146
0.0
 13
0.0
 23
0.0
 33
0.0
 16
1.0
 26
0.0
 36
0.0
 17
0.0
 27
1.0
 37
0.0
 76
1
330
17
  0
LAYOUT
  5
1E
330
D
100
AcDbPlotSettings
  1

  4
A3
  6

 40
7.5
 41
20.0
 42
7.5
 43
20.0
 44
420.0
 45
297.0
 46
0.0
 47
0.0
 48
0.0
 49
0.0
140
0.0
141
0.0
142
1.0
143
1.0
 70
0
 72
1
 73
0
 74
5
  7

 75
16
 76
0
 77
2
 78
300
147
1.0
148
0.0
149
0.0
100
AcDbLayout
  1
Layout1
 70
1
 71
1
 10
0.0
 20
0.0
 11
420.0
 21
297.0
 12
0.0
 22
0.0
 32
0.0
 14
1e+20
 24
1e+20
 34
1e+20
 15
-1e+20
 25
-1e+20
 35
-1e+20
146
0.0
 13
0.0
 23
0.0
 33
0.0
 16
1.0
 26
0.0
 36
0.0
 17
0.0
 27
1.0
 37
0.0
 76
1
330
1B
  0
MATERIAL
  5
1F
102
{ACAD_REACTORS
330
E
102
}
330
E
100
AcDbMaterial
  1
ByBlock
  2

 70
0
 40
1.0
 71
1
 41
1.0
 91
-1023410177
 42
1.0
 72
1
  3

 73
1
 74
1
 75
1
 44
0.5
 73
0
 45
1.0
 46
1.0
 77
1
  4

 78
1
 79
1
170
1
 48
1.0
171
1
  6

172
1
173
1
174
1
140
1.0
141
1.0
175
1
  7

176
1
177
1
178
1
143
1.0
179
1
  8

270
1
271
1
272
1
145
1.0
146
1.0
273
1
  9

274
1
275
1
276
1
 42
1.0
 72
1
  3

 73
1
 74
1
 75
1
 94
63
  0
MATERIAL
  5
20
102
{ACAD_REACTORS
330
E
102
}
330
E
100
AcDbMaterial
  1
ByLayer
  2

 70
0
 40
1.0
 71
1
 41
1.0
 91
-1023410177
 42
1.0
 72
1
  3

 73
1
 74
1
 75
1
 44
0.5
 73
0
 45
1.0
 46
1.0
 77
1
  4

 78
1
 79
1
170
1
 48
1.0
171
1
  6

172
1
173
1
174
1
140
1.0
141
1.0
175
1
  7

176
1
177
1
178
1
143
1.0
179
1
  8

270
1
271
1
272
1
145
1.0
146
1.0
273
1
  9

274
1
275
1
276
1
 42
1.0
 72
1
  3

 73
1
 74
1
 75
1
 94
63
  0
MATERIAL
  5
21
102
{ACAD_REACTORS
330
E
102
}
330
E
100
AcDbMaterial
  1
Global
  2

 70
0
 40
1.0
 71
1
 41
1.0
 91
-1023410177
 42
1.0
 72
1
  3

 73
1
 74
1
 75
1
 44
0.5
 73
0
 45
1.0
 46
1.0
 77
1
  4

 78
1
 79
1
170
1
 48
1.0
171
1
  6

172
1
173
1
174
1
140
1.0
141
1.0
175
1
  7

176
1
177
1
178
1
143
1.0
179
1
  8

270
1
271
1
272
1
145
1.0
146
1.0
273
1
  9

274
1
275
1
276
1
 42
1.0
 72
1
  3

 73
1
 74
1
 75
1
 94
63
  0
MLINESTYLE
  5
22
102
{ACAD_REACTORS
330
10
102
}
330
10
100
AcDbMlineStyle
  2
Standard
 70
0
  3

 62
256
 51
90.0
 52
90.0
 71
2
 49
0.5
 62
256
  6
BYLAYER
 49
-0.5
 62
256
  6
BYLAYER
  0
MLEADERSTYLE
  5
2C
102
{ACAD_REACTORS
330
F
102
}
330
F
100
AcDbMLeaderStyle
179
2
170
2
171
1
172
0
 90
2
 40
0.0
 41
0.0
173
1
 91
-1056964608
 92
-2
290
1
 42
2.0
291
1
 43
8.0
  3
Standard
 44
4.0
300

342
29
174
1
175
1
176
0
178
1
 93
-1056964608
 45
4.0
292
0
297
0
 46
4.0
 94
-1056964608
 47
1.0
 49
1.0
140
1.0
294
1
141
0.0
177
0
142
1.0
295
0
296
0
143
3.75
271
0
272
9
273
9
  0
DICTIONARY
  5
2D
330
A
100
AcDbDictionary
280
1
281
1
  3
CREATED_BY_EZDXF
350
2E
  3
WRITTEN_BY_EZDXF
350
36
  0
DICTIONARYVAR
  5
2E
330
2D
100
DictionaryVariables
280
0
  1
1.4.2 @ 2025-08-24T12:13:48.566514+00:00
  0
DICTIONARYVAR
  5
36
330
2D
100
DictionaryVariables
280
0
  1
1.4.2 @ 2025-08-24T12:13:48.569513+00:00
  0
ENDSEC
  0
EOF
