  0
SECTION
  2
HEADER
  9
$ACADVER
  1
AC1024
  9
$ACADMAINTVER
 70
6
  9
$DWGCODEPAGE
  3
ANSI_1252
  9
$LASTSAVEDBY
  1
ezdxf
  9
$INSBASE
 10
0.0
 20
0.0
 30
0.0
  9
$EXTMIN
 10
1e+20
 20
1e+20
 30
1e+20
  9
$EXTMAX
 10
-1e+20
 20
-1e+20
 30
-1e+20
  9
$LIMMIN
 10
0.0
 20
0.0
  9
$LIMMAX
 10
420.0
 20
297.0
  9
$ORTHOMODE
 70
0
  9
$REGENMODE
 70
1
  9
$FILLMODE
 70
1
  9
$QTEXTMODE
 70
0
  9
$MIRRTEXT
 70
1
  9
$LTSCALE
 40
1.0
  9
$ATTMODE
 70
1
  9
$TEXTSIZE
 40
2.5
  9
$TRACEWID
 40
1.0
  9
$TEXTSTYLE
  7
Standard
  9
$CLAYER
  8
0
  9
$CELTYPE
  6
ByLayer
  9
$CECOLOR
 62
256
  9
$CELTSCALE
 40
1.0
  9
$DISPSILH
 70
0
  9
$DIMSCALE
 40
1.0
  9
$DIMASZ
 40
2.5
  9
$DIMEXO
 40
0.625
  9
$DIMDLI
 40
3.75
  9
$DIMRND
 40
0.0
  9
$DIMDLE
 40
0.0
  9
$DIMEXE
 40
1.25
  9
$DIMTP
 40
0.0
  9
$DIMTM
 40
0.0
  9
$DIMTXT
 40
2.5
  9
$DIMCEN
 40
2.5
  9
$DIMTSZ
 40
0.0
  9
$DIMTOL
 70
0
  9
$DIMLIM
 70
0
  9
$DIMTIH
 70
0
  9
$DIMTOH
 70
0
  9
$DIMSE1
 70
0
  9
$DIMSE2
 70
0
  9
$DIMTAD
 70
1
  9
$DIMZIN
 70
8
  9
$DIMBLK
  1

  9
$DIMASO
 70
1
  9
$DIMSHO
 70
1
  9
$DIMPOST
  1

  9
$DIMAPOST
  1

  9
$DIMALT
 70
0
  9
$DIMALTD
 70
3
  9
$DIMALTF
 40
0.03937007874
  9
$DIMLFAC
 40
1.0
  9
$DIMTOFL
 70
1
  9
$DIMTVP
 40
0.0
  9
$DIMTIX
 70
0
  9
$DIMSOXD
 70
0
  9
$DIMSAH
 70
0
  9
$DIMBLK1
  1

  9
$DIMBLK2
  1

  9
$DIMSTYLE
  2
ISO-25
  9
$DIMCLRD
 70
0
  9
$DIMCLRE
 70
0
  9
$DIMCLRT
 70
0
  9
$DIMTFAC
 40
1.0
  9
$DIMGAP
 40
0.625
  9
$DIMJUST
 70
0
  9
$DIMSD1
 70
0
  9
$DIMSD2
 70
0
  9
$DIMTOLJ
 70
0
  9
$DIMTZIN
 70
8
  9
$DIMALTZ
 70
0
  9
$DIMALTTZ
 70
0
  9
$DIMUPT
 70
0
  9
$DIMDEC
 70
2
  9
$DIMTDEC
 70
2
  9
$DIMALTU
 70
2
  9
$DIMALTTD
 70
3
  9
$DIMTXSTY
  7
Standard
  9
$DIMAUNIT
 70
0
  9
$DIMADEC
 70
0
  9
$DIMALTRND
 40
0.0
  9
$DIMAZIN
 70
0
  9
$DIMDSEP
 70
44
  9
$DIMATFIT
 70
3
  9
$DIMFRAC
 70
0
  9
$DIMLDRBLK
  1

  9
$DIMLUNIT
 70
2
  9
$DIMLWD
 70
-2
  9
$DIMLWE
 70
-2
  9
$DIMTMOVE
 70
0
  9
$DIMFXL
 40
1.0
  9
$DIMFXLON
 70
0
  9
$DIMJOGANG
 40
0.785398163397
  9
$DIMTFILL
 70
0
  9
$DIMTFILLCLR
 70
0
  9
$DIMARCSYM
 70
0
  9
$DIMLTYPE
  6

  9
$DIMLTEX1
  6

  9
$DIMLTEX2
  6

  9
$DIMTXTDIRECTION
 70
0
  9
$LUNITS
 70
2
  9
$LUPREC
 70
4
  9
$SKETCHINC
 40
1.0
  9
$FILLETRAD
 40
10.0
  9
$AUNITS
 70
0
  9
$AUPREC
 70
2
  9
$MENU
  1
.
  9
$ELEVATION
 40
0.0
  9
$PELEVATION
 40
0.0
  9
$THICKNESS
 40
0.0
  9
$LIMCHECK
 70
0
  9
$CHAMFERA
 40
0.0
  9
$CHAMFERB
 40
0.0
  9
$CHAMFERC
 40
0.0
  9
$CHAMFERD
 40
0.0
  9
$SKPOLY
 70
0
  9
$TDCREATE
 40
2460912.6345833335
  9
$TDUCREATE
 40
2458532.153996898
  9
$TDUPDATE
 40
2460912.6345833335
  9
$TDUUPDATE
 40
2458532.1544311
  9
$TDINDWG
 40
0.0
  9
$TDUSRTIMER
 40
0.0
  9
$USRTIMER
 70
1
  9
$ANGBASE
 50
0.0
  9
$ANGDIR
 70
0
  9
$PDMODE
 70
0
  9
$PDSIZE
 40
0.0
  9
$PLINEWID
 40
0.0
  9
$SPLFRAME
 70
0
  9
$SPLINETYPE
 70
6
  9
$SPLINESEGS
 70
8
  9
$HANDSEED
  5
37
  9
$SURFTAB1
 70
6
  9
$SURFTAB2
 70
6
  9
$SURFTYPE
 70
6
  9
$SURFU
 70
6
  9
$SURFV
 70
6
  9
$UCSBASE
  2

  9
$UCSNAME
  2

  9
$UCSORG
 10
0.0
 20
0.0
 30
0.0
  9
$UCSXDIR
 10
1.0
 20
0.0
 30
0.0
  9
$UCSYDIR
 10
0.0
 20
1.0
 30
0.0
  9
$UCSORTHOREF
  2

  9
$UCSORTHOVIEW
 70
0
  9
$UCSORGTOP
 10
0.0
 20
0.0
 30
0.0
  9
$UCSORGBOTTOM
 10
0.0
 20
0.0
 30
0.0
  9
$UCSORGLEFT
 10
0.0
 20
0.0
 30
0.0
  9
$UCSORGRIGHT
 10
0.0
 20
0.0
 30
0.0
  9
$UCSORGFRONT
 10
0.0
 20
0.0
 30
0.0
  9
$UCSORGBACK
 10
0.0
 20
0.0
 30
0.0
  9
$PUCSBASE
  2

  9
$PUCSNAME
  2

  9
$PUCSORG
 10
0.0
 20
0.0
 30
0.0
  9
$PUCSXDIR
 10
1.0
 20
0.0
 30
0.0
  9
$PUCSYDIR
 10
0.0
 20
1.0
 30
0.0
  9
$PUCSORTHOREF
  2

  9
$PUCSORTHOVIEW
 70
0
  9
$PUCSORGTOP
 10
0.0
 20
0.0
 30
0.0
  9
$PUCSORGBOTTOM
 10
0.0
 20
0.0
 30
0.0
  9
$PUCSORGLEFT
 10
0.0
 20
0.0
 30
0.0
  9
$PUCSORGRIGHT
 10
0.0
 20
0.0
 30
0.0
  9
$PUCSORGFRONT
 10
0.0
 20
0.0
 30
0.0
  9
$PUCSORGBACK
 10
0.0
 20
0.0
 30
0.0
  9
$USERI1
 70
0
  9
$USERI2
 70
0
  9
$USERI3
 70
0
  9
$USERI4
 70
0
  9
$USERI5
 70
0
  9
$USERR1
 40
0.0
  9
$USERR2
 40
0.0
  9
$USERR3
 40
0.0
  9
$USERR4
 40
0.0
  9
$USERR5
 40
0.0
  9
$WORLDVIEW
 70
1
  9
$SHADEDGE
 70
3
  9
$SHADEDIF
 70
70
  9
$TILEMODE
 70
1
  9
$MAXACTVP
 70
64
  9
$PINSBASE
 10
0.0
 20
0.0
 30
0.0
  9
$PLIMCHECK
 70
0
  9
$PEXTMIN
 10
1e+20
 20
1e+20
 30
1e+20
  9
$PEXTMAX
 10
-1e+20
 20
-1e+20
 30
-1e+20
  9
$PLIMMIN
 10
0.0
 20
0.0
  9
$PLIMMAX
 10
420.0
 20
297.0
  9
$UNITMODE
 70
0
  9
$VISRETAIN
 70
1
  9
$PLINEGEN
 70
0
  9
$PSLTSCALE
 70
1
  9
$TREEDEPTH
 70
3020
  9
$CMLSTYLE
  2
Standard
  9
$CMLJUST
 70
0
  9
$CMLSCALE
 40
20.0
  9
$PROXYGRAPHICS
 70
1
  9
$MEASUREMENT
 70
1
  9
$CELWEIGHT
370
-1
  9
$ENDCAPS
280
0
  9
$JOINSTYLE
280
0
  9
$LWDISPLAY
290
0
  9
$INSUNITS
 70
6
  9
$HYPERLINKBASE
  1

  9
$STYLESHEET
  1

  9
$XEDIT
290
1
  9
$CEPSNTYPE
380
0
  9
$PSTYLEMODE
290
1
  9
$FINGERPRINTGUID
  2
{2FE707AA-3F2D-43BB-A04C-8F753602F895}
  9
$VERSIONGUID
  2
{7D54C9CE-E9DE-410F-976D-0A6FD873357E}
  9
$EXTNAMES
290
1
  9
$PSVPSCALE
 40
0.0
  9
$OLESTARTUP
290
0
  9
$SORTENTS
280
127
  9
$INDEXCTL
280
0
  9
$HIDETEXT
280
1
  9
$XCLIPFRAME
280
1
  9
$HALOGAP
280
0
  9
$OBSCOLOR
 70
257
  9
$OBSLTYPE
280
0
  9
$INTERSECTIONDISPLAY
280
0
  9
$INTERSECTIONCOLOR
 70
257
  9
$DIMASSOC
280
2
  9
$PROJECTNAME
  1

  9
$CAMERADISPLAY
290
0
  9
$LENSLENGTH
 40
50.0
  9
$CAMERAHEIGHT
 40
0.0
  9
$STEPSPERSEC
 40
24.0
  9
$STEPSIZE
 40
100.0
  9
$3DDWFPREC
 40
2.0
  9
$PSOLWIDTH
 40
0.005
  9
$PSOLHEIGHT
 40
0.08
  9
$LOFTANG1
 40
1.570796326795
  9
$LOFTANG2
 40
1.570796326795
  9
$LOFTMAG1
 40
0.0
  9
$LOFTMAG2
 40
0.0
  9
$LOFTPARAM
 70
7
  9
$LOFTNORMALS
280
1
  9
$LATITUDE
 40
37.795
  9
$LONGITUDE
 40
-122.394
  9
$NORTHDIRECTION
 40
0.0
  9
$TIMEZONE
 70
-8000
  9
$LIGHTGLYPHDISPLAY
280
1
  9
$TILEMODELIGHTSYNCH
280
1
  9
$CMATERIAL
347
20
  9
$SOLIDHIST
280
0
  9
$SHOWHIST
280
1
  9
$DWFFRAME
280
2
  9
$DGNFRAME
280
2
  9
$REALWORLDSCALE
290
1
  9
$INTERFERECOLOR
 62
256
  9
$CSHADOW
280
0
  9
$SHADOWPLANELOCATION
 40
0.0
  0
ENDSEC
  0
SECTION
  2
CLASSES
  0
CLASS
  1
ACDBDICTIONARYWDFLT
  2
AcDbDictionaryWithDefault
  3
ObjectDBX Classes
 90
0
 91
0
280
0
281
0
  0
CLASS
  1
SUN
  2
AcDbSun
  3
SCENEOE
 90
1153
 91
0
280
0
281
0
  0
CLASS
  1
VISUALSTYLE
  2
AcDbVisualStyle
  3
ObjectDBX Classes
 90
4095
 91
0
280
0
281
0
  0
CLASS
  1
MATERIAL
  2
AcDbMaterial
  3
ObjectDBX Classes
 90
1153
 91
0
280
0
281
0
  0
CLASS
  1
SCALE
  2
AcDbScale
  3
ObjectDBX Classes
 90
1153
 91
0
280
0
281
0
  0
CLASS
  1
TABLESTYLE
  2
AcDbTableStyle
  3
ObjectDBX Classes
 90
4095
 91
0
280
0
281
0
  0
CLASS
  1
MLEADERSTYLE
  2
AcDbMLeaderStyle
  3
ACDB_MLEADERSTYLE_CLASS
 90
4095
 91
0
280
0
281
0
  0
CLASS
  1
DICTIONARYVAR
  2
AcDbDictionaryVar
  3
ObjectDBX Classes
 90
0
 91
0
280
0
281
0
  0
CLASS
  1
CELLSTYLEMAP
  2
AcDbCellStyleMap
  3
ObjectDBX Classes
 90
1152
 91
0
280
0
281
0
  0
CLASS
  1
MENTALRAYRENDERSETTINGS
  2
AcDbMentalRayRenderSettings
  3
SCENEOE
 90
1024
 91
0
280
0
281
0
  0
CLASS
  1
ACDBDETAILVIEWSTYLE
  2
AcDbDetailViewStyle
  3
ObjectDBX Classes
 90
1025
 91
0
280
0
281
0
  0
CLASS
  1
ACDBSECTIONVIEWSTYLE
  2
AcDbSectionViewStyle
  3
ObjectDBX Classes
 90
1025
 91
0
280
0
281
0
  0
CLASS
  1
RASTERVARIABLES
  2
AcDbRasterVariables
  3
ISM
 90
0
 91
0
280
0
281
0
  0
CLASS
  1
LAYOUT
  2
AcDbLayout
  3
ObjectDBX Classes
 90
0
 91
0
280
0
281
0
  0
CLASS
  1
ACDBPLACEHOLDER
  2
AcDbPlaceHolder
  3
ObjectDBX Classes
 90
0
 91
0
280
0
281
0
  0
ENDSEC
  0
SECTION
  2
TABLES
  0
TABLE
  2
VPORT
  5
8
330
0
100
AcDbSymbolTable
 70
1
  0
VPORT
  5
23
330
8
100
AcDbSymbolTableRecord
100
AcDbViewportTableRecord
  2
*Active
 70
0
 10
0.0
 20
0.0
 11
1.0
 21
1.0
 12
0.0
 22
0.0
 13
0.0
 23
0.0
 14
0.5
 24
0.5
 15
0.5
 25
0.5
 16
0.0
 26
0.0
 36
1.0
 17
0.0
 27
0.0
 37
0.0
 40
1000.0
 41
1.34
 42
50.0
 43
0.0
 44
0.0
 50
0.0
 51
0.0
 71
0
 72
1000
 73
1
 74
3
 75
0
 76
0
 77
0
 78
0
281
0
 65
0
146
0.0
  0
ENDTAB
  0
TABLE
  2
LTYPE
  5
2
330
0
100
AcDbSymbolTable
 70
3
  0
LTYPE
  5
24
330
2
100
AcDbSymbolTableRecord
100
AcDbLinetypeTableRecord
  2
ByBlock
 70
0
  3

 72
65
 73
0
 40
0.0
  0
LTYPE
  5
25
330
2
100
AcDbSymbolTableRecord
100
AcDbLinetypeTableRecord
  2
ByLayer
 70
0
  3

 72
65
 73
0
 40
0.0
  0
LTYPE
  5
26
330
2
100
AcDbSymbolTableRecord
100
AcDbLinetypeTableRecord
  2
Continuous
 70
0
  3

 72
65
 73
0
 40
0.0
  0
ENDTAB
  0
TABLE
  2
LAYER
  5
1
330
0
100
AcDbSymbolTable
 70
2
  0
LAYER
  5
27
330
1
100
AcDbSymbolTableRecord
100
AcDbLayerTableRecord
  2
0
 70
0
 62
7
  6
Continuous
370
-3
390
13
347
21
  0
LAYER
  5
28
330
1
100
AcDbSymbolTableRecord
100
AcDbLayerTableRecord
  2
Defpoints
 70
0
 62
7
  6
Continuous
290
0
370
-3
390
13
347
21
  0
ENDTAB
  0
TABLE
  2
STYLE
  5
5
330
0
100
AcDbSymbolTable
 70
1
  0
STYLE
  5
29
330
5
100
AcDbSymbolTableRecord
100
AcDbTextStyleTableRecord
  2
Standard
 70
0
 40
0.0
 41
1.0
 50
0.0
 71
0
 42
2.5
  3
txt
  4

  0
ENDTAB
  0
TABLE
  2
VIEW
  5
7
330
0
100
AcDbSymbolTable
 70
0
  0
ENDTAB
  0
TABLE
  2
UCS
  5
6
330
0
100
AcDbSymbolTable
 70
0
  0
ENDTAB
  0
TABLE
  2
APPID
  5
3
330
0
100
AcDbSymbolTable
 70
3
  0
APPID
  5
2A
330
3
100
AcDbSymbolTableRecord
100
AcDbRegAppTableRecord
  2
ACAD
 70
0
  0
APPID
  5
34
330
3
100
AcDbSymbolTableRecord
100
AcDbRegAppTableRecord
  2
HATCHBACKGROUNDCOLOR
 70
0
  0
APPID
  5
35
330
3
100
AcDbSymbolTableRecord
100
AcDbRegAppTableRecord
  2
EZDXF
 70
0
  0
ENDTAB
  0
TABLE
  2
DIMSTYLE
  5
4
330
0
100
AcDbSymbolTable
 70
1
100
AcDbDimStyleTable
  0
DIMSTYLE
105
2B
330
4
100
AcDbSymbolTableRecord
100
AcDbDimStyleTableRecord
  2
Standard
 70
0
 40
1.0
 41
2.5
 42
0.625
 43
3.75
 44
1.25
 45
0.0
 46
0.0
 47
0.0
 48
0.0
 49
2.5
140
2.5
141
2.5
142
0.0
143
0.03937007874
144
1.0
145
0.0
146
1.0
147
0.625
148
0.0
 69
0
 70
0
 71
0
 72
0
 73
0
 74
0
 75
0
 76
0
 77
1
 78
8
 79
3
170
0
171
3
172
1
173
0
174
0
175
0
176
0
177
0
178
0
179
2
271
2
272
2
273
2
274
3
275
0
276
0
277
2
278
44
279
0
280
0
281
0
282
0
283
0
284
8
285
0
286
0
288
0
289
3
290
0
371
-2
372
-2
  0
ENDTAB
  0
TABLE
  2
BLOCK_RECORD
  5
9
330
0
100
AcDbSymbolTable
 70
2
  0
BLOCK_RECORD
  5
17
330
9
100
AcDbSymbolTableRecord
100
AcDbBlockTableRecord
  2
*Model_Space
340
1A
 70
0
280
1
281
0
  0
BLOCK_RECORD
  5
1B
330
9
100
AcDbSymbolTableRecord
100
AcDbBlockTableRecord
  2
*Paper_Space
340
1E
 70
0
280
1
281
0
  0
ENDTAB
  0
ENDSEC
  0
SECTION
  2
BLOCKS
  0
BLOCK
  5
18
330
17
100
AcDbEntity
  8
0
100
AcDbBlockBegin
  2
*Model_Space
 70
0
 10
0.0
 20
0.0
 30
0.0
  3
*Model_Space
  1

  0
ENDBLK
  5
19
330
17
100
AcDbEntity
  8
0
100
AcDbBlockEnd
  0
BLOCK
  5
1C
330
1B
100
AcDbEntity
  8
0
100
AcDbBlockBegin
  2
*Paper_Space
 70
0
 10
0.0
 20
0.0
 30
0.0
  3
*Paper_Space
  1

  0
ENDBLK
  5
1D
330
1B
100
AcDbEntity
  8
0
100
AcDbBlockEnd
  0
ENDSEC
  0
SECTION
  2
ENTITIES
  0
LWPOLYLINE
  5
2F
330
17
100
AcDbEntity
  8
FRAME
100
AcDbPolyline
 90
5
 70
1
 10
580.0
 20
580.0
 10
920.0
 20
580.0
 10
920.0
 20
920.0
 10
580.0
 20
920.0
 10
580.0
 20
580.0
  0
CIRCLE
  5
30
330
17
100
AcDbEntity
  8
CIRCLES
100
AcDbCircle
 10
750.0
 20
700.0
 30
0.0
 40
5.0
  0
CIRCLE
  5
31
330
17
100
AcDbEntity
  8
CIRCLES
100
AcDbCircle
 10
700.0
 20
800.0
 30
0.0
 40
5.0
  0
CIRCLE
  5
32
330
17
100
AcDbEntity
  8
CIRCLES
100
AcDbCircle
 10
800.0
 20
800.0
 30
0.0
 40
5.0
  0
LWPOLYLINE
  5
33
330
17
100
AcDbEntity
  8
CONTOUR_1
100
AcDbPolyline
 90
614
 70
1
 10
890.6567934921245
 20
593.3556105154264
 10
883.3042534889464
 20
600.7081505186045
 10
872.2754434841794
 20
600.7081505186045
 10
871.0500201503163
 20
599.4827271847414
 10
869.8245968164533
 20
599.4827271847414
 10
868.5991734825903
 20
598.2573038508784
 10
866.1483268148643
 20
598.2573038508784
 10
864.9229034810013
 20
597.0318805170155
 10
863.6974801471383
 20
597.0318805170155
 10
862.4720568132752
 20
595.8064571831525
 10
862.4720568132752
 20
597.0318805170155
 10
861.2466334794123
 20
598.2573038508784
 10
861.2466334794123
 20
599.4827271847414
 10
858.7957868116863
 20
601.9335738524675
 10
858.7957868116863
 20
603.1589971863305
 10
857.5703634778232
 20
604.3844205201934
 10
857.5703634778232
 20
605.6098438540565
 10
855.1195168100973
 20
608.0606905217825
 10
853.8940934762342
 20
608.0606905217825
 10
852.6686701423712
 20
609.2861138556456
 10
850.2178234746452
 20
609.2861138556456
 10
847.7669768069192
 20
606.8352671879195
 10
847.7669768069192
 20
604.3844205201934
 10
846.5415534730562
 20
603.1589971863305
 10
846.5415534730562
 20
601.9335738524675
 10
844.0907068053301
 20
599.4827271847414
 10
844.0907068053301
 20
598.2573038508784
 10
842.8652834714671
 20
598.2573038508784
 10
841.6398601376042
 20
599.4827271847414
 10
837.9635901360151
 20
599.4827271847414
 10
836.7381668021521
 20
600.7081505186045
 10
830.611050132837
 20
600.7081505186045
 10
829.385626798974
 20
601.9335738524675
 10
828.1602034651111
 20
600.7081505186045
 10
819.58224012807
 20
600.7081505186045
 10
818.356816794207
 20
601.9335738524675
 10
817.1313934603439
 20
601.9335738524675
 10
815.905970126481
 20
603.1589971863305
 10
807.3280067894399
 20
603.1589971863305
 10
806.1025834555769
 20
601.9335738524675
 10
806.1025834555769
 20
600.7081505186045
 10
803.6517367878508
 20
600.7081505186045
 10
801.2008901201249
 20
598.2573038508784
 10
799.9754667862619
 20
599.4827271847414
 10
798.7500434523988
 20
599.4827271847414
 10
797.5246201185358
 20
600.7081505186045
 10
793.8483501169468
 20
600.7081505186045
 10
792.6229267830838
 20
599.4827271847414
 10
792.6229267830838
 20
595.8064571831525
 10
790.1720801153577
 20
598.2573038508784
 10
788.9466567814948
 20
598.2573038508784
 10
786.4958101137688
 20
600.7081505186045
 10
784.0449634460427
 20
600.7081505186045
 10
782.8195401121798
 20
601.9335738524675
 10
780.3686934444537
 20
601.9335738524675
 10
779.1432701105907
 20
603.1589971863305
 10
776.6924234428647
 20
603.1589971863305
 10
775.4670001090017
 20
604.3844205201934
 10
774.2415767751387
 20
604.3844205201934
 10
773.0161534412757
 20
605.6098438540565
 10
770.5653067735497
 20
605.6098438540565
 10
769.3398834396867
 20
606.8352671879195
 10
766.8890367719606
 20
606.8352671879195
 10
765.6636134380976
 20
608.0606905217825
 10
754.6348034333306
 20
608.0606905217825
 10
753.4093800994675
 20
606.8352671879195
 10
753.4093800994675
 20
600.7081505186045
 10
752.1839567656045
 20
599.4827271847414
 10
752.1839567656045
 20
595.8064571831525
 10
749.7331100978785
 20
595.8064571831525
 10
748.5076867640155
 20
597.0318805170155
 10
742.3805700947005
 20
597.0318805170155
 10
741.1551467608375
 20
598.2573038508784
 10
741.1551467608375
 20
599.4827271847414
 10
739.9297234269744
 20
600.7081505186045
 10
738.7043000931114
 20
600.7081505186045
 10
737.4788767592485
 20
599.4827271847414
 10
737.4788767592485
 20
597.0318805170155
 10
725.2246434206183
 20
597.0318805170155
 10
725.2246434206183
 20
598.2573038508784
 10
722.7737967528924
 20
600.7081505186045
 10
722.7737967528924
 20
601.9335738524675
 10
720.3229500851663
 20
604.3844205201934
 10
719.0975267513033
 20
604.3844205201934
 10
717.8721034174403
 20
603.1589971863305
 10
715.4212567497143
 20
603.1589971863305
 10
714.1958334158513
 20
601.9335738524675
 10
712.9704100819882
 20
601.9335738524675
 10
711.7449867481253
 20
600.7081505186045
 10
711.7449867481253
 20
603.1589971863305
 10
709.2941400803993
 20
605.6098438540565
 10
705.6178700788103
 20
605.6098438540565
 10
704.3924467449472
 20
604.3844205201934
 10
703.1670234110842
 20
604.3844205201934
 10
701.9416000772212
 20
603.1589971863305
 10
700.7161767433582
 20
603.1589971863305
 10
699.4907534094951
 20
601.9335738524675
 10
698.2653300756322
 20
601.9335738524675
 10
697.0399067417692
 20
600.7081505186045
 10
683.5602500692761
 20
600.7081505186045
 10
682.3348267354131
 20
599.4827271847414
 10
682.3348267354131
 20
598.2573038508784
 10
681.10940340155
 20
597.0318805170155
 10
678.6585567338241
 20
597.0318805170155
 10
677.4331333999611
 20
598.2573038508784
 10
674.982286732235
 20
598.2573038508784
 10
673.756863398372
 20
599.4827271847414
 10
672.531440064509
 20
599.4827271847414
 10
671.306016730646
 20
600.7081505186045
 10
663.953476727468
 20
600.7081505186045
 10
662.7280533936049
 20
599.4827271847414
 10
662.7280533936049
 20
597.0318805170155
 10
661.5026300597419
 20
598.2573038508784
 10
661.5026300597419
 20
599.4827271847414
 10
660.277206725879
 20
600.7081505186045
 10
639.4450100502078
 20
600.7081505186045
 10
636.9941633824818
 20
598.2573038508784
 10
635.7687400486187
 20
598.2573038508784
 10
633.3178933808928
 20
595.8064571831525
 10
632.0924700470298
 20
595.8064571831525
 10
630.8670467131667
 20
594.5810338492894
 10
629.6416233793037
 20
594.5810338492894
 10
629.6416233793037
 20
595.8064571831525
 10
624.7399300438518
 20
600.7081505186045
 10
623.5145067099887
 20
600.7081505186045
 10
623.5145067099887
 20
601.9335738524675
 10
622.2890833761257
 20
603.1589971863305
 10
621.0636600422628
 20
603.1589971863305
 10
618.6128133745367
 20
600.7081505186045
 10
612.4856967052217
 20
600.7081505186045
 10
612.4856967052217
 20
603.1589971863305
 10
611.2602733713587
 20
604.3844205201934
 10
611.2602733713587
 20
605.6098438540565
 10
610.0348500374956
 20
606.8352671879195
 10
607.5840033697697
 20
606.8352671879195
 10
606.3585800359066
 20
605.6098438540565
 10
605.1331567020436
 20
605.6098438540565
 10
603.9077333681806
 20
604.3844205201934
 10
602.6823100343177
 20
604.3844205201934
 10
601.4568867004546
 20
603.1589971863305
 10
597.7806166988656
 20
603.1589971863305
 10
596.5551933650025
 20
604.3844205201934
 10
596.5551933650025
 20
605.6098438540565
 10
595.3297700311396
 20
606.8352671879195
 10
595.3297700311396
 20
608.0606905217825
 10
594.1043466972766
 20
609.2861138556456
 10
595.3297700311396
 20
610.5115371895085
 10
594.1043466972766
 20
611.7369605233715
 10
594.1043466972766
 20
612.9623838572345
 10
595.3297700311396
 20
612.9623838572345
 10
596.5551933650025
 20
614.1878071910976
 10
599.0060400327286
 20
614.1878071910976
 10
600.2314633665916
 20
615.4132305249606
 10
600.2314633665916
 20
617.8640771926865
 10
601.4568867004546
 20
617.8640771926865
 10
603.9077333681806
 20
620.3149238604126
 10
602.6823100343177
 20
621.5403471942756
 10
602.6823100343177
 20
622.7657705281387
 10
600.2314633665916
 20
625.2166171958646
 10
600.2314633665916
 20
628.8928871974537
 10
599.0060400327286
 20
630.1183105313168
 10
599.0060400327286
 20
631.3437338651797
 10
597.7806166988656
 20
632.5691571990427
 10
597.7806166988656
 20
633.7945805329058
 10
599.0060400327286
 20
633.7945805329058
 10
600.2314633665916
 20
635.0200038667688
 10
600.2314633665916
 20
638.6962738683578
 10
602.6823100343177
 20
641.1471205360838
 10
603.9077333681806
 20
641.1471205360838
 10
605.1331567020436
 20
642.3725438699468
 10
605.1331567020436
 20
643.5979672038098
 10
600.2314633665916
 20
648.4996605392619
 10
600.2314633665916
 20
653.4013538747139
 10
601.4568867004546
 20
653.4013538747139
 10
602.6823100343177
 20
654.6267772085769
 10
605.1331567020436
 20
654.6267772085769
 10
606.3585800359066
 20
655.8522005424398
 10
607.5840033697697
 20
655.8522005424398
 10
610.0348500374956
 20
658.3030472101659
 10
610.0348500374956
 20
659.5284705440289
 10
608.8094267036327
 20
660.753893877892
 10
607.5840033697697
 20
659.5284705440289
 10
603.9077333681806
 20
663.2047405456179
 10
605.1331567020436
 20
664.4301638794809
 10
600.2314633665916
 20
669.3318572149329
 10
600.2314633665916
 20
693.8403238921932
 10
603.9077333681806
 20
697.5165938937822
 10
605.1331567020436
 20
697.5165938937822
 10
610.0348500374956
 20
702.4182872292342
 10
607.5840033697697
 20
704.8691338969602
 10
606.3585800359066
 20
703.6437105630972
 10
607.5840033697697
 20
704.8691338969602
 10
603.9077333681806
 20
708.5454038985492
 10
603.9077333681806
 20
709.7708272324122
 10
601.4568867004546
 20
712.2216739001383
 10
600.2314633665916
 20
712.2216739001383
 10
600.2314633665916
 20
715.8979439017273
 10
597.7806166988656
 20
718.3487905694533
 10
597.7806166988656
 20
719.5742139033163
 10
595.3297700311396
 20
722.0250605710423
 10
594.1043466972766
 20
720.7996372371794
 10
595.3297700311396
 20
722.0250605710423
 10
592.8789233634135
 20
724.4759072387684
 10
592.8789233634135
 20
726.9267539064944
 10
594.1043466972766
 20
726.9267539064944
 10
595.3297700311396
 20
728.1521772403573
 10
596.5551933650025
 20
728.1521772403573
 10
597.7806166988656
 20
729.3776005742204
 10
599.0060400327286
 20
729.3776005742204
 10
600.2314633665916
 20
730.6030239080834
 10
600.2314633665916
 20
735.5047172435354
 10
601.4568867004546
 20
735.5047172435354
 10
603.9077333681806
 20
737.9555639112615
 10
603.9077333681806
 20
742.8572572467135
 10
605.1331567020436
 20
744.0826805805765
 10
605.1331567020436
 20
745.3081039144395
 10
606.3585800359066
 20
746.5335272483024
 10
606.3585800359066
 20
747.7589505821655
 10
607.5840033697697
 20
748.9843739160285
 10
607.5840033697697
 20
750.2097972498915
 10
608.8094267036327
 20
751.4352205837546
 10
608.8094267036327
 20
753.8860672514805
 10
607.5840033697697
 20
755.1114905853435
 10
607.5840033697697
 20
756.3369139192066
 10
603.9077333681806
 20
760.0131839207955
 10
603.9077333681806
 20
761.2386072546586
 10
600.2314633665916
 20
764.9148772562477
 10
600.2314633665916
 20
767.3657239239736
 10
597.7806166988656
 20
769.8165705916997
 10
596.5551933650025
 20
768.5911472578366
 10
591.6535000295505
 20
773.4928405932886
 10
592.8789233634135
 20
774.7182639271517
 10
592.8789233634135
 20
775.9436872610147
 10
600.2314633665916
 20
783.2962272641928
 10
600.2314633665916
 20
785.7470739319187
 10
603.9077333681806
 20
789.4233439335078
 10
603.9077333681806
 20
790.6487672673708
 10
608.8094267036327
 20
795.5504606028228
 10
608.8094267036327
 20
796.7758839366859
 10
602.6823100343177
 20
802.9030006060009
 10
601.4568867004546
 20
801.6775772721379
 10
602.6823100343177
 20
802.9030006060009
 10
600.2314633665916
 20
805.3538472737268
 10
600.2314633665916
 20
813.9318106107679
 10
605.1331567020436
 20
813.9318106107679
 10
607.5840033697697
 20
816.382657278494
 10
607.5840033697697
 20
818.8335039462199
 10
606.3585800359066
 20
820.058927280083
 10
606.3585800359066
 20
821.284350613946
 10
605.1331567020436
 20
822.509773947809
 10
605.1331567020436
 20
824.960620615535
 10
603.9077333681806
 20
826.186043949398
 10
603.9077333681806
 20
827.411467283261
 10
602.6823100343177
 20
828.6368906171241
 10
602.6823100343177
 20
832.313160618713
 10
600.2314633665916
 20
834.7640072864391
 10
599.0060400327286
 20
833.5385839525761
 10
600.2314633665916
 20
834.7640072864391
 10
600.2314633665916
 20
842.1165472896172
 10
599.0060400327286
 20
843.3419706234802
 10
599.0060400327286
 20
844.5673939573431
 10
597.7806166988656
 20
845.7928172912061
 10
597.7806166988656
 20
848.2436639589322
 10
599.0060400327286
 20
847.0182406250692
 10
600.2314633665916
 20
848.2436639589322
 10
600.2314633665916
 20
850.6945106266581
 10
603.9077333681806
 20
850.6945106266581
 10
605.1331567020436
 20
851.9199339605212
 10
606.3585800359066
 20
851.9199339605212
 10
608.8094267036327
 20
854.3707806282472
 10
608.8094267036327
 20
855.5962039621103
 10
607.5840033697697
 20
856.8216272959733
 10
607.5840033697697
 20
858.0470506298362
 10
606.3585800359066
 20
859.2724739636992
 10
606.3585800359066
 20
861.7233206314253
 10
605.1331567020436
 20
862.9487439652883
 10
605.1331567020436
 20
864.1741672991512
 10
602.6823100343177
 20
866.6250139668773
 10
603.9077333681806
 20
867.8504373007403
 10
602.6823100343177
 20
869.0758606346033
 10
602.6823100343177
 20
870.3012839684664
 10
600.2314633665916
 20
872.7521306361923
 10
600.2314633665916
 20
877.6538239716443
 10
599.0060400327286
 20
878.8792473055074
 10
599.0060400327286
 20
881.3300939732334
 10
597.7806166988656
 20
882.5555173070964
 10
597.7806166988656
 20
883.7809406409594
 10
596.5551933650025
 20
885.0063639748224
 10
596.5551933650025
 20
887.4572106425485
 10
599.0060400327286
 20
887.4572106425485
 10
600.2314633665916
 20
888.6826339764115
 10
600.2314633665916
 20
889.9080573102744
 10
602.6823100343177
 20
889.9080573102744
 10
603.9077333681806
 20
891.1334806441374
 10
605.1331567020436
 20
891.1334806441374
 10
607.5840033697697
 20
893.5843273118635
 10
607.5840033697697
 20
894.8097506457265
 10
606.3585800359066
 20
896.0351739795894
 10
606.3585800359066
 20
897.2605973134525
 10
607.5840033697697
 20
898.4860206473155
 10
610.0348500374956
 20
898.4860206473155
 10
611.2602733713587
 20
899.7114439811785
 10
612.4856967052217
 20
899.7114439811785
 10
613.7111200390847
 20
900.9368673150416
 10
614.9365433729477
 20
900.9368673150416
 10
616.1619667068107
 20
902.1622906489046
 10
617.3873900406737
 20
900.9368673150416
 10
623.5145067099887
 20
900.9368673150416
 10
623.5145067099887
 20
899.7114439811785
 10
625.9653533777148
 20
897.2605973134525
 10
625.9653533777148
 20
896.0351739795894
 10
627.1907767115778
 20
894.8097506457265
 10
628.4162000454407
 20
894.8097506457265
 10
629.6416233793037
 20
896.0351739795894
 10
630.8670467131667
 20
896.0351739795894
 10
632.0924700470298
 20
897.2605973134525
 10
634.5433167147557
 20
897.2605973134525
 10
635.7687400486187
 20
898.4860206473155
 10
643.1212800517968
 20
898.4860206473155
 10
644.3467033856598
 20
899.7114439811785
 10
645.5721267195228
 20
899.7114439811785
 10
646.7975500533859
 20
900.9368673150416
 10
648.0229733872488
 20
900.9368673150416
 10
649.2483967211118
 20
902.1622906489046
 10
651.6992433888379
 20
902.1622906489046
 10
652.9246667227009
 20
903.3877139827675
 10
657.8263600581529
 20
898.4860206473155
 10
672.531440064509
 20
898.4860206473155
 10
673.756863398372
 20
899.7114439811785
 10
673.756863398372
 20
902.1622906489046
 10
674.982286732235
 20
903.3877139827675
 10
676.207710066098
 20
903.3877139827675
 10
677.4331333999611
 20
902.1622906489046
 10
678.6585567338241
 20
902.1622906489046
 10
679.883980067687
 20
900.9368673150416
 10
682.3348267354131
 20
900.9368673150416
 10
684.7856734031391
 20
898.4860206473155
 10
687.2365200708651
 20
898.4860206473155
 10
688.4619434047281
 20
899.7114439811785
 10
688.4619434047281
 20
900.9368673150416
 10
690.9127900724542
 20
900.9368673150416
 10
692.1382134063172
 20
899.7114439811785
 10
693.3636367401801
 20
899.7114439811785
 10
694.5890600740431
 20
898.4860206473155
 10
700.7161767433582
 20
898.4860206473155
 10
701.9416000772212
 20
897.2605973134525
 10
705.6178700788103
 20
897.2605973134525
 10
708.0687167465362
 20
899.7114439811785
 10
708.0687167465362
 20
900.9368673150416
 10
709.2941400803993
 20
902.1622906489046
 10
710.5195634142623
 20
900.9368673150416
 10
716.6466800835773
 20
900.9368673150416
 10
717.8721034174403
 20
899.7114439811785
 10
720.3229500851663
 20
899.7114439811785
 10
721.5483734190293
 20
898.4860206473155
 10
722.7737967528924
 20
898.4860206473155
 10
723.9992200867554
 20
899.7114439811785
 10
725.2246434206183
 20
899.7114439811785
 10
726.4500667544813
 20
898.4860206473155
 10
732.5771834237964
 20
898.4860206473155
 10
733.8026067576594
 20
897.2605973134525
 10
735.0280300915224
 20
897.2605973134525
 10
736.2534534253855
 20
898.4860206473155
 10
737.4788767592485
 20
898.4860206473155
 10
738.7043000931114
 20
899.7114439811785
 10
738.7043000931114
 20
900.9368673150416
 10
742.3805700947005
 20
900.9368673150416
 10
743.6059934285635
 20
899.7114439811785
 10
746.0568400962895
 20
899.7114439811785
 10
747.2822634301525
 20
898.4860206473155
 10
750.9585334317416
 20
898.4860206473155
 10
749.7331100978785
 20
897.2605973134525
 10
749.7331100978785
 20
896.0351739795894
 10
750.9585334317416
 20
894.8097506457265
 10
755.8602267671936
 20
894.8097506457265
 10
758.3110734349195
 20
897.2605973134525
 10
758.3110734349195
 20
898.4860206473155
 10
759.5364967687826
 20
899.7114439811785
 10
759.5364967687826
 20
904.6131373166305
 10
760.7619201026456
 20
905.8385606504936
 10
760.7619201026456
 20
907.0639839843566
 10
761.9873434365086
 20
905.8385606504936
 10
764.4381901042346
 20
905.8385606504936
 10
765.6636134380976
 20
904.6131373166305
 10
768.1144601058237
 20
904.6131373166305
 10
769.3398834396867
 20
903.3877139827675
 10
770.5653067735497
 20
903.3877139827675
 10
770.5653067735497
 20
900.9368673150416
 10
769.3398834396867
 20
899.7114439811785
 10
770.5653067735497
 20
898.4860206473155
 10
771.7907301074126
 20
898.4860206473155
 10
773.0161534412757
 20
897.2605973134525
 10
785.2703867799057
 20
897.2605973134525
 10
786.4958101137688
 20
898.4860206473155
 10
790.1720801153577
 20
898.4860206473155
 10
798.7500434523988
 20
907.0639839843566
 10
798.7500434523988
 20
904.6131373166305
 10
799.9754667862619
 20
903.3877139827675
 10
802.4263134539879
 20
905.8385606504936
 10
803.6517367878508
 20
905.8385606504936
 10
804.8771601217139
 20
907.0639839843566
 10
806.1025834555769
 20
907.0639839843566
 10
807.3280067894399
 20
908.2894073182196
 10
808.5534301233029
 20
907.0639839843566
 10
808.5534301233029
 20
905.8385606504936
 10
812.2297001248919
 20
902.1622906489046
 10
812.2297001248919
 20
900.9368673150416
 10
818.356816794207
 20
894.8097506457265
 10
818.356816794207
 20
893.5843273118635
 10
820.807663461933
 20
891.1334806441374
 10
823.258510129659
 20
891.1334806441374
 10
824.483933463522
 20
892.3589039780005
 10
824.483933463522
 20
898.4860206473155
 10
831.8364734667001
 20
898.4860206473155
 10
833.0618968005631
 20
897.2605973134525
 10
835.512743468289
 20
897.2605973134525
 10
836.7381668021521
 20
898.4860206473155
 10
839.1890134698781
 20
898.4860206473155
 10
840.4144368037412
 20
899.7114439811785
 10
840.4144368037412
 20
900.9368673150416
 10
841.6398601376042
 20
902.1622906489046
 10
842.8652834714671
 20
902.1622906489046
 10
844.0907068053301
 20
903.3877139827675
 10
845.3161301391932
 20
903.3877139827675
 10
846.5415534730562
 20
904.6131373166305
 10
847.7669768069192
 20
904.6131373166305
 10
848.9924001407821
 20
905.8385606504936
 10
850.2178234746452
 20
905.8385606504936
 10
851.4432468085082
 20
907.0639839843566
 10
850.2178234746452
 20
905.8385606504936
 10
850.2178234746452
 20
904.6131373166305
 10
848.9924001407821
 20
903.3877139827675
 10
848.9924001407821
 20
900.9368673150416
 10
847.7669768069192
 20
899.7114439811785
 10
848.9924001407821
 20
898.4860206473155
 10
850.2178234746452
 20
898.4860206473155
 10
851.4432468085082
 20
899.7114439811785
 10
852.6686701423712
 20
899.7114439811785
 10
853.8940934762342
 20
898.4860206473155
 10
855.1195168100973
 20
898.4860206473155
 10
856.3449401439602
 20
899.7114439811785
 10
857.5703634778232
 20
899.7114439811785
 10
858.7957868116863
 20
898.4860206473155
 10
867.3737501487273
 20
898.4860206473155
 10
867.3737501487273
 20
897.2605973134525
 10
869.8245968164533
 20
894.8097506457265
 10
871.0500201503163
 20
896.0351739795894
 10
878.4025601534944
 20
896.0351739795894
 10
879.6279834873574
 20
897.2605973134525
 10
879.6279834873574
 20
898.4860206473155
 10
883.3042534889464
 20
898.4860206473155
 10
890.6567934921245
 20
905.8385606504936
 10
891.8822168259875
 20
905.8385606504936
 10
894.3330634937134
 20
908.2894073182196
 10
896.7839101614395
 20
908.2894073182196
 10
899.2347568291655
 20
905.8385606504936
 10
900.4601801630286
 20
905.8385606504936
 10
901.6856034968915
 20
904.6131373166305
 10
902.9110268307545
 20
904.6131373166305
 10
904.1364501646176
 20
903.3877139827675
 10
905.3618734984806
 20
903.3877139827675
 10
902.9110268307545
 20
900.9368673150416
 10
901.6856034968915
 20
900.9368673150416
 10
900.4601801630286
 20
899.7114439811785
 10
900.4601801630286
 20
898.4860206473155
 10
899.2347568291655
 20
898.4860206473155
 10
898.0093334953025
 20
897.2605973134525
 10
898.0093334953025
 20
893.5843273118635
 10
896.7839101614395
 20
893.5843273118635
 10
891.8822168259875
 20
888.6826339764115
 10
896.7839101614395
 20
883.7809406409594
 10
896.7839101614395
 20
882.5555173070964
 10
898.0093334953025
 20
881.3300939732334
 10
898.0093334953025
 20
869.0758606346033
 10
896.7839101614395
 20
867.8504373007403
 10
896.7839101614395
 20
865.3995906330143
 10
898.0093334953025
 20
864.1741672991512
 10
898.0093334953025
 20
855.5962039621103
 10
899.2347568291655
 20
854.3707806282472
 10
899.2347568291655
 20
853.1453572943842
 10
900.4601801630286
 20
851.9199339605212
 10
900.4601801630286
 20
849.4690872927952
 10
901.6856034968915
 20
848.2436639589322
 10
901.6856034968915
 20
845.7928172912061
 10
900.4601801630286
 20
845.7928172912061
 10
899.2347568291655
 20
847.0182406250692
 10
898.0093334953025
 20
845.7928172912061
 10
898.0093334953025
 20
832.313160618713
 10
899.2347568291655
 20
831.08773728485
 10
898.0093334953025
 20
829.8623139509871
 10
898.0093334953025
 20
827.411467283261
 10
896.7839101614395
 20
827.411467283261
 10
895.5584868275765
 20
826.186043949398
 10
895.5584868275765
 20
823.735197281672
 10
896.7839101614395
 20
822.509773947809
 10
896.7839101614395
 20
818.8335039462199
 10
898.0093334953025
 20
817.608080612357
 10
898.0093334953025
 20
812.7063872769049
 10
896.7839101614395
 20
812.7063872769049
 10
895.5584868275765
 20
811.480963943042
 10
894.3330634937134
 20
811.480963943042
 10
891.8822168259875
 20
809.0301172753159
 10
893.1076401598505
 20
807.8046939414529
 10
893.1076401598505
 20
799.2267306044118
 10
895.5584868275765
 20
796.7758839366859
 10
896.7839101614395
 20
798.0013072705489
 10
898.0093334953025
 20
798.0013072705489
 10
898.0093334953025
 20
793.0996139350968
 10
896.7839101614395
 20
791.8741906012337
 10
896.7839101614395
 20
786.9724972657817
 10
898.0093334953025
 20
785.7470739319187
 10
898.0093334953025
 20
778.3945339287407
 10
896.7839101614395
 20
777.1691105948777
 10
896.7839101614395
 20
774.7182639271517
 10
898.0093334953025
 20
773.4928405932886
 10
898.0093334953025
 20
767.3657239239736
 10
900.4601801630286
 20
764.9148772562477
 10
899.2347568291655
 20
764.9148772562477
 10
896.7839101614395
 20
762.4640305885216
 10
895.5584868275765
 20
762.4640305885216
 10
893.1076401598505
 20
760.0131839207955
 10
893.1076401598505
 20
756.3369139192066
 10
894.3330634937134
 20
755.1114905853435
 10
896.7839101614395
 20
755.1114905853435
 10
896.7839101614395
 20
751.4352205837546
 10
898.0093334953025
 20
750.2097972498915
 10
898.0093334953025
 20
740.4064105789874
 10
895.5584868275765
 20
740.4064105789874
 10
894.3330634937134
 20
739.1809872451245
 10
893.1076401598505
 20
739.1809872451245
 10
891.8822168259875
 20
737.9555639112615
 10
891.8822168259875
 20
736.7301405773984
 10
893.1076401598505
 20
735.5047172435354
 10
893.1076401598505
 20
733.0538705758094
 10
894.3330634937134
 20
731.8284472419464
 10
894.3330634937134
 20
728.1521772403573
 10
895.5584868275765
 20
726.9267539064944
 10
898.0093334953025
 20
726.9267539064944
 10
899.2347568291655
 20
725.7013305726314
 10
900.4601801630286
 20
725.7013305726314
 10
901.6856034968915
 20
726.9267539064944
 10
904.1364501646176
 20
726.9267539064944
 10
904.1364501646176
 20
723.2504839049053
 10
902.9110268307545
 20
723.2504839049053
 10
901.6856034968915
 20
722.0250605710423
 10
899.2347568291655
 20
722.0250605710423
 10
898.0093334953025
 20
720.7996372371794
 10
896.7839101614395
 20
720.7996372371794
 10
895.5584868275765
 20
719.5742139033163
 10
896.7839101614395
 20
718.3487905694533
 10
896.7839101614395
 20
714.6725205678642
 10
898.0093334953025
 20
713.4470972340013
 10
898.0093334953025
 20
707.3199805646863
 10
896.7839101614395
 20
706.0945572308233
 10
894.3330634937134
 20
706.0945572308233
 10
893.1076401598505
 20
704.8691338969602
 10
893.1076401598505
 20
695.0657472260561
 10
894.3330634937134
 20
693.8403238921932
 10
894.3330634937134
 20
692.6149005583302
 10
895.5584868275765
 20
691.3894772244671
 10
896.7839101614395
 20
692.6149005583302
 10
898.0093334953025
 20
692.6149005583302
 10
898.0093334953025
 20
677.909820551974
 10
891.8822168259875
 20
671.782703882659
 10
891.8822168259875
 20
670.557280548796
 10
898.0093334953025
 20
664.4301638794809
 10
898.0093334953025
 20
663.2047405456179
 10
899.2347568291655
 20
661.979317211755
 10
900.4601801630286
 20
661.979317211755
 10
900.4601801630286
 20
660.753893877892
 10
899.2347568291655
 20
660.753893877892
 10
898.0093334953025
 20
659.5284705440289
 10
898.0093334953025
 20
657.0776238763029
 10
893.1076401598505
 20
652.1759305408509
 10
893.1076401598505
 20
650.9505072069878
 10
891.8822168259875
 20
649.7250838731248
 10
896.7839101614395
 20
644.8233905376728
 10
898.0093334953025
 20
644.8233905376728
 10
898.0093334953025
 20
643.5979672038098
 10
899.2347568291655
 20
642.3725438699468
 10
900.4601801630286
 20
642.3725438699468
 10
901.6856034968915
 20
641.1471205360838
 10
900.4601801630286
 20
639.9216972022208
 10
901.6856034968915
 20
638.6962738683578
 10
905.3618734984806
 20
638.6962738683578
 10
905.3618734984806
 20
637.4708505344947
 10
904.1364501646176
 20
636.2454272006318
 10
904.1364501646176
 20
635.0200038667688
 10
901.6856034968915
 20
632.5691571990427
 10
901.6856034968915
 20
631.3437338651797
 10
900.4601801630286
 20
630.1183105313168
 10
900.4601801630286
 20
628.8928871974537
 10
899.2347568291655
 20
628.8928871974537
 10
898.0093334953025
 20
627.6674638635907
 10
898.0093334953025
 20
621.5403471942756
 10
896.7839101614395
 20
620.3149238604126
 10
896.7839101614395
 20
619.0895005265496
 10
895.5584868275765
 20
617.8640771926865
 10
895.5584868275765
 20
616.6386538588235
 10
894.3330634937134
 20
615.4132305249606
 10
895.5584868275765
 20
614.1878071910976
 10
896.7839101614395
 20
614.1878071910976
 10
898.0093334953025
 20
612.9623838572345
 10
898.0093334953025
 20
610.5115371895085
 10
899.2347568291655
 20
609.2861138556456
 10
900.4601801630286
 20
610.5115371895085
 10
901.6856034968915
 20
609.2861138556456
 10
902.9110268307545
 20
609.2861138556456
 10
904.1364501646176
 20
608.0606905217825
 10
905.3618734984806
 20
608.0606905217825
 10
905.3618734984806
 20
606.8352671879195
 10
900.4601801630286
 20
601.9335738524675
 10
899.2347568291655
 20
601.9335738524675
 10
890.6567934921245
 20
593.3556105154264
  0
ENDSEC
  0
SECTION
  2
OBJECTS
  0
DICTIONARY
  5
A
330
0
100
AcDbDictionary
281
1
  3
ACAD_COLOR
350
B
  3
ACAD_GROUP
350
C
  3
ACAD_LAYOUT
350
D
  3
ACAD_MATERIAL
350
E
  3
ACAD_MLEADERSTYLE
350
F
  3
ACAD_MLINESTYLE
350
10
  3
ACAD_PLOTSETTINGS
350
11
  3
ACAD_PLOTSTYLENAME
350
12
  3
ACAD_SCALELIST
350
14
  3
ACAD_TABLESTYLE
350
15
  3
ACAD_VISUALSTYLE
350
16
  3
EZDXF_META
350
2D
  0
DICTIONARY
  5
B
330
A
100
AcDbDictionary
281
1
  0
DICTIONARY
  5
C
330
A
100
AcDbDictionary
281
1
  0
DICTIONARY
  5
D
330
A
100
AcDbDictionary
281
1
  3
Model
350
1A
  3
Layout1
350
1E
  0
DICTIONARY
  5
E
330
A
100
AcDbDictionary
281
1
  3
ByBlock
350
1F
  3
ByLayer
350
20
  3
Global
350
21
  0
DICTIONARY
  5
F
330
A
100
AcDbDictionary
281
1
  3
Standard
350
2C
  0
DICTIONARY
  5
10
330
A
100
AcDbDictionary
281
1
  3
Standard
350
22
  0
DICTIONARY
  5
11
330
A
100
AcDbDictionary
281
1
  0
ACDBDICTIONARYWDFLT
  5
12
330
A
100
AcDbDictionary
281
1
  3
Normal
350
13
100
AcDbDictionaryWithDefault
340
13
  0
ACDBPLACEHOLDER
  5
13
330
12
  0
DICTIONARY
  5
14
330
A
100
AcDbDictionary
281
1
  0
DICTIONARY
  5
15
330
A
100
AcDbDictionary
281
1
  0
DICTIONARY
  5
16
330
A
100
AcDbDictionary
281
1
  0
LAYOUT
  5
1A
330
D
100
AcDbPlotSettings
  1

  4
A3
  6

 40
7.5
 41
20.0
 42
7.5
 43
20.0
 44
420.0
 45
297.0
 46
0.0
 47
0.0
 48
0.0
 49
0.0
140
0.0
141
0.0
142
1.0
143
1.0
 70
1024
 72
1
 73
0
 74
5
  7

 75
16
 76
0
 77
2
 78
300
147
1.0
148
0.0
149
0.0
100
AcDbLayout
  1
Model
 70
1
 71
0
 10
0.0
 20
0.0
 11
420.0
 21
297.0
 12
0.0
 22
0.0
 32
0.0
 14
1e+20
 24
1e+20
 34
1e+20
 15
-1e+20
 25
-1e+20
 35
-1e+20
146
0.0
 13
0.0
 23
0.0
 33
0.0
 16
1.0
 26
0.0
 36
0.0
 17
0.0
 27
1.0
 37
0.0
 76
1
330
17
  0
LAYOUT
  5
1E
330
D
100
AcDbPlotSettings
  1

  4
A3
  6

 40
7.5
 41
20.0
 42
7.5
 43
20.0
 44
420.0
 45
297.0
 46
0.0
 47
0.0
 48
0.0
 49
0.0
140
0.0
141
0.0
142
1.0
143
1.0
 70
0
 72
1
 73
0
 74
5
  7

 75
16
 76
0
 77
2
 78
300
147
1.0
148
0.0
149
0.0
100
AcDbLayout
  1
Layout1
 70
1
 71
1
 10
0.0
 20
0.0
 11
420.0
 21
297.0
 12
0.0
 22
0.0
 32
0.0
 14
1e+20
 24
1e+20
 34
1e+20
 15
-1e+20
 25
-1e+20
 35
-1e+20
146
0.0
 13
0.0
 23
0.0
 33
0.0
 16
1.0
 26
0.0
 36
0.0
 17
0.0
 27
1.0
 37
0.0
 76
1
330
1B
  0
MATERIAL
  5
1F
102
{ACAD_REACTORS
330
E
102
}
330
E
100
AcDbMaterial
  1
ByBlock
  2

 70
0
 40
1.0
 71
1
 41
1.0
 91
-1023410177
 42
1.0
 72
1
  3

 73
1
 74
1
 75
1
 44
0.5
 73
0
 45
1.0
 46
1.0
 77
1
  4

 78
1
 79
1
170
1
 48
1.0
171
1
  6

172
1
173
1
174
1
140
1.0
141
1.0
175
1
  7

176
1
177
1
178
1
143
1.0
179
1
  8

270
1
271
1
272
1
145
1.0
146
1.0
273
1
  9

274
1
275
1
276
1
 42
1.0
 72
1
  3

 73
1
 74
1
 75
1
 94
63
  0
MATERIAL
  5
20
102
{ACAD_REACTORS
330
E
102
}
330
E
100
AcDbMaterial
  1
ByLayer
  2

 70
0
 40
1.0
 71
1
 41
1.0
 91
-1023410177
 42
1.0
 72
1
  3

 73
1
 74
1
 75
1
 44
0.5
 73
0
 45
1.0
 46
1.0
 77
1
  4

 78
1
 79
1
170
1
 48
1.0
171
1
  6

172
1
173
1
174
1
140
1.0
141
1.0
175
1
  7

176
1
177
1
178
1
143
1.0
179
1
  8

270
1
271
1
272
1
145
1.0
146
1.0
273
1
  9

274
1
275
1
276
1
 42
1.0
 72
1
  3

 73
1
 74
1
 75
1
 94
63
  0
MATERIAL
  5
21
102
{ACAD_REACTORS
330
E
102
}
330
E
100
AcDbMaterial
  1
Global
  2

 70
0
 40
1.0
 71
1
 41
1.0
 91
-1023410177
 42
1.0
 72
1
  3

 73
1
 74
1
 75
1
 44
0.5
 73
0
 45
1.0
 46
1.0
 77
1
  4

 78
1
 79
1
170
1
 48
1.0
171
1
  6

172
1
173
1
174
1
140
1.0
141
1.0
175
1
  7

176
1
177
1
178
1
143
1.0
179
1
  8

270
1
271
1
272
1
145
1.0
146
1.0
273
1
  9

274
1
275
1
276
1
 42
1.0
 72
1
  3

 73
1
 74
1
 75
1
 94
63
  0
MLINESTYLE
  5
22
102
{ACAD_REACTORS
330
10
102
}
330
10
100
AcDbMlineStyle
  2
Standard
 70
0
  3

 62
256
 51
90.0
 52
90.0
 71
2
 49
0.5
 62
256
  6
BYLAYER
 49
-0.5
 62
256
  6
BYLAYER
  0
MLEADERSTYLE
  5
2C
102
{ACAD_REACTORS
330
F
102
}
330
F
100
AcDbMLeaderStyle
179
2
170
2
171
1
172
0
 90
2
 40
0.0
 41
0.0
173
1
 91
-1056964608
 92
-2
290
1
 42
2.0
291
1
 43
8.0
  3
Standard
 44
4.0
300

342
29
174
1
175
1
176
0
178
1
 93
-1056964608
 45
4.0
292
0
297
0
 46
4.0
 94
-1056964608
 47
1.0
 49
1.0
140
1.0
294
1
141
0.0
177
0
142
1.0
295
0
296
0
143
3.75
271
0
272
9
273
9
  0
DICTIONARY
  5
2D
330
A
100
AcDbDictionary
280
1
281
1
  3
CREATED_BY_EZDXF
350
2E
  3
WRITTEN_BY_EZDXF
350
36
  0
DICTIONARYVAR
  5
2E
330
2D
100
DictionaryVariables
280
0
  1
1.4.2 @ 2025-08-24T12:13:48.576467+00:00
  0
DICTIONARYVAR
  5
36
330
2D
100
DictionaryVariables
280
0
  1
1.4.2 @ 2025-08-24T12:13:48.580507+00:00
  0
ENDSEC
  0
EOF
