  0
SECTION
  2
HEADER
  9
$ACADVER
  1
AC1024
  9
$ACADMAINTVER
 70
6
  9
$DWGCODEPAGE
  3
ANSI_1252
  9
$LASTSAVEDBY
  1
ezdxf
  9
$INSBASE
 10
0.0
 20
0.0
 30
0.0
  9
$EXTMIN
 10
1e+20
 20
1e+20
 30
1e+20
  9
$EXTMAX
 10
-1e+20
 20
-1e+20
 30
-1e+20
  9
$LIMMIN
 10
0.0
 20
0.0
  9
$LIMMAX
 10
420.0
 20
297.0
  9
$ORTHOMODE
 70
0
  9
$REGENMODE
 70
1
  9
$FILLMODE
 70
1
  9
$QTEXTMODE
 70
0
  9
$MIRRTEXT
 70
1
  9
$LTSCALE
 40
1.0
  9
$ATTMODE
 70
1
  9
$TEXTSIZE
 40
2.5
  9
$TRACEWID
 40
1.0
  9
$TEXTSTYLE
  7
Standard
  9
$CLAYER
  8
0
  9
$CELTYPE
  6
ByLayer
  9
$CECOLOR
 62
256
  9
$CELTSCALE
 40
1.0
  9
$DISPSILH
 70
0
  9
$DIMSCALE
 40
1.0
  9
$DIMASZ
 40
2.5
  9
$DIMEXO
 40
0.625
  9
$DIMDLI
 40
3.75
  9
$DIMRND
 40
0.0
  9
$DIMDLE
 40
0.0
  9
$DIMEXE
 40
1.25
  9
$DIMTP
 40
0.0
  9
$DIMTM
 40
0.0
  9
$DIMTXT
 40
2.5
  9
$DIMCEN
 40
2.5
  9
$DIMTSZ
 40
0.0
  9
$DIMTOL
 70
0
  9
$DIMLIM
 70
0
  9
$DIMTIH
 70
0
  9
$DIMTOH
 70
0
  9
$DIMSE1
 70
0
  9
$DIMSE2
 70
0
  9
$DIMTAD
 70
1
  9
$DIMZIN
 70
8
  9
$DIMBLK
  1

  9
$DIMASO
 70
1
  9
$DIMSHO
 70
1
  9
$DIMPOST
  1

  9
$DIMAPOST
  1

  9
$DIMALT
 70
0
  9
$DIMALTD
 70
3
  9
$DIMALTF
 40
0.03937007874
  9
$DIMLFAC
 40
1.0
  9
$DIMTOFL
 70
1
  9
$DIMTVP
 40
0.0
  9
$DIMTIX
 70
0
  9
$DIMSOXD
 70
0
  9
$DIMSAH
 70
0
  9
$DIMBLK1
  1

  9
$DIMBLK2
  1

  9
$DIMSTYLE
  2
ISO-25
  9
$DIMCLRD
 70
0
  9
$DIMCLRE
 70
0
  9
$DIMCLRT
 70
0
  9
$DIMTFAC
 40
1.0
  9
$DIMGAP
 40
0.625
  9
$DIMJUST
 70
0
  9
$DIMSD1
 70
0
  9
$DIMSD2
 70
0
  9
$DIMTOLJ
 70
0
  9
$DIMTZIN
 70
8
  9
$DIMALTZ
 70
0
  9
$DIMALTTZ
 70
0
  9
$DIMUPT
 70
0
  9
$DIMDEC
 70
2
  9
$DIMTDEC
 70
2
  9
$DIMALTU
 70
2
  9
$DIMALTTD
 70
3
  9
$DIMTXSTY
  7
Standard
  9
$DIMAUNIT
 70
0
  9
$DIMADEC
 70
0
  9
$DIMALTRND
 40
0.0
  9
$DIMAZIN
 70
0
  9
$DIMDSEP
 70
44
  9
$DIMATFIT
 70
3
  9
$DIMFRAC
 70
0
  9
$DIMLDRBLK
  1

  9
$DIMLUNIT
 70
2
  9
$DIMLWD
 70
-2
  9
$DIMLWE
 70
-2
  9
$DIMTMOVE
 70
0
  9
$DIMFXL
 40
1.0
  9
$DIMFXLON
 70
0
  9
$DIMJOGANG
 40
0.785398163397
  9
$DIMTFILL
 70
0
  9
$DIMTFILLCLR
 70
0
  9
$DIMARCSYM
 70
0
  9
$DIMLTYPE
  6

  9
$DIMLTEX1
  6

  9
$DIMLTEX2
  6

  9
$DIMTXTDIRECTION
 70
0
  9
$LUNITS
 70
2
  9
$LUPREC
 70
4
  9
$SKETCHINC
 40
1.0
  9
$FILLETRAD
 40
10.0
  9
$AUNITS
 70
0
  9
$AUPREC
 70
2
  9
$MENU
  1
.
  9
$ELEVATION
 40
0.0
  9
$PELEVATION
 40
0.0
  9
$THICKNESS
 40
0.0
  9
$LIMCHECK
 70
0
  9
$CHAMFERA
 40
0.0
  9
$CHAMFERB
 40
0.0
  9
$CHAMFERC
 40
0.0
  9
$CHAMFERD
 40
0.0
  9
$SKPOLY
 70
0
  9
$TDCREATE
 40
2460912.6345833335
  9
$TDUCREATE
 40
2458532.153996898
  9
$TDUPDATE
 40
2460912.6345833335
  9
$TDUUPDATE
 40
2458532.1544311
  9
$TDINDWG
 40
0.0
  9
$TDUSRTIMER
 40
0.0
  9
$USRTIMER
 70
1
  9
$ANGBASE
 50
0.0
  9
$ANGDIR
 70
0
  9
$PDMODE
 70
0
  9
$PDSIZE
 40
0.0
  9
$PLINEWID
 40
0.0
  9
$SPLFRAME
 70
0
  9
$SPLINETYPE
 70
6
  9
$SPLINESEGS
 70
8
  9
$HANDSEED
  5
37
  9
$SURFTAB1
 70
6
  9
$SURFTAB2
 70
6
  9
$SURFTYPE
 70
6
  9
$SURFU
 70
6
  9
$SURFV
 70
6
  9
$UCSBASE
  2

  9
$UCSNAME
  2

  9
$UCSORG
 10
0.0
 20
0.0
 30
0.0
  9
$UCSXDIR
 10
1.0
 20
0.0
 30
0.0
  9
$UCSYDIR
 10
0.0
 20
1.0
 30
0.0
  9
$UCSORTHOREF
  2

  9
$UCSORTHOVIEW
 70
0
  9
$UCSORGTOP
 10
0.0
 20
0.0
 30
0.0
  9
$UCSORGBOTTOM
 10
0.0
 20
0.0
 30
0.0
  9
$UCSORGLEFT
 10
0.0
 20
0.0
 30
0.0
  9
$UCSORGRIGHT
 10
0.0
 20
0.0
 30
0.0
  9
$UCSORGFRONT
 10
0.0
 20
0.0
 30
0.0
  9
$UCSORGBACK
 10
0.0
 20
0.0
 30
0.0
  9
$PUCSBASE
  2

  9
$PUCSNAME
  2

  9
$PUCSORG
 10
0.0
 20
0.0
 30
0.0
  9
$PUCSXDIR
 10
1.0
 20
0.0
 30
0.0
  9
$PUCSYDIR
 10
0.0
 20
1.0
 30
0.0
  9
$PUCSORTHOREF
  2

  9
$PUCSORTHOVIEW
 70
0
  9
$PUCSORGTOP
 10
0.0
 20
0.0
 30
0.0
  9
$PUCSORGBOTTOM
 10
0.0
 20
0.0
 30
0.0
  9
$PUCSORGLEFT
 10
0.0
 20
0.0
 30
0.0
  9
$PUCSORGRIGHT
 10
0.0
 20
0.0
 30
0.0
  9
$PUCSORGFRONT
 10
0.0
 20
0.0
 30
0.0
  9
$PUCSORGBACK
 10
0.0
 20
0.0
 30
0.0
  9
$USERI1
 70
0
  9
$USERI2
 70
0
  9
$USERI3
 70
0
  9
$USERI4
 70
0
  9
$USERI5
 70
0
  9
$USERR1
 40
0.0
  9
$USERR2
 40
0.0
  9
$USERR3
 40
0.0
  9
$USERR4
 40
0.0
  9
$USERR5
 40
0.0
  9
$WORLDVIEW
 70
1
  9
$SHADEDGE
 70
3
  9
$SHADEDIF
 70
70
  9
$TILEMODE
 70
1
  9
$MAXACTVP
 70
64
  9
$PINSBASE
 10
0.0
 20
0.0
 30
0.0
  9
$PLIMCHECK
 70
0
  9
$PEXTMIN
 10
1e+20
 20
1e+20
 30
1e+20
  9
$PEXTMAX
 10
-1e+20
 20
-1e+20
 30
-1e+20
  9
$PLIMMIN
 10
0.0
 20
0.0
  9
$PLIMMAX
 10
420.0
 20
297.0
  9
$UNITMODE
 70
0
  9
$VISRETAIN
 70
1
  9
$PLINEGEN
 70
0
  9
$PSLTSCALE
 70
1
  9
$TREEDEPTH
 70
3020
  9
$CMLSTYLE
  2
Standard
  9
$CMLJUST
 70
0
  9
$CMLSCALE
 40
20.0
  9
$PROXYGRAPHICS
 70
1
  9
$MEASUREMENT
 70
1
  9
$CELWEIGHT
370
-1
  9
$ENDCAPS
280
0
  9
$JOINSTYLE
280
0
  9
$LWDISPLAY
290
0
  9
$INSUNITS
 70
6
  9
$HYPERLINKBASE
  1

  9
$STYLESHEET
  1

  9
$XEDIT
290
1
  9
$CEPSNTYPE
380
0
  9
$PSTYLEMODE
290
1
  9
$FINGERPRINTGUID
  2
{79E2E58D-47DA-4BE8-8579-3369616B77D1}
  9
$VERSIONGUID
  2
{B74A3D20-511E-440F-92F5-1D2BC6B2EF2B}
  9
$EXTNAMES
290
1
  9
$PSVPSCALE
 40
0.0
  9
$OLESTARTUP
290
0
  9
$SORTENTS
280
127
  9
$INDEXCTL
280
0
  9
$HIDETEXT
280
1
  9
$XCLIPFRAME
280
1
  9
$HALOGAP
280
0
  9
$OBSCOLOR
 70
257
  9
$OBSLTYPE
280
0
  9
$INTERSECTIONDISPLAY
280
0
  9
$INTERSECTIONCOLOR
 70
257
  9
$DIMASSOC
280
2
  9
$PROJECTNAME
  1

  9
$CAMERADISPLAY
290
0
  9
$LENSLENGTH
 40
50.0
  9
$CAMERAHEIGHT
 40
0.0
  9
$STEPSPERSEC
 40
24.0
  9
$STEPSIZE
 40
100.0
  9
$3DDWFPREC
 40
2.0
  9
$PSOLWIDTH
 40
0.005
  9
$PSOLHEIGHT
 40
0.08
  9
$LOFTANG1
 40
1.570796326795
  9
$LOFTANG2
 40
1.570796326795
  9
$LOFTMAG1
 40
0.0
  9
$LOFTMAG2
 40
0.0
  9
$LOFTPARAM
 70
7
  9
$LOFTNORMALS
280
1
  9
$LATITUDE
 40
37.795
  9
$LONGITUDE
 40
-122.394
  9
$NORTHDIRECTION
 40
0.0
  9
$TIMEZONE
 70
-8000
  9
$LIGHTGLYPHDISPLAY
280
1
  9
$TILEMODELIGHTSYNCH
280
1
  9
$CMATERIAL
347
20
  9
$SOLIDHIST
280
0
  9
$SHOWHIST
280
1
  9
$DWFFRAME
280
2
  9
$DGNFRAME
280
2
  9
$REALWORLDSCALE
290
1
  9
$INTERFERECOLOR
 62
256
  9
$CSHADOW
280
0
  9
$SHADOWPLANELOCATION
 40
0.0
  0
ENDSEC
  0
SECTION
  2
CLASSES
  0
CLASS
  1
ACDBDICTIONARYWDFLT
  2
AcDbDictionaryWithDefault
  3
ObjectDBX Classes
 90
0
 91
0
280
0
281
0
  0
CLASS
  1
SUN
  2
AcDbSun
  3
SCENEOE
 90
1153
 91
0
280
0
281
0
  0
CLASS
  1
VISUALSTYLE
  2
AcDbVisualStyle
  3
ObjectDBX Classes
 90
4095
 91
0
280
0
281
0
  0
CLASS
  1
MATERIAL
  2
AcDbMaterial
  3
ObjectDBX Classes
 90
1153
 91
0
280
0
281
0
  0
CLASS
  1
SCALE
  2
AcDbScale
  3
ObjectDBX Classes
 90
1153
 91
0
280
0
281
0
  0
CLASS
  1
TABLESTYLE
  2
AcDbTableStyle
  3
ObjectDBX Classes
 90
4095
 91
0
280
0
281
0
  0
CLASS
  1
MLEADERSTYLE
  2
AcDbMLeaderStyle
  3
ACDB_MLEADERSTYLE_CLASS
 90
4095
 91
0
280
0
281
0
  0
CLASS
  1
DICTIONARYVAR
  2
AcDbDictionaryVar
  3
ObjectDBX Classes
 90
0
 91
0
280
0
281
0
  0
CLASS
  1
CELLSTYLEMAP
  2
AcDbCellStyleMap
  3
ObjectDBX Classes
 90
1152
 91
0
280
0
281
0
  0
CLASS
  1
MENTALRAYRENDERSETTINGS
  2
AcDbMentalRayRenderSettings
  3
SCENEOE
 90
1024
 91
0
280
0
281
0
  0
CLASS
  1
ACDBDETAILVIEWSTYLE
  2
AcDbDetailViewStyle
  3
ObjectDBX Classes
 90
1025
 91
0
280
0
281
0
  0
CLASS
  1
ACDBSECTIONVIEWSTYLE
  2
AcDbSectionViewStyle
  3
ObjectDBX Classes
 90
1025
 91
0
280
0
281
0
  0
CLASS
  1
RASTERVARIABLES
  2
AcDbRasterVariables
  3
ISM
 90
0
 91
0
280
0
281
0
  0
CLASS
  1
LAYOUT
  2
AcDbLayout
  3
ObjectDBX Classes
 90
0
 91
0
280
0
281
0
  0
CLASS
  1
ACDBPLACEHOLDER
  2
AcDbPlaceHolder
  3
ObjectDBX Classes
 90
0
 91
0
280
0
281
0
  0
ENDSEC
  0
SECTION
  2
TABLES
  0
TABLE
  2
VPORT
  5
8
330
0
100
AcDbSymbolTable
 70
1
  0
VPORT
  5
23
330
8
100
AcDbSymbolTableRecord
100
AcDbViewportTableRecord
  2
*Active
 70
0
 10
0.0
 20
0.0
 11
1.0
 21
1.0
 12
0.0
 22
0.0
 13
0.0
 23
0.0
 14
0.5
 24
0.5
 15
0.5
 25
0.5
 16
0.0
 26
0.0
 36
1.0
 17
0.0
 27
0.0
 37
0.0
 40
1000.0
 41
1.34
 42
50.0
 43
0.0
 44
0.0
 50
0.0
 51
0.0
 71
0
 72
1000
 73
1
 74
3
 75
0
 76
0
 77
0
 78
0
281
0
 65
0
146
0.0
  0
ENDTAB
  0
TABLE
  2
LTYPE
  5
2
330
0
100
AcDbSymbolTable
 70
3
  0
LTYPE
  5
24
330
2
100
AcDbSymbolTableRecord
100
AcDbLinetypeTableRecord
  2
ByBlock
 70
0
  3

 72
65
 73
0
 40
0.0
  0
LTYPE
  5
25
330
2
100
AcDbSymbolTableRecord
100
AcDbLinetypeTableRecord
  2
ByLayer
 70
0
  3

 72
65
 73
0
 40
0.0
  0
LTYPE
  5
26
330
2
100
AcDbSymbolTableRecord
100
AcDbLinetypeTableRecord
  2
Continuous
 70
0
  3

 72
65
 73
0
 40
0.0
  0
ENDTAB
  0
TABLE
  2
LAYER
  5
1
330
0
100
AcDbSymbolTable
 70
2
  0
LAYER
  5
27
330
1
100
AcDbSymbolTableRecord
100
AcDbLayerTableRecord
  2
0
 70
0
 62
7
  6
Continuous
370
-3
390
13
347
21
  0
LAYER
  5
28
330
1
100
AcDbSymbolTableRecord
100
AcDbLayerTableRecord
  2
Defpoints
 70
0
 62
7
  6
Continuous
290
0
370
-3
390
13
347
21
  0
ENDTAB
  0
TABLE
  2
STYLE
  5
5
330
0
100
AcDbSymbolTable
 70
1
  0
STYLE
  5
29
330
5
100
AcDbSymbolTableRecord
100
AcDbTextStyleTableRecord
  2
Standard
 70
0
 40
0.0
 41
1.0
 50
0.0
 71
0
 42
2.5
  3
txt
  4

  0
ENDTAB
  0
TABLE
  2
VIEW
  5
7
330
0
100
AcDbSymbolTable
 70
0
  0
ENDTAB
  0
TABLE
  2
UCS
  5
6
330
0
100
AcDbSymbolTable
 70
0
  0
ENDTAB
  0
TABLE
  2
APPID
  5
3
330
0
100
AcDbSymbolTable
 70
3
  0
APPID
  5
2A
330
3
100
AcDbSymbolTableRecord
100
AcDbRegAppTableRecord
  2
ACAD
 70
0
  0
APPID
  5
34
330
3
100
AcDbSymbolTableRecord
100
AcDbRegAppTableRecord
  2
HATCHBACKGROUNDCOLOR
 70
0
  0
APPID
  5
35
330
3
100
AcDbSymbolTableRecord
100
AcDbRegAppTableRecord
  2
EZDXF
 70
0
  0
ENDTAB
  0
TABLE
  2
DIMSTYLE
  5
4
330
0
100
AcDbSymbolTable
 70
1
100
AcDbDimStyleTable
  0
DIMSTYLE
105
2B
330
4
100
AcDbSymbolTableRecord
100
AcDbDimStyleTableRecord
  2
Standard
 70
0
 40
1.0
 41
2.5
 42
0.625
 43
3.75
 44
1.25
 45
0.0
 46
0.0
 47
0.0
 48
0.0
 49
2.5
140
2.5
141
2.5
142
0.0
143
0.03937007874
144
1.0
145
0.0
146
1.0
147
0.625
148
0.0
 69
0
 70
0
 71
0
 72
0
 73
0
 74
0
 75
0
 76
0
 77
1
 78
8
 79
3
170
0
171
3
172
1
173
0
174
0
175
0
176
0
177
0
178
0
179
2
271
2
272
2
273
2
274
3
275
0
276
0
277
2
278
44
279
0
280
0
281
0
282
0
283
0
284
8
285
0
286
0
288
0
289
3
290
0
371
-2
372
-2
  0
ENDTAB
  0
TABLE
  2
BLOCK_RECORD
  5
9
330
0
100
AcDbSymbolTable
 70
2
  0
BLOCK_RECORD
  5
17
330
9
100
AcDbSymbolTableRecord
100
AcDbBlockTableRecord
  2
*Model_Space
340
1A
 70
0
280
1
281
0
  0
BLOCK_RECORD
  5
1B
330
9
100
AcDbSymbolTableRecord
100
AcDbBlockTableRecord
  2
*Paper_Space
340
1E
 70
0
280
1
281
0
  0
ENDTAB
  0
ENDSEC
  0
SECTION
  2
BLOCKS
  0
BLOCK
  5
18
330
17
100
AcDbEntity
  8
0
100
AcDbBlockBegin
  2
*Model_Space
 70
0
 10
0.0
 20
0.0
 30
0.0
  3
*Model_Space
  1

  0
ENDBLK
  5
19
330
17
100
AcDbEntity
  8
0
100
AcDbBlockEnd
  0
BLOCK
  5
1C
330
1B
100
AcDbEntity
  8
0
100
AcDbBlockBegin
  2
*Paper_Space
 70
0
 10
0.0
 20
0.0
 30
0.0
  3
*Paper_Space
  1

  0
ENDBLK
  5
1D
330
1B
100
AcDbEntity
  8
0
100
AcDbBlockEnd
  0
ENDSEC
  0
SECTION
  2
ENTITIES
  0
LWPOLYLINE
  5
2F
330
17
100
AcDbEntity
  8
FRAME
100
AcDbPolyline
 90
5
 70
1
 10
280.0
 20
880.0
 10
620.0
 20
880.0
 10
620.0
 20
1220.0
 10
280.0
 20
1220.0
 10
280.0
 20
880.0
  0
CIRCLE
  5
30
330
17
100
AcDbEntity
  8
CIRCLES
100
AcDbCircle
 10
450.0
 20
1000.0
 30
0.0
 40
5.0
  0
CIRCLE
  5
31
330
17
100
AcDbEntity
  8
CIRCLES
100
AcDbCircle
 10
400.0
 20
1100.0
 30
0.0
 40
5.0
  0
CIRCLE
  5
32
330
17
100
AcDbEntity
  8
CIRCLES
100
AcDbCircle
 10
500.0
 20
1100.0
 30
0.0
 40
5.0
  0
LWPOLYLINE
  5
33
330
17
100
AcDbEntity
  8
CONTOUR_1
100
AcDbPolyline
 90
278
 70
1
 10
442.1518532982635
 20
893.5843273118635
 10
440.92642996440054
 20
894.8097506457265
 10
440.92642996440054
 20
896.0351739795894
 10
439.7010066305375
 20
897.2605973134525
 10
439.7010066305375
 20
898.4860206473155
 10
434.7993132950855
 20
903.3877139827675
 10
433.5738899612225
 20
903.3877139827675
 10
432.34846662735947
 20
902.1622906489046
 10
431.1230432934965
 20
902.1622906489046
 10
429.89761995963346
 20
900.9368673150416
 10
424.99592662418144
 20
900.9368673150416
 10
423.7705032903184
 20
899.7114439811785
 10
421.3196566225924
 20
902.1622906489046
 10
421.3196566225924
 20
903.3877139827675
 10
420.0942332887294
 20
904.6131373166305
 10
420.0942332887294
 20
905.8385606504936
 10
418.8688099548664
 20
907.0639839843566
 10
418.8688099548664
 20
908.2894073182196
 10
416.41796328714037
 20
910.7402539859456
 10
415.1925399532774
 20
910.7402539859456
 10
413.96711661941436
 20
909.5148306520825
 10
412.7416932855513
 20
909.5148306520825
 10
411.51626995168834
 20
908.2894073182196
 10
410.2908466178253
 20
908.2894073182196
 10
409.06542328396233
 20
907.0639839843566
 10
407.8399999500993
 20
907.0639839843566
 10
406.6145766162363
 20
905.8385606504936
 10
404.1637299485103
 20
905.8385606504936
 10
402.9383066146473
 20
904.6131373166305
 10
400.48745994692126
 20
904.6131373166305
 10
399.2620366130582
 20
903.3877139827675
 10
396.8111899453322
 20
903.3877139827675
 10
395.58576661146924
 20
902.1622906489046
 10
393.1349199437432
 20
902.1622906489046
 10
391.9094966098802
 20
900.9368673150416
 10
356.372219927853
 20
900.9368673150416
 10
356.372219927853
 20
902.1622906489046
 10
355.14679659398996
 20
903.3877139827675
 10
355.14679659398996
 20
904.6131373166305
 10
353.9213732601269
 20
905.8385606504936
 10
353.9213732601269
 20
908.2894073182196
 10
352.69594992626395
 20
909.5148306520825
 10
352.69594992626395
 20
910.7402539859456
 10
350.24510325853794
 20
913.1911006536716
 10
347.7942565908119
 20
910.7402539859456
 10
347.7942565908119
 20
908.2894073182196
 10
346.5688332569489
 20
907.0639839843566
 10
346.5688332569489
 20
904.6131373166305
 10
345.3434099230859
 20
903.3877139827675
 10
345.3434099230859
 20
900.9368673150416
 10
344.1179865892229
 20
900.9368673150416
 10
344.1179865892229
 20
902.1622906489046
 10
341.66713992149687
 20
904.6131373166305
 10
331.8637532505928
 20
904.6131373166305
 10
329.4129065828668
 20
902.1622906489046
 10
329.4129065828668
 20
900.9368673150416
 10
325.73663658127776
 20
900.9368673150416
 10
325.73663658127776
 20
904.6131373166305
 10
324.51121324741473
 20
905.8385606504936
 10
312.2569799087847
 20
905.8385606504936
 10
311.0315565749217
 20
904.6131373166305
 10
311.0315565749217
 20
900.9368673150416
 10
308.5807099071956
 20
900.9368673150416
 10
309.80613324105866
 20
902.1622906489046
 10
309.80613324105866
 20
903.3877139827675
 10
307.35528657333265
 20
905.8385606504936
 10
297.5518999024286
 20
905.8385606504936
 10
297.5518999024286
 20
907.0639839843566
 10
298.7773232362916
 20
908.2894073182196
 10
298.7773232362916
 20
929.1216039938907
 10
297.5518999024286
 20
930.3470273277537
 10
297.5518999024286
 20
931.5724506616167
 10
298.7773232362916
 20
932.7978739954798
 10
298.7773232362916
 20
934.0232973293428
 10
297.5518999024286
 20
935.2487206632057
 10
297.5518999024286
 20
940.1504139986578
 10
296.32647656856557
 20
941.3758373325207
 10
296.32647656856557
 20
946.2775306679729
 10
297.5518999024286
 20
947.5029540018359
 10
300.0027465701546
 20
947.5029540018359
 10
301.2281699040176
 20
948.7283773356988
 10
303.6790165717436
 20
948.7283773356988
 10
304.90443990560664
 20
949.9538006695618
 10
306.1298632394696
 20
949.9538006695618
 10
308.5807099071956
 20
952.4046473372879
 10
308.5807099071956
 20
956.0809173388769
 10
303.6790165717436
 20
960.982610674329
 10
301.2281699040176
 20
960.982610674329
 10
300.0027465701546
 20
962.2080340081919
 10
295.10105323470253
 20
962.2080340081919
 10
304.90443990560664
 20
972.011420679096
 10
302.4535932378806
 20
974.462267346822
 10
301.2281699040176
 20
974.462267346822
 10
301.2281699040176
 20
984.2656540177261
 10
302.4535932378806
 20
985.4910773515891
 10
302.4535932378806
 20
991.6181940209042
 10
303.6790165717436
 20
992.8436173547672
 10
302.4535932378806
 20
994.0690406886301
 10
302.4535932378806
 20
995.2944640224931
 10
301.2281699040176
 20
996.5198873563562
 10
301.2281699040176
 20
1000.1961573579451
 10
300.0027465701546
 20
1001.4215806918082
 10
300.0027465701546
 20
1005.0978506933973
 10
297.5518999024286
 20
1007.5486973611232
 10
295.10105323470253
 20
1007.5486973611232
 10
295.10105323470253
 20
1008.7741206949862
 10
296.32647656856557
 20
1009.9995440288493
 10
296.32647656856557
 20
1012.4503906965753
 10
297.5518999024286
 20
1013.6758140304382
 10
297.5518999024286
 20
1016.1266606981643
 10
301.2281699040176
 20
1019.8029306997533
 10
301.2281699040176
 20
1023.4792007013424
 10
298.7773232362916
 20
1025.9300473690685
 10
300.0027465701546
 20
1027.1554707029313
 10
300.0027465701546
 20
1030.8317407045204
 10
301.2281699040176
 20
1032.0571640383835
 10
301.2281699040176
 20
1198.7147374437525
 10
597.7806166988656
 20
1198.7147374437525
 10
597.7806166988656
 20
1017.3520840320273
 10
599.0060400327286
 20
1016.1266606981643
 10
600.2314633665916
 20
1017.3520840320273
 10
601.4568867004546
 20
1017.3520840320273
 10
601.4568867004546
 20
1008.7741206949862
 10
600.2314633665916
 20
1007.5486973611232
 10
600.2314633665916
 20
1006.3232740272603
 10
599.0060400327286
 20
1007.5486973611232
 10
597.7806166988656
 20
1006.3232740272603
 10
597.7806166988656
 20
1005.0978506933973
 10
596.5551933650025
 20
1005.0978506933973
 10
595.3297700311396
 20
1003.8724273595342
 10
596.5551933650025
 20
1002.6470040256712
 10
596.5551933650025
 20
1000.1961573579451
 10
597.7806166988656
 20
998.9707340240822
 10
597.7806166988656
 20
994.0690406886301
 10
599.0060400327286
 20
992.8436173547672
 10
599.0060400327286
 20
990.3927706870411
 10
597.7806166988656
 20
989.1673473531781
 10
597.7806166988656
 20
949.9538006695618
 10
599.0060400327286
 20
948.7283773356988
 10
599.0060400327286
 20
947.5029540018359
 10
600.2314633665916
 20
946.2775306679729
 10
599.0060400327286
 20
946.2775306679729
 10
597.7806166988656
 20
945.0521073341098
 10
597.7806166988656
 20
943.8266840002468
 10
599.0060400327286
 20
942.6012606663838
 10
600.2314633665916
 20
943.8266840002468
 10
601.4568867004546
 20
942.6012606663838
 10
601.4568867004546
 20
941.3758373325207
 10
602.6823100343177
 20
940.1504139986578
 10
602.6823100343177
 20
937.6995673309318
 10
603.9077333681806
 20
936.4741439970687
 10
603.9077333681806
 20
934.0232973293428
 10
605.1331567020436
 20
932.7978739954798
 10
605.1331567020436
 20
931.5724506616167
 10
606.3585800359066
 20
930.3470273277537
 10
605.1331567020436
 20
929.1216039938907
 10
602.6823100343177
 20
929.1216039938907
 10
601.4568867004546
 20
927.8961806600277
 10
599.0060400327286
 20
927.8961806600277
 10
597.7806166988656
 20
926.6707573261647
 10
597.7806166988656
 20
925.4453339923017
 10
595.3297700311396
 20
925.4453339923017
 10
594.1043466972766
 20
924.2199106584387
 10
594.1043466972766
 20
922.9944873245756
 10
595.3297700311396
 20
921.7690639907127
 10
595.3297700311396
 20
920.5436406568497
 10
596.5551933650025
 20
919.3182173229867
 10
596.5551933650025
 20
916.8673706552606
 10
597.7806166988656
 20
915.6419473213977
 10
597.7806166988656
 20
909.5148306520825
 10
600.2314633665916
 20
907.0639839843566
 10
600.2314633665916
 20
905.8385606504936
 10
601.4568867004546
 20
904.6131373166305
 10
601.4568867004546
 20
903.3877139827675
 10
599.0060400327286
 20
903.3877139827675
 10
597.7806166988656
 20
902.1622906489046
 10
595.3297700311396
 20
902.1622906489046
 10
594.1043466972766
 20
900.9368673150416
 10
587.9772300279615
 20
900.9368673150416
 10
587.9772300279615
 20
903.3877139827675
 10
586.7518066940985
 20
904.6131373166305
 10
586.7518066940985
 20
905.8385606504936
 10
584.3009600263725
 20
908.2894073182196
 10
583.0755366925094
 20
908.2894073182196
 10
581.8501133586465
 20
907.0639839843566
 10
580.6246900247835
 20
907.0639839843566
 10
579.3992666909205
 20
905.8385606504936
 10
576.9484200231944
 20
905.8385606504936
 10
575.7229966893315
 20
904.6131373166305
 10
574.4975733554684
 20
904.6131373166305
 10
572.0467266877424
 20
902.1622906489046
 10
573.2721500216054
 20
900.9368673150416
 10
572.0467266877424
 20
899.7114439811785
 10
570.8213033538794
 20
899.7114439811785
 10
569.5958800200164
 20
898.4860206473155
 10
568.3704566861534
 20
898.4860206473155
 10
567.1450333522904
 20
897.2605973134525
 10
564.6941866845643
 20
897.2605973134525
 10
563.4687633507014
 20
896.0351739795894
 10
562.2433400168384
 20
896.0351739795894
 10
561.0179166829753
 20
897.2605973134525
 10
561.0179166829753
 20
898.4860206473155
 10
558.5670700152493
 20
900.9368673150416
 10
557.3416466813864
 20
900.9368673150416
 10
556.1162233475233
 20
899.7114439811785
 10
556.1162233475233
 20
897.2605973134525
 10
554.8908000136603
 20
897.2605973134525
 10
553.6653766797973
 20
896.0351739795894
 10
552.4399533459343
 20
896.0351739795894
 10
551.2145300120712
 20
894.8097506457265
 10
548.7636833443453
 20
894.8097506457265
 10
547.5382600104822
 20
893.5843273118635
 10
547.5382600104822
 20
894.8097506457265
 10
546.3128366766192
 20
896.0351739795894
 10
546.3128366766192
 20
898.4860206473155
 10
542.6365666750302
 20
902.1622906489046
 10
542.6365666750302
 20
903.3877139827675
 10
540.1857200073042
 20
905.8385606504936
 10
537.7348733395781
 20
905.8385606504936
 10
536.5094500057152
 20
904.6131373166305
 10
534.0586033379891
 20
904.6131373166305
 10
532.8331800041261
 20
903.3877139827675
 10
531.6077566702631
 20
903.3877139827675
 10
530.3823333364002
 20
902.1622906489046
 10
529.1569100025371
 20
902.1622906489046
 10
526.7060633348111
 20
899.7114439811785
 10
527.9314866686741
 20
898.4860206473155
 10
523.0297933332221
 20
898.4860206473155
 10
523.0297933332221
 20
899.7114439811785
 10
521.8043699993591
 20
900.9368673150416
 10
521.8043699993591
 20
903.3877139827675
 10
519.353523331633
 20
905.8385606504936
 10
516.9026766639071
 20
905.8385606504936
 10
514.451829996181
 20
903.3877139827675
 10
514.451829996181
 20
902.1622906489046
 10
515.677253330044
 20
900.9368673150416
 10
507.09928999300297
 20
900.9368673150416
 10
505.87386665914
 20
902.1622906489046
 10
505.87386665914
 20
903.3877139827675
 10
502.19759665755095
 20
907.0639839843566
 10
502.19759665755095
 20
908.2894073182196
 10
499.74674998982493
 20
910.7402539859456
 10
498.5213266559619
 20
910.7402539859456
 10
497.2959033220989
 20
909.5148306520825
 10
496.0704799882359
 20
909.5148306520825
 10
493.6196333205099
 20
907.0639839843566
 10
492.3942099866469
 20
907.0639839843566
 10
488.71793998505785
 20
903.3877139827675
 10
487.4925166511948
 20
903.3877139827675
 10
486.26709331733184
 20
902.1622906489046
 10
485.0416699834688
 20
902.1622906489046
 10
483.81624664960583
 20
900.9368673150416
 10
481.3653999818798
 20
900.9368673150416
 10
480.1399766480168
 20
899.7114439811785
 10
476.4637066464278
 20
903.3877139827675
 10
476.4637066464278
 20
904.6131373166305
 10
475.23828331256476
 20
905.8385606504936
 10
475.23828331256476
 20
907.0639839843566
 10
472.78743664483875
 20
909.5148306520825
 10
471.5620133109757
 20
909.5148306520825
 10
470.33658997711274
 20
908.2894073182196
 10
469.1111666432497
 20
908.2894073182196
 10
466.6603199755237
 20
905.8385606504936
 10
465.4348966416607
 20
905.8385606504936
 10
464.2094733077977
 20
904.6131373166305
 10
462.9840499739347
 20
904.6131373166305
 10
460.5332033062087
 20
902.1622906489046
 10
459.30777997234566
 20
902.1622906489046
 10
458.0823566384826
 20
900.9368673150416
 10
454.40608663689363
 20
900.9368673150416
 10
451.9552399691676
 20
898.4860206473155
 10
450.7298166353046
 20
898.4860206473155
 10
449.5043933014416
 20
897.2605973134525
 10
448.2789699675786
 20
897.2605973134525
 10
445.82812329985256
 20
894.8097506457265
 10
444.60269996598953
 20
894.8097506457265
 10
443.37727663212655
 20
893.5843273118635
 10
442.1518532982635
 20
893.5843273118635
  0
ENDSEC
  0
SECTION
  2
OBJECTS
  0
DICTIONARY
  5
A
330
0
100
AcDbDictionary
281
1
  3
ACAD_COLOR
350
B
  3
ACAD_GROUP
350
C
  3
ACAD_LAYOUT
350
D
  3
ACAD_MATERIAL
350
E
  3
ACAD_MLEADERSTYLE
350
F
  3
ACAD_MLINESTYLE
350
10
  3
ACAD_PLOTSETTINGS
350
11
  3
ACAD_PLOTSTYLENAME
350
12
  3
ACAD_SCALELIST
350
14
  3
ACAD_TABLESTYLE
350
15
  3
ACAD_VISUALSTYLE
350
16
  3
EZDXF_META
350
2D
  0
DICTIONARY
  5
B
330
A
100
AcDbDictionary
281
1
  0
DICTIONARY
  5
C
330
A
100
AcDbDictionary
281
1
  0
DICTIONARY
  5
D
330
A
100
AcDbDictionary
281
1
  3
Model
350
1A
  3
Layout1
350
1E
  0
DICTIONARY
  5
E
330
A
100
AcDbDictionary
281
1
  3
ByBlock
350
1F
  3
ByLayer
350
20
  3
Global
350
21
  0
DICTIONARY
  5
F
330
A
100
AcDbDictionary
281
1
  3
Standard
350
2C
  0
DICTIONARY
  5
10
330
A
100
AcDbDictionary
281
1
  3
Standard
350
22
  0
DICTIONARY
  5
11
330
A
100
AcDbDictionary
281
1
  0
ACDBDICTIONARYWDFLT
  5
12
330
A
100
AcDbDictionary
281
1
  3
Normal
350
13
100
AcDbDictionaryWithDefault
340
13
  0
ACDBPLACEHOLDER
  5
13
330
12
  0
DICTIONARY
  5
14
330
A
100
AcDbDictionary
281
1
  0
DICTIONARY
  5
15
330
A
100
AcDbDictionary
281
1
  0
DICTIONARY
  5
16
330
A
100
AcDbDictionary
281
1
  0
LAYOUT
  5
1A
330
D
100
AcDbPlotSettings
  1

  4
A3
  6

 40
7.5
 41
20.0
 42
7.5
 43
20.0
 44
420.0
 45
297.0
 46
0.0
 47
0.0
 48
0.0
 49
0.0
140
0.0
141
0.0
142
1.0
143
1.0
 70
1024
 72
1
 73
0
 74
5
  7

 75
16
 76
0
 77
2
 78
300
147
1.0
148
0.0
149
0.0
100
AcDbLayout
  1
Model
 70
1
 71
0
 10
0.0
 20
0.0
 11
420.0
 21
297.0
 12
0.0
 22
0.0
 32
0.0
 14
1e+20
 24
1e+20
 34
1e+20
 15
-1e+20
 25
-1e+20
 35
-1e+20
146
0.0
 13
0.0
 23
0.0
 33
0.0
 16
1.0
 26
0.0
 36
0.0
 17
0.0
 27
1.0
 37
0.0
 76
1
330
17
  0
LAYOUT
  5
1E
330
D
100
AcDbPlotSettings
  1

  4
A3
  6

 40
7.5
 41
20.0
 42
7.5
 43
20.0
 44
420.0
 45
297.0
 46
0.0
 47
0.0
 48
0.0
 49
0.0
140
0.0
141
0.0
142
1.0
143
1.0
 70
0
 72
1
 73
0
 74
5
  7

 75
16
 76
0
 77
2
 78
300
147
1.0
148
0.0
149
0.0
100
AcDbLayout
  1
Layout1
 70
1
 71
1
 10
0.0
 20
0.0
 11
420.0
 21
297.0
 12
0.0
 22
0.0
 32
0.0
 14
1e+20
 24
1e+20
 34
1e+20
 15
-1e+20
 25
-1e+20
 35
-1e+20
146
0.0
 13
0.0
 23
0.0
 33
0.0
 16
1.0
 26
0.0
 36
0.0
 17
0.0
 27
1.0
 37
0.0
 76
1
330
1B
  0
MATERIAL
  5
1F
102
{ACAD_REACTORS
330
E
102
}
330
E
100
AcDbMaterial
  1
ByBlock
  2

 70
0
 40
1.0
 71
1
 41
1.0
 91
-1023410177
 42
1.0
 72
1
  3

 73
1
 74
1
 75
1
 44
0.5
 73
0
 45
1.0
 46
1.0
 77
1
  4

 78
1
 79
1
170
1
 48
1.0
171
1
  6

172
1
173
1
174
1
140
1.0
141
1.0
175
1
  7

176
1
177
1
178
1
143
1.0
179
1
  8

270
1
271
1
272
1
145
1.0
146
1.0
273
1
  9

274
1
275
1
276
1
 42
1.0
 72
1
  3

 73
1
 74
1
 75
1
 94
63
  0
MATERIAL
  5
20
102
{ACAD_REACTORS
330
E
102
}
330
E
100
AcDbMaterial
  1
ByLayer
  2

 70
0
 40
1.0
 71
1
 41
1.0
 91
-1023410177
 42
1.0
 72
1
  3

 73
1
 74
1
 75
1
 44
0.5
 73
0
 45
1.0
 46
1.0
 77
1
  4

 78
1
 79
1
170
1
 48
1.0
171
1
  6

172
1
173
1
174
1
140
1.0
141
1.0
175
1
  7

176
1
177
1
178
1
143
1.0
179
1
  8

270
1
271
1
272
1
145
1.0
146
1.0
273
1
  9

274
1
275
1
276
1
 42
1.0
 72
1
  3

 73
1
 74
1
 75
1
 94
63
  0
MATERIAL
  5
21
102
{ACAD_REACTORS
330
E
102
}
330
E
100
AcDbMaterial
  1
Global
  2

 70
0
 40
1.0
 71
1
 41
1.0
 91
-1023410177
 42
1.0
 72
1
  3

 73
1
 74
1
 75
1
 44
0.5
 73
0
 45
1.0
 46
1.0
 77
1
  4

 78
1
 79
1
170
1
 48
1.0
171
1
  6

172
1
173
1
174
1
140
1.0
141
1.0
175
1
  7

176
1
177
1
178
1
143
1.0
179
1
  8

270
1
271
1
272
1
145
1.0
146
1.0
273
1
  9

274
1
275
1
276
1
 42
1.0
 72
1
  3

 73
1
 74
1
 75
1
 94
63
  0
MLINESTYLE
  5
22
102
{ACAD_REACTORS
330
10
102
}
330
10
100
AcDbMlineStyle
  2
Standard
 70
0
  3

 62
256
 51
90.0
 52
90.0
 71
2
 49
0.5
 62
256
  6
BYLAYER
 49
-0.5
 62
256
  6
BYLAYER
  0
MLEADERSTYLE
  5
2C
102
{ACAD_REACTORS
330
F
102
}
330
F
100
AcDbMLeaderStyle
179
2
170
2
171
1
172
0
 90
2
 40
0.0
 41
0.0
173
1
 91
-1056964608
 92
-2
290
1
 42
2.0
291
1
 43
8.0
  3
Standard
 44
4.0
300

342
29
174
1
175
1
176
0
178
1
 93
-1056964608
 45
4.0
292
0
297
0
 46
4.0
 94
-1056964608
 47
1.0
 49
1.0
140
1.0
294
1
141
0.0
177
0
142
1.0
295
0
296
0
143
3.75
271
0
272
9
273
9
  0
DICTIONARY
  5
2D
330
A
100
AcDbDictionary
280
1
281
1
  3
CREATED_BY_EZDXF
350
2E
  3
WRITTEN_BY_EZDXF
350
36
  0
DICTIONARYVAR
  5
2E
330
2D
100
DictionaryVariables
280
0
  1
1.4.2 @ 2025-08-24T12:13:48.601493+00:00
  0
DICTIONARYVAR
  5
36
330
2D
100
DictionaryVariables
280
0
  1
1.4.2 @ 2025-08-24T12:13:48.603484+00:00
  0
ENDSEC
  0
EOF
