0
SECTION
2
HEADER
9
$ACADVER
1
AC1015
0
ENDSEC
0
SECTION
2
TABLES
0
TABLE
2
LAYER
70
1
0
LAYER
2
0
70
0
6
CONTINUOUS
62
7
0
ENDTAB
0
ENDSEC
0
SECTION
2
ENTITIES
0
TEXT
8
0
10
0.0
20
0.0
30
0.0
40
10.0
1
Grid Box B1 - #653979
0
LWPOLYLINE
8
0
62
8
90
4
70
1
10
-20.000000
20
280.000000
10
320.000000
20
280.000000
10
320.000000
20
620.000000
10
-20.000000
20
620.000000
0
LWPOLYLINE
8
0
62
9
90
4
70
1
10
233.871564
20
476.391436
10
267.629046
20
453.101257
10
275.270254
20
463.618478
10
243.863913
20
490.144725
0
LWPOLYLINE
8
0
62
9
90
4
70
1
10
214.327177
20
427.006968
10
253.629511
20
415.288328
10
257.646732
20
427.652062
10
219.580466
20
443.174929
0
LWPOLYLINE
8
0
62
9
90
4
70
1
10
281.982240
20
491.210490
10
267.280103
20
477.997295
10
230.886743
20
509.273423
10
254.113971
20
528.174166
0
LWPOLYLINE
8
0
62
9
90
4
70
1
10
255.503810
20
455.967742
10
245.604348
20
438.858037
10
201.327350
20
457.357236
10
217.577106
20
482.510519
0
LWPOLYLINE
8
0
62
9
90
4
70
1
10
279.189803
20
532.773362
10
266.548378
20
522.636409
10
251.873198
20
534.664632
10
269.764378
20
553.828875
0
LWPOLYLINE
8
0
62
9
90
4
70
1
10
240.004410
20
494.633472
10
231.114191
20
481.086242
10
213.440341
20
487.990882
10
224.533787
20
511.745839
0
LWPOLYLINE
8
0
62
9
90
4
70
1
10
214.522761
20
446.251329
10
210.253985
20
430.619918
10
191.311503
20
431.725101
10
194.521312
20
457.745471
0
ENDSEC
0
EOF
