0
SECTION
2
HEADER
9
$ACADVER
1
AC1015
0
ENDSEC
0
SECTION
2
TABLES
0
TABLE
2
LAYER
70
1
0
LAYER
2
0
70
0
6
CONTINUOUS
62
7
0
ENDTAB
0
ENDSEC
0
SECTION
2
ENTITIES
0
TEXT
8
0
10
0.0
20
0.0
30
0.0
40
10.0
1
Grid Box B1 - #a21818
0
LWPOLYLINE
8
0
62
8
90
4
70
1
10
-20.000000
20
280.000000
10
320.000000
20
280.000000
10
320.000000
20
620.000000
10
-20.000000
20
620.000000
0
LWPOLYLINE
8
0
62
9
90
4
70
1
10
211.000000
20
374.000000
10
252.000000
20
375.000000
10
252.000000
20
388.000000
10
211.000000
20
391.000000
0
LWPOLYLINE
8
0
62
9
90
4
70
1
10
224.215721
20
322.559224
10
262.900021
20
336.179977
10
258.882800
20
348.543712
10
218.962432
20
338.727184
0
LWPOLYLINE
8
0
62
9
90
4
70
1
10
241.211933
20
414.267613
10
237.084176
20
394.936214
10
189.257682
20
398.847653
10
196.939326
20
427.791297
0
LWPOLYLINE
8
0
62
9
90
4
70
1
10
240.505600
20
370.192000
10
242.553600
20
350.531200
10
195.859200
20
339.472000
10
194.220800
20
369.372800
0
LWPOLYLINE
8
0
62
9
90
4
70
1
10
253.453951
20
328.055332
10
261.477236
20
309.989667
10
220.485703
20
285.042380
10
209.687637
20
312.973437
0
LWPOLYLINE
8
0
62
9
90
4
70
1
10
205.239177
20
392.362913
10
206.009701
20
376.177435
10
187.652810
20
371.374977
10
182.664783
20
397.113705
0
LWPOLYLINE
8
0
62
9
90
4
70
1
10
213.062400
20
338.243200
10
218.796800
20
323.088000
10
202.822400
20
312.848000
10
190.124800
20
335.785600
0
ENDSEC
0
EOF
