0
SECTION
2
HEADER
9
$ACADVER
1
AC1015
0
ENDSEC
0
SECTION
2
TABLES
0
TABLE
2
LAYER
70
1
0
LAYER
2
0
70
0
6
CONTINUOUS
62
7
0
ENDTAB
0
ENDSEC
0
SECTION
2
ENTITIES
0
TEXT
8
0
10
0.0
20
0.0
30
0.0
40
10.0
1
Grid Box B1
0
LWPOLYLINE
8
0
62
8
90
4
70
1
10
-20.000000
20
280.000000
10
320.000000
20
280.000000
10
320.000000
20
620.000000
10
-20.000000
20
620.000000
0
LWPOLYLINE
8
0
62
9
90
4
70
1
10
267.720020
20
517.319308
10
292.628233
20
484.737396
10
303.145454
20
492.378605
10
281.473309
20
527.311657
0
LWPOLYLINE
8
0
62
9
90
4
70
1
10
233.871564
20
476.391436
10
267.629046
20
453.101257
10
275.270254
20
463.618478
10
243.863913
20
490.144725
0
LWPOLYLINE
8
0
62
9
90
4
70
1
10
214.327177
20
427.006968
10
253.629511
20
415.288328
10
257.646732
20
427.652062
10
219.580466
20
443.174929
0
LWPOLYLINE
8
0
62
9
90
4
70
1
10
211.000000
20
374.000000
10
252.000000
20
375.000000
10
252.000000
20
388.000000
10
211.000000
20
391.000000
0
LWPOLYLINE
8
0
62
9
90
4
70
1
10
224.215721
20
322.559224
10
262.900021
20
336.179977
10
258.882800
20
348.543712
10
218.962432
20
338.727184
0
LWPOLYLINE
8
0
62
9
90
4
70
1
10
318.055332
20
516.546049
10
299.989667
20
508.522764
10
275.042380
20
549.514297
10
302.973437
20
560.312363
0
LWPOLYLINE
8
0
62
9
90
4
70
1
10
281.982240
20
491.210490
10
267.280103
20
477.997295
10
230.886743
20
509.273423
10
254.113971
20
528.174166
0
LWPOLYLINE
8
0
62
9
90
4
70
1
10
255.503810
20
455.967742
10
245.604348
20
438.858037
10
201.327350
20
457.357236
10
217.577106
20
482.510519
0
LWPOLYLINE
8
0
62
9
90
4
70
1
10
241.211933
20
414.267613
10
237.084176
20
394.936214
10
189.257682
20
398.847653
10
196.939326
20
427.791297
0
LWPOLYLINE
8
0
62
9
90
4
70
1
10
240.505600
20
370.192000
10
242.553600
20
350.531200
10
195.859200
20
339.472000
10
194.220800
20
369.372800
0
LWPOLYLINE
8
0
62
9
90
4
70
1
10
253.453951
20
328.055332
10
261.477236
20
309.989667
10
220.485703
20
285.042380
10
209.687637
20
312.973437
0
LWPOLYLINE
8
0
62
9
90
4
70
1
10
279.189803
20
532.773362
10
266.548378
20
522.636409
10
251.873198
20
534.664632
10
269.764378
20
553.828875
0
LWPOLYLINE
8
0
62
9
90
4
70
1
10
240.004410
20
494.633472
10
231.114191
20
481.086242
10
213.440341
20
487.990882
10
224.533787
20
511.745839
0
LWPOLYLINE
8
0
62
9
90
4
70
1
10
214.522761
20
446.251329
10
210.253985
20
430.619918
10
191.311503
20
431.725101
10
194.521312
20
457.745471
0
LWPOLYLINE
8
0
62
9
90
4
70
1
10
205.239177
20
392.362913
10
206.009701
20
376.177435
10
187.652810
20
371.374977
10
182.664783
20
397.113705
0
LWPOLYLINE
8
0
62
9
90
4
70
1
10
213.062400
20
338.243200
10
218.796800
20
323.088000
10
202.822400
20
312.848000
10
190.124800
20
335.785600
0
ENDSEC
0
EOF
