0
SECTION
2
HEADER
9
$ACADVER
1
AC1015
0
ENDSEC
0
SECTION
2
TABLES
0
TABLE
2
LAYER
70
1
0
LAYER
2
0
70
0
6
CONTINUOUS
62
7
0
ENDTAB
0
ENDSEC
0
SECTION
2
ENTITIES
0
TEXT
8
0
10
0.0
20
0.0
30
0.0
40
10.0
1
Grid Box A2
0
LWPOLYLINE
8
0
62
8
90
4
70
1
10
280.000000
20
-20.000000
10
620.000000
20
-20.000000
10
620.000000
20
320.000000
10
280.000000
20
320.000000
0
LWPOLYLINE
8
0
62
3
90
4
70
1
10
396.000000
20
221.000000
10
395.000000
20
262.000000
10
382.000000
20
262.000000
10
379.000000
20
221.000000
0
LWPOLYLINE
8
0
62
3
90
4
70
1
10
447.440776
20
234.215721
10
433.820023
20
272.900021
10
421.456288
20
268.882800
10
431.272816
20
228.962432
0
LWPOLYLINE
8
0
62
3
90
4
70
1
10
492.279980
20
262.680692
10
467.371767
20
295.262604
10
456.854546
20
287.621395
10
478.526691
20
252.688343
0
LWPOLYLINE
8
0
62
3
90
4
70
1
10
342.993032
20
224.327177
10
354.711672
20
263.629511
10
342.347938
20
267.646732
10
326.825071
20
229.580466
0
LWPOLYLINE
8
0
62
3
90
4
70
1
10
399.808000
20
250.505600
10
419.468800
20
252.553600
10
430.528000
20
205.859200
10
400.627200
20
204.220800
0
LWPOLYLINE
8
0
62
3
90
4
70
1
10
441.944668
20
263.453951
10
460.010333
20
271.477236
10
484.957620
20
230.485703
10
457.026563
20
219.687637
0
LWPOLYLINE
8
0
62
3
90
4
70
1
10
478.017760
20
288.789510
10
492.719897
20
302.002705
10
529.113257
20
270.726577
10
505.886029
20
251.825834
0
LWPOLYLINE
8
0
62
3
90
4
70
1
10
314.032258
20
265.503810
10
331.141963
20
255.604348
10
312.642764
20
211.327350
10
287.489481
20
227.577106
0
LWPOLYLINE
8
0
62
3
90
4
70
1
10
355.732387
20
251.211933
10
375.063786
20
247.084176
10
371.152347
20
199.257682
10
342.208703
20
206.939326
0
LWPOLYLINE
8
0
62
3
90
4
70
1
10
431.756800
20
223.062400
10
446.912000
20
228.796800
10
457.152000
20
212.822400
10
434.214400
20
200.124800
0
LWPOLYLINE
8
0
62
3
90
4
70
1
10
480.810197
20
247.226638
10
493.451622
20
257.363591
10
508.126802
20
245.335368
10
490.235622
20
226.171125
0
LWPOLYLINE
8
0
62
3
90
4
70
1
10
519.995590
20
285.366528
10
528.885809
20
298.913758
10
546.559659
20
292.009118
10
535.466213
20
268.254161
0
LWPOLYLINE
8
0
62
3
90
4
70
1
10
323.748671
20
224.522761
10
339.380082
20
220.253985
10
338.274899
20
201.311503
10
312.254529
20
204.521312
0
LWPOLYLINE
8
0
62
3
90
4
70
1
10
377.637087
20
215.239177
10
393.822565
20
216.009701
10
398.625023
20
197.652810
10
372.886295
20
192.664783
0
ENDSEC
0
EOF
