0
SECTION
2
HEADER
9
$ACADVER
1
AC1015
0
ENDSEC
0
SECTION
2
TABLES
0
TABLE
2
LAYER
70
1
0
LAYER
2
0
70
0
6
CONTINUOUS
62
7
0
ENDTAB
0
ENDSEC
0
SECTION
2
ENTITIES
0
TEXT
8
0
10
0.0
20
0.0
30
0.0
40
10.0
1
Grid Box B2 - #ec4204
0
LWPOLYLINE
8
0
62
8
90
4
70
1
10
280.000000
20
280.000000
10
620.000000
20
280.000000
10
620.000000
20
620.000000
10
280.000000
20
620.000000
0
LWPOLYLINE
8
0
62
1
90
4
70
1
10
466.391436
20
536.128436
10
443.101257
20
502.370954
10
453.618478
20
494.729746
10
480.144725
20
526.136087
0
LWPOLYLINE
8
0
62
1
90
4
70
1
10
417.006968
20
555.672823
10
405.288328
20
516.370489
10
417.652062
20
512.353268
10
433.174929
20
550.419534
0
LWPOLYLINE
8
0
62
1
90
4
70
1
10
481.210490
20
488.017760
10
467.997295
20
502.719897
10
499.273423
20
539.113257
10
518.174166
20
515.886029
0
LWPOLYLINE
8
0
62
1
90
4
70
1
10
445.967742
20
514.496190
10
428.858037
20
524.395652
10
447.357236
20
568.672650
10
472.510519
20
552.422894
0
LWPOLYLINE
8
0
62
1
90
4
70
1
10
404.267613
20
528.788067
10
384.936214
20
532.915824
10
388.847653
20
580.742318
10
417.791297
20
573.060674
0
LWPOLYLINE
8
0
62
1
90
4
70
1
10
484.633472
20
529.995590
10
471.086242
20
538.885809
10
477.990882
20
556.559659
10
501.745839
20
545.466213
0
LWPOLYLINE
8
0
62
1
90
4
70
1
10
436.251329
20
555.477239
10
420.619918
20
559.746015
10
421.725101
20
578.688497
10
447.745471
20
575.478688
0
ENDSEC
0
EOF
