0
SECTION
2
HEADER
9
$ACADVER
1
AC1015
0
ENDSEC
0
SECTION
2
TABLES
0
TABLE
2
LAYER
70
1
0
LAYER
2
0
70
0
6
CONTINUOUS
62
7
0
ENDTAB
0
ENDSEC
0
SECTION
2
ENTITIES
0
TEXT
8
0
10
0.0
20
0.0
30
0.0
40
10.0
1
Grid Box B2 - #d9505b
0
LWPOLYLINE
8
0
62
8
90
4
70
1
10
280.000000
20
280.000000
10
620.000000
20
280.000000
10
620.000000
20
620.000000
10
280.000000
20
620.000000
0
LWPOLYLINE
8
0
62
1
90
4
70
1
10
549.000000
20
406.000000
10
508.000000
20
405.000000
10
508.000000
20
392.000000
10
549.000000
20
389.000000
0
LWPOLYLINE
8
0
62
1
90
4
70
1
10
535.784279
20
457.440776
10
497.099979
20
443.820023
10
501.117200
20
431.456288
10
541.037568
20
441.272816
0
LWPOLYLINE
8
0
62
1
90
4
70
1
10
507.319308
20
502.279980
10
474.737396
20
477.371767
10
482.378605
20
466.854546
10
517.311657
20
488.526691
0
LWPOLYLINE
8
0
62
1
90
4
70
1
10
519.494400
20
409.808000
10
517.446400
20
429.468800
10
564.140800
20
440.528000
10
565.779200
20
410.627200
0
LWPOLYLINE
8
0
62
1
90
4
70
1
10
506.546049
20
451.944668
10
498.522764
20
470.010333
10
539.514297
20
494.957620
10
550.312363
20
467.026563
0
LWPOLYLINE
8
0
62
1
90
4
70
1
10
546.937600
20
441.756800
10
541.203200
20
456.912000
10
557.177600
20
467.152000
10
569.875200
20
444.214400
0
LWPOLYLINE
8
0
62
1
90
4
70
1
10
522.773362
20
490.810197
10
512.636409
20
503.451622
10
524.664632
20
518.126802
10
543.828875
20
500.235622
0
ENDSEC
0
EOF
