0
SECTION
2
HEADER
9
$ACADVER
1
AC1015
0
ENDSEC
0
SECTION
2
TABLES
0
TABLE
2
LAYER
70
1
0
LAYER
2
0
70
0
6
CONTINUOUS
62
7
0
ENDTAB
0
ENDSEC
0
SECTION
2
ENTITIES
0
TEXT
8
0
10
0.0
20
0.0
30
0.0
40
10.0
1
Grid Box B2
0
LWPOLYLINE
8
0
62
8
90
4
70
1
10
280.000000
20
280.000000
10
620.000000
20
280.000000
10
620.000000
20
620.000000
10
280.000000
20
620.000000
0
LWPOLYLINE
8
0
62
9
90
4
70
1
10
526.128436
20
303.608564
10
492.370954
20
326.898743
10
484.729746
20
316.381522
10
516.136087
20
289.855275
0
LWPOLYLINE
8
0
62
9
90
4
70
1
10
545.672823
20
352.993032
10
506.370489
20
364.711672
10
502.353268
20
352.347938
10
540.419534
20
336.825071
0
LWPOLYLINE
8
0
62
9
90
4
70
1
10
549.000000
20
406.000000
10
508.000000
20
405.000000
10
508.000000
20
392.000000
10
549.000000
20
389.000000
0
LWPOLYLINE
8
0
62
9
90
4
70
1
10
535.784279
20
457.440776
10
497.099979
20
443.820023
10
501.117200
20
431.456288
10
541.037568
20
441.272816
0
LWPOLYLINE
8
0
62
9
90
4
70
1
10
507.319308
20
502.279980
10
474.737396
20
477.371767
10
482.378605
20
466.854546
10
517.311657
20
488.526691
0
LWPOLYLINE
8
0
62
9
90
4
70
1
10
466.391436
20
536.128436
10
443.101257
20
502.370954
10
453.618478
20
494.729746
10
480.144725
20
526.136087
0
LWPOLYLINE
8
0
62
9
90
4
70
1
10
417.006968
20
555.672823
10
405.288328
20
516.370489
10
417.652062
20
512.353268
10
433.174929
20
550.419534
0
LWPOLYLINE
8
0
62
9
90
4
70
1
10
364.000000
20
559.000000
10
365.000000
20
518.000000
10
378.000000
20
518.000000
10
381.000000
20
559.000000
0
LWPOLYLINE
8
0
62
9
90
4
70
1
10
312.559224
20
545.784279
10
326.179977
20
507.099979
10
338.543712
20
511.117200
10
328.727184
20
551.037568
0
LWPOLYLINE
8
0
62
9
90
4
70
1
10
504.496190
20
324.032258
10
514.395652
20
341.141963
10
558.672650
20
322.642764
10
542.422894
20
297.489481
0
LWPOLYLINE
8
0
62
9
90
4
70
1
10
518.788067
20
365.732387
10
522.915824
20
385.063786
10
570.742318
20
381.152347
10
563.060674
20
352.208703
0
LWPOLYLINE
8
0
62
9
90
4
70
1
10
519.494400
20
409.808000
10
517.446400
20
429.468800
10
564.140800
20
440.528000
10
565.779200
20
410.627200
0
LWPOLYLINE
8
0
62
9
90
4
70
1
10
506.546049
20
451.944668
10
498.522764
20
470.010333
10
539.514297
20
494.957620
10
550.312363
20
467.026563
0
LWPOLYLINE
8
0
62
9
90
4
70
1
10
481.210490
20
488.017760
10
467.997295
20
502.719897
10
499.273423
20
539.113257
10
518.174166
20
515.886029
0
LWPOLYLINE
8
0
62
9
90
4
70
1
10
445.967742
20
514.496190
10
428.858037
20
524.395652
10
447.357236
20
568.672650
10
472.510519
20
552.422894
0
LWPOLYLINE
8
0
62
9
90
4
70
1
10
404.267613
20
528.788067
10
384.936214
20
532.915824
10
388.847653
20
580.742318
10
417.791297
20
573.060674
0
LWPOLYLINE
8
0
62
9
90
4
70
1
10
360.192000
20
529.494400
10
340.531200
20
527.446400
10
329.472000
20
574.140800
10
359.372800
20
575.779200
0
LWPOLYLINE
8
0
62
9
90
4
70
1
10
545.477239
20
333.748671
10
549.746015
20
349.380082
10
568.688497
20
348.274899
10
565.478688
20
322.254529
0
LWPOLYLINE
8
0
62
9
90
4
70
1
10
554.760823
20
387.637087
10
553.990299
20
403.822565
10
572.347190
20
408.625023
10
577.335217
20
382.886295
0
LWPOLYLINE
8
0
62
9
90
4
70
1
10
546.937600
20
441.756800
10
541.203200
20
456.912000
10
557.177600
20
467.152000
10
569.875200
20
444.214400
0
LWPOLYLINE
8
0
62
9
90
4
70
1
10
522.773362
20
490.810197
10
512.636409
20
503.451622
10
524.664632
20
518.126802
10
543.828875
20
500.235622
0
LWPOLYLINE
8
0
62
9
90
4
70
1
10
484.633472
20
529.995590
10
471.086242
20
538.885809
10
477.990882
20
556.559659
10
501.745839
20
545.466213
0
LWPOLYLINE
8
0
62
9
90
4
70
1
10
436.251329
20
555.477239
10
420.619918
20
559.746015
10
421.725101
20
578.688497
10
447.745471
20
575.478688
0
LWPOLYLINE
8
0
62
9
90
4
70
1
10
382.362913
20
564.760823
10
366.177435
20
563.990299
10
361.374977
20
582.347190
10
387.113705
20
587.335217
0
LWPOLYLINE
8
0
62
9
90
4
70
1
10
328.243200
20
556.937600
10
313.088000
20
551.203200
10
302.848000
20
567.177600
10
325.785600
20
579.875200
0
ENDSEC
0
EOF
